<?xml version="1.0" encoding="UTF-8"?>
<svg id="alembic" data-name="alembic" fill="currentColor" xmlns="http://www.w3.org/2000/svg" viewBox="0 0 63.5 38.91">
  <g id="Default">
    <path d="M61.98,17.63L25.23,1.56s0,0,0,0l-.08-.04-.16-.07s0,0,0,0h0s0,0,0,0C15.9-2.44,5.34,1.78,1.45,10.87c-2.27,5.29-1.85,11.38,1.12,16.31l-.29,2.9s0,.02,0,.03c0,.01,0,.02-.01.04l-.6,6s0,0,0,0c0,.02,0,.04,0,.06,0,0,0,0,0,0,0,0,0,0,0,0,0,.01,0,.03,0,.03,0,.03.01.06.01.09,0,0,0,.01,0,.02.09.59.9,1.04,2.62,1.45,0,0,0,0,0,0,0,0,0,0,0,0,0,0,0,0,0,0,.03,0,.05,0,.08,0,.08,0,.16-.03.22-.08.02-.01.02-.04.04-.05.04-.04.08-.08.09-.14l1.38-5.54c.29.05.59.1.9.15,2.18,1.67,4.74,2.82,7.43,3.36l.78,3.1s0,0,0,.01c.02.07.06.12.11.17,0,0,.02.01.03.02.05.04.12.07.19.07.79.02,1.57.02,2.35.02s1.57,0,2.37-.03c.07,0,.13-.03.19-.07.01,0,.02-.01.03-.02.05-.04.09-.1.11-.17,0,0,0,0,0-.01l.77-3.1c2.7-.53,5.27-1.69,7.45-3.37.31-.05.6-.1.89-.15l1.39,5.54c.02.06.06.11.1.15.01.01.02.03.03.05.06.05.14.08.22.08.03,0,.05,0,.08,0,0,0,0,0,0,0,0,0,0,0,0,0,0,0,0,0,0,0,1.82-.43,2.63-.91,2.63-1.55,0-.02,0-.06,0-.1,0,0,0,0,0,0l-.63-5.99s0-.02-.01-.04c0-.01,0-.03,0-.04l-.3-2.8c1.51-2.47,2.37-5.17,2.57-8.05l25.78,3.63s.03,0,.05,0c0,0,0,0,.01,0,.04,0,.08.02.12.02,1.02,0,1.73-1.08,1.73-2.63,0-1.44-.62-2.46-1.52-2.6ZM8.55,32.36c.54.06,1.1.12,1.68.17,1.21.64,2.5,1.12,3.84,1.44l.19.77c-2.03-.44-3.97-1.26-5.71-2.38ZM13.77,32.76l.11.43c-.54-.14-1.07-.31-1.59-.51.48.03.98.05,1.48.08ZM22.08,32.76c.51-.02,1.01-.05,1.49-.08-.52.2-1.06.37-1.6.51l.11-.44ZM21.58,34.75l.19-.77c1.34-.32,2.63-.81,3.85-1.45.59-.05,1.15-.11,1.69-.17-1.74,1.13-3.69,1.95-5.73,2.39ZM31.72,37.02l-1.38-5.52s-.02-.03-.03-.05c-.01-.02-.02-.05-.03-.07-.01-.01-.02-.02-.04-.04-.02-.02-.04-.04-.07-.06,0,0-.02,0-.03-.01-.03-.02-.06-.03-.1-.03-.02,0-.03,0-.05,0-.03,0-.05,0-.08,0-1.23.24-2.73.44-4.43.58,0,0,0,0,0,0-1.15.1-2.39.18-3.71.23,0,0-.02,0-.02,0-.02,0-.04,0-.05.01-.03,0-.05.01-.08.03-.02,0-.03.02-.05.03-.02.02-.04.03-.06.05-.01.02-.02.04-.03.05-.01.02-.02.04-.03.07,0,0,0,.01,0,.02l-1.46,5.84c-1.39.03-2.76.03-4.15,0l-1.46-5.84s0-.01,0-.02c0-.03-.02-.05-.03-.07-.01-.02-.02-.04-.03-.05-.02-.02-.04-.04-.06-.06-.01,0-.02-.02-.04-.03-.03-.01-.05-.02-.08-.03-.02,0-.03,0-.05-.01,0,0-.02,0-.03,0-3.26-.13-6.07-.41-8.14-.81-.03,0-.05,0-.08,0-.02,0-.03,0-.05,0-.04,0-.07.02-.1.04,0,0-.02,0-.03.01-.03.02-.05.04-.07.06-.01.01-.03.02-.03.04-.01.02-.02.04-.03.07,0,.02-.02.03-.03.05l-1.38,5.51c-1.6-.42-1.75-.76-1.76-.78v-.03s0,0,0,0l.6-6v-.07s.22-2.16.22-2.16c2.58,1.69,12.47,1.82,14.69,1.82h.26c2.64,0,11.96-.12,14.45-1.74l.22,2.07v.07s.64,5.99.64,5.99v.04s-.16.36-1.74.77ZM32.97,22.71c-.6.7-5.13,1.8-15.05,1.8s-14.44-1.1-15.05-1.8c-.02-.06-.05-.12-.07-.18.12-.69,4.57-1.92,15.11-1.92s15,1.24,15.11,1.92c-.02.06-.05.12-.07.18ZM17.92,25.21c2.17,0,11.44-.09,14.69-1.52-.65,1.67-1.56,3.2-2.75,4.57-2.25.45-6.02.84-11.6.84-.13,0-.26,0-.39,0-5.79-.02-9.68-.43-11.98-.91-1.15-1.35-2.04-2.86-2.68-4.5,3.25,1.43,12.53,1.52,14.7,1.52ZM32.56,27.01s0,.02,0,.02c0,.01-.01.03-.02.04,0,.01,0,.03-.01.04,0,.02,0,.03,0,.05,0,0,0,.02,0,.03,0,.23-.5.52-1.53.81,1.18-1.53,2.08-3.22,2.67-5.07.05-.09.08-.18.1-.27,0,0,0,0,0,0,0,0,0-.01,0-.02,0-.03.01-.05.01-.08,0,0,0-.01,0-.02,0-.02,0-.03,0-.04-.23-2.47-13.2-2.6-15.82-2.6s-15.59.13-15.82,2.6c0,.01,0,.03,0,.04,0,0,0,.01,0,.02,0,.03.01.05.01.08,0,0,0,.01,0,.02,0,0,0,0,0,0,.01.09.05.18.1.27.58,1.81,1.46,3.48,2.6,4.99-1.03-.29-1.53-.59-1.52-.82,0,0,0-.02,0-.03,0-.02,0-.03,0-.05,0-.01,0-.03-.01-.04,0-.01-.01-.03-.02-.04,0,0,0-.02,0-.02C.33,22.16-.1,16.27,2.1,11.15,5.84,2.42,15.98-1.64,24.71,2.1l.16.07.08.04s0,0,0,0l35.95,15.73c-.53.43-.86,1.25-.86,2.3,0,.7.15,1.29.4,1.74l-24.92-3.51s-.01,0-.02,0c0,0,0,0-.01,0-.03,0-.06,0-.09,0,0,0-.01,0-.02,0-.08.02-.14.07-.19.14,0,.01-.02.02-.03.04-.01.02-.02.05-.02.07,0,.02-.02.03-.02.05,0,0,0,.01,0,.02,0,0,0,.01,0,.02-.15,2.94-1.01,5.7-2.56,8.2ZM61.77,22.16c-.59,0-1.02-.81-1.02-1.92s.43-1.92,1.02-1.92,1.02.81,1.02,1.92-.43,1.92-1.02,1.92Z"/>
  </g>
</svg>