<?xml version="1.0" encoding="UTF-8"?>
<svg id="hallway-illustration" data-name="hallway-illustration" xmlns="http://www.w3.org/2000/svg" viewBox="0 0 530.18 349.22">
  <defs>
    <style>
      .cls-1 {
        fill: none;
        stroke: currentColor;
        stroke-linecap: round;
        stroke-miterlimit: 10;
        stroke-width: 2;
      }
    </style>
  </defs>
  <g id="Make2D::Visible::Curves">
    <line class="cls-1" x1="274.35" y1="206.94" x2="274.48" y2="206.83"/>
    <line class="cls-1" x1="273.86" y1="223.35" x2="273.86" y2="207.37"/>
    <line class="cls-1" x1="273.32" y1="207.84" x2="273.32" y2="222.84"/>
    <line class="cls-1" x1="273.22" y1="222.74" x2="273.22" y2="207.93"/>
    <line class="cls-1" x1="273.12" y1="208.01" x2="273.12" y2="222.65"/>
    <line class="cls-1" x1="273.03" y1="222.56" x2="273.03" y2="208.1"/>
    <line class="cls-1" x1="272.93" y1="208.18" x2="272.93" y2="222.47"/>
    <line class="cls-1" x1="272.84" y1="222.38" x2="272.84" y2="208.26"/>
    <line class="cls-1" x1="274.22" y1="207.05" x2="274.22" y2="223.7"/>
    <line class="cls-1" x1="274.1" y1="223.58" x2="274.1" y2="207.16"/>
    <line class="cls-1" x1="272.42" y1="208.63" x2="272.42" y2="221.98"/>
    <line class="cls-1" x1="272.34" y1="221.9" x2="272.34" y2="208.7"/>
    <line class="cls-1" x1="272.11" y1="208.9" x2="272.11" y2="221.68"/>
    <line class="cls-1" x1="272.04" y1="221.61" x2="272.04" y2="208.96"/>
    <line class="cls-1" x1="271.97" y1="209.02" x2="271.97" y2="221.54"/>
    <line class="cls-1" x1="271.9" y1="221.48" x2="271.9" y2="209.08"/>
    <line class="cls-1" x1="270.89" y1="209.96" x2="270.89" y2="220.52"/>
    <line class="cls-1" x1="270.84" y1="220.47" x2="270.84" y2="210"/>
    <line class="cls-1" x1="270.79" y1="210.05" x2="270.79" y2="220.43"/>
    <line class="cls-1" x1="270.75" y1="220.38" x2="270.75" y2="210.09"/>
    <line class="cls-1" x1="309.68" y1="176.06" x2="309.68" y2="257.59"/>
    <line class="cls-1" x1="306.87" y1="254.91" x2="306.87" y2="178.51"/>
    <line class="cls-1" x1="361.5" y1="130.76" x2="361.5" y2="307.1"/>
    <line class="cls-1" x1="349.27" y1="295.42" x2="349.27" y2="141.45"/>
    <line class="cls-1" x1="271.44" y1="209.48" x2="271.44" y2="221.05"/>
    <line class="cls-1" x1="271.38" y1="220.99" x2="271.38" y2="209.53"/>
    <line class="cls-1" x1="271.1" y1="209.78" x2="271.1" y2="220.72"/>
    <line class="cls-1" x1="271.05" y1="220.67" x2="271.05" y2="209.82"/>
    <line class="cls-1" x1="272.58" y1="208.48" x2="272.58" y2="222.13"/>
    <line class="cls-1" x1="272.5" y1="222.05" x2="272.5" y2="208.56"/>
    <line class="cls-1" x1="271" y1="209.87" x2="271" y2="220.62"/>
    <line class="cls-1" x1="270.94" y1="220.57" x2="270.94" y2="209.92"/>
    <line class="cls-1" x1="339.79" y1="149.74" x2="339.79" y2="286.36"/>
    <line class="cls-1" x1="332.23" y1="279.14" x2="332.23" y2="156.34"/>
    <line class="cls-1" x1="401" y1="96.23" x2="401" y2="344.85"/>
    <line class="cls-1" x1="377.89" y1="322.77" x2="377.89" y2="116.44"/>
    <line class="cls-1" x1="278.69" y1="203.15" x2="278.69" y2="227.97"/>
    <line class="cls-1" x1="278.41" y1="227.71" x2="278.41" y2="203.39"/>
    <line class="cls-1" x1="276.78" y1="204.82" x2="276.78" y2="226.14"/>
    <line class="cls-1" x1="276.58" y1="225.95" x2="276.58" y2="204.99"/>
    <line class="cls-1" x1="300.24" y1="184.31" x2="300.24" y2="248.56"/>
    <line class="cls-1" x1="298.47" y1="246.88" x2="298.47" y2="185.85"/>
    <line class="cls-1" x1="304.4" y1="180.67" x2="304.4" y2="252.54"/>
    <line class="cls-1" x1="302.2" y1="250.44" x2="302.2" y2="182.59"/>
    <line class="cls-1" x1="286.59" y1="196.24" x2="286.59" y2="235.52"/>
    <line class="cls-1" x1="285.92" y1="234.88" x2="285.92" y2="196.83"/>
    <line class="cls-1" x1="288.08" y1="194.94" x2="288.08" y2="236.94"/>
    <line class="cls-1" x1="287.31" y1="236.21" x2="287.31" y2="195.61"/>
    <line class="cls-1" x1="260.28" y1="220.57" x2="260.28" y2="209.91"/>
    <line class="cls-1" x1="260.37" y1="220.48" x2="260.37" y2="210"/>
    <line class="cls-1" x1="259.82" y1="221.11" x2="259.82" y2="209.42"/>
    <line class="cls-1" x1="258.78" y1="208.32" x2="258.78" y2="222.31"/>
    <line class="cls-1" x1="270.19" y1="210.58" x2="270.19" y2="219.85"/>
    <line class="cls-1" x1="270.15" y1="219.81" x2="270.15" y2="210.61"/>
    <line class="cls-1" x1="255.59" y1="225.98" x2="255.59" y2="204.97"/>
    <line class="cls-1" x1="270.43" y1="210.36" x2="270.43" y2="220.08"/>
    <line class="cls-1" x1="270.39" y1="220.04" x2="270.39" y2="210.4"/>
    <line class="cls-1" x1="270.7" y1="210.13" x2="270.7" y2="220.33"/>
    <line class="cls-1" x1="270.65" y1="220.29" x2="270.65" y2="210.17"/>
    <line class="cls-1" x1="270.61" y1="210.21" x2="270.61" y2="220.25"/>
    <line class="cls-1" x1="270.56" y1="220.2" x2="270.56" y2="210.25"/>
    <line class="cls-1" x1="270.27" y1="210.51" x2="270.27" y2="219.92"/>
    <line class="cls-1" x1="270.23" y1="219.88" x2="270.23" y2="210.54"/>
    <line class="cls-1" x1="270.35" y1="210.44" x2="270.35" y2="220"/>
    <line class="cls-1" x1="270.31" y1="219.96" x2="270.31" y2="210.47"/>
    <line class="cls-1" x1="270.52" y1="210.29" x2="270.52" y2="220.16"/>
    <line class="cls-1" x1="270.47" y1="220.12" x2="270.47" y2="210.33"/>
    <line class="cls-1" x1="248.81" y1="233.78" x2="248.81" y2="197.83"/>
    <line class="cls-1" x1="245.98" y1="194.84" x2="245.98" y2="237.05"/>
    <line class="cls-1" x1="246.62" y1="236.31" x2="246.62" y2="195.52"/>
    <line class="cls-1" x1="238.59" y1="187.07" x2="238.59" y2="245.55"/>
    <line class="cls-1" x1="239.81" y1="244.14" x2="239.81" y2="188.35"/>
    <line class="cls-1" x1="251.94" y1="230.18" x2="251.94" y2="201.12"/>
    <line class="cls-1" x1="250.92" y1="200.05" x2="250.92" y2="231.36"/>
    <line class="cls-1" x1="251.28" y1="230.95" x2="251.28" y2="200.42"/>
    <line class="cls-1" x1="202.18" y1="148.72" x2="202.18" y2="287.47"/>
    <line class="cls-1" x1="149.11" y1="92.83" x2="149.11" y2="348.58"/>
    <line class="cls-1" x1="235.76" y1="184.08" x2="235.76" y2="248.81"/>
    <line class="cls-1" x1="237.25" y1="247.1" x2="237.25" y2="185.65"/>
    <line class="cls-1" x1="148.96" y1="348.72" x2="235.76" y2="248.77"/>
    <line class="cls-1" x1="270.7" y1="220.33" x2="270.94" y2="220.56"/>
    <line class="cls-1" x1="270.61" y1="220.24" x2="270.7" y2="220.33"/>
    <line class="cls-1" x1="270.35" y1="220" x2="270.56" y2="220.2"/>
    <line class="cls-1" x1="279.89" y1="202.09" x2="279.89" y2="229.12"/>
    <line class="cls-1" x1="279.57" y1="228.81" x2="279.57" y2="202.37"/>
    <line class="cls-1" x1="282.17" y1="200.1" x2="282.17" y2="231.3"/>
    <line class="cls-1" x1="281.75" y1="230.89" x2="281.75" y2="200.47"/>
    <line class="cls-1" x1="294.1" y1="189.67" x2="294.1" y2="242.7"/>
    <line class="cls-1" x1="292.89" y1="241.54" x2="292.89" y2="190.74"/>
    <line class="cls-1" x1="281.34" y1="200.83" x2="281.34" y2="230.5"/>
    <line class="cls-1" x1="280.95" y1="230.13" x2="280.95" y2="201.17"/>
    <line class="cls-1" x1="283.1" y1="199.29" x2="283.1" y2="232.18"/>
    <line class="cls-1" x1="282.62" y1="231.73" x2="282.62" y2="199.7"/>
    <line class="cls-1" x1="285.29" y1="197.38" x2="285.29" y2="234.27"/>
    <line class="cls-1" x1="284.69" y1="233.71" x2="284.69" y2="197.9"/>
    <line class="cls-1" x1="280.58" y1="201.49" x2="280.58" y2="229.78"/>
    <line class="cls-1" x1="280.23" y1="229.44" x2="280.23" y2="201.8"/>
    <line class="cls-1" x1="279.26" y1="202.64" x2="279.26" y2="228.52"/>
    <line class="cls-1" x1="278.97" y1="228.24" x2="278.97" y2="202.9"/>
    <line class="cls-1" x1="276.01" y1="205.48" x2="276.01" y2="225.41"/>
    <line class="cls-1" x1="275.84" y1="225.24" x2="275.84" y2="205.64"/>
    <line class="cls-1" x1="284.13" y1="198.39" x2="284.13" y2="233.17"/>
    <line class="cls-1" x1="283.6" y1="232.66" x2="283.6" y2="198.85"/>
    <line class="cls-1" x1="275.04" y1="206.34" x2="275.04" y2="224.48"/>
    <line class="cls-1" x1="274.89" y1="224.34" x2="274.89" y2="206.47"/>
    <line class="cls-1" x1="274.75" y1="206.59" x2="274.75" y2="224.2"/>
    <line class="cls-1" x1="274.61" y1="224.07" x2="274.61" y2="206.71"/>
    <line class="cls-1" x1="183.52" y1="308.96" x2="148.98" y2="348.72"/>
    <line class="cls-1" x1="213.9" y1="273.98" x2="208.64" y2="280.03"/>
    <line class="cls-1" x1="255.91" y1="225.61" x2="255.59" y2="225.98"/>
    <line class="cls-1" x1="256.21" y1="225.27" x2="255.91" y2="225.61"/>
    <line class="cls-1" x1="259.76" y1="221.17" x2="257.66" y2="223.6"/>
    <line class="cls-1" x1="244.54" y1="193.33" x2="244.54" y2="238.7"/>
    <line class="cls-1" x1="245.29" y1="237.84" x2="245.29" y2="194.12"/>
    <line class="cls-1" x1="242.88" y1="191.58" x2="242.88" y2="240.61"/>
    <line class="cls-1" x1="243.75" y1="239.62" x2="243.75" y2="192.49"/>
    <line class="cls-1" x1="250.54" y1="231.79" x2="250.54" y2="199.65"/>
    <line class="cls-1" x1="183.52" y1="129.06" x2="183.52" y2="308.96"/>
    <line class="cls-1" x1="194.06" y1="296.83" x2="194.06" y2="140.16"/>
    <line class="cls-1" x1="213.9" y1="161.06" x2="213.9" y2="273.98"/>
    <line class="cls-1" x1="218.26" y1="268.96" x2="218.26" y2="165.65"/>
    <line class="cls-1" x1="232.26" y1="180.39" x2="232.26" y2="252.85"/>
    <line class="cls-1" x1="234.11" y1="250.71" x2="234.11" y2="182.34"/>
    <line class="cls-1" x1="227.8" y1="175.7" x2="227.8" y2="257.98"/>
    <line class="cls-1" x1="230.17" y1="255.25" x2="230.17" y2="178.19"/>
    <line class="cls-1" x1="247.79" y1="234.96" x2="247.79" y2="196.75"/>
    <line class="cls-1" x1="240.93" y1="189.52" x2="240.93" y2="242.86"/>
    <line class="cls-1" x1="241.94" y1="241.69" x2="241.94" y2="190.6"/>
    <line class="cls-1" x1="221.94" y1="169.53" x2="221.94" y2="264.72"/>
    <line class="cls-1" x1="225.08" y1="261.11" x2="225.08" y2="172.84"/>
    <line class="cls-1" x1="289.79" y1="193.44" x2="289.79" y2="238.58"/>
    <line class="cls-1" x1="288.9" y1="237.73" x2="288.9" y2="194.22"/>
    <line class="cls-1" x1="276.38" y1="205.16" x2="276.38" y2="225.77"/>
    <line class="cls-1" x1="276.19" y1="225.59" x2="276.19" y2="205.33"/>
    <line class="cls-1" x1="277.66" y1="204.04" x2="277.66" y2="226.99"/>
    <line class="cls-1" x1="277.43" y1="226.76" x2="277.43" y2="204.25"/>
    <line class="cls-1" x1="291.77" y1="191.71" x2="291.77" y2="240.47"/>
    <line class="cls-1" x1="290.74" y1="239.49" x2="290.74" y2="192.61"/>
    <line class="cls-1" x1="296.88" y1="187.25" x2="296.88" y2="245.35"/>
    <line class="cls-1" x1="295.42" y1="243.96" x2="295.42" y2="188.52"/>
    <line class="cls-1" x1="271.83" y1="209.14" x2="271.83" y2="221.41"/>
    <line class="cls-1" x1="271.76" y1="221.35" x2="271.76" y2="209.2"/>
    <line class="cls-1" x1="271.57" y1="209.37" x2="271.57" y2="221.16"/>
    <line class="cls-1" x1="271.5" y1="221.1" x2="271.5" y2="209.43"/>
    <line class="cls-1" x1="271.32" y1="209.58" x2="271.32" y2="220.93"/>
    <line class="cls-1" x1="271.27" y1="220.88" x2="271.27" y2="209.63"/>
    <line class="cls-1" x1="271.21" y1="209.68" x2="271.21" y2="220.82"/>
    <line class="cls-1" x1="271.16" y1="220.77" x2="271.16" y2="209.73"/>
    <line class="cls-1" x1="272.26" y1="208.76" x2="272.26" y2="221.83"/>
    <line class="cls-1" x1="272.18" y1="221.75" x2="272.18" y2="208.83"/>
    <line class="cls-1" x1="271.69" y1="209.26" x2="271.69" y2="221.29"/>
    <line class="cls-1" x1="271.63" y1="221.22" x2="271.63" y2="209.32"/>
    <line class="cls-1" x1="316.6" y1="170.01" x2="316.6" y2="264.2"/>
    <line class="cls-1" x1="312.89" y1="260.65" x2="312.89" y2="173.25"/>
    <line class="cls-1" x1="326.06" y1="161.74" x2="326.06" y2="273.24"/>
    <line class="cls-1" x1="320.93" y1="268.34" x2="320.93" y2="166.22"/>
    <line class="cls-1" x1="260.11" y1="220.78" x2="260.11" y2="209.72"/>
    <line class="cls-1" x1="259.12" y1="221.91" x2="259.12" y2="208.69"/>
    <line class="cls-1" x1="259.37" y1="221.62" x2="259.37" y2="208.95"/>
    <line class="cls-1" x1="278.15" y1="203.61" x2="278.15" y2="227.46"/>
    <line class="cls-1" x1="277.9" y1="227.22" x2="277.9" y2="203.83"/>
    <line class="cls-1" x1="275.34" y1="206.07" x2="275.34" y2="224.77"/>
    <line class="cls-1" x1="275.19" y1="224.62" x2="275.19" y2="206.21"/>
    <line class="cls-1" x1="275.67" y1="205.79" x2="275.67" y2="225.08"/>
    <line class="cls-1" x1="275.5" y1="224.92" x2="275.5" y2="205.93"/>
    <line class="cls-1" x1="272.75" y1="208.33" x2="272.75" y2="222.3"/>
    <line class="cls-1" x1="272.67" y1="222.21" x2="272.67" y2="208.41"/>
    <line class="cls-1" x1="273.53" y1="207.66" x2="273.53" y2="223.04"/>
    <line class="cls-1" x1="273.42" y1="222.94" x2="273.42" y2="207.75"/>
    <line class="cls-1" x1="273.75" y1="207.47" x2="273.75" y2="223.25"/>
    <line class="cls-1" x1="273.63" y1="223.14" x2="273.63" y2="207.56"/>
    <line class="cls-1" x1="277.2" y1="204.44" x2="277.2" y2="226.55"/>
    <line class="cls-1" x1="276.99" y1="226.34" x2="276.99" y2="204.63"/>
    <line class="cls-1" x1="274.48" y1="206.83" x2="274.48" y2="223.94"/>
    <line class="cls-1" x1="274.35" y1="223.82" x2="274.35" y2="206.94"/>
    <line class="cls-1" x1="260.24" y1="209.86" x2="260.24" y2="220.62"/>
    <line class="cls-1" x1="260.33" y1="209.95" x2="260.33" y2="220.53"/>
    <line class="cls-1" x1="259.77" y1="209.36" x2="259.77" y2="221.17"/>
    <line class="cls-1" x1="259.87" y1="209.47" x2="259.87" y2="221.05"/>
    <line class="cls-1" x1="259.92" y1="221" x2="259.92" y2="209.52"/>
    <line class="cls-1" x1="258.92" y1="208.47" x2="258.92" y2="222.14"/>
    <line class="cls-1" x1="258.99" y1="222.06" x2="258.99" y2="208.55"/>
    <line class="cls-1" x1="259.19" y1="208.76" x2="259.19" y2="221.84"/>
    <line class="cls-1" x1="259.25" y1="221.76" x2="259.25" y2="208.82"/>
    <line class="cls-1" x1="258.63" y1="208.17" x2="258.63" y2="222.48"/>
    <line class="cls-1" x1="258.7" y1="222.39" x2="258.7" y2="208.25"/>
    <line class="cls-1" x1="258.13" y1="207.64" x2="258.13" y2="223.05"/>
    <line class="cls-1" x1="258.22" y1="222.95" x2="258.22" y2="207.74"/>
    <line class="cls-1" x1="254.69" y1="204.02" x2="254.69" y2="227.02"/>
    <line class="cls-1" x1="254.88" y1="226.79" x2="254.88" y2="204.22"/>
    <line class="cls-1" x1="253.83" y1="203.11" x2="253.83" y2="228"/>
    <line class="cls-1" x1="254.06" y1="227.74" x2="254.06" y2="203.35"/>
    <line class="cls-1" x1="254.28" y1="203.58" x2="254.28" y2="227.49"/>
    <line class="cls-1" x1="254.49" y1="227.25" x2="254.49" y2="203.8"/>
    <line class="cls-1" x1="253.35" y1="202.61" x2="253.35" y2="228.56"/>
    <line class="cls-1" x1="253.6" y1="228.28" x2="253.6" y2="202.87"/>
    <line class="cls-1" x1="258.31" y1="207.83" x2="258.31" y2="222.85"/>
    <line class="cls-1" x1="258.39" y1="222.76" x2="258.39" y2="207.91"/>
    <line class="cls-1" x1="257.95" y1="207.45" x2="257.95" y2="223.26"/>
    <line class="cls-1" x1="258.04" y1="223.15" x2="258.04" y2="207.55"/>
    <line class="cls-1" x1="257.12" y1="206.57" x2="257.12" y2="224.22"/>
    <line class="cls-1" x1="257.23" y1="224.09" x2="257.23" y2="206.69"/>
    <line class="cls-1" x1="256.35" y1="205.77" x2="256.35" y2="225.1"/>
    <line class="cls-1" x1="256.49" y1="224.94" x2="256.49" y2="205.91"/>
    <line class="cls-1" x1="258.85" y1="222.23" x2="258.85" y2="208.4"/>
    <line class="cls-1" x1="258.47" y1="208" x2="258.47" y2="222.66"/>
    <line class="cls-1" x1="258.55" y1="222.57" x2="258.55" y2="208.08"/>
    <line class="cls-1" x1="260.98" y1="210.64" x2="260.98" y2="219.78"/>
    <line class="cls-1" x1="261.01" y1="210.67" x2="260.98" y2="210.64"/>
    <line class="cls-1" x1="261.01" y1="219.74" x2="261.01" y2="210.67"/>
    <line class="cls-1" x1="256.62" y1="206.05" x2="256.62" y2="224.79"/>
    <line class="cls-1" x1="256.75" y1="224.64" x2="256.75" y2="206.19"/>
    <line class="cls-1" x1="256.88" y1="206.32" x2="256.88" y2="224.5"/>
    <line class="cls-1" x1="257" y1="224.36" x2="257" y2="206.45"/>
    <line class="cls-1" x1="255.42" y1="204.79" x2="255.42" y2="226.17"/>
    <line class="cls-1" x1="255.07" y1="204.42" x2="255.07" y2="226.58"/>
    <line class="cls-1" x1="255.25" y1="226.37" x2="255.25" y2="204.61"/>
    <line class="cls-1" x1="260.64" y1="210.28" x2="260.64" y2="220.17"/>
    <line class="cls-1" x1="260.67" y1="220.12" x2="260.67" y2="210.32"/>
    <line class="cls-1" x1="248.32" y1="197.31" x2="248.32" y2="234.35"/>
    <line class="cls-1" x1="252.82" y1="202.05" x2="252.82" y2="229.17"/>
    <line class="cls-1" x1="253.09" y1="228.86" x2="253.09" y2="202.34"/>
    <line class="cls-1" x1="251.62" y1="200.78" x2="251.62" y2="230.56"/>
    <line class="cls-1" x1="249.28" y1="198.32" x2="249.28" y2="233.24"/>
    <line class="cls-1" x1="249.73" y1="232.73" x2="249.73" y2="198.79"/>
    <line class="cls-1" x1="208.64" y1="280.03" x2="208.64" y2="155.52"/>
    <line class="cls-1" x1="169.31" y1="325.32" x2="169.31" y2="114.1"/>
    <line class="cls-1" x1="270.08" y1="219.71" x2="270.15" y2="219.78"/>
    <line class="cls-1" x1="270.08" y1="208.89" x2="270.08" y2="219.71"/>
    <line class="cls-1" x1="256.06" y1="205.46" x2="256.06" y2="225.44"/>
    <line class="cls-1" x1="256.21" y1="225.27" x2="256.21" y2="205.62"/>
    <line class="cls-1" x1="255.75" y1="205.14" x2="255.75" y2="225.79"/>
    <line class="cls-1" x1="255.91" y1="225.61" x2="255.91" y2="205.3"/>
    <line class="cls-1" x1="270.05" y1="219.71" x2="270.15" y2="219.81"/>
    <line class="cls-1" x1="257.76" y1="207.25" x2="257.76" y2="223.48"/>
    <line class="cls-1" x1="257.86" y1="223.37" x2="257.86" y2="207.35"/>
    <line class="cls-1" x1="221.94" y1="264.72" x2="218.26" y2="268.96"/>
    <line class="cls-1" x1="238.59" y1="245.55" x2="237.25" y2="247.1"/>
    <line class="cls-1" x1="242.88" y1="240.61" x2="241.94" y2="241.69"/>
    <line class="cls-1" x1="244.54" y1="238.7" x2="243.74" y2="239.62"/>
    <line class="cls-1" x1="245.98" y1="237.05" x2="245.29" y2="237.84"/>
    <line class="cls-1" x1="249.28" y1="233.24" x2="248.81" y2="233.78"/>
    <line class="cls-1" x1="251.62" y1="230.55" x2="251.27" y2="230.95"/>
    <line class="cls-1" x1="255.42" y1="226.17" x2="254.88" y2="226.79"/>
    <line class="cls-1" x1="257.56" y1="223.72" x2="256.75" y2="224.64"/>
    <line class="cls-1" x1="259.97" y1="220.94" x2="259.82" y2="221.11"/>
    <line class="cls-1" x1="260.24" y1="220.62" x2="260.01" y2="220.88"/>
    <line class="cls-1" x1="260.33" y1="220.53" x2="260.28" y2="220.57"/>
    <line class="cls-1" x1="260.41" y1="220.43" x2="260.37" y2="220.48"/>
    <line class="cls-1" x1="260.91" y1="219.85" x2="260.45" y2="220.39"/>
    <line class="cls-1" x1="252.25" y1="201.45" x2="252.25" y2="229.83"/>
    <line class="cls-1" x1="252.54" y1="229.49" x2="252.54" y2="201.76"/>
    <line class="cls-1" x1="250.14" y1="199.23" x2="250.14" y2="232.25"/>
    <line class="cls-1" x1="247.22" y1="196.15" x2="247.22" y2="235.61"/>
    <line class="cls-1" x1="270.05" y1="219.71" x2="261.03" y2="219.72"/>
    <line class="cls-1" x1="260.41" y1="210.04" x2="260.41" y2="220.43"/>
    <line class="cls-1" x1="260.45" y1="220.39" x2="260.45" y2="210.08"/>
    <line class="cls-1" x1="260.15" y1="209.77" x2="260.15" y2="220.73"/>
    <line class="cls-1" x1="260.2" y1="220.67" x2="260.2" y2="209.82"/>
    <line class="cls-1" x1="260.71" y1="210.36" x2="260.71" y2="220.08"/>
    <line class="cls-1" x1="260.75" y1="220.04" x2="260.75" y2="210.4"/>
    <line class="cls-1" x1="259.97" y1="209.58" x2="259.97" y2="220.94"/>
    <line class="cls-1" x1="260.01" y1="220.89" x2="260.01" y2="209.63"/>
    <line class="cls-1" x1="260.06" y1="209.67" x2="260.06" y2="220.83"/>
    <line class="cls-1" x1="260.49" y1="210.12" x2="260.49" y2="220.34"/>
    <line class="cls-1" x1="260.53" y1="220.3" x2="260.53" y2="210.16"/>
    <line class="cls-1" x1="260.91" y1="210.57" x2="260.91" y2="219.85"/>
    <line class="cls-1" x1="260.94" y1="219.81" x2="260.94" y2="210.61"/>
    <line class="cls-1" x1="260.78" y1="210.43" x2="260.78" y2="220"/>
    <line class="cls-1" x1="260.81" y1="219.96" x2="260.81" y2="210.47"/>
    <line class="cls-1" x1="259.43" y1="209.01" x2="259.43" y2="221.55"/>
    <line class="cls-1" x1="259.49" y1="221.49" x2="259.49" y2="209.08"/>
    <line class="cls-1" x1="259.66" y1="209.25" x2="259.66" y2="221.29"/>
    <line class="cls-1" x1="259.71" y1="221.23" x2="259.71" y2="209.31"/>
    <line class="cls-1" x1="259.55" y1="209.14" x2="259.55" y2="221.42"/>
    <line class="cls-1" x1="259.6" y1="221.36" x2="259.6" y2="209.19"/>
    <line class="cls-1" x1="259.06" y1="208.62" x2="259.06" y2="221.99"/>
    <line class="cls-1" x1="259.31" y1="208.89" x2="259.31" y2="221.69"/>
    <line class="cls-1" x1="257.56" y1="207.04" x2="257.56" y2="223.71"/>
    <line class="cls-1" x1="257.66" y1="223.6" x2="257.66" y2="207.15"/>
    <line class="cls-1" x1="257.34" y1="206.81" x2="257.34" y2="223.96"/>
    <line class="cls-1" x1="257.45" y1="223.84" x2="257.45" y2="206.93"/>
    <line class="cls-1" x1="270.61" y1="220.24" x2="270.56" y2="220.2"/>
    <line class="cls-1" x1="238.59" y1="245.55" x2="239.81" y2="244.14"/>
    <line class="cls-1" x1="279.89" y1="229.07" x2="280.23" y2="229.39"/>
    <line class="cls-1" x1="280.58" y1="229.72" x2="280.95" y2="230.07"/>
    <line class="cls-1" x1="281.34" y1="230.44" x2="281.75" y2="230.83"/>
    <line class="cls-1" x1="282.18" y1="231.23" x2="282.63" y2="231.66"/>
    <line class="cls-1" x1="283.1" y1="232.11" x2="283.6" y2="232.59"/>
    <line class="cls-1" x1="284.13" y1="233.09" x2="284.69" y2="233.62"/>
    <line class="cls-1" x1="285.29" y1="234.19" x2="285.92" y2="234.79"/>
    <line class="cls-1" x1="294.1" y1="242.56" x2="295.42" y2="243.82"/>
    <line class="cls-1" x1="208.64" y1="155.52" x2="202.18" y2="148.72"/>
    <line class="cls-1" x1="149.11" y1="348.58" x2="169.31" y2="325.32"/>
    <line class="cls-1" x1="169.31" y1="114.1" x2="149.11" y2="92.83"/>
    <line class="cls-1" x1="439.11" y1=".5" x2="270.08" y2="208.89"/>
    <line class="cls-1" x1="235.76" y1="248.81" x2="237.25" y2="247.1"/>
    <line class="cls-1" x1="237.25" y1="185.65" x2="235.76" y2="184.08"/>
    <line class="cls-1" x1="256.21" y1="205.62" x2="256.06" y2="205.46"/>
    <line class="cls-1" x1="255.91" y1="205.3" x2="255.75" y2="205.14"/>
    <line class="cls-1" x1="257.86" y1="207.35" x2="257.76" y2="207.25"/>
    <line class="cls-1" x1="64.54" y1="3.77" x2="64.54" y2="348.72"/>
    <line class="cls-1" x1="118.12" y1="60.19" x2="64.54" y2="3.77"/>
    <line class="cls-1" x1="118.12" y1="348.72" x2="118.12" y2="60.19"/>
    <line class="cls-1" x1="279.89" y1="229.12" x2="279.57" y2="228.81"/>
    <line class="cls-1" x1="279.57" y1="202.37" x2="279.89" y2="202.09"/>
    <line class="cls-1" x1="282.17" y1="231.3" x2="281.75" y2="230.89"/>
    <line class="cls-1" x1="281.75" y1="200.47" x2="282.17" y2="200.1"/>
    <line class="cls-1" x1="294.1" y1="242.7" x2="292.89" y2="241.54"/>
    <line class="cls-1" x1="292.89" y1="190.74" x2="294.1" y2="189.67"/>
    <line class="cls-1" x1="281.34" y1="230.5" x2="280.95" y2="230.13"/>
    <line class="cls-1" x1="280.95" y1="201.17" x2="281.34" y2="200.83"/>
    <line class="cls-1" x1="283.1" y1="232.18" x2="282.62" y2="231.73"/>
    <line class="cls-1" x1="282.62" y1="199.7" x2="283.1" y2="199.29"/>
    <line class="cls-1" x1="285.29" y1="234.27" x2="284.69" y2="233.71"/>
    <line class="cls-1" x1="284.69" y1="197.9" x2="285.29" y2="197.38"/>
    <line class="cls-1" x1="280.58" y1="229.78" x2="280.23" y2="229.44"/>
    <line class="cls-1" x1="280.23" y1="201.8" x2="280.58" y2="201.49"/>
    <line class="cls-1" x1="279.26" y1="228.52" x2="278.97" y2="228.24"/>
    <line class="cls-1" x1="278.97" y1="202.9" x2="279.26" y2="202.64"/>
    <line class="cls-1" x1="276.01" y1="225.41" x2="275.84" y2="225.24"/>
    <line class="cls-1" x1="275.84" y1="205.64" x2="276.01" y2="205.48"/>
    <line class="cls-1" x1="284.13" y1="233.17" x2="283.6" y2="232.66"/>
    <line class="cls-1" x1="283.6" y1="198.85" x2="284.13" y2="198.39"/>
    <line class="cls-1" x1="275.04" y1="224.48" x2="274.89" y2="224.34"/>
    <line class="cls-1" x1="274.89" y1="206.47" x2="275.04" y2="206.34"/>
    <line class="cls-1" x1="274.75" y1="224.2" x2="274.61" y2="224.07"/>
    <line class="cls-1" x1="274.61" y1="206.71" x2="274.75" y2="206.59"/>
    <line class="cls-1" x1="261.03" y1="219.72" x2="261.01" y2="219.74"/>
    <line class="cls-1" x1="261.03" y1="208.89" x2="261.03" y2="219.72"/>
    <line class="cls-1" x1="121.54" y1=".5" x2="261.03" y2="208.89"/>
    <line class="cls-1" x1="244.54" y1="238.7" x2="245.29" y2="237.84"/>
    <line class="cls-1" x1="245.29" y1="194.12" x2="244.54" y2="193.33"/>
    <line class="cls-1" x1="242.88" y1="240.61" x2="243.75" y2="239.62"/>
    <line class="cls-1" x1="243.75" y1="192.49" x2="242.88" y2="191.58"/>
    <line class="cls-1" x1="252.25" y1="229.83" x2="252.54" y2="229.49"/>
    <line class="cls-1" x1="252.54" y1="201.76" x2="252.25" y2="201.45"/>
    <line class="cls-1" x1="250.14" y1="232.25" x2="250.54" y2="231.79"/>
    <line class="cls-1" x1="250.54" y1="199.65" x2="250.14" y2="199.23"/>
    <line class="cls-1" x1="183.52" y1="308.96" x2="194.06" y2="296.83"/>
    <line class="cls-1" x1="194.06" y1="140.16" x2="183.52" y2="129.06"/>
    <line class="cls-1" x1="213.9" y1="273.98" x2="218.26" y2="268.96"/>
    <line class="cls-1" x1="218.26" y1="165.65" x2="213.9" y2="161.06"/>
    <line class="cls-1" x1="234.11" y1="182.34" x2="232.26" y2="180.39"/>
    <line class="cls-1" x1="227.8" y1="257.98" x2="230.17" y2="255.25"/>
    <line class="cls-1" x1="230.17" y1="178.19" x2="227.8" y2="175.7"/>
    <line class="cls-1" x1="247.22" y1="235.61" x2="247.79" y2="234.96"/>
    <line class="cls-1" x1="247.79" y1="196.75" x2="247.22" y2="196.15"/>
    <line class="cls-1" x1="240.93" y1="242.86" x2="241.94" y2="241.69"/>
    <line class="cls-1" x1="241.94" y1="190.6" x2="240.93" y2="189.52"/>
    <line class="cls-1" x1="221.94" y1="264.72" x2="225.08" y2="261.11"/>
    <line class="cls-1" x1="225.08" y1="172.84" x2="221.94" y2="169.53"/>
    <line class="cls-1" x1="270.05" y1="208.89" x2="270.05" y2="219.71"/>
    <line class="cls-1" x1="289.79" y1="238.58" x2="288.9" y2="237.73"/>
    <line class="cls-1" x1="288.9" y1="194.22" x2="289.79" y2="193.44"/>
    <line class="cls-1" x1="276.38" y1="225.77" x2="276.19" y2="225.59"/>
    <line class="cls-1" x1="276.19" y1="205.33" x2="276.38" y2="205.16"/>
    <line class="cls-1" x1="277.66" y1="226.99" x2="277.43" y2="226.76"/>
    <line class="cls-1" x1="277.43" y1="204.25" x2="277.66" y2="204.04"/>
    <line class="cls-1" x1="291.77" y1="240.47" x2="290.74" y2="239.49"/>
    <line class="cls-1" x1="290.74" y1="192.61" x2="291.77" y2="191.71"/>
    <line class="cls-1" x1="296.88" y1="245.35" x2="295.42" y2="243.96"/>
    <line class="cls-1" x1="295.42" y1="188.52" x2="296.88" y2="187.25"/>
    <line class="cls-1" x1="271.83" y1="221.41" x2="271.76" y2="221.35"/>
    <line class="cls-1" x1="271.76" y1="209.2" x2="271.83" y2="209.14"/>
    <line class="cls-1" x1="271.57" y1="221.16" x2="271.5" y2="221.1"/>
    <line class="cls-1" x1="271.5" y1="209.43" x2="271.57" y2="209.37"/>
    <line class="cls-1" x1="271.32" y1="220.93" x2="271.27" y2="220.88"/>
    <line class="cls-1" x1="271.27" y1="209.63" x2="271.32" y2="209.58"/>
    <line class="cls-1" x1="271.21" y1="220.82" x2="271.16" y2="220.77"/>
    <line class="cls-1" x1="271.16" y1="209.73" x2="271.21" y2="209.68"/>
    <line class="cls-1" x1="272.26" y1="221.83" x2="272.18" y2="221.75"/>
    <line class="cls-1" x1="272.18" y1="208.83" x2="272.26" y2="208.76"/>
    <line class="cls-1" x1="271.69" y1="221.29" x2="271.63" y2="221.22"/>
    <line class="cls-1" x1="271.63" y1="209.32" x2="271.69" y2="209.26"/>
    <line class="cls-1" x1="316.6" y1="264.2" x2="312.89" y2="260.65"/>
    <line class="cls-1" x1="312.89" y1="173.25" x2="316.6" y2="170.01"/>
    <line class="cls-1" x1="326.06" y1="273.24" x2="320.93" y2="268.34"/>
    <line class="cls-1" x1="320.93" y1="166.22" x2="326.06" y2="161.74"/>
    <line class="cls-1" x1="260.41" y1="220.43" x2="260.45" y2="220.39"/>
    <line class="cls-1" x1="260.45" y1="210.08" x2="260.41" y2="210.04"/>
    <line class="cls-1" x1="260.2" y1="209.82" x2="260.15" y2="209.77"/>
    <line class="cls-1" x1="260.75" y1="210.4" x2="260.71" y2="210.36"/>
    <line class="cls-1" x1="259.97" y1="220.94" x2="260.01" y2="220.89"/>
    <line class="cls-1" x1="260.01" y1="209.63" x2="259.97" y2="209.58"/>
    <line class="cls-1" x1="260.11" y1="209.72" x2="260.06" y2="209.67"/>
    <line class="cls-1" x1="260.53" y1="210.16" x2="260.49" y2="210.12"/>
    <line class="cls-1" x1="260.91" y1="219.85" x2="260.94" y2="219.81"/>
    <line class="cls-1" x1="260.94" y1="210.61" x2="260.91" y2="210.57"/>
    <line class="cls-1" x1="260.81" y1="210.47" x2="260.78" y2="210.43"/>
    <line class="cls-1" x1="259.49" y1="209.08" x2="259.43" y2="209.01"/>
    <line class="cls-1" x1="495.37" y1="13.74" x2="495.37" y2="348.72"/>
    <line class="cls-1" x1="436.02" y1="65.62" x2="495.37" y2="13.74"/>
    <line class="cls-1" x1="436.02" y1="348.72" x2="436.02" y2="65.62"/>
    <line class="cls-1" x1="259.71" y1="209.31" x2="259.66" y2="209.25"/>
    <line class="cls-1" x1="259.6" y1="209.19" x2="259.55" y2="209.14"/>
    <line class="cls-1" x1="259.12" y1="208.69" x2="259.06" y2="208.62"/>
    <line class="cls-1" x1="259.37" y1="208.95" x2="259.31" y2="208.89"/>
    <line class="cls-1" x1="257.56" y1="223.71" x2="257.66" y2="223.6"/>
    <line class="cls-1" x1="257.66" y1="207.15" x2="257.56" y2="207.04"/>
    <line class="cls-1" x1="257.45" y1="206.93" x2="257.34" y2="206.81"/>
    <line class="cls-1" x1="278.15" y1="227.46" x2="277.9" y2="227.22"/>
    <line class="cls-1" x1="277.9" y1="203.83" x2="278.15" y2="203.61"/>
    <line class="cls-1" x1="275.34" y1="224.77" x2="275.19" y2="224.62"/>
    <line class="cls-1" x1="275.19" y1="206.21" x2="275.34" y2="206.07"/>
    <line class="cls-1" x1="275.67" y1="225.08" x2="275.5" y2="224.92"/>
    <line class="cls-1" x1="275.5" y1="205.93" x2="275.67" y2="205.79"/>
    <line class="cls-1" x1="272.75" y1="222.3" x2="272.67" y2="222.21"/>
    <line class="cls-1" x1="272.67" y1="208.41" x2="272.75" y2="208.33"/>
    <line class="cls-1" x1="273.53" y1="223.04" x2="273.42" y2="222.94"/>
    <line class="cls-1" x1="273.42" y1="207.75" x2="273.53" y2="207.66"/>
    <line class="cls-1" x1="273.75" y1="223.25" x2="273.63" y2="223.14"/>
    <line class="cls-1" x1="273.63" y1="207.56" x2="273.75" y2="207.47"/>
    <line class="cls-1" x1="277.2" y1="226.55" x2="276.99" y2="226.34"/>
    <line class="cls-1" x1="276.99" y1="204.63" x2="277.2" y2="204.44"/>
    <line class="cls-1" x1="274.48" y1="223.94" x2="274.35" y2="223.82"/>
    <line class="cls-1" x1="273.98" y1="207.26" x2="273.98" y2="223.47"/>
    <line class="cls-1" x1="250.92" y1="231.36" x2="250.54" y2="231.79"/>
    <line class="cls-1" x1="256.62" y1="224.79" x2="256.49" y2="224.94"/>
    <line class="cls-1" x1="256.35" y1="225.1" x2="256.21" y2="225.26"/>
    <line class="cls-1" x1="276.78" y1="226.08" x2="276.99" y2="226.28"/>
    <line class="cls-1" x1="278.69" y1="227.89" x2="278.97" y2="228.16"/>
    <line class="cls-1" x1="300.24" y1="248.37" x2="302.2" y2="250.24"/>
    <line class="cls-1" x1="304.4" y1="252.32" x2="306.87" y2="254.67"/>
    <line class="cls-1" x1="309.68" y1="257.34" x2="312.89" y2="260.39"/>
    <line class="cls-1" x1="339.79" y1="285.95" x2="349.27" y2="294.95"/>
    <line class="cls-1" x1="361.5" y1="306.57" x2="377.89" y2="322.15"/>
    <line class="cls-1" x1="401" y1="344.1" x2="405.86" y2="348.72"/>
    <line class="cls-1" x1="276.78" y1="226.11" x2="276.99" y2="226.3"/>
    <line class="cls-1" x1="278.69" y1="227.92" x2="278.97" y2="228.19"/>
    <line class="cls-1" x1="300.24" y1="248.4" x2="302.2" y2="250.26"/>
    <line class="cls-1" x1="304.4" y1="252.35" x2="306.87" y2="254.7"/>
    <line class="cls-1" x1="309.68" y1="257.37" x2="312.89" y2="260.41"/>
    <line class="cls-1" x1="339.79" y1="285.97" x2="349.27" y2="294.97"/>
    <line class="cls-1" x1="361.5" y1="306.59" x2="377.89" y2="322.17"/>
    <line class="cls-1" x1="401" y1="344.12" x2="405.84" y2="348.72"/>
    <line class="cls-1" x1="248.31" y1="234.35" x2="247.79" y2="234.96"/>
    <line class="cls-1" x1="271.44" y1="221.01" x2="271.5" y2="221.07"/>
    <line class="cls-1" x1="271.97" y1="221.51" x2="272.04" y2="221.57"/>
    <line class="cls-1" x1="272.11" y1="221.64" x2="272.18" y2="221.71"/>
    <line class="cls-1" x1="272.42" y1="221.94" x2="272.5" y2="222.01"/>
    <line class="cls-1" x1="272.58" y1="222.09" x2="272.67" y2="222.17"/>
    <line class="cls-1" x1="272.93" y1="222.43" x2="273.03" y2="222.51"/>
    <line class="cls-1" x1="273.12" y1="222.61" x2="273.22" y2="222.7"/>
    <line class="cls-1" x1="273.32" y1="222.79" x2="273.42" y2="222.89"/>
    <line class="cls-1" x1="273.98" y1="223.42" x2="274.1" y2="223.53"/>
    <line class="cls-1" x1="274.22" y1="223.65" x2="274.35" y2="223.77"/>
    <line class="cls-1" x1="271.44" y1="221.04" x2="271.5" y2="221.1"/>
    <line class="cls-1" x1="271.97" y1="221.53" x2="272.04" y2="221.6"/>
    <line class="cls-1" x1="272.11" y1="221.67" x2="272.18" y2="221.74"/>
    <line class="cls-1" x1="272.42" y1="221.96" x2="272.5" y2="222.04"/>
    <line class="cls-1" x1="272.58" y1="222.12" x2="272.67" y2="222.2"/>
    <line class="cls-1" x1="272.93" y1="222.45" x2="273.03" y2="222.54"/>
    <line class="cls-1" x1="273.12" y1="222.63" x2="273.22" y2="222.72"/>
    <line class="cls-1" x1="273.32" y1="222.82" x2="273.42" y2="222.92"/>
    <line class="cls-1" x1="273.98" y1="223.44" x2="274.1" y2="223.56"/>
    <line class="cls-1" x1="274.22" y1="223.67" x2="274.35" y2="223.8"/>
    <line class="cls-1" x1="286.59" y1="235.4" x2="287.31" y2="236.09"/>
    <line class="cls-1" x1="288.08" y1="236.82" x2="288.9" y2="237.6"/>
    <line class="cls-1" x1="286.59" y1="235.43" x2="287.31" y2="236.11"/>
    <line class="cls-1" x1="288.08" y1="236.84" x2="288.9" y2="237.63"/>
    <line class="cls-1" x1="254.69" y1="227.02" x2="254.49" y2="227.25"/>
    <line class="cls-1" x1="254.28" y1="227.49" x2="254.06" y2="227.74"/>
    <line class="cls-1" x1="253.83" y1="228" x2="253.6" y2="228.28"/>
    <line class="cls-1" x1="253.35" y1="228.56" x2="253.09" y2="228.86"/>
    <line class="cls-1" x1="252.82" y1="229.17" x2="252.54" y2="229.49"/>
    <line class="cls-1" x1="270.19" y1="219.82" x2="270.23" y2="219.85"/>
    <line class="cls-1" x1="270.27" y1="219.89" x2="270.31" y2="219.93"/>
    <line class="cls-1" x1="270.35" y1="219.97" x2="270.39" y2="220.01"/>
    <line class="cls-1" x1="270.43" y1="220.05" x2="270.47" y2="220.09"/>
    <line class="cls-1" x1="270.52" y1="220.13" x2="270.56" y2="220.17"/>
    <line class="cls-1" x1="270.61" y1="220.22" x2="270.65" y2="220.26"/>
    <line class="cls-1" x1="270.7" y1="220.3" x2="270.75" y2="220.35"/>
    <line class="cls-1" x1="270.79" y1="220.39" x2="270.84" y2="220.44"/>
    <line class="cls-1" x1="270.89" y1="220.49" x2="270.94" y2="220.54"/>
    <line class="cls-1" x1="271" y1="220.58" x2="271.05" y2="220.63"/>
    <line class="cls-1" x1="271.1" y1="220.69" x2="271.16" y2="220.74"/>
    <line class="cls-1" x1="270.19" y1="219.85" x2="270.23" y2="219.88"/>
    <line class="cls-1" x1="270.27" y1="219.92" x2="270.31" y2="219.96"/>
    <line class="cls-1" x1="271" y1="220.61" x2="271.05" y2="220.66"/>
    <line class="cls-1" x1="271.1" y1="220.71" x2="271.16" y2="220.76"/>
    <line class="cls-1" x1="260.98" y1="219.78" x2="260.94" y2="219.81"/>
    <line class="cls-1" x1="273.98" y1="223.47" x2="273.86" y2="223.35"/>
    <line class="cls-1" x1="273.86" y1="207.37" x2="273.98" y2="207.26"/>
    <line class="cls-1" x1="273.32" y1="222.84" x2="273.22" y2="222.74"/>
    <line class="cls-1" x1="273.22" y1="207.93" x2="273.32" y2="207.84"/>
    <line class="cls-1" x1="273.12" y1="222.65" x2="273.03" y2="222.56"/>
    <line class="cls-1" x1="273.03" y1="208.1" x2="273.12" y2="208.01"/>
    <line class="cls-1" x1="272.93" y1="222.47" x2="272.84" y2="222.38"/>
    <line class="cls-1" x1="272.84" y1="208.26" x2="272.93" y2="208.18"/>
    <line class="cls-1" x1="274.22" y1="223.7" x2="274.1" y2="223.58"/>
    <line class="cls-1" x1="274.1" y1="207.16" x2="274.22" y2="207.05"/>
    <line class="cls-1" x1="272.42" y1="221.98" x2="272.34" y2="221.9"/>
    <line class="cls-1" x1="272.34" y1="208.7" x2="272.42" y2="208.63"/>
    <line class="cls-1" x1="272.11" y1="221.68" x2="272.04" y2="221.61"/>
    <line class="cls-1" x1="272.04" y1="208.96" x2="272.11" y2="208.9"/>
    <line class="cls-1" x1="271.97" y1="221.54" x2="271.9" y2="221.48"/>
    <line class="cls-1" x1="271.9" y1="209.08" x2="271.97" y2="209.02"/>
    <line class="cls-1" x1="270.89" y1="220.52" x2="270.84" y2="220.47"/>
    <line class="cls-1" x1="270.84" y1="210" x2="270.89" y2="209.96"/>
    <line class="cls-1" x1="270.79" y1="220.43" x2="270.75" y2="220.38"/>
    <line class="cls-1" x1="270.75" y1="210.09" x2="270.79" y2="210.05"/>
    <line class="cls-1" x1="309.68" y1="257.59" x2="306.87" y2="254.91"/>
    <line class="cls-1" x1="306.87" y1="178.51" x2="309.68" y2="176.06"/>
    <line class="cls-1" x1="361.5" y1="307.1" x2="349.27" y2="295.42"/>
    <line class="cls-1" x1="349.27" y1="141.45" x2="361.5" y2="130.76"/>
    <line class="cls-1" x1="271.44" y1="221.05" x2="271.38" y2="220.99"/>
    <line class="cls-1" x1="271.38" y1="209.53" x2="271.44" y2="209.48"/>
    <line class="cls-1" x1="271.1" y1="220.72" x2="271.05" y2="220.67"/>
    <line class="cls-1" x1="271.05" y1="209.82" x2="271.1" y2="209.78"/>
    <line class="cls-1" x1="272.58" y1="222.13" x2="272.5" y2="222.05"/>
    <line class="cls-1" x1="272.5" y1="208.56" x2="272.58" y2="208.48"/>
    <line class="cls-1" x1="271" y1="220.62" x2="270.94" y2="220.57"/>
    <line class="cls-1" x1="270.94" y1="209.92" x2="271" y2="209.87"/>
    <line class="cls-1" x1="339.79" y1="286.36" x2="332.23" y2="279.14"/>
    <line class="cls-1" x1="332.23" y1="156.34" x2="339.79" y2="149.74"/>
    <line class="cls-1" x1="401" y1="344.85" x2="377.89" y2="322.77"/>
    <line class="cls-1" x1="377.89" y1="116.44" x2="401" y2="96.23"/>
    <line class="cls-1" x1="278.69" y1="227.97" x2="278.41" y2="227.71"/>
    <line class="cls-1" x1="278.41" y1="203.39" x2="278.69" y2="203.15"/>
    <line class="cls-1" x1="276.78" y1="226.14" x2="276.58" y2="225.95"/>
    <line class="cls-1" x1="276.58" y1="204.99" x2="276.78" y2="204.82"/>
    <line class="cls-1" x1="300.24" y1="248.56" x2="298.47" y2="246.88"/>
    <line class="cls-1" x1="298.47" y1="185.85" x2="300.24" y2="184.31"/>
    <line class="cls-1" x1="304.4" y1="252.54" x2="302.2" y2="250.44"/>
    <line class="cls-1" x1="302.2" y1="182.59" x2="304.4" y2="180.67"/>
    <line class="cls-1" x1="286.59" y1="235.52" x2="285.92" y2="234.88"/>
    <line class="cls-1" x1="285.92" y1="196.83" x2="286.59" y2="196.24"/>
    <line class="cls-1" x1="288.08" y1="236.94" x2="287.31" y2="236.21"/>
    <line class="cls-1" x1="287.31" y1="195.61" x2="288.08" y2="194.94"/>
    <line class="cls-1" x1="260.24" y1="220.62" x2="260.28" y2="220.57"/>
    <line class="cls-1" x1="260.28" y1="209.91" x2="260.24" y2="209.86"/>
    <line class="cls-1" x1="260.33" y1="220.53" x2="260.37" y2="220.48"/>
    <line class="cls-1" x1="260.37" y1="210" x2="260.33" y2="209.95"/>
    <line class="cls-1" x1="259.77" y1="221.17" x2="259.82" y2="221.11"/>
    <line class="cls-1" x1="259.82" y1="209.42" x2="259.77" y2="209.36"/>
    <line class="cls-1" x1="259.92" y1="209.52" x2="259.87" y2="209.47"/>
    <line class="cls-1" x1="258.99" y1="208.55" x2="258.92" y2="208.47"/>
    <line class="cls-1" x1="259.25" y1="208.82" x2="259.19" y2="208.76"/>
    <line class="cls-1" x1="258.7" y1="208.25" x2="258.63" y2="208.17"/>
    <line class="cls-1" x1="258.22" y1="207.74" x2="258.13" y2="207.64"/>
    <line class="cls-1" x1="254.69" y1="227.02" x2="254.88" y2="226.79"/>
    <line class="cls-1" x1="254.88" y1="204.22" x2="254.69" y2="204.02"/>
    <line class="cls-1" x1="253.83" y1="228" x2="254.06" y2="227.74"/>
    <line class="cls-1" x1="254.06" y1="203.35" x2="253.83" y2="203.11"/>
    <line class="cls-1" x1="254.28" y1="227.49" x2="254.49" y2="227.25"/>
    <line class="cls-1" x1="254.49" y1="203.8" x2="254.28" y2="203.58"/>
    <line class="cls-1" x1="253.35" y1="228.56" x2="253.6" y2="228.28"/>
    <line class="cls-1" x1="253.6" y1="202.87" x2="253.35" y2="202.61"/>
    <line class="cls-1" x1="258.39" y1="207.91" x2="258.31" y2="207.83"/>
    <line class="cls-1" x1="258.04" y1="207.55" x2="257.95" y2="207.45"/>
    <line class="cls-1" x1="257.23" y1="206.69" x2="257.12" y2="206.57"/>
    <line class="cls-1" x1="256.35" y1="225.1" x2="256.49" y2="224.94"/>
    <line class="cls-1" x1="256.49" y1="205.91" x2="256.35" y2="205.77"/>
    <line class="cls-1" x1="258.85" y1="208.4" x2="258.78" y2="208.32"/>
    <line class="cls-1" x1="258.55" y1="208.08" x2="258.47" y2="208"/>
    <line class="cls-1" x1="270.19" y1="219.85" x2="270.15" y2="219.81"/>
    <line class="cls-1" x1="270.15" y1="210.61" x2="270.19" y2="210.58"/>
    <line class="cls-1" x1="260.98" y1="219.78" x2="261.01" y2="219.74"/>
    <line class="cls-1" x1="256.62" y1="224.79" x2="256.75" y2="224.64"/>
    <line class="cls-1" x1="256.75" y1="206.19" x2="256.62" y2="206.05"/>
    <line class="cls-1" x1="257" y1="206.45" x2="256.88" y2="206.32"/>
    <line class="cls-1" x1="255.42" y1="226.17" x2="255.59" y2="225.98"/>
    <line class="cls-1" x1="255.59" y1="204.97" x2="255.42" y2="204.79"/>
    <line class="cls-1" x1="255.25" y1="204.61" x2="255.07" y2="204.42"/>
    <line class="cls-1" x1="270.43" y1="220.08" x2="270.39" y2="220.04"/>
    <line class="cls-1" x1="270.39" y1="210.4" x2="270.43" y2="210.36"/>
    <line class="cls-1" x1="268.24" y1="210.7" x2="268.24" y2="219.71"/>
    <line class="cls-1" x1="262.81" y1="210.69" x2="268.24" y2="210.7"/>
    <line class="cls-1" x1="262.81" y1="219.72" x2="262.81" y2="210.69"/>
    <line class="cls-1" x1="270.7" y1="220.33" x2="270.65" y2="220.29"/>
    <line class="cls-1" x1="270.65" y1="210.17" x2="270.7" y2="210.13"/>
    <line class="cls-1" x1="270.56" y1="210.25" x2="270.61" y2="210.21"/>
    <line class="cls-1" x1="270.27" y1="219.92" x2="270.23" y2="219.88"/>
    <line class="cls-1" x1="270.23" y1="210.54" x2="270.27" y2="210.51"/>
    <line class="cls-1" x1="270.35" y1="220" x2="270.31" y2="219.96"/>
    <line class="cls-1" x1="270.31" y1="210.47" x2="270.35" y2="210.44"/>
    <line class="cls-1" x1="270.52" y1="220.16" x2="270.47" y2="220.12"/>
    <line class="cls-1" x1="270.47" y1="210.33" x2="270.52" y2="210.29"/>
    <line class="cls-1" x1="260.67" y1="210.32" x2="260.64" y2="210.28"/>
    <line class="cls-1" x1="248.32" y1="234.35" x2="248.81" y2="233.78"/>
    <line class="cls-1" x1="248.81" y1="197.83" x2="248.32" y2="197.31"/>
    <line class="cls-1" x1="245.98" y1="237.05" x2="246.62" y2="236.31"/>
    <line class="cls-1" x1="246.62" y1="195.52" x2="245.98" y2="194.84"/>
    <line class="cls-1" x1="239.81" y1="188.35" x2="238.59" y2="187.07"/>
    <line class="cls-1" x1="270.05" y1="208.89" x2="439.09" y2=".5"/>
    <line class="cls-1" x1="252.82" y1="229.17" x2="253.09" y2="228.86"/>
    <line class="cls-1" x1="253.09" y1="202.34" x2="252.82" y2="202.05"/>
    <line class="cls-1" x1="251.62" y1="230.56" x2="251.94" y2="230.18"/>
    <line class="cls-1" x1="251.94" y1="201.12" x2="251.62" y2="200.78"/>
    <line class="cls-1" x1="250.92" y1="231.36" x2="251.28" y2="230.95"/>
    <line class="cls-1" x1="251.28" y1="200.42" x2="250.92" y2="200.05"/>
    <line class="cls-1" x1="249.28" y1="233.24" x2="249.73" y2="232.73"/>
    <line class="cls-1" x1="249.73" y1="198.79" x2="249.28" y2="198.32"/>
    <line class="cls-1" x1="202.18" y1="287.47" x2="194.05" y2="296.83"/>
    <line class="cls-1" x1="235.76" y1="248.81" x2="234.11" y2="250.71"/>
    <line class="cls-1" x1="247.22" y1="235.61" x2="246.62" y2="236.31"/>
    <line class="cls-1" x1="252.25" y1="229.83" x2="251.94" y2="230.18"/>
    <line class="cls-1" x1="275.34" y1="224.71" x2="275.5" y2="224.87"/>
    <line class="cls-1" x1="275.67" y1="225.02" x2="275.84" y2="225.18"/>
    <line class="cls-1" x1="276.38" y1="225.7" x2="276.58" y2="225.89"/>
    <line class="cls-1" x1="277.2" y1="226.48" x2="277.43" y2="226.7"/>
    <line class="cls-1" x1="277.66" y1="226.92" x2="277.9" y2="227.15"/>
    <line class="cls-1" x1="278.15" y1="227.39" x2="278.41" y2="227.63"/>
    <line class="cls-1" x1="289.79" y1="238.44" x2="290.74" y2="239.35"/>
    <line class="cls-1" x1="291.77" y1="240.32" x2="292.89" y2="241.38"/>
    <line class="cls-1" x1="296.88" y1="245.17" x2="298.47" y2="246.69"/>
    <line class="cls-1" x1="316.6" y1="263.91" x2="320.93" y2="268.03"/>
    <line class="cls-1" x1="326.06" y1="272.91" x2="332.23" y2="278.77"/>
    <line class="cls-1" x1="275.34" y1="224.74" x2="275.5" y2="224.89"/>
    <line class="cls-1" x1="275.67" y1="225.05" x2="275.84" y2="225.21"/>
    <line class="cls-1" x1="276.38" y1="225.73" x2="276.58" y2="225.91"/>
    <line class="cls-1" x1="277.2" y1="226.51" x2="277.43" y2="226.72"/>
    <line class="cls-1" x1="277.66" y1="226.94" x2="277.9" y2="227.17"/>
    <line class="cls-1" x1="278.15" y1="227.41" x2="278.41" y2="227.66"/>
    <line class="cls-1" x1="289.79" y1="238.47" x2="290.74" y2="239.37"/>
    <line class="cls-1" x1="291.77" y1="240.35" x2="292.89" y2="241.41"/>
    <line class="cls-1" x1="296.88" y1="245.2" x2="298.47" y2="246.72"/>
    <line class="cls-1" x1="316.6" y1="263.94" x2="320.93" y2="268.06"/>
    <line class="cls-1" x1="326.06" y1="272.93" x2="332.23" y2="278.79"/>
    <line class="cls-1" x1="250.14" y1="232.25" x2="249.73" y2="232.73"/>
    <line class="cls-1" x1="240.92" y1="242.86" x2="239.81" y2="244.14"/>
    <line class="cls-1" x1="232.26" y1="252.84" x2="230.17" y2="255.25"/>
    <line class="cls-1" x1="227.8" y1="257.98" x2="225.08" y2="261.11"/>
    <line class="cls-1" x1="271.21" y1="220.79" x2="271.27" y2="220.84"/>
    <line class="cls-1" x1="271.32" y1="220.9" x2="271.38" y2="220.95"/>
    <line class="cls-1" x1="271.57" y1="221.13" x2="271.63" y2="221.19"/>
    <line class="cls-1" x1="271.69" y1="221.25" x2="271.76" y2="221.31"/>
    <line class="cls-1" x1="271.83" y1="221.38" x2="271.9" y2="221.44"/>
    <line class="cls-1" x1="272.26" y1="221.79" x2="272.34" y2="221.86"/>
    <line class="cls-1" x1="272.75" y1="222.26" x2="272.84" y2="222.34"/>
    <line class="cls-1" x1="273.53" y1="222.99" x2="273.64" y2="223.09"/>
    <line class="cls-1" x1="273.75" y1="223.2" x2="273.86" y2="223.31"/>
    <line class="cls-1" x1="274.48" y1="223.89" x2="274.61" y2="224.02"/>
    <line class="cls-1" x1="271.21" y1="220.82" x2="271.27" y2="220.87"/>
    <line class="cls-1" x1="271.32" y1="220.93" x2="271.38" y2="220.98"/>
    <line class="cls-1" x1="271.57" y1="221.15" x2="271.63" y2="221.21"/>
    <line class="cls-1" x1="271.69" y1="221.28" x2="271.76" y2="221.34"/>
    <line class="cls-1" x1="271.83" y1="221.4" x2="271.9" y2="221.47"/>
    <line class="cls-1" x1="272.26" y1="221.81" x2="272.34" y2="221.89"/>
    <line class="cls-1" x1="272.75" y1="222.28" x2="272.84" y2="222.37"/>
    <line class="cls-1" x1="273.53" y1="223.02" x2="273.63" y2="223.12"/>
    <line class="cls-1" x1="273.75" y1="223.23" x2="273.86" y2="223.33"/>
    <line class="cls-1" x1="274.48" y1="223.92" x2="274.61" y2="224.05"/>
    <line class="cls-1" x1="232.26" y1="252.85" x2="234.11" y2="250.71"/>
    <line class="cls-1" x1="261.03" y1="208.89" x2="270.05" y2="208.89"/>
    <line class="cls-1" x1="202.18" y1="287.47" x2="208.64" y2="280.03"/>
    <line class="cls-1" x1="274.75" y1="224.15" x2="274.89" y2="224.28"/>
    <line class="cls-1" x1="275.04" y1="224.42" x2="275.19" y2="224.57"/>
    <line class="cls-1" x1="276.01" y1="225.35" x2="276.19" y2="225.52"/>
    <line class="cls-1" x1="279.26" y1="228.44" x2="279.57" y2="228.74"/>
    <line class="cls-1" x1="279.89" y1="229.04" x2="280.23" y2="229.36"/>
    <line class="cls-1" x1="280.58" y1="229.7" x2="280.95" y2="230.05"/>
    <line class="cls-1" x1="281.34" y1="230.41" x2="281.75" y2="230.8"/>
    <line class="cls-1" x1="282.17" y1="231.21" x2="282.62" y2="231.63"/>
    <line class="cls-1" x1="283.1" y1="232.09" x2="283.6" y2="232.56"/>
    <line class="cls-1" x1="284.13" y1="233.06" x2="284.69" y2="233.6"/>
    <line class="cls-1" x1="285.29" y1="234.16" x2="285.92" y2="234.76"/>
    <line class="cls-1" x1="294.1" y1="242.54" x2="295.42" y2="243.8"/>
    <line class="cls-1" x1="274.75" y1="224.18" x2="274.89" y2="224.31"/>
    <line class="cls-1" x1="275.04" y1="224.45" x2="275.19" y2="224.59"/>
    <line class="cls-1" x1="276.01" y1="225.38" x2="276.19" y2="225.55"/>
    <line class="cls-1" x1="279.26" y1="228.47" x2="279.57" y2="228.76"/>
    <rect class="cls-1" x="1" y="1.4" width="528" height="346.5"/>
  </g>
</svg>