<?xml version="1.0" encoding="UTF-8"?>
<svg id="labyrinth" data-name="labyrinth" fill="currentColor" xmlns="http://www.w3.org/2000/svg" viewBox="0 0 15.5 14">
  <g id="Default">
    <path d="M7.75,0C3.19,0,0,3.19,0,7.75c0,3.09,2.16,5.25,5.25,5.25.72,0,1.25-.53,1.25-1.25s-.53-1.25-1.25-1.25c-1.62,0-2.75-1.13-2.75-2.75,0-3.09,2.16-5.25,5.25-5.25s5.25,2.16,5.25,5.25c0,2.21-1.54,3.75-3.75,3.75-.14,0-.25.11-.25.25s.11.25.25.25c2.46,0,4.25-1.79,4.25-4.25,0-3.39-2.36-5.75-5.75-5.75S2,4.36,2,7.75c0,1.88,1.37,3.25,3.25,3.25.45,0,.75.3.75.75s-.3.75-.75.75c-2.8,0-4.75-1.95-4.75-4.75C.5,3.48,3.48.5,7.75.5s7.25,2.98,7.25,7.25c0,3.39-2.36,5.75-5.75,5.75-1.03,0-1.75-.72-1.75-1.75s.72-1.75,1.75-1.75c1.3,0,2.25-.95,2.25-2.25,0-2.17-1.58-3.75-3.75-3.75s-3.75,1.58-3.75,3.75c0,.72.53,1.25,1.25,1.25s1.25-.53,1.25-1.25.51-1.25,1.25-1.25,1.25.51,1.25,1.25c0,.14.11.25.25.25s.25-.11.25-.25c0-1.01-.74-1.75-1.75-1.75s-1.75.74-1.75,1.75c0,.45-.3.75-.75.75s-.75-.3-.75-.75c0-1.91,1.34-3.25,3.25-3.25s3.25,1.34,3.25,3.25c0,1.03-.72,1.75-1.75,1.75s-1.75-.72-1.75-1.75c0-.15.1-.25.25-.25s.25.1.25.25c0,.72.53,1.25,1.25,1.25s1.25-.53,1.25-1.25c0-1.59-1.16-2.75-2.75-2.75s-2.75,1.16-2.75,2.75c0,.14.11.25.25.25s.25-.11.25-.25c0-1.32.93-2.25,2.25-2.25s2.25.93,2.25,2.25c0,.45-.3.75-.75.75s-.75-.3-.75-.75-.32-.75-.75-.75-.75.32-.75.75c0,1.03-.72,1.75-1.75,1.75s-1.75-.72-1.75-1.75c0-2.5,1.75-4.25,4.25-4.25s4.25,1.75,4.25,4.25c0,1.62-1.13,2.75-2.75,2.75-.72,0-1.25.53-1.25,1.25s.53,1.25,1.25,1.25c3.09,0,5.25-2.16,5.25-5.25,0-3.97-2.78-6.75-6.75-6.75S1,3.78,1,7.75c0,2.46,1.79,4.25,4.25,4.25.14,0,.25-.11.25-.25s-.11-.25-.25-.25c-2.21,0-3.75-1.54-3.75-3.75C1.5,4.07,4.07,1.5,7.75,1.5s6.25,2.57,6.25,6.25c0,2.8-1.95,4.75-4.75,4.75-.45,0-.75-.3-.75-.75s.3-.75.75-.75c1.88,0,3.25-1.37,3.25-3.25,0-2.75-2-4.75-4.75-4.75s-4.75,2-4.75,4.75c0,1.3.95,2.25,2.25,2.25,1.03,0,1.75.72,1.75,1.75,0,1.3.95,2.25,2.25,2.25,3.68,0,6.25-2.57,6.25-6.25C15.5,3.19,12.31,0,7.75,0ZM6.31,9.75c.41-.21.74-.53.94-.94.21.41.53.74.94.94-.41.21-.74.53-.94.94-.21-.41-.53-.74-.94-.94Z"/>
  </g>
</svg>