<?xml version="1.0" encoding="utf-8"?>
<!-- Generator: Adobe Illustrator 29.6.1, SVG Export Plug-In . SVG Version: 9.03 Build 0)  -->
<svg version="1.1" id="illustration" xmlns="http://www.w3.org/2000/svg" xmlns:xlink="http://www.w3.org/1999/xlink" x="0px"
	 y="0px" viewBox="0 0 1117.09 1117.09" style="enable-background:new 0 0 1117.09 1117.09;" xml:space="preserve">
<path d="M0,754.54l27.26-1.1c-3.1-15.65-4.65-33.66-3.31-49.64c0.76-9.01,2.64-12.1,12.53-10.26c7.37,1.37,6.09,8.13,8.71,13.09
	c5.03,9.53,14.95,4.05,20.81,8.63c2.04,1.59,8.99,12.75,10.53,15.64c2.27,4.27,5.49,20.86,12.83,14.33
	c5.98-5.32,0.97-10.12-0.52-15.74c-2.08-7.84-6.27-19.14,1.38-25.14s11.53-2.9,17.35,2.59c4.47,4.23,7.87,10.72,12.37,14.88
	c-2.85-14.89-3.51-31.82-0.36-46.71c1.15-5.44,4.08-9.14,3.67-14.88c-0.48-6.64-9.95-20.47-9.58-24.91
	c0.06-0.73,2.53-6.49,2.97-6.77c1.47-0.96,4.55-0.26,6.65-0.99c4.2-1.45,4-4.48,10.55-1.93c11.98,4.67,27.83,28.26,36.81,38.41
	c4.25,4.81,9.27,9.18,13.6,13.91c4.11,4.48,7.34,11.82,13.91,14.28c5.22,0.81,3.66-8.32,7.3-10.85s7.44,0.96,10.68-5.68
	c5.18-10.64-2.64-14.53-2.5-20.96c0.15-7.03,5.13-7.24,9.94-3.28c9.47,7.79,29.1,58.04,32.18,71.4c0.86,3.74,1.7,19.68,4.45,20.62
	c4.01,1.36,10.69-0.88,15.07-1c73.36-2.04,147.17,2.93,220.3-2.14c17.04-1.18,34.16-4.41,51.27-5.43
	c52.9-3.15,110.47-3.05,163.59-1.15c3.88,0.14,26.73,3.17,27.75,2.22l-19.55-78.1c-1.69-5.04,4.4-7.93,5.92-11.36
	c2.88-6.47-10.67-24.11-13.81-30.83c-1.49-3.18-6.2-14.85-6.21-17.63c-0.01-4.44,6.81-15.37,7.47-24.01
	c0.73-9.6-3.27-26.69-0.87-34.67c0.63-2.08,5.93-4.46,7.94-4.6c6.92-0.47,10.39,4.06,15.57,6.84c2.09,1.12,5.02,0.87,6.75,1.97
	c1.63,1.04,2.78,4.83,4.42,6.49c1.46,1.47,13.98,7.51,16.06,7.93c3.7,0.75,7.15-0.45,10.93,1.07c7.03,2.83,36.91,27.62,41.12,34.12
	c2.17,3.36,7.23,20.62,8.18,21.26c4.71,1.64,9.19-2.08,13.94,0.79l8.36,21.62c2.98,2.28,13,0.37,17.48,1.06
	c8.9,1.38,26.53,25.9,33.3,33.21c1.36,1.47,11.59,11.17,12.76,11.27c14.74-7.12,0.1-25.23-1.57-36.63
	c-0.92-6.24-1.85-14.74,5.24-17.13c10.38-3.5,16.14,10.45,26.11,9.21c0.76-0.66-4.68-14.69-5.19-17.15
	c-0.78-3.71-2.2-13.44-2.42-17.22c-0.77-12.91,6.22-9.54,7.47-13.24l-0.94-12.36c12.89-1.43,16.14,4.9,22.27,14.27
	c3.86,5.91,7.83,15.91,12.15,20.56c2.1,2.26,6.53,4.05,7.51,5.58c2.79,4.34,4.04,16.35,7.73,21.71c2.6,3.78,9.09,5.49,10.39,7.33
	c1.83,2.59,6.69,13.01,8.86,17.04c11.05,20.46,19.16,42.43,29.38,63.3c2.45,5.01,5.05,10.14,8.02,14.87h73.6v7.63h-70.87
	c4.73,13.37,14.38,27.89,17.99,41.44c1.66,6.25,0.76,13.06,2.15,18.57c2.34,9.27,12.29,25.51,16.14,36.2
	c6.88,19.11,11.72,40.62,15.95,60.38c7.32,34.21,11.4,69.06,17.54,103.49l-7.6,2.72c0.81,2.38,4.51-0.04,6.63,2.61
	c1.09,1.36,1.58,3.66,0.53,5.1c-4.41,2.29-26.96,4.43-26.84-2.81l2.22-3.81c-2.92-0.07-7.7,0.32-10.21-1.26
	c-2.06-1.3-1.36-3.16-2.06-3.91c-1.1-1.17-10.51-1.93-12.19-1.45c-1.16,6.62-4.78,3.16-8.67,3.45c-3.4,0.26-17.25,2.56-19.06-0.28
	c-0.84-1.32,1.27-5.86-2.87-4.21c-0.73,0.29-0.76,3.39-2.62,5.03c-3.19,2.81-15.13,3.4-19.17,2.61c-2.35-0.46-3.31-2.78-4.35-2.9
	c-0.96-0.11-12.39,3.42-15.42,3.87c-3.83,0.57-16.59,2.74-18.42-0.94c-3.87-7.76,12.51-5.92,17.34-6.68s9.21-2.07,13.75-3.16
	l-9.27-2.16c-6.46-2.03-30.85,4.86-34.75,2.09c-1.23-0.87-1.48-2.91-2.54-3.2c-4.06-1.13-12.19-0.73-16.66-1.07
	c0.31,2.08,3.93,0.92,5.81,2.08c3.37,2.08,0.91,6.44-2.5,7.26c-12.83-2.04-26.38,1.58-38.82-2.73l-0.34-5.39l5.31-2.3
	c-14.77-1.38-30.7,3.89-45.29,2.22c-4.99-0.57-3.81-3.7-5.69-4.39c-1.47-0.54-12.84-1.65-13.34-1.12
	c0.48,11.04-6.03,7.75-12.56,7.64c-5.63-0.09-34.5-0.17-37.15-2.11c-0.96-0.7-1.3-1.44-1.33-2.63c-0.16-7.19,21.57-3.02,26.45-2.85
	c4.57,0.16,9.67,0.13,14.24-0.05c1.33-0.05,4.05,0.82,3.8-1.08l-56.69-3.27c4.02,8.94-3.52,8.97-10.41,8.76
	c-5.49-0.17-28.51-1.31-23.38-9.85c-1.61-1.76-34.5-1.13-39.88-1.13c-8.09,0-15.79,0.16-23.88,0c-7.11-0.15-14.21,0.7-21.26,0
	c0.57-16.62-0.53-32.95-3.62-49.26c-0.9-4.75-3.99-9.96-4.09-14.52c-0.13-5.65,3.86-23.88,10.36-24.56
	c6.1-0.64,28.3,8.83,31.57,14.33c5.49,9.24-1.97,15.08,1.84,21.07c2.69,4.23,19.54,4,22.79,1.21c3.48-2.99-1.7-17.64-2.99-22.11
	c-2.71-9.38-7.15-18.03-10.13-26.94c-10.11-30.27-12.92-62.71-22.42-93.22c-1.01-7.03,12.29-14.51,17.5-14.24
	c6.82,0.35,21.8,13.86,24.8,19.99c1.63,3.33,0.71,5.74,4.09,8.99c2.91,2.8,6.89,2.87,9.35,4.83c3.74,2.97,7.21,11.27,11.98,14.2
	c4.78,1.05,1.93-15.99,1.49-18.95c-2.2-14.59-8.26-35.16-12.39-49.76c-0.64-2.26-4.8-16.19-5.64-16.39
	c-10.38,0.6-21.17-1.78-31.4-2.18c-89.31-3.47-178.36,2.06-267.14,9.9l-180.5-0.04l8.67,24.42l-1.76,1.58l-43.95,3.48l-1.05,4.95
	c-5.7,0.88-12.4,3.09-12.64-5.01c-1.72,1.38-7.32,0.67-8.01,1.28c-0.99,0.86,0.8,4.23-5.13,5.2c-4.1,0.68-9.48,1.18-9.34-4.13
	l-39.58,3.07l-0.63,1.13c7.88,0.94,7.55,7.77-0.52,8.74c-6.01,0.72-12.11,0.39-8.27-7.17l8.16-0.43l0.63-1.13
	c-12.3-1.46-18.34,5.54-28.9,5.55c-5.53,0-4.34-3.17-5.64-3.45c-20.19,2.99-40.6,1.62-60.91,2.22c-5.17,0.15-12.4,3.38-16.86-0.5
	v-17.45c0-1.92-3.99-11.66-6.21-12.33l-29.78,0.88v-7.63L0,754.54z M795.7,649.58c3.15-2.96,2.81-12.06,1.98-16.14
	c-1.15-5.68-11.36-23.11-15-28.61c-2.21-3.34-11.43-15.77-13.98-17.64c-4.33-3.19-11.27-2.61-14.63,1.69
	c-10.9,13.97,5.43,29.16,11.79,41.5c2.17,4.21,4.18,12.55,6.09,15.44c2.85,4.32,20.03,7.27,23.76,3.76H795.7z M131.6,636.99
	c-8.91,2.77,3.59,20.55,5.76,25.5c3.31-2.13,12.87-1.97,13.17-5.55c0.22-2.68-9.9-19.06-12.83-19.93c-1.72-0.51-4.4-0.55-6.11-0.02
	H131.6z M960.3,658.81c-3.29,0.96-3.89,5.13-5.75,7.33c-2.13,2.51-5.88,2.5-5.99,7.12c-0.04,1.64,3.34,13.07,4.12,15.62
	c1.75,5.67,4.64,11,6.31,16.58c2.27,7.55,2.51,16.57,5.78,23.66c4.78,10.36,9.2,4.38,17.39,2.8c4.91-0.95,13.99,0.88,16.14-5.67
	c3.2-9.75-5.64-40.02-10.22-49.89c-5.24-11.31-13.49-21.71-27.79-17.56L960.3,658.81z M163.28,668.68
	c-19.76-5.4-17.13,8.13-11.92,21.19c1.81,4.53,6.48,14.46,11.15,16.09c5.35,1.87,14.4-1.35,14.18-7.53
	C176.43,690.95,166.31,676.09,163.28,668.68z M857.03,734.9c-6.76-10.01-16.15-43.49-29.96-43.71c-3.35-0.05-22.36,5.38-25.91,6.94
	c-1.27,0.56-2.99,1.77-3.55,3.01c-1.29,2.85,3.61,16.3,5.14,19.9c5.48,12.94,7.6,13.47,22.06,10.56L857.03,734.9z M234.44,713.1
	c-3.74-23.84-24.55-23.7-15.33,2.82L234.44,713.1z M862.23,743.9c-15.86-3.21-32.52-4.17-48.8-3.53c-1.48,1.44,5.24,9.61,6.25,11.73
	c4.64,9.68,4.92,18.91,16.98,23.36c6.54,2.41,21.94,4.24,26.31-2.44C866.86,767.08,864.24,750.81,862.23,743.9L862.23,743.9z
	 M1009.18,747.45c-2.31-0.17-11.83,0.48-13.13,1.62c-7.54,13.12-2.99,28.43,2.22,41.42c3.47,8.66,8.72,20.17,12.83,28.61
	c5.62,11.54,7.69,17.4,22.03,16.11c3.25-0.29,16.98-2.61,17.82-5.07c1.02-6.01-2.03-11.76-4.34-17.11
	c-6.6-15.28-18.64-42.33-26.89-55.98C1017.44,753.29,1013.86,747.79,1009.18,747.45z M764.65,871.52c-1.07,0.87-3.04,5.49-3.32,7.03
	c-1.64,9.19,4.51,31.44,7.37,41.2c1.95,6.67,7.93,25.9,13.4,29.12c5.41,3.18,31.87,3.8,34.88-2.68c3.46-7.48-2.84-30.94-6.64-38.64
	c-2.04-4.13-5.72-7.62-7.59-12.03c-3.29-7.77-5.28-20.78-8.52-27.46c-5.84-12.02-11.3-3.61-19.32,0.08
	c-2.92,1.34-8.48,1.93-10.25,3.39L764.65,871.52z M780.7,991.16c-2.16,0.6-7.75-1.4-8.71,1.07
	C774.15,991.63,779.74,993.63,780.7,991.16z M1026.04,1005.34l-14.17-1.09l3.78,2.21L1026.04,1005.34z M1106.73,1015.13
	c-2.13-3.96-8.33-1.59-11.99-2.16c-1.77,1.35,0.02,1.97,1.61,2.18c3.22,0.41,7.06-0.29,10.38-0.01V1015.13z"/>
<path d="M1099.25,1035.69c2.35,2.1,13.4-3.73,14.95,0.88c1.97,5.85-4.21,6.45-9.12,6.91c-6.13,0.58-25.88,2.57-20.16-7.61
	l-15.65,0.99c-4.32-3-0.6-7.53,3.34-8.4c4.19-0.92,19.35-0.32,23.18,1.43C1098.88,1031.3,1098.71,1035.2,1099.25,1035.69
	L1099.25,1035.69z"/>
<path d="M972.36,1007.77c3.47,9.7-13.25,8.59-19.37,8.47l0.98,4.72c-0.37,1.39-2.61,2.35-3.95,2.66
	c-4.21,0.94-20.48-1.35-25.84-2.05s-5.53-4.04-2.11-7.37l27.65,2.02c-4.21-10.21,7.21-7.15,13.54-7.71
	C966.39,1008.23,969.24,1005.22,972.36,1007.77L972.36,1007.77z"/>
<path d="M850.67,1007.67l40.69,2.05c5.68,1.71,4.98,6.83-1.01,7.65c-5.4,0.74-23.12-0.68-29.35-1.28
	c-2.28-0.22-9.14-1.22-10.54-2.57C848.58,1011.9,849.8,1009.6,850.67,1007.67L850.67,1007.67z"/>
<path d="M978.61,1029.32c0.9-0.13,7.68-2.49,8.97-3.03c2.43-1.02,4.63-5.47,8.01-3.05c1.98,1.42,1.11,6.74-0.84,8.32
	c-0.83,0.67-14.24,5.39-15.04,5.39h-18.54c-3.17,0-3.17-7.63,0-7.63c5.19,0,12.66,0.69,17.45,0H978.61z"/>
<path d="M990.82,1098.18c2.41-0.56,12.66,1.9,16.17,1.97c4.03,0.08,22.18-4.49,18.98,4.81c-1.24,3.58-6.82,1.55-9.11,1.76
	c-8.02,0.74-16.83,1.48-24.92-0.23c-1.86-0.39-3.93-1.46-4.13-3.61C987.63,1100.97,988.98,1098.6,990.82,1098.18L990.82,1098.18z"/>
<path d="M1001.11,1083.7l0.34-5.39c2.5-3.64,20.72,2.46,25.21,2.31c3.32-0.11,6.96-5.05,10.21-0.52c5.21,7.28-4.08,8.29-9.22,8.15
	c-3.08-0.08-25.81-3.42-26.53-4.56L1001.11,1083.7z"/>
<path d="M903.68,1026.88c-1.29,1.15-8.07,2.43-10.11,2.5c-3.56,0.12-22.07-1.63-24.52-2.81c-2.58-1.25-2.96-4.33-0.65-6.07
	c2.58-1.95,17.37,0.39,21.9,0.57c4,0.16,11.83-2.65,13.95,2.01c0.53,1.16,0.36,2.99-0.55,3.81L903.68,1026.88z"/>
<path d="M915.61,1042.55c6.1,0.98,12.16,1.1,18.35,0.99c5.02-0.09,12.44-3.6,15.82,1.52c4.52,6.84-4.88,4.78-7.14,4.99
	c-4.72,0.45-28.17,3.4-29.92-1.8c-0.4-1.2-0.15-2.57,0.45-3.68L915.61,1042.55L915.61,1042.55z"/>
<path d="M838.36,1012c1.95,4.48,1.45,7.75-3.74,8.49c-4.34,0.62-27.34-0.48-30.28-2.27c-2.45-1.48-2.57-3.76-0.84-5.91
	c2.52-3.13,16.69,0.58,21.32,0.69C829.68,1013.12,833.68,1012,838.36,1012L838.36,1012z"/>
<path d="M794.63,1041.06c-0.86,0.84-6.48,2.14-8.05,2.31c-4.35,0.48-21.47-0.25-24.77-2.25s-1.81-6.6,1.11-7.28
	c3.13-0.73,15.19,2.37,20.55,2.06c5.9-0.35,5.92-3.14,6.7-3.31C796.76,1031.16,797.69,1038.07,794.63,1041.06z"/>
<path d="M937.47,1104.3c-1.1,1.06-7.14,1.95-9.16,2.28c-5.46,0.89-15.35,2.29-20.59,2.34c-1.21,0.01-4.66-0.61-4.94-1.81l0.2-4.05
	c1.22-3.51,20.9-3.17,25.26-4.18c3.04-0.71,4.47-4.5,8.39-2.54C939.32,1097.69,939.42,1102.4,937.47,1104.3L937.47,1104.3z"/>
<path d="M1066.65,1058.49c-1.75-1.69-1.12-5.67,0.82-6.85c2.31-1.42,18.25,2.28,23.53,1.74c4.89-0.5,9-5.55,10.98,1.57
	c-0.82,3.22-3.5,5.42-6.77,5.92C1091.55,1061.44,1068.43,1060.21,1066.65,1058.49L1066.65,1058.49z"/>
<path d="M963.64,1077.54c4.66-1.28,5.7,2.99,4.44,6.66c-0.77,2.23-6.03,3.39-8.28,3.71c-4.03,0.56-20.68-0.4-23.57-2.03
	c-2.41-1.36-3.99-3.5-1.87-5.95c2.3-2.8,14.6,0.36,18.99,0.21S960.16,1078.49,963.64,1077.54L963.64,1077.54z"/>
<path d="M855.79,1069.81v4.61c-0.19,0.99-0.82,1.27-1.68,1.59c-5.04,1.83-20.77,5.36-26.01,5.66c-1.68,0.1-7.77,0.02-8.19-1.81
	c-1.78-7.65,4.62-5.19,9.05-6.11S853.71,1066.47,855.79,1069.81z"/>
<path d="M748.54,1015.14h23.99c2.37,0,5.76,0.23,8.17,0.52c6.5,6.94-2.29,8.38-8.2,8.28c-7.13-0.12-15.17-2.04-22.65-1.39
	C746.64,1021.6,745.62,1017.08,748.54,1015.14L748.54,1015.14z"/>
<path d="M881.57,1063.12c-0.68-0.19-2.75-2.45-2.55-3.62c0.49-1.44,1.18-3.3,2.73-3.84c3.73-1.29,18.49,0.03,23.85-0.13
	c3.44-0.1,11.04-3.68,10.36,2.64c-0.19,1.77-3.71,4.95-4.95,4.95C904.76,1063.12,885.99,1064.36,881.57,1063.12L881.57,1063.12z"/>
<path d="M920.14,1085.88c-8.84,3.11-18.31,4.22-27.71,3.45c-2.52-0.21-7.92-0.52-8.22-3.87c-0.65-7.32,13.55-3.29,19.2-3.76
	c6.44-0.54,18.8-7.03,16.72,4.19L920.14,1085.88z"/>
<path d="M961.81,1064.11c-5.14-7.65,15.43-7.28,18.85-7.66c3.16-0.36,7.06-2.08,10.02-2.1c6.33-0.05,10.41,6.7,3.02,8.38
	c-5.62,1.27-18.96,2.49-24.9,2.67c-1.38,0.04-6.48-0.53-6.99-1.28V1064.11z"/>
<path d="M724.82,1006.6c6.16-1.02,12.63,8.31-3.49,9.67c-6.39,0.54-33.2,2.19-21.64-8.6c5.94-0.05,13.8,1.62,19.45,0.96
	c2.6-0.31,4.07-1.76,5.68-2.02V1006.6z"/>
<path d="M1057.29,1065.42c2.38-0.77,5.77,0.99,8.5,1.02c8.35,0.08,16.44-2.84,24.1,0.98c2.31,10.28-4.17,5.32-8.84,5.48
	c-5.09,0.17-26.45,4.58-25.65-4.84c0.11-1.3,0.58-2.2,1.88-2.63L1057.29,1065.42z"/>
<path d="M799.06,1090.21c-2.29,3.77-26.25,4.18-31.46,1.84c-1.96-2.39-1.96-6.45,1.66-7.12c5.12-0.94,13.92,0.23,19.67,0.05
	c2.95-0.09,8.93-2.94,10.15,0.66c0.36,1.06,0.52,3.67-0.03,4.57H799.06z"/>
<path d="M1070.42,1015.49c1.03,0.89,2.76,3.99,2.41,5.44c-1.44,6.05-31.91,7.67-33.59,1.1c0.22-7.62,12.44-2.9,18.97-3.62
	c3.89-0.43,6.05-1.56,8.89-4.15C1068.17,1014.02,1069.58,1014.78,1070.42,1015.49L1070.42,1015.49z"/>
<path d="M1070.2,1087.11c0.41-0.11,1.41-2.02,3.33-2.23c4.89-0.56,6.38,7.44,2.42,9.14c-2.52,1.08-25.65,1.32-28.42,0.5
	c-4.36-1.29-2.29-7.41-1.86-7.41C1051.31,1087.11,1065.95,1088.21,1070.2,1087.11z"/>
<path d="M1043.21,1038.22c6.12,0.67,12.13,1.04,18.32,0.96c4.39-0.06,9.66-3.72,11.44,2.68c0,3.06-4.77,4.46-7.22,4.81
	c-3.3,0.46-24.12,0.18-25.93-1.07C1035.6,1042.69,1039.71,1039.33,1043.21,1038.22L1043.21,1038.22z"/>
<path d="M124.3,806.89l0.96,5.8c-2.31,4.37-14.58,5.85-16.09,1.12c-2.46-7.69,15.18-3.33,10.06-8.13c-1.6-1.5-5.21-3.56-0.37-5.87
	c0.57-0.27,11.54-1.6,12.61-1.55c2.42,0.11,3.97,2.51,3.81,4.78c-0.4,4.3-7.65,4.05-10.98,3.86L124.3,806.89z"/>
<path d="M1099.64,1101.28c0.37-0.09,1.37-1.89,3.32-2.2c7.99-1.29,4.9,9.83,1.04,9.83h-26.17c-2.66,0-2.66-7.63,0-7.63
	C1082.96,1101.28,1095.74,1102.28,1099.64,1101.28z"/>
<path d="M834.68,1057.67c-2.25-0.69-2.55-6.83,0.16-7.48c7.56-0.08,15.02-0.23,22.48-1.5c2.14-0.36,6.97-4.35,8.32,1.01
	c0.73,2.9-3.14,5.43-5.51,6.16c-1.16,0.36-8.37,1.81-9.1,1.81c-3.59,0-13.94,0.74-16.36,0L834.68,1057.67z"/>
<path d="M1027,1042.27c-1.22,1.9-24.24,3.93-27.72,3.45c-2.19-0.3-4.88-1.16-4.88-3.87c0-5.42,9.09-3.42,12.56-3.82
	s18.11-3.47,19.7-1.15C1027.29,1037.8,1027.56,1041.41,1027,1042.27z"/>
<path d="M828.14,1042.4c-2.51-0.79-3.26-6.29,0.18-7.46c3.14-1.07,13.06,0,17.31-0.13c2.92-0.09,5.81-1.5,8.68-1.23
	c3.65,0.34,5.41,3.8,3.67,6.51c-0.23,0.35-7.62,2.31-8.04,2.31c-4.49,0-18.88,0.92-21.81,0L828.14,1042.4z"/>
<path d="M712.16,998.64c-2.92-9.68,12.41-6.15,18.98-6.36c3.92-0.12,11.77-3.76,12.32,2.88c0.15,1.79-3.52,4.89-5.13,5.24
	c-1.84,0.39-18.41-0.24-21.42-0.53C715.26,999.71,713.65,999.34,712.16,998.64z"/>
<path d="M1048.67,1057.94c1.34,1.35,1.3,3.89,0.36,5.51c-3.11,4.78-20.19,2.84-25.4,1.54c-5.92-1.48-7.72-4.21-2.28-8.24
	c6.58,0.9,12.6,2.61,19.36,1.95C1043.32,1058.45,1045.95,1055.18,1048.67,1057.94L1048.67,1057.94z"/>
<path d="M803.31,1025.2c2.93-0.63,18.77-0.78,21.34-0.02c3.46,1.02,4.65,6.64,0.22,7.41c-3.78,0.66-21.39,1.66-23.9-0.09
	c-2.18-1.52-2.59-4.01-0.65-5.93C801.23,1025.94,802.22,1025.44,803.31,1025.2L803.31,1025.2z"/>
<path d="M862.34,1095.97c6.45,12.42-33.24,13.72-27.17,1.44c4.53-1.81,9.14,0.8,13.68,0.69s8.72-3.37,13.49-2.14V1095.97z"/>
<path d="M744.58,1024.82c-1.67,2.73-25.15,4.94-29.14,2.18c-0.43-2.01-0.71-5.47,1.64-6.25c7,1.84,18.15-2.82,23.82-2.33
	C743.75,1018.67,745.92,1022.63,744.58,1024.82z"/>
<path d="M936.37,1037.77c-2.6,2.51-21.24,1.43-24.79-0.29c-2.58-1.25-2.96-4.33-0.65-6.07c3.18-2.4,9.97,0.12,14.28,0.17
	c3.28,0.04,7.94-2.14,10.35-0.66c1.93,1.19,2.56,5.17,0.82,6.85H936.37z"/>
<path d="M875.86,1043.22c-0.89-0.76-1.49-3.23-1.22-4.41c1.24-5.29,9.08-1.78,12.32-1.82c3.07-0.04,9.46-2.59,11.84-2.04
	c2.79,0.65,4.06,4.77,1.87,6.94C898.19,1044.34,878.78,1045.73,875.86,1043.22L875.86,1043.22z"/>
<path d="M727.99,1032.76c4.81-1.1,9.33,0.87,14.01,1.02s10.73-4.08,11.5,3.66c-0.63,6.94-18.66,3.82-23.21,2.5
	C726.09,1038.72,724.17,1035.53,727.99,1032.76z"/>
<path d="M1026.95,1017.57c6.46-0.27,7.86,5.05,1.9,7.47c-4.04,1.64-28.67,5.97-23.01-3.38
	C1006.88,1019.95,1023.72,1017.71,1026.95,1017.57z"/>
<path d="M680.06,991.33c2.3-0.53,8.79,1.91,11.84,2.04c4.87,0.21,9.58-4.27,10.16,4.64c-1.38,5.65-23.55,2.75-24.82-2.16
	c-0.49-1.87,1.09-4.13,2.83-4.53L680.06,991.33z"/>
<path d="M794.63,1055.77c3.18-0.5,11.97-0.89,14.76-0.07c3.45,1.01,4.67,6.58,0.22,7.41c-5.6,1.04-14.32-0.47-20.54,0.95l-1.88-2.6
	c-0.35-4.26,4.12-5.17,7.45-5.69L794.63,1055.77z"/>
<path d="M234.26,862.65l0.79,5.3c-3.73,2.4-23.35,8.41-24.43,2.56C209.47,864.29,229.92,862.28,234.26,862.65L234.26,862.65z"/>
<path d="M286.87,787.16c-0.57-0.84-0.09-3.25,0.44-4.27c2.02-3.88,9.39-1.48,13.07-2.19c3.38-0.65,5.52-6.83,9.09-0.29l-0.35,4.68
	c-1.81,4.89-21.18,3.69-22.26,2.08L286.87,787.16z"/>
<path d="M162.21,805.97c6.21-0.83,7.36,4.85,2.15,7.71c-3.95,2.16-25.3,6.05-19.34-4.08l17.2-3.62L162.21,805.97z"/>
<path d="M282.12,800.6l0.89,4.08c-1.18,1.4-2.85,2.65-4.66,3.05c-2.35,0.52-18.41,1.55-18.91-0.48c-0.89-3.59,0.36-5.18,3.5-6.2
	c2.6-0.84,17.8-1.82,19.16-0.46L282.12,800.6z"/>
<path d="M729.61,1067.34c-0.44-2.03-0.7-5.48,1.64-6.25l19.55-1.36C759.13,1069.38,731.32,1070.09,729.61,1067.34z"/>
<path d="M273.87,831.79c-1.56-10.15,4.91-4.96,10.05-5.31c2.71-0.18,9.96-4.79,11.44-0.37
	C298.43,835.23,278.65,835.75,273.87,831.79z"/>
<path d="M229.26,830.6c-0.77-0.77-1.19-2.26-1.15-3.38c1.02-4.67,10.44-4.68,14.21-5.36s6.01-4.8,8.31,2.17l-0.83,3.09
	c-1.76,2.19-18.67,5.33-20.54,3.47L229.26,830.6z"/>
<path d="M130.99,866.7c-1.48-2.37,0.18-6.05,3.07-7c1.99-0.65,16.52-2.79,17.51-2.18c8.62,8.85-19.32,11.17-20.58,9.17V866.7z"/>
<path d="M150.21,832.14c2.71-0.44,4.33,0.18,5.54,2.69c1.3,7.01-21.1,11.23-22.62,5.09c-1.35-5.49,6.86-4.42,9.76-5.18
	c2.39-0.62,5.66-2.34,7.31-2.6L150.21,832.14z"/>
<path d="M55.06,839.59c-2.71-0.83-2.16-6.39,1.31-7.41c1.98-0.58,17.8-0.56,18.93,0.25l1.07,5.33c-0.23,0.71-2.49,1.83-2.78,1.83
	C69.59,839.59,57.75,840.41,55.06,839.59L55.06,839.59z"/>
<path d="M336.65,819.7c-2.67,2.64-20.77,2.48-20.27-3.35c0.56-6.53,6.75-2.6,10.1-2.92c2.23-0.21,4.08-2.46,6.59-2.22
	c3.72,0.36,6.51,5.62,3.59,8.49L336.65,819.7z"/>
<path d="M130.51,820.18c1.76-0.04,2.78,1.29,3.44,2.74c2.06,6.25-13.94,8.84-18.08,8.77c-3.53-0.06-5.1-5.04-1.84-7.28
	C114.73,823.93,129.66,820.2,130.51,820.18z"/>
<path d="M1099.92,1077.57c5.34-0.65,13.12,2.04,7.43,6.35c-1.9,1.44-18.02,4.96-19.74,2.12
	C1083.89,1079.9,1095.89,1078.06,1099.92,1077.57L1099.92,1077.57z"/>
<path d="M83.02,800.19c-0.44-2.02-0.69-5.48,1.64-6.25c6.78,2.22,21.63-8.51,18.4,4.23C101.3,801.64,86.77,802.43,83.02,800.19z"/>
<path d="M190.61,798.38c6.51-0.38,7.68,5.25,2.11,7.67c-2.93,1.27-15.81,4.14-17.76,0.82C171.94,801.06,186.75,798.6,190.61,798.38z
	"/>
<path d="M186.18,873.59c4.16-0.59,5.82,1.56,4.48,5.62c-0.97,2.96-11.92,4.84-14.8,4.73c-4.55-0.17-6.7-4.6-2.95-7.2
	c0.56-0.39,11.63-2.92,13.27-3.16V873.59z"/>
<path d="M211.33,808.26c6.7-0.59,7.91,4.44,3.94,7.26c-2.13,1.51-15.96,2.97-17.38,0.08C194.55,808.78,206.56,808.68,211.33,808.26z
	"/>
<path d="M245.18,808.92c-4.51,1.05-20.39,8.69-19.55-0.38C226.01,804.41,249.68,797.64,245.18,808.92z"/>
<path d="M184.01,833.22c4.07-0.45,6.49,3.76,2.41,6.89c-3.3,2.53-18.58,7.31-16.16-0.86C171.01,836.72,181.37,833.51,184.01,833.22z
	"/>
<path d="M95.72,814.73c1.28-0.34,2.33-0.46,3.5,0.29l2.03,2.44c2.57,9.19-20.87,9.31-16.8,1.4c1.53-2.97,5.65-1.85,8.48-2.46
	C93.9,816.19,94.79,814.97,95.72,814.73z"/>
<path d="M202.55,837.7c3.95-0.6,11.9-1.67,9.94,4.45c-0.76,2.38-15.55,6.89-17.2,2.16C194.26,839.36,198.54,838.3,202.55,837.7z"/>
<path d="M165.89,795.83v-4.61c0.62-1.81,13.5-4.85,15.67-2.9c6.91,6.23-11.74,10.84-15.67,7.5V795.83z"/>
<path d="M231.31,854.71c-4.16-6.64,8.63-7.7,12.42-9.64C256.97,851.57,233.62,858.38,231.31,854.71z"/>
<path d="M273.42,777.64c3.8-0.54,5.33,0.75,4.67,4.68c-0.71,4.23-12.34,6.31-15.93,3.92C258.23,780.82,269.7,778.18,273.42,777.64
	L273.42,777.64z"/>
<path d="M92.78,844.95c-0.95-1.41,0.34-5.1,2.07-5.91c2.01-0.94,4.15-0.15,5.94-0.6c2.19-0.56,6.72-4.52,8.12-0.31
	c3.06,9.24-14.54,9.2-16.12,6.83L92.78,844.95z"/>
<path d="M68.48,809.38c3.62-0.31,8.19-1.11,6.59,4.38c-1.34,4.6-11.94,5.21-15.73,3.01C57.04,810.3,63.62,809.79,68.48,809.38z"/>
<path d="M237.98,795.69c-5.02-8.27,13.67-8.15,14.87-3.32C254.22,797.87,241.69,799.45,237.98,795.69z"/>
<path d="M171.44,825.14l-0.58-3.79c1.6-3.41,14.14-6.98,15.47-1.72C187.58,824.57,174.33,827.88,171.44,825.14L171.44,825.14z"/>
<path d="M187.36,856.87c-0.98,1.61-9.92,3.17-12.2,2.19c-2.11-0.67-2.3-3.84-1.66-5.7C174.54,850.29,192.63,848.22,187.36,856.87z"
	/>
<path d="M205.24,801.16l-0.83-3.11c1.25-4.74,9.52-5.5,13.19-3.24C220.79,802.62,210.61,804.05,205.24,801.16z"/>
<path d="M312.61,799.47c9.62-2.86,15.88,5.13,7.17,7.16C308.76,809.21,306.58,801.26,312.61,799.47z"/>
</svg>
