<?xml version="1.0" encoding="UTF-8"?>
<svg id="illustration" data-name="illustration" fill="currentColor" xmlns="http://www.w3.org/2000/svg" viewBox="0 0 1117.09 1117.09">
  <path d="M45.8,0c5.66,12.42,13.27,24.93,16.94,38.12,5.48,19.74,8.04,41.5,21.21,58.39,1.09,1.4,9.17,8.69,10.67,9.05,10.53,2.53,13.44-13.14,15.03-20.46,2.96-13.6,1.79-27.9,6.91-40.84,14.68-4.28,28.17,15.56,34.49,26.59,13.91,24.29,17.89,57.74,30.87,80.34,3.28,5.7,4.43,8.45,11.6,8,17.27-1.08,20.53-20.99,26.88-33.13,2.82-5.38,15.11-26.44,19.51-28.47,6.65-3.08,19.02,3.87,22.87,9.8,9.07,17.86,22,35.41,30.74,53.22,9.72,19.8,13.13,42.04,29.79,57.43,10.3,9.51,25.55,49.47,33.05,64,5.49,10.63,13.67,20.25,18.6,30.47,23.61,48.93,41.02,101,63.18,150.54,1.68,3.75,4.63,10.56,6.7,13.73.96,1.47,3.5,1.48,4.21,3.72,1.87,5.92-4.66,9.52,3.96,10.21,15.32,1.22,27.91-1.82,42.59-3.31,18.24-1.85,36.25-3.18,54.26-6.8,1.15-.35,3.02-2,3.49-3.06,1.3-2.95.83-21.11.62-25.64-.76-16.35-4.59-32.72-5.49-49.03-1-18.21,3.66-42.69-4.56-58.68-1.23-2.4-11.36-17.9-12.51-18.09-10.21,6.99-19.05,29.69-34.28,23.17-5.41-31.63,6.89-61.96,4.49-93.63-2.1-27.73-14.56-53.12-29.7-76.07-4.63-7.02-11.21-13-15.07-20.38-3.75-2.67-6.36,16.52-7.01,18.59-3.23,10.29-9.06,18.51-21.38,14.72-5.67-1.75-12.35-14.99-14.65-20.25-4.92-11.28-8.39-25.51-13.78-36.38-3.05-6.14-8.94-12.61-12.46-19.16-8.12-15.09-12.59-31.73-22.03-46.66-3.55-5.62-9.66-11.74-13.18-17.35-8.07-12.85-15.86-30.3-24.19-42.08-2.44-3.44-7.5-6.78-9.79-10.63h166.83c5.74,8.15,6.56,17.94,9.78,26.75,6.01,16.46,16.67,37.15,20.28,53.86,2.19,10.15,2.2,22.71,4.04,33.03.71,3.99,3.28,18.19,7.02,19.23,5.8,1.62,20.64-11.98,26.98-14.09,8.52-2.83,16.29-1.49,21.89,5.48,14.55,18.12,7.04,57.74,3.9,79.19-3.76,25.75-6.61,52.21-4.51,78.44,1.24,15.58,7.37,11.42,16.91,3.75,6.01-4.83,6.94-8.6,11.51-13.57,5.27-5.73,10.9-6.51,18.82-4.71,3.02.69,5.93,5.07,7.53,7.74,32.81,54.81,5.13,96.4-6.27,151.16-2.25,10.82-2.96,22.91-5.35,33.91-1.19,5.47-5.2,10.63-3.38,16.39l35.98,3.07,15.11-57.89c24.99-71.78,33.07-150.05,52.95-222.92,4.79-17.56,12.47-34.35,16.54-52.16-.6-1.51-2.07-.18-2.97.3-7.92,4.3-19.3,17.5-25.37,24.78-7.99,9.58-18.05,27.14-26.55,35.06-2.82,2.63-12.37,9.89-15.46,4.72-1.11-1.85-.71-15.83-.4-18.96,1.39-13.86,9.12-30.05,11.54-45.15,2.33-14.5,1.51-29.1,4.67-43.31l1.09-91.04c-7.32,8.15-24.06,31.41-34.59,33.56-5.93,1.21-9.46.37-10.11-5.74-1.37-12.83,1.01-27.83,0-40.91h218.08c-1.01,17.55,1.37,36.58-.02,53.96-1,12.54-5.59,37.01-17.76,43.3-6.62,3.43-12.25,1-18.69,2.03-5.32.85-13.92,11.35-18.62,15.18-15.89,12.96-27.88,15.91-26.74,39.86,1.11,23.24,12.15,44.58,11,67.6-1.67,33.37-12.06,66.81-24.93,97.2-16.7,39.45-36.64,84.32-57.05,121.77-6.63,12.16-9.95,15.92-18.98,25.73-4.44,4.82-3.63,10.42-3.3,16.43l31.11,5.39c-.19-7.51,7.08-8.79,11.01-12.44,9.41-8.75,16.42-22.74,24.57-33.22,18.82-24.2,39.66-47.12,58.21-71.54,22.24-29.27,43.02-64.92,66.58-92.62,4.89-5.75,11.4-10.68,16.29-16.42,12.29-14.41,48.14-65.86,63.24-69.78,3.32-.86,10.94-1.36,10.94,3.3v34.35l7.45-9.45c29.7-42.25,49.77-95.33,84.13-133.64,2.19-2.44,5.72-6.53,9.06-6.15,5.94,1.47,5.7,26.09,6.31,31.93.11,1.04.49,4.1,2.07,3.9l45.81-74.14v210.99c-10.5,7.88-19.01,19.7-28.93,27.77-5.23,4.26-16.4,11.74-22.33,4.95-3.78-4.32,1.12-32.56-.53-39.8l-38.14,38.19c-16.59,15.7-27.54,33.43-50.78,40.81-17.84,5.67-27.99,4.97-30.5-15.76-3.52,1.97-7.54,3.71-10.82,6.07-13.78,9.89-27.7,26.77-39.33,39.18-31.36,33.45-63.48,63.75-90.92,100.98-10.41,14.13-18.82,29.88-31.19,42.39,6.74-.43,13.4-2.81,20.13-3.3,32.51-2.36,66.76.69,99.22,1.18,14.14.21,28.31-.3,42.45.02,4.26-12.48,6.95-25.69,12.66-37.68,3.43-7.2,6.65-16.11,16.41-13.13,9.23,2.81,18.5,10.36,26.86,14.56,7.9,3.97,33.53,6.58,41.47,2.62,4.84-2.41,10.41-17.98,13.61-23.47,3.39-5.81,9.28-11.7,11.99-17.45,2.45-5.18,2.55-12.78,8.6-16.49,14.03-8.59,11.98,24.16,26.04,18.41,6.37-2.61,16.52-15.14,24.03-17.94v710.93H0v-461.23c18.36,3.97,36.24,14.34,50.17,26.7,18.92,16.78,29.9,42.37,46.31,61.64,13.85,16.25,45.97,43.73,68.64,40.26,7.72-1.18,16.14-10.11,16.97-17.92,2.63-24.68-8.19-27.29-12.42-47.29-6.56-31.03,17.11-21.69,32.56-8.84,17.05,14.18,47.38,53.47,67.7,56.6,8.02,1.23,12.38-1.97,17.39-7.55,9.92-11.02,6.23-19.31,25.06-17.45,20.82,2.06,18.9,18.45,28.45,32.61,5.81,8.62,14.87,15.91,24.06,20.65,4.28,2.21,22.41,11.36,22.3,2.87-.06-4.93-16.22-16.86-20.29-21.24-22.88-24.62-33.83-56.41-62.54-75.94-19.74-13.43-42.31-23.77-60.13-40.19-38.59-35.55-49.7-81.58-80.2-121.52-7.41-9.71-21.2-14.34-31.05-5.03-5.75,5.44-2.49,12.94-2.08,19.63.03.56.68,6.05-1.15,4.42-19.14-25.7-16.41-61.25-37.1-86.12-5.07-6.1-22.68-22.92-28.61-10.13-2.61,5.62-.05,28.78-.93,37.23-.46,4.41-1.41,12.38-6.79,12.44-5.21-.51-15.89-20.56-20.34-25.38-1.53-1.65-5.59-4.88-7.61-6.57-7.91-6.6-18.18-13.67-28.37-15.79v-80.69c5.21-1.28,8.18-6.71,13.7-7.56,12.91-1.99,24.62,1.5,33.2,11.36,3.3,3.79,9.26,21.41,14.48,20.07,1.71-.44,13.7-16.52,14.8-19.11,3.31-7.86,4.89-18.27,8.03-26.86,1.63-4.46,5.41-14.84,7.99-18.17,3.91-5.04,8.49-3.75,14.03-2.19,10.61,2.99,24.43,22.92,32.2,31.04,14.68,15.32,28.51,27.08,44.16,40.89,12.95,11.43,31.14,34.37,41.98,48.52,2.79,3.64,15.61,23.83,16.94,24.5,1.67.84,1.89-1.16,2.18-2.14,1.71-5.96.56-13.55,7.57-17.54,4.25-2.42,20.35-1.41,24.97,1.31,1.49.87,10.51,8.18,12.16,9.65,8.22,7.34,9.82,15.39,16.34,22.91,4.44,5.12,8.4,6.69,14.24,9.84,13.68-1.38,26.96-5.07,40.41-7.56,6.45-1.2,13.42-1.1,20.28-2.62,3.14-.69,13.77-2.83,14.01-5.67-1.76-7.17-4.35-14.26-7.49-20.92-15.85-33.61-40.43-61.16-62.15-90.51-19.25-26.01-36.43-56.71-57.96-80.52-11.96-13.22-29.97-32.53-46.61-38.44-3.27-1.16-6.75-1.64-10.11-2.42-2.38,12.59,4.46,22.44,7.12,33.76,2.96,12.61,2.85,25.63,2.71,38.52-11.34,10.23-15.77-1.46-22.89-8.53-13-12.92-25.6-26.14-38.24-39.17-16.46-16.98-49.4-55.54-74.22-55.91-6.64-.1-9.02,7.03-11.72,12.41-3.48,6.93-8.42,23.78-17.1,25.41-18.27,3.44-37.11-16.22-55.02-16.3V0h45.8ZM471.05,871.21c1.99.45,2.13-.61,3.08-1.82,2.33-2.99,6.28-10.88,7.28-14.53,5.62-20.72-3.62-27.77-8.72-45.8-2.08-7.33-6.12-23.87-4.66-30.83.69-3.29,4.44-6.94,3.95-10.93-.86-3.59-6.78-3.57-9.63-2.37-11.07,4.66-9.06,43.49-12.03,53.94-4.21-1.93-7.83-10.85-13.08-8.21-4.79,2.42.5,16.73-4.91,19.1-1.96.86-4.37-6.34-5.48-7.59-5.9-11.85.14-24.95-1.75-37.5-8.34-7.72-12.95,12.62-13.89,18.51-1.25,7.83-4.23,32.33-3.43,39.15.75,6.32,6.46,10.76,12.02,13.05,1.44.6,8.32,2.86,9.17,2.78.94-.09.49-4.43,6.58-3.3,1.87.35,2.94,2.31,4.94,2.16,4.49-11.83,13.21,2.37,14.2,8.73,2.7,2.47,6.71-12.04,14.18-8.2,4.35,2.23,1.69,9.89,2.17,13.65ZM707.87,850.27c-9.73-15.21-24.35-47.04-46.99-35.11-8.85,4.67-14.28,17.45-13.1,27.06,1.4,11.39,11.2,22.73,13.46,33.24,1.12,5.24.44,14.55.63,20.27.07,2.18,1.35,4.28,1.15,6.53-.42,2.84-6.03,4.87-8.13,7.22-4.95,5.53-6.41,21.6-.13,26.08,5.82,4.15,27.39,2.86,35.46,6.51-.28-1.89-2.21-1.85-3.51-2.48-9.05-4.36-19.05-7.08-28.18-11.26-.56-6.25-.03-13.43,6.25-16.69,3.83-1.99,7.13,1.87,6.98-7.18-.13-8-.91-22.5-2.76-30.03-2.54-10.34-14.3-27.18-13.64-36.35.37-5.16,7.42-18.17,12.53-19.17,10.35-2.03,21.74,7,27.75,14.71,4.22,5.42,9.24,21.01,12.51,23.48,3.84,2.89,10.71,1.5,15.07,2.38,18.8,3.77,34.84,26.13,42.08,42.97,7.53,17.52,3.63,23.24.57,40.62-1.01,5.72,5.47-.96,6.75-3.08,6.59-10.88,3.21-19.8-1.18-30.59-5.81-14.29-31.57-53.06-46.52-57.06-5.17-1.38-11.68-1.22-17.04-2.05ZM383.82,876.66c8.64-.62,15-11.31,10.97-19.14l-5.52-.49c1.06,7.27-3.79,13.01-5.45,19.63ZM490.29,865.88c-5.94,1.92-1.18,21.07,7.32,18.33,2.7-1.39,2.05-5.12,1.29-7.6-.28-.92-4-9.4-4.37-9.79-1.17-1.22-2.68-1.44-4.23-.94ZM480.95,888.49c-.46-.69,1.33-2.95.52-4.19-2.76-6.09-22.03,3.04-27.08,1.95-4.73-1.02-14.05-7.97-19.57-9.9-3.05-1.07-18.93-5.95-21.13-6.23-.83-.1-11.08,0-11.64.16-2.88.79-7.53,8.11-7.33,11.21.22,3.32,6.3,10.36,9.28,11.51,1.69.65,1.66-.31,1.65-1.64-.02-3.05-4.12-12.73-.63-13.33,5.18,1.16,19.31,3.77,22.47,7.86.84,1.09.74,3.17,1.25,3.62,1.06.92,4.75-.41,5.22,2.4-10.3-.32-18.17,5.94-26.65,9.89-2.94,1.37-5.65.59-9.08,2.91-12.28,8.3-3.49,26.05,8.47,29.27,3.3.89,10.46-2.33,13.09-4.97-6.66,2.97-27.52-11.94-17.44-16.91,5.85-2.88,23.37-1.62,30.81-2.99,10.81-1.99,28.81-13.15,39.52-13.94,2.52-.19,6.37-.4,7.68,2.22l-.61,7.61,6.91.05c3.9-5.81,1.83-10.34-2.52-14.83-.91-.94-3-1.43-3.2-1.73ZM383.55,908.02c4.22-4.3,3.69-26.8-4.59-25.95l-3.74,2.77c6.31,7.2,6.93,15.99,3.14,24.53,1.54.07,4.11-.26,5.18-1.35ZM509.21,888.67c-9.35-.62-16.76,14.81-4.37,15.25-.99-6,1.71-10.25,4.37-15.25ZM510.3,911.57c-5.3-.33-11.31-.36-15.33,3.74s-4.78,11.6,2.2,11.48c1.63-6.84,8.71-10.38,13.13-15.22ZM387.81,920.64c-3.24-3.33-15.8-7.94-18.16-3.07-1.1,2.26,8.22,2.79,9.08,5.07,4.59,3.87,10.02,8.79,10.55,15.09,2.97,3.31,2.32-9.05,2.12-10.3-.31-1.89-2.27-5.43-3.58-6.78ZM490.66,938.81c.39-1.96-.94-2.78-2.47-3.52-7.51-3.63-20.7-2.31-23.69,6.78,8.93-2.07,16.76-4.32,26.16-3.27ZM454.68,946.44c-1.91-12.72-22.71-8.02-26.16,1.09,8.37-3.12,17.49-2.73,26.16-1.09ZM395.81,944.26c3.51.07,8.35.68,11.52,2.12,1.79.81,12.21,10.2,13.56,4.96,1.57-6.11-18.2-12.9-23.24-11.47l-1.83,4.4Z"/>
  <path d="M0,510.3c15.78,4.85,36.2,41.4,50.83,42.48,9.57.71,19.06-7.15,22.27-15.73,2.04-5.46,5.83-30.27,13.6-14.77,10.54,21.01,17.75,62.69,33.2,79.11,1.44,1.53,14.28,12.78,15.25,13.1,11.36,3.66,20.77-5.57,21.86-16.42.65-6.54-1.92-22.61,11.33-15.65.7.37,9.79,8.53,10.51,9.41,14.47,17.59,25.09,40.86,38.33,59.5,14.45,20.34,42.33,51.39,65.26,61.23,7.51,3.22,17.34,4.06,22.88,10.37-10.31.93-26.71.4-22.9,15.27-1.2.09-2.37.09-3.55-.25-2.41-.71-15.92-9.23-19.26-11.28-9.67-5.94-19.1-12.19-28.77-18.12-16.13-9.88-58.23-39.54-75.45-39.13-11.9.29-20.15,14.05-17.52,25.24.93,3.95,5.48,9.56,7.19,14.61,7.23,21.28,2.22,27.55-16.3,13.03-25.07-19.66-41.75-52.02-66.7-73.96-17.27-15.19-38.91-24.03-62.06-24.63v-113.4Z"/>
</svg>