<?xml version="1.0" encoding="UTF-8"?>
<svg id="illustration" data-name="illustration" fill="currentColor" xmlns="http://www.w3.org/2000/svg" viewBox="0 0 1117.09 1117.09">
  <path d="M173.37,0c4.79,10.53,14.06,17.44,13.07,29.98-2.02,25.56-31.22,24.49-46.21,38.83-19.04,18.22-22.82,43.24-13.18,67.47,3.78,9.51,5.97,14.04,16.62,16.1,17.6,3.39,31.19-2.68,47.45-8.69,6.99-2.58,6.67-7.18,15.57-4.17,9.97,3.38,21.5,18.42,25.41,28.01,11.14,27.28-4.17,41.07-12.37,64.74-9.13,26.36-12.69,62.68-1.87,89.07,2.38,5.81,13.34,21.29,19.06,23.47,15.77,5.99,22.57-26.07,41.69-25.39,7.85.28,8.6,1.95,8.2,9.38-.89,16.69-4.68,35.2,3.17,51.26,10.96,22.42,53.96,30.69,71.38,10.21,4.7-5.52,8.61-15.23,13.83-19.97,9.56-8.67,24.35-17.78,35.07-23.86,1.78-1.01,3.64-1.67,5.69-1.9,30.94-3.48,53.87,9.55,68.35,36.37,1.82,3.37,5.03,17.98,10.44,12.44,4.7-4.81-8.78-25.63-12.33-30.18-19.84-25.41-58.87-35.28-87.38-18.84-8.21,4.74-18.93,17.37-28.22,18.67-19.65,2.73-36.92-10.33-41.57-29.12-7.92-32.04,29.57-39.22,10.37-73.61-12.26-21.96-30.88-19.07-45.56-1.28-5.4,6.54-7.96,14.47-13.11,20.73-2.43,1.01-6.39-7.59-7.06-9.33-4.47-11.65-7.39-26.1-5.9-38.56,1.58-13.21,17.68-24.6,22.23-38.83,4.4-13.74,3.85-46.05-1.6-59.47-8.46-20.85-35.21-6.54-43.98-36.71-.49-1.69-2.92-12.58-2.86-13.45.12-1.63,1.9-2.63,1.99-4.25.09-1.53-1.27-3.45-1.04-5.46,2.33-19.99,9.31-23.3,18.36-38.43,6.21-10.38,9.18-23.17,8.94-35.22h21.81c2.92,5.25,3.84,13.44,7.62,18.01,4.03,4.88,14.88,10.4,19.88,14.75,14.8,12.86,26.09,46.72,21.3,65.65-1.48,5.87-12.4,19.64-15.61,25.83-2.44,4.72-6.94,14.77-8.64,19.71-7.83,22.78,2.11,68.29,34.3,57.2,4.68-1.61,18.52-10.86,20.37-11.16,4.49-.72,10.49,5.18,12.14,9.22,2.89,7.07,2.95,17.88,5.39,26.23,4.68,16.01,21.23,47.34,40.06,48.32,7.67.4,18.06-4.18,24.01-8.81,11.27-8.76,14.1-23.52,21.47-35.23,5.53-8.79,23.07-29.49,32.57-32.87,6.53-2.33,15.4,6.42,15.12,12.86-.64,14.7-8.06,17.31-13.81,27.72-9.34,16.9-7,45.32-.31,62.98,2.4,6.34,6.56,12.18,8.79,18.47,4.58,12.89,7,26.94,12.22,40.11,1.77,4.47,5,15.07,10.25,15.8,8.39,1.18-1.07-13.89-2.62-17.98-7.31-19.28-20.98-62.44-14.5-81.56s29.36-28.3,35.25-50.89c4.77-18.28-1.31-30.34-13.92-43.39-10.66-11.03-14.89-6.51-28.37-7.61-2.89-.24-5.1-1.77-7.71-2.1-10.46-1.3-9.23,1.21-16.49,5.14-13.48,7.32-29.11,21.14-44.52,22.08-9.94.6-29.73-15.86-34.18-24.72-18.81-37.46,31.16-52.1,21.42-83.58-3.38-10.92-13.79-21.22-23.87-26.29-7.29-3.67-16.57-2.71-21.04-9.49s-4.23-15.25-2.66-23.2c2.72-13.83,12.92-18.64,18.38-31.23h279.14c-2.84,9.44-2.46,27.53,2.78,35.93,10.7,17.19,34.05,14.87,46.89,29.44,3.14,3.56,11.25,15.58,13.76,20.04,3.35,5.95,12.25,25.58,10.74,31.58-.21.85-3.26,2.07-4.44,3.43-11.55,13.44-14.41,24.42-11.84,42.49,1.72,12.11,20.74,21.36,25.5,35.56,3.36,10.03,6.84,38.11-6.74,41.18-31.48,7.11-56.77-49.05-85.77-46.57-16.95,1.45-29.37,6.72-38.66,21.37-16.29,25.7.19,50.5-2.39,76.12-.33,3.24-.51,8.34-4.37,7.77-18.51-2.74-34.09-7.51-49.61,6.94-14.9,13.88-13.72,33.61-10.67,51.96.47,2.84-2.21,5.32,2.24,8.86l5.92,27.87c1.62,3.05,4.7,3.21,6.9.76,2.23-3.74-3.99-22.03-4.79-27.94-.55-4.05-2-17.04-.65-20.03,2.55-5.64,18.13-15.81,24.46-16.97,14.64-2.68,23.92,5.33,37.68,3.87,4.02-.43,16.06-5.76,18.48-8.77,4.86-6.07,1.71-14.66,1.64-21.17-.1-9.07-1.33-26.72.29-34.69.48-2.39,5.12-8.92,6.93-10.52,7.05-6.24,17.17-5.86,24.81-1,14.38,9.14,27.38,28.5,41.61,39.07,40.23,29.88,90.09,9.57,83.32-44.07-2.48-19.64-16.47-37-5.79-57.22,4.28-8.11,16.57-7.63,24.87-6.56,3.72.48,8.21,3.29,12.01,3.11,3.09-.15,13.25-4.01,15.83-5.99,6.56-5.05,18.26-32.03,18.63-40.34.8-17.83-23.65-30.41-38.87-31.98-9.51-.98-26.63,2.98-34.53-.37-6.12-2.6-6.7-21.86-6.21-27.55,2.03-23.76,9-23.87,22.92-38.14,11.99-12.28,20.92-31.82,9.77-47.48h284.59v436.69c-2.72,6.76-2.1,27.39-9.05,30.3-1.35.57-2.15.46-3.36-.37l-17.03-52.27c-2.28,13.2-2.3,26.45-2.24,39.84.1,19.74,1.12,40.03.03,59.92-.93,17.04-4.24,34.41-6.45,51.33-8.74,6.26-10.63-19.52-10.97-24.08-1.71-22.77-1.26-45.51-4.5-68.55-2.15-15.3-6.68-31.02-9.37-46.24-1.99-11.28-3.14-22.69-4.69-34.02-1.57-.26-1.48,1.89-1.84,3.03-1.95,6.08-4.5,24.25-6.78,27.84-1.29,2.04-6,2.15-7.45.45-1.03-1.21-2.61-17.61-3.84-21.77-3.74-12.64-10.57-25.73-14.42-39.01-3.51-12.12-5.99-24.65-8.19-37.06l-5.93,32.54c.18,14.75-2.08,29.58-2.17,44.33-.17,26.99,7.97,55.52,10.28,82.88.73,8.67-.25,17.35,1.14,25.97-5.94,5.67-10.31-6.23-14.25-10.69-14.93-16.9-21.28-25.98-32.87-45.64-9.75-16.54-21.28-31.55-31.65-47.95-6.48-10.23-14.69-14.59-22.71-23.08-8.12-8.6-16.32-23.9-29.4-24.02,7.16,23.26,26.24,42.12,35.41,63.82,3.92,9.28,5.03,19.57,8.88,28.87-1.75,7-8.79,3.18-12.57-.1-15.11-13.13-42.31-50.25-58.94-56.64-1.51-.58-3.79-1.49-3.22,1.02,2.38,10.32,14.63,32.42,21.74,40.43,3.52,3.97,14.22,9.12,10.96,13.99-2.39,3.57-10.66-1.68-13.92-3.4-23.66-12.45-34.64-30.87-53.75-46.56-12.6-10.34-23.89-9.13-37.85-14.48-9.09-3.49-18.85-11.6-27.8-14.72-7.86-2.74-31.45-6.02-39.59-5.13-1.67.18-1.82-.6-1.44,1.44,4.3,22.85,28.78,47.57,36.66,69.12,3.08,8.41,4.57,32.57-10.59,21.5-14.89-10.03-31.36-35.3-47.08-42.33-1.1-.49-8.79-3.42-7.51-.13,1.45,3.71,10.13,11.95,12.88,16.57,3.08,5.18,10.47,20.93,6.81,26.05-6.98,9.79-22.26-9.89-27.43-14.17-3.4-2.81-20.09-15.45-23.42-10.51-1.61,2.38,1.09,8.59-4.78,10.48-7.84,2.53-13.95-2.29-20.78-.6,1.94,4.23,5.91,6.9,8.53,10.53,21.72,30.05,25.16,68.43,44.43,99.5,15.11,8.19,34.55,13.05,48.35,23.62,6.36,4.87,10.16,10.68,9.94,18.95.86.86,20.75,1.84,24.24,2.47,10.47,1.89,20.86,6.53,32.01,8.34,46.05,7.45,99.53,10.56,142.74,28.45,27.13,11.24,77.22,61.78,88.83,88.9,16.48,38.5,4.92,78.86-2.49,118.53-7.05,37.72-16.05,75.12-21.48,113.17,1.79-.53,2.64-4.3,3.28-5.97,5.49-14.33,9.56-29.37,13.62-44.17l25.75-135.08c3.81-.88,7.51.29,7.55,4.71-1.76,56.82-9.04,113.47-4.39,170.13.21,2.56.94,6.85,1.6,9.32.27,1.01.27,2.46,1.64,2.14,3.61-9.5,8.12-18.88,11.23-28.58,13.92-43.49,15.44-97.49,16.09-143.1.47-32.91-4.03-66.33,1.33-98.98.63-3.85,1.36-8.25,6.27-5.76,3.74,1.9,1.77,12.18,2.18,16.36.93,9.39,2.98,18.76,3.39,28.23l7.49,27.93c3.86-19.64,3.28-39.56,3.24-59.46-.05-25.71-3.47-52.57-.92-78.33.42-4.19,4.09-21.56,8.21-22.32l5.73,1.94,6.65-7.56v527.74H0v-328.2l17.43,64.33c-.03-19.03.9-38.26,3.42-57.1s7.47-35.65,9.54-53.7c4.01-34.92,4.51-70.76,10.06-105.52.76-4.74,1.9-15.34,7.92-12.51,1.95.68,2.42,5.07,2.75,7.07,12.39,77.06,4.84,156.52,21.38,233.77,2.97,13.88,7.18,27.59,10.38,41.42l2.24-11.44c-6.6-35.94,3.32-70.2,6.46-105.78,1.55-17.51.85-35.82,3.41-53.29.89-6.05,2.71-21.5,11.09-19.02,5.29,1.56,2.86,15.81,2.9,19.94.52,47.46,9.88,100.2,21.95,146.06,6.71,25.52,19.06,48.43,29.37,72.59,2.08.24.71-2.12.56-3.28-2.28-17.62-4.94-35.25-7.1-52.88-.76-6.2-.36-13.66-1.12-19.6-2.8-21.99-11.06-53.17-10.89-74.16.03-3.19,1.58-7.91,1.63-11.45,12.39-9.12,7.14,20.83,15.82,26.17v-25.62c0-13.72,42.35-53.68,54.16-62.51,38.76-28.98,82.28-55.12,122.12-82.87,20.29-14.13,46.79-22.18,69.28-32.12,11.19-4.94,21.41-11.94,33.39-15.11.87-6.48-3-10.93-1.93-17.77.48-3.09,4.66-10.3,6.66-12.96,13.14-17.44,32.35-7.92,39.83-38.68,1.61-6.6,2.4-10.14,4.38-16.33,4.64-14.47,3.92-24.49,6.96-37.74,1.22-5.31,4.5-10.44,5.32-15.93-3.12,5.48-6.03,2.92-9.48,4.11-33.43,11.52-60.7,37.29-90.78,53.17-6.06,3.2-14.87,5.76-21.56,2.95-8.5-3.56-.66-16.58,1.12-22.3,7.92-25.52,18.58-59.28,10.96-85.73-.48-1.68-.35-4.04-2.53-4.54-9.37,14.82-11.79,32.69-18.53,48.54-1.88,4.42-3.95,11.53-9.85,9.9-8.17-2.26-2.57-20.57-2.12-27.32.08-1.25.78-6.04-1.12-6.03-2.77,7.49-6.69,14.6-10.73,21.44-2.4,4.06-10.53,18.18-13.33,20.47-2.42,1.98-8.08,2.6-9.84-.12-2.63-4.08,1.43-12.97.63-17.81-7.78,8.61-14.14,18.59-21.8,27.27-2.98,3.38-15.85,17.27-18.66,18.41-13.17,5.33-10.49-6.31-8.42-14.95l6.35-16.55c-11.73,11.04-22.7,25.44-37.98,31.81-5.61,2.34-15.31,5.56-15.45-3.46-6.97,6.43-13.14,13.82-20.16,20.18-10.21,9.24-20.6,19.53-35.46,19.14-6.2-.16-16.76-2.61-16.91-10.39-.33-16.35,27.83-47.48,36.43-62.85,5.9-10.55,9.83-21.98,13.5-33.38.58-1.81,3.53-4.32,1.89-5.75-10.03,11.46-18.02,27.12-28.36,38.15-9.61,10.24-24.67,20.11-35.44,29.98-2.76,2.53-12.73,16.21-14.22,4.44-1.26-9.92,5.37-17.59,8.98-26.04,5.48-12.84,19.9-41.2,22.46-52.78,1.83-8.29,1.14-19.19,2.56-27.97,1.49-9.25,4.77-19.48,6.12-28.77,6-41.37,8.49-81.77,15.24-123.24,3.1-19.05,5.31-38.23,10.12-56.92l-8.46,19.33c-11.64,49.02-37.68,89.92-58.98,134.02-2.88,5.96-16.66,42.24-18.67,43.49-11.35,7.07-5.83-22.71-5.15-26.97,4.87-30.74,12.17-51.77,12.81-84.32.21-10.44,2.47-17.35,3.21-27.23.11-1.47.93-6.75-1.06-7.07l-30.25,109.87c-10.08,28.91-19.44,57.73-30.26,86.41-1.23,3.25-.09,7.01-4.9,8.29-7.28,1.93-2.64-9.4-2.32-12.23,6.89-60.59,29.82-118.83,25.23-180.93l-2.21-15.76c-5.49,18.6-9.71,37.94-16.35,56.17-7.24,19.87-17.7,38.4-24.32,58.55-5.54,16.86-9.46,27.59-16.06,43.91-3.52,8.7-7.28,24.17-11.37,31.19-1.23,2.1-.73,2.6-3.88,2.09V0h173.37ZM461.24,34.89c.29-5.43-6.02-29.81-14.17-25.67-6.14,3.12.38,6.71,1.11,7.93s3.74,8.38,3.22,9.02c-8.33-5.48-21.81-5.45-24.8,5.85,4.48,9.75,7.95-.5,10.26-1.31,5.72-2,14.69,3.15,14.54,9.63-4.97,1.74-9.35-3.68-13.58-3.25-6.81.69-16.19,16.93-13.52,23.81,2.44,1.37,4.88,1.36,7.32,0-.87-3.6,3.32-14.98,7.4-14.88l4.74,1.98c-.06,2.86-2.76,3.78-3.83,6.5-1.67,4.23-2.25,9.76.72,13.49,4.27,5.38,11.07,1.6,9.16-2.53-1.41-3.07-5.99-2.71-1.71-9.34,5.55-8.6,7.78.28,12.79,1.43,7.44,1.71,18.45-2.32,14.57-11.29-4.61-3.33-7.53,7.49-13.76,2.86-4.54-3.38,2.63-5.05,4.87-7.24,3.33-3.26,14.62-17.77,5.89-19.95-5.28-1.32-5.15,11.68-11.23,12.97ZM1048.63,19.78c-4.03,1.13-7.49,10.07-9.51,11.29-2.29,1.38-7.24.16-10.26.64-14.11,2.23-16.93,15.16-15.85,27.65.17,1.94,2.03,3.57,1.89,5.32-.28,3.53-7.65,12.53-1.94,15.5,6.24,3.25,6.86-10.94,9.33-11.48,14.51,6.51,27.47-3.1,25.58-19.14-.4-3.4-4.44-10.12-4.16-11.77.76-4.48,15.1-14.48,8.49-17.65-1.14-.7-2.31-.73-3.57-.37ZM63.79,59.97c6.66.75,14.46-.55,21.26,0l-29.11,10.69c-7.47,5.57-10.43,13.36,1.58,15.23,4.71.73,7.59-1.05,11.72-.93,5.58.16,11.95,2.23,17.99,1.19.45,2.46-.11,1.74-1.39,2.44-5.03,2.73-12.05,2.86-17.14,4.65-3.98,1.41-17.46,10.24-17.49,14.17-.07,7.99,18.07,3,22.4,2.73s8.38.14,12.53,0c-4.95,5.92-30.38,11.85-33.23,17.46-.59,1.17-.74,2.38-.65,3.67,6.57,5.13,12.15-2.34,17.88-4.98,6.29-2.89,24.7-7.48,24.81-15.59.03-2.23-3.47-8.21-5-8.21h-19.63c-.61,0-3.8,2.69-3.81.01,5.73-2.85,28.38-5.87,29.24-12.79.35-2.82-1.4-7.28-3.59-9.07-2.49-2.04-14.6-3.12-18.52-3.27-4.65-.18-9.12.6-13.67.59,6.69-6.76,33.65-8.47,37.37-16.1,1.59-3.26-1.13-8.36-4.35-9.3-5.42-1.59-18.14.3-24.84-.24-2.74-.22-9.01-.7-10.37-3.24l34.09-11.17c5.57-2.73,5.74-9.88-1.65-8.22-7.59,1.71-25.07,7.99-32.43,11.2-17.94,7.83-10.01,17.27,5.99,19.07ZM900.36,29.71c-5.65.94-10.2,5.23-12.55,10.33-5.75,12.44-7.9,45.96,1.91,56.48,5.86,6.29,15.58,7.81,21.67.9,11.93-13.55,10.02-51.48-.92-65.26-2.81-3.54-5.89-3.15-10.11-2.45ZM575.5,55.94c-22.66,1.58-47.86,6.65-65.21,22.01-4.11,3.64-22.64,24.23-22.46,28.38.09,2.07,2.44,4.11,4.05,5.31,13.51,10.07,53.93,23.53,70.62,24,24.3.68,60.19-19.43,77-36.43,1.87-1.89,4.51-4.98,3.33-7.59-2.23-4.94-29.46-24.46-35.46-27.85-10.9-6.17-19.12-8.71-31.86-7.83ZM951.9,112.3l1.67-29.41c-3.01-4.48-7.06-1.18-7.98,2.93-1.15,5.17.18,12.67-.24,18.29-.38,5.08-5.03,21.5.78,23.24,9,2.7,10.97-11.67,17.76-15.05.17,2.79-1,5.36-1.12,8.13-.18,4.19-1.2,22.43,2.52,23.87l4.4-.3c3.27-2.14.46-17.61.71-22.49.38-7.33,4.06-14.99,1-22.17l-6.82,1.09-12.67,11.85ZM1080.56,104.68v-16.9c0-.36,1.04-1.05.67-2.73-1.12-5.11-8.3-5.34-8.3-2.72v20.72l-2.73,1.68c-9.4-1.58-2.02-23.86-11.46-19.15-7.19,3.59.82,30.36,13.1,26.73v26.17c0,.43,6.11,2.5,7.41-1.86,1.47-4.94-1.28-20.32.72-23.26,6.61-2.55,11.66-5.76,15.19-12.07,3.48-6.22,7.52-17.1-3.77-15.77-1.54,8.15-2.04,15.74-10.82,19.16ZM692.08,125.07c-2.37,1.96-8.48,1.68-10.59-.23-2.57-2.33-1.41-20.46-9.32-13.62-2.35,2.03.31,14.7,2.25,17.43,4.84,6.8,18.3,7.59,23.93,1.06,1.68-1.94,8.56-13.57,8.08-15.54-7.25-9.95-10.27,7.53-14.34,10.9ZM997.15,145.02c-2.8,2-4.25,5.41-.95,7.58,4.64-.12,23.85,1.8,25.35-2.84l-1.51-4.75h-22.9ZM685.56,146.37c-7.46,1.38-18.72,18.8-13.95,22.16,8.06,5.69,7.49-13.99,16.95-14.88,11.5-1.09,10.94,16.01,17.41,15.41,8.27-.77.26-12.11-2.22-15.22-5.38-6.75-9.13-9.14-18.19-7.47ZM995.66,161.52c-2.57,11.7,16.01,4.38,22.88,5.82,3.35-.7,4.2-4.11,2.15-6.61-2.41-2.49-24.36-.29-25.03.79ZM39.96,160.66c-33.17,1.13-8.15,46.21,8.02,23.07,5.4-7.74,3.32-23.46-8.02-23.07ZM614.7,193.83c7.31-6.83-12.68-7.82-14.44-10.65-3.9-5.32,5.07-22.46-4.37-22.51-4.6-.02-5.72,11.28-7.36,15.16-4.73,11.2-12.31,11.81-21.04,18.29-.31,9.94,11.57,1.1,15.6,9.49,3.87,8.06.65,20.93-5.59,27.16-3.73,3.72-15.53,7.31-16.01,11.88-.6,5.82,7.27,3.15,11.26,4,11.35,2.43,1.08,23.34,4.7,26.04,8.9,3.28,8-11.56,11.13-18.31.95-2.04,4.63-7.9,6.17-9.1,3.68-2.86,15.6-3.73,17.55-7.61,3.55-7.03-15.39-5.04-18.92-11.68-1.38-2.61-.63-13.74,0-16.96.73-3.7,5.3-10.25,8.79-11.93,3.21-1.54,10.75-1.67,12.5-3.3ZM1007.29,175.87c-2.42.27-9.03,1.05-10.17,2.92-2.28,9.76,8.66,4.89,14.2,4.31,2.94-.31,8.96,2.22,10.25-1.74,2.47-7.54-10.12-5.95-14.29-5.49ZM57.55,188.9c-17.12,2-17.82,30.06,2.82,28.82,17.16-1.03,16.01-31.02-2.82-28.82ZM997.88,198.28c5.79,3.76,12.59.86,18.97.15,2.64-.29,8.75,2.32,8.15-3.74-.77-7.9-19.13-1.16-24.59-2.78-3.27.25-3.15,3.8-2.54,6.38ZM20.43,196.53c-3.79.66-6.15,2.86-8.25,5.92-14.09,20.57,19.9,30.42,24.41,15.68,1.21-3.97,1.78-20.4-3.46-21.59-4.47,1.06-7.98-.84-12.69-.02ZM912.63,219.17c2.03,5.89,24.26,45.13,26.87,45.63,4.06.79,5.35-3.49,3.92-7.17-3.1-7.94-13.28-20.98-17.9-28.99-3.72-6.45-6.84-13.68-10.14-20.39l-3.28-1.2c-5.47,0-8.64,14.19-10.37,18.64-2.55.55-1.74-.34-2.43-1.4-2.9-4.48-6.24-19.41-13.97-12.28l-18.33,52.78c1.37.55,3.04,1.43,4.53,1.08,8.07-1.92,13.95-36.01,17.67-43.45l8.15,13.69c-.87,6.58-5.27,12.2-6.23,18.76-.51,3.52-1.95,11.78,3.49,11.21,7.03-.74,2.78-16.81,8.76-20.74.95,0,9.15,13.79,10.26,15.9,1.56,2.97.02,6.44,4.18,6.78,2.58.21,4.32-1.11,4.68-3.69.78-5.66-11.89-22.9-16.22-27.41l6.37-17.76ZM1047.96,264.85c2.64,1.04,5.52,2.23,7.59-.38l32.11-43.14c.59-12.44-7.72-3.94-11.91,1.2-5.2,6.39-23.76,30.55-26.63,36.6-.88,1.86-1.82,3.56-1.16,5.71ZM376.51,301.29c6.88-5.63,11.22,8.56,10.49,14.27-2.08,16.24-24.78,16.8-29.41,4.52-4.63-12.3,3.41-31.48,16.35-35.01,9.27-2.53,20.15-1.66,25.01,7.83,1.56,3.04.55,8.75,5.04,8.74,6.15-.01,3.56-9.5,1.47-13.07-7.57-12.91-20.95-14.5-34.35-10.69-22.16,6.3-34.3,48.14-7.52,56.92,23.57,7.74,39.68-15.63,26.98-35.71-13.76-21.76-34.43,12.09-24.19,19.83s18.76-3.83,15.11-13.47l-5.32.39-4.34,7.09c-.45-3.46,2.11-9.53,4.68-11.64ZM1094.4,314.78c6.14-6.78.87-15.22-4.74-20.2-9.5-.44-22.52-2.03-27.08,8.54-7.41,17.17,23.47,20.88,31.82,11.66ZM971.43,330.45l12.19,30.9c2.25,3.7,8,1.32,7.36-2.89l-12.39-32.33,4.81-23.37c-16.45-15.45-50.62,4.7-32.81,24.88-2.66,4.3-14.76,27.79-12.74,30.94.2.31,3.07,1.22,3.71,1.18,6.27-.43,10.07-25.13,16.85-28.29,1.36,5.5-1.83,30.36-.08,33.05,1.3,2.01,5.1,1.98,6.65.23,2.82-3.18.12-26.76,1.03-32.55l5.4-1.75ZM822.46,333.35c-4.68-5.57,1.08-15.64-4.34-17.02s-6.15,8.79-5.69,12.33c1.28,9.83,7.51,12.08,14.68,17-.55,9.06-3.25,16.99,5.57,22.71,15.55,10.1,24.99-6.37,14.54-18.91-6.24-7.48-14.69-6.43-6.37-19.45,2.27-3.55,9.33-6.88,6.94-11.62-3.28-6.52-11.17,3.78-13.47,7.27-2.42,3.67-2.77,7.79-5.11,11.27-.78.17-6.15-2.87-6.75-3.58ZM1062.37,346.39c9.31,8.33,37.03,3.12,32.97-12.76-2.41-9.41-18.75-9.15-25.94-6.24-5.73,2.32-12.94,13.71-7.03,19ZM1073.74,355.72c-14.62,2.45-14.04,18.94,0,21.28,8.3,1.39,23.2-1.62,23.2-12.27,0-11.34-15.18-10.35-23.2-9.01ZM212.62,399.08v-21.26c0-2.27-5.07-1.81-7.15-.6-4.19,2.45-16.04,17.86-20.49,22.57-2.36,2.5-8.79,5.47-8.39,9.59.75,3.16,3.09,4.89,5.88,2.64l22.53-22.75v17.99c0,1.55,2.79,6.06,4.91,6.04,3.8-.04,17.84-19.15,22.35-21.85v19.08c0,.52,2.82,2.34,3.82,2.35,4.13.01,15.11-19.46,19.63-22.51l-.37,18.89,3.65,2.52c6.56-1.76,3.32-5.77,3.78-9.9.62-5.56,8.07-31.75-2.45-28.81-3.18.89-15.93,18.68-18.25,22.73l-2.17-.55c-.17-4.7,4.36-16.03.65-19.17l-3.14-.87-21.48,22.24-3.28,1.63ZM660.55,549.35c1.39-2.21-4.57-12.93-5.74-16.2-13.18-37.07-20.94-66.32-49.61-95.41-22.42-22.76-65.35-18.55-88.26,1.25-10.54,9.11-6.59,12.59-9.32,24.48-1.55,6.75-5.87,13.49-6.86,20.4-1.74,12.07-.38,19.36-5.5,31.57-3.05,7.28-2.3,5.55-3.8,13.64-2.01,10.84-7.12,23.92-16.03,30.86-10.02,7.8-28.4,9.54-31.45,25.33-.73,3.77,3.73,17.97,4.15,23.73.52,7.17-.47,14.6.03,21.78.72,10.32,4.55,18.69,4.35,28.38-.34,16.27,7.15,36.34,4.11,50.99-.51,2.45-6.93,13.63-8.69,16.39-6.11,9.62-15.44,15.47-24.29,22.59-6.38,5.13-10.05,7.44-16.38,11.97-10.48,7.5-16.19,28.46-14.64,40.79.32,2.56,2.65,10.22,4.25,12.11,2.9,3.45,22.28,17.22,26.93,19.95,25.67,15.07,41.94,15.14,70.64,14.32,9.3-.27,27.57,1.01,35.81-1.02.98-.24,1.59-3.08,3.6-4.27,5.93-3.5,28.62-8.56,36.59-10.3,17.18-3.75,66.94-3.55,85.41-1.8,11.03,1.05,28.91,7.8,39.09,7.54,16.86-.43,49.91-10.42,63.66-20.39,15.3-11.07,23.04-42.21,8.47-55.85-7.15-6.7-16.17-8.71-22.91-13.08-2.94-1.91-6.74-7.15-9.82-9.8-6.3-5.43-19.26-14.06-20.14-23.57-.21-2.31.71-13.19,1.17-16.11,1.18-7.61,5.13-16.19,6.81-23.78,4.4-19.82,7.65-37.67,6.18-58.13-.48-6.68-2.85-24.53-6.52-29.46-6.12-8.23-43.41-23.01-54.55-27.22-5.66-2.14-8.88.06-9.88-8.76.25-2.59,2.73-2.26,3.14-2.91ZM985.06,689.76c-22.98-24.2-41.8-41.16-74.01-51.93-38.28-12.8-84.94-15.27-125.16-22.04-10.07-1.7-20.47-6.42-29.97-8.19-6.59-1.23-14.39-.53-21-2.43.94,8.53.69,17.09,1.05,25.65.61,14.89-1.54,25.91-4.83,40.9-2.83,12.91-11.46,33.2-7.72,45.81.56,1.9,5.4,8.31,7.19,9.17,15.36,7.41,37.94,8.22,54.13,14.57,8.81,3.45,20.3,10.85,29.39,15.31,11.24,5.52,22.68,8.24,24.26,23.71,1.64,16.13-11.62,14.36-21.67,21.69,23,15.25-2.58,28.65-20.18,27.79-4.34-.21-9.93-2.24-14.18-2.25-3.07,0-13.95,1.16-16.61,2.02-6.63,2.15-6.5,7.12-9.28,9.81-1.02.99-3.48.84-3.93,1.52-.8,1.21-.1,5.72-2.86,9.68-1.59,2.29-16.31,13.35-18.81,13.9-6.51,1.45-29.72,1.38-36.57-.05-20.46-4.26-44.11-19.64-66.04-13.15-8,2.36-20.1,10.33-28.13,11.19-5.66.6-11.34-2.31-17.34-2.19-17.14.34-48.34,8.92-65.11,14.55-14.41,4.84-23.74,19.05-41.14,7.83-5.65-3.64-12.72-15.03-18.33-17.66-21.72-10.18-30.94-4.4-52.08-3.56-25.66,1.03-21.98-23.41-8.17-36.52-22.67-13.76-13.33-56.85,4.93-70.33,11.26-8.31,24.61-16.22,34.39-26.67,2.18-2.33,11.14-17.35,11.72-19.9,2.6-11.51-3.65-29.39-5.09-41.34-.78-6.46-.66-13.99-1.24-20.57-1.04-11.78-3.5-23.23-2.17-35.45-10.45-.25-19.42,7.52-28.37,11.44-21.39,9.36-47.49,17.7-67.25,29.79-5.8,3.55-10.59,9.22-15.67,12.68-13.55,9.25-28.82,16.12-42.39,25.21-10.55,7.07-21.71,16.8-32.41,24.28-23.25,16.26-43.44,27.89-63.63,48.68-18.29,18.84-26.97,29.56-23.84,57.7,3.64,32.78,43.9,60.91,69.66,76.99l2.22-49.58,2.14-3.33c8.09-4.07,7.94,15.72,10.15,21.51,2.63,6.91,7.99,14.86,10.59,22.12,3.21,4.35,5.94,24.62,8.1,26.8.91.91,8.78,4.87,9.33,4.29-.64-6.42-2.29-13.05-2.62-19.48-.26-5.21-.36-19.12.47-23.56.63-3.33,3.75-4.75,6.88-3.7,1.41.47,8.43,15.87,9.65,18.74,3.84,9.03,5.98,18.74,9.6,27.47.75,1.8,5.68,11.23,6.61,11.93,3.67,2.78,24.43,6.87,31.05,9.3,48.43,17.73,75,21.28,126.45,25.12,29.2,2.18,57.92.11,86.13,2.19,13.8,1.01,27.44,5.87,41.41,6.57,21.86,1.1,52.08-1.36,74.18-3.33,79.98-7.13,145.66-31.71,213.53-73.24,14.8-9.06,29.67-21.68,44.45-30.79,6.32-3.9,24.52-10.79,26.88-16.74,1.12-2.81,2.68-12.64,3.28-16.34,2.51-15.29,2.29-31.22,4.77-46.48.9-5.53,2.86-18.88,10.01-18.9,10.72-.03,6.71,13.48,7.32,20.93,1.35,16.58,4.06,33.06,5.44,49.63,3.92,4.05,17.19-13.2,19.23-16.21,32.47-47.73,17.78-94.03-18.79-132.54Z"/>
  <path d="M544.71,565.31c-8.93-8.16-17.39-17.21-26.81-25.04-3.96-2.52-8.71,5.82-12.07.88-4.83-7.09,15.33-12.37,19.48-13.11,23.98-4.32,41.36,4.8,64.15,7.22,10.89,1.16,22.37-3.08,30.95,6.12,14.83,15.91-11.56,22.31-23.12,25.92-6.51,2.04-32.04,9.17-37.12,8.19-4.72-.91-11.86-6.89-15.47-10.19Z"/>
  <path d="M685.7,746.76c-4.05,2.88-5.77-.61-8.76-1.31-6.01-1.41-41-1.72-46.74-.21-11.19,2.94-29.48,24.3-37.04,33.28,7.8-2.34,15.63-5.5,23.51-7.56,10.38-2.71,26.32-6.67,36.72-5.24,9.04,1.25,20.38,7.45,29.71,8.45,10.01,1.07,19.48-2.28,29.27-3.34,7.23,11.24-22.94,11.54-29.3,11-12.85-1.08-26.42-9.75-39.09-8.63-25.07,2.24-46.09,10.66-65.52,26.06-2.95,2.34-13.63,13.58-16.17,12.94-2.23-.56-3.41-3.42-2.78-5.65,1.3-4.63,23.77-19.62,28.19-24.24v-1.58s-3.22-1.77-3.22-1.77l.1-1.85c10.88-14.39,32.76-39.54,51.61-41.16,11.09-.95,29.05-.08,40.26,1.26,5.74.69,10.68,2.87,9.24,9.54Z"/>
  <path d="M501.56,794.88c.14-3.92,2.26-7.5,2.28-11.45.03-7.49-4.21-15.43-3.38-22.92,1.07-9.57,13.58-17.25,19.62-23.99,10.41-11.62,17.94-26.34,27.32-38.11,5.5-6.9,13.69-13.63,19.57-20.78s12.27-15.92,16.55-24.32l5.36.31c1.97,1.34.96,5.01.2,6.87-5.12,12.5-26.19,31.3-35.12,42.29-9.51,11.69-16.95,26.33-27.32,38.1-5.16,5.86-18.74,15.24-18.55,22.87.11,4.49,2.87,11.32,3.17,16.55.38,6.67-.91,23.74-10.13,22.18-6.32-1.07-11.51-5.91-13.21-11.92-2.02-7.12-4.55-30.48-3.78-37.67.68-6.29,8.1-24.71,15.78-23.49s-3.38,11.35-5.06,15.68c-3.53,9.1-2.45,33.82.7,43.29,1.22,3.69,2.51,4.72,6.02,6.51Z"/>
  <path d="M613.74,805.66c-8.19,2.21-16.37,3.79-24.41,6.65-6.08,2.17-12.55,6.48-17.98,8.19-5.07,1.6-10.05.87-14.46,1.89-17.42,4.05-30.1,9.15-49.2,5.09-10.05-2.14-10.36-8.32-17.5-11.94-8.66-4.39-14.79-3.78-21.89-13.01-7.59-9.87-2.22-32.44,2.53-43.31,2.62-6,7.05-9.06,8.95-.97-3.17,8.49-10.81,29.48-7.08,37.7s17.47,9.99,23.78,14.39c3.28,2.28,7.26,8.13,10.49,9.14s16.46,1.82,20.28,1.61c4.24-.23,12.84-1.63,17.12-2.5,17.53-3.58,29.87-9.78,46.04-15.02,5.9-1.91,26.67-9.45,23.34,2.09Z"/>
  <path d="M441.86,805.53c3.76,2.58,9.22-.82,6.39,10.67-6.89,9.31-15.8-10.5-16.47-16.4-1.51-13.37.62-39.21,6.34-51.46,6.49-13.91,34.78-45.36,47.08-55.41,1.62-1.32,4.75-4.21,6.88-3.69,2.61,1.21,3.81,3.78,2.43,6.44-7.9,6.48-15.46,13.76-22.42,21.22-16.87,18.09-30.73,34.1-32.72,59.96-.37,4.8-.84,26.4,2.48,28.68Z"/>
  <path d="M620.8,681.86c3.29-3.8,8.73-6.46,11.85-11.59,3.71-6.09,4.46-14.41,7.21-21.14,3.96-9.71,11.79-18.71,15.92-27.69,1.26-2.74-.44-5.81,3.36-6.51,5.8-1.07,5.71,4.48,4.39,8.82-1.69,5.55-12.48,19.13-15.72,26.79-2.91,6.88-3.88,14.65-7.18,21.17-4.89,9.65-15.83,14.79-19.65,25.05-4.59,12.34-1.68,29.8-8.73,42.51l-4.92.56c-4.57-2.29.95-12.24,1.86-16.7,3.13-15.3.28-28.22,11.6-41.29Z"/>
  <path d="M478.42,661.6c-1.97,1.99-7.63,2.01-9.04-.84-.95-1.91.12-9.04,1.12-10.89,1.24-2.28,4.42-1.64,5.82-4,3.9-6.57,3.99-28.9,3.48-36.94-.59-9.26-5.53-18.83.14-28.13,1.98-3.25,13.01-17.86,16.51-16.97,9.39,2.41-9.79,18.27-11.01,23.56-1.94,8.43,2.27,14.07,3.03,21.59,1.06,10.44-.79,25.48-3.57,35.66-.68,2.47-5.45,15.91-6.48,16.95Z"/>
  <path d="M531.42,459.47c-16.98,17.87-12.35,29.2-17.06,51.08-.86,4-2.55,16.51-8.86,11.86-2.33-1.71,2.87-22.83,3.58-26.95,2.41-14.05,1.68-25.03,12.07-37.01,1.39-1.6,14.04-13.08,15-13.37,1.4-.42,3.54-.55,4.74.29,5.26,3.65-7.37,11.91-9.46,14.11Z"/>
  <path d="M579.93,716.53c6.07,3.89-8.28,12.26-10.77,14.56-8.47,7.8-12.63,13.47-17.44,23.99-2.42,5.29-6.05,19.41-8.65,22.97-1.81,2.48-5.34,3.21-7.71,1.05-3.43-3.79,2.41-9.22,3.82-12.58,8.52-20.4,12.79-34,32.28-47.32,2.07-1.41,5.94-4.3,8.48-2.67Z"/>
  <path d="M658.22,665.24c1.23-.4,2.52-.2,3.64.41,3.17,1.6,2.53,7.21,1.34,10.11-1.46,3.56-20.9,29.05-24.25,32.44-.93.95-1.9,1.77-3.17,2.23-2.02.23-4.35-1.16-4.54-3.35-.44-5,21.09-26.48,24.19-33.73,1.2-2.8-.47-7.05,2.78-8.11Z"/>
  <path d="M514.24,600.88c2.79-.91,5.3.94,5.84,3.77,1.08,5.72-1.29,21.54-3.2,27.27-1.3,3.91-3.35,10.1-8.19,9.27-6.12-1.04-.07-8.17,1.08-12.03,1.44-4.82,2.11-11.78,2.7-16.93.33-2.89-1.23-10.38,1.77-11.36Z"/>
  <path d="M633.77,536.21c-3.04-3.25-1.91-18.54-4.29-23.4,0-3.97,3.61-6.38,6.86-3.7,2.28,1.88,3.45,21.9,4.33,26.26-1.58,1.82-5.12,2.74-6.9.84Z"/>
  <path d="M537.22,482.11c4.44-1.3,5.22,1.84,4.47,5.56-.68,3.34-5.6,17.52-9.67,16.67l-2.68-1.67c-1.65-2.67,4.69-19.63,7.89-20.56Z"/>
  <path d="M497.21,105.75c8.08-11.25,17.07-23.1,29.4-30.01,13.19-7.39,51.2-15.08,65.49-10.9,5.64,1.65,41.37,25.38,41.38,28.38l-24.66,20.02c-21.04,11.14-41.77,18.63-65.81,11.6-4.58-1.34-14.52-4.68-18.79-6.29-9.32-3.51-17.87-8.92-27.01-12.8ZM559.06,71.12c-9.68,1.96-21.49,18.82-20.2,28.41.98,7.28,12.44,15.19,19.14,16.86,9.08,2.27,14.38.53,21.78-4.93,14.09-10.39,14.79-31.82-2.98-38.95-4.81-1.93-12.67-2.42-17.74-1.4Z"/>
  <path d="M594.25,237.69c-4.78.43-6.69,4.32-9.29,7.65l-7.06-4.38,9.27-9.78,7.08,6.51Z"/>
  <polygon points="584.45 191.93 592.63 185.37 596.39 190.35 589.35 198.43 584.45 191.93"/>
  <path d="M963.6,305.56c2.2-.46,9.54-.92,10.72.77.83,6.38.15,15.08-7.13,17-18.31,4.83-16.85-15.02-3.6-17.77Z"/>
  <path d="M904.91,37.19c6.11,11.72,8.11,25.34,6.66,38.6-.43,3.88-4.19,15.87-7.67,17.46-7.1,3.23-11.47-7.02-12.58-12.49-2.05-10.14-2.12-44.39,13.59-43.56ZM898.47,59.43c-.51,7.65,0,16.21,0,23.99,0,.64,3.23,3.45,4.71,2.62,5.33-1.34,2.8-17.6,2.88-22.3.09-5.74,3.97-17.13-7.09-10.3.68,2.26-.39,4.45-.49,5.99Z"/>
  <path d="M1039.12,45.8c.82,4.26,2.27,10.31-.59,14.11-2.65,3.53-13.64,5.61-10.55-.73.68-1.39,10.21-14.33,11.15-13.38Z"/>
  <path d="M1021.67,55.6c-2.9-1.96-.46-7.48.52-9.85,3.18-7.73,11.28-7.51,9.87-4.32l-10.38,14.17Z"/>
  <path d="M843.92,363.06c-9.64,1.92-10.81-6.15-9.77-14.14,5.41,2.89,10.21,7.56,9.77,14.14Z"/>
  <path d="M1089.17,309.56c-4.14,2.67-20.3,4.07-19.56-2.58.84-7.54,21.67-6.81,19.56,2.58Z"/>
  <path d="M1068.57,341.28c-1.65-8.74,18.53-9.63,19.62-4.88,1.19,5.2-15.99,7.84-19.62,4.88Z"/>
  <path d="M21.49,204.07c2.5-.75,5.58.17,7.42,2l-.48,10.44c-4.92,1.82-13.44-.25-11.27-6.81.55-1.66,2.57-5.1,4.34-5.63Z"/>
  <path d="M1088.2,363.1l-.16,4.21c-20.92,7.2-24.09-7.13.16-4.21Z"/>
  <path d="M64.15,198.63l-.83,10.24c-2.83.8-8.03,1.3-10-1.07-2.02-8.3,2.45-14.47,10.84-9.17Z"/>
  <path d="M41.3,169.14c2.85,6.06,1.47,13.71-6.39,12.46-6.78-7.17-3.45-13.77,6.39-12.46Z"/>
  <path d="M572.21,78.78c.47.29.6,1.94,1.38,2.36,3.42,1.86,7.21,1.28,8.45,6.88,2.02,9.09-5.99,19.98-14.91,21.52-5.64.98-18.97-5.01-19.79-10.91-.6-4.34,4.63-14.19,8.2-16.85,3.29-2.45,13.43-4.99,16.67-2.99ZM569.98,100.04c2.24-4.22,2.84-14.22-2.67-15.84-17.43-5.11-17.07,28.1,2.67,15.84Z"/>
</svg>