<?xml version="1.0" encoding="UTF-8"?>
<svg id="illustration" data-name="illustration" fill="currentColor" xmlns="http://www.w3.org/2000/svg" viewBox="0 0 1117.16 1117.09">
  <path d="M0,693.48c28.33,2.45,55.5-7.06,83.42-8.71,31.29-1.85,64.58,1.1,95.98-1.06,2.38-.16,4.63-.75,6.93-1.25,1.55-3.59-1.41-6.84-1.81-9.4-1.85-11.82-.64-23.85-2.5-35.66-4.5-28.51-19.72-58.99-15.13-88.33,2.75-17.56,19.31,8.67,22.86,12.99,5.57,6.78,11.69,13.06,16.36,20.72l20.67,26.74-7.23-39.09c-23.04-68.11-36.23-138.33-49.73-208.69-4.54-23.64-15.3-56.37-12.81-79.9,1.46-13.73,11.57-.21,15.08,4.56,9.33,12.66,10.81,24.82,17.8,36.71,5.98,10.18,16.85,18.63,22.93,29.41,8.95,15.87,17.97,36.43,26.39,53.21,12.73,25.37,23.21,51.89,35.71,76.6,6.35,12.54,16.39,23.21,18.39,37.77,1.4,1.43,8.12-12.11,8.45-13.89,1.45-7.74-3.94-39.49,10.7-33.07,5.38,2.36,17.86,13.18,22.81,17.53,2.76,2.42,3.75,7.35,9.27,6.54v-44.16c0-.34,2.3-5.7,2.9-6.09,13.07-5.14,18.57,5.3,24.15,15.03,8.47,14.79,13.46,31.93,21.44,47.25,11.35,21.8,23.5,40.76,32.94,64.1,8.43,20.84,14,46.21,24.83,65.67.67,1.21,1.2,2.97,2.78,3.22v-29.99c0-1.91,4.09-2.06,6.07-.61,6.34,4.64,5.91,23.57,17.92,25.15v-61.61c0-3.54,14.35-3.6,16.98-1.71,4.73,3.41,13.34,28.99,16.3,36.04,6.87,16.37,14.04,32.16,19.37,49.32,1.27,4.09,1.15,14.2,5.69,15.02,9.56,1.73,22.04-1.56,31.63-2.17,85-5.42,168.33.86,253-2.15,58.63-2.08,117.17-13.97,175.46-16.45,13.55-.58,28.15,1.06,41.52.09,6.53-.47,13.09-2.86,19.55-3.35,19.17-1.45,40.12,1.16,59.47.03v7.64c-3.21-.28-6.32-.13-7.64,3.26l7.63-1.08v15.81c-3.87,5.56-21.41,1.52-14.99-4.63,2.88-2.75,8.49.89,10.62-2.45l-21.17-2.06-2.44-8.89c-11.21-2.59-13.56,5.33-21.62,5.59-5.04.16-7.62-1.17-9.91-5.58-19.47,5.68-39.92,2.4-59.93,3.25-18.53.79-36.98,4.72-55.55,4.42-90.49,15.34-182.29,12.08-273.65,10.85-15.61-.21-31.25.3-46.86-.02-.97,4.92-1.44,6.44-7.02,5.37l-1.38-4.07-5.3-.14c2.37,5.8-3.57,8.7-8.12,5.37-1.9-1.39-1.29-4.06-2.36-4.36-8.21-2.28-8,3.78-14.08,4.45s-4.17-1.56-5.96-2.71c-3.13-2.02-18.7,1.25-23.47,1.59-5.58.39-11.3-.26-16.89.02,2.88,17.66,11.25,33.43,16.86,50.19,13.46,40.22,23.38,81.6,34.7,122.31,2.62,9.43,5.37,21.7,8.71,30.55,1.75,4.65,9.05,15.06,8.48,18.8-.66,4.35-6.42,3.28-9.56,4.7-15.95,7.25-32.41,18.89-48.26,26.97-15.06,7.68-30.73,13.44-46.05,20.46s-29.4,19.52-46.65,14.95c.22,4.57-1.22,7.88-6.07,8.66-3.71.6-21.99-.42-16.95-7.05s13.51,4.53,17.56-3.76c-3.71-.43-8.96-2.44-12.53-2.27-2.82.14-4.79,2.15-7.65,2.34s-6.59-1.68-8.52-1.07c-2.11.68-2.44,5.31-5.62,5.34-1.66.01-3.5-1.88-5.54-2.12-5.34-.64-15.4,2.06-11.44-7.2l15.85-1.58c1.15-.23.72-1.47.03-2.19-1.33-1.4-14.26-5.87-16.3-5.52-1.09.19-.07,4.14-3.75,4.98-4.71-2.19-19.51,3.45-18.76-4.34.23-2.42,5.37-3.19,3.35-4.9-2.98-2.52-7.76,7.35-8.34,7.73-1.59,1.05-18.84,2.46-21.42,1.85-3.82-.9-7.43-6.31-7.95-6.33-3.09-.1-9.3,3.76-13.53,2.21-.64,4.12,5.97,3.68,7.14,5.38,1.67,4.09-.26,5.11-3.63,6.31-8.33,2.97-17.48,3.03-24.85-1.89.73-4.26.11-9.61,2.79-13.07-3.53.25-2.84,3.46-6.71,4.73s-6.99.12-10.13.77c-3.94.82-7.56,4.05-12.03,3.25-.54-.1-7.95-6.61-8.34-7.1-1.33-1.68.79-3.59-1.5-4.92l-3.8,3.8c3.71,2.47,5.83,3.46,3.25,8.17,4.3.17,9.73-1.52,10.88,3.9,1.75,8.25-12.91,2.46-17.82,3.6l-1.79-5.31c-3.57,1.64-14.77,5.05-16.24-.74-1.38-5.45,6.82-4.45,9.77-5.19,2.03-.51,6.61-.99,7.57-2.79h-15.81c-.89,0-1.7,1.71-4.22-.09-6.85-4.87,7.01-9.43,11.3-7.56.47-1.1-2.54-2.17-2.72-2.17h-17.99c.58,2.82,4.96,1.65,6.08,3.19,6.38,8.78-25.91,11.02-22.34.75.45-1.28,2.45-1.36,2.88-2.04,1.08-1.76-.67-4.81,3.05-5.23,2.37-.27,4.67,1.36,7.05,1.15v-4.35c-4.97,2.75-11.23-3.87-12.51-4-2.69-.29-9.36,3.96-14.75,1.28-2.96-1.47-1.72-5.39-2.18-6.02-.21-.3-5.23,2.31-6.43-1.8-.96-3.31,2.01-3.88,3.16-5.81l-4.37.63c2.08,8.6-4.45,5.77-6.65,8.51-2.5,3.12,1.95,8.13-8.07,7.31-5.04-.41-3.89-3.53-6.56-6.64-3.18,3.87-21.13,4.95-22.25,1.52-2.56-7.86,9.64-5.31,13.5-5.92,1.78-.28,9.19-1.88,10.75-2.34,1.92-.56,3.64-4.34,7.29-3.07l-7.62-5.43c-.05,1.15.41,2.54-.66,3.39-6.72,5.29-23.8,2.01-31.53.98-4.15-.56-15.19,1.22-16.39-4.28-1.54-7.07,11.79-2.82,16.31-3.47,3.14-.45,4.99-2.05,7.75-3.17,3.7-.07,3.33,5.2,4.46,5.53,7.06,1.07,15.27-5.01,21.13-.07,1.87-5.9-.63-3.26-3.46-3.57-3.56-.39-12.5-.68-14.47-3.06-.6-.73-.26-2.33-1.33-3.25s-5.21-1.6-5.63-2.27c-.58-2.77-.79-5.91,2.58-6.44.63-.1,11.96,2.49,12.54,2.77,1.6.79,1.66,3.54,2.92,3.86,4.17,1.06,14.54-2.45,20.02.44l.87,5.93-9.66,1.24c.64,1.87,5.69,2.77,7.37,2.99,1.98.26,3.91.8,5.82-.24.98-3.47.46-6.29,5.34-6.04-4.64-7.21-15.5-6.25-23.12-7.94-6.49-1.44-13.04-2.68-19.43-4.56-.78-.58-2.21-11.24-2.23-13.1-.04-4.83.64-14.79,1.26-19.55s5.04-12.94,5.21-16.39c.4-8.25-5.77-19.46-6.37-28.42-.43-6.45.91-18.1,5.41-22.91,7.53-8.05,20.8,3.6,21.83,2.74-4.24-10.39-14.94-39.66-4.9-47.96,2.2-1.82,7.62-1.79,9.79,0,3.08,2.54,5.83,14.43,9.25,18.01l18.55,24.5c-1.62-8.91-2.91-17.88-4.22-26.83-2.88-19.67-5.61-28.81-11.32-47.56-2.71-8.89-4.22-18.17-7.44-26.91-33.43,1.92-67,2.4-100.63,2.02-1.66,7.61-7.74,4.93-13.76,6.62l2.86,4.9c-1.18,6.2-5.45,2.1-7.72,2.13-6.24.06-13.13,2.56-19.59-.37l.39-6.19,13.15-.49-1.81-3.36c-2.82,1.3-11.72.49-12.94,2.25-.8,1.16-.08,3.6-1.6,4.94-2.64,2.32-8.62,2.02-11.29,2.93-1.58.54-1.52,2.75-3.14,3.44-3.5,1.51-16.83,2.07-20.46-.38.24,7.02-6.99,5.2-12.01,6.55v-8.72c2.95.6,5.62-.69,8.33-1s3.24,2.61,4.77-1.65l11.97-2.8H4.36c-.37,0,1.02,4.86-4.36,4.36v-11.99ZM321.66,586.62c-.09-3.36.34-6.75-.25-10.1-.88-4.98-7.18-24.32-9.71-28.45-4.71-7.71-16.66-9.04-18.36-.13-2.43,12.77,3.2,27.59,6.58,39.72,7.62-.89,13.92-3.61,21.74-1.04ZM345.73,616.03c6.41-2.83,13.26-1.33,19.61-2.64,11.51-2.36,3.91-7.59,1.29-14.5-3.73-9.84-12.39-46.22-21-49.87-11.88-5.03-14.48,7.53-14.14,16.32.7,17.77,8.26,34.3,14.24,50.68ZM510.3,673.85c-2.19-8.63-6.75-18.6-16.9-18.62-12.55-.04-14.31,9.69-7.63,18.62h24.53ZM245.33,679.3c-4.9-14.5-11.87-24.7-28.61-17.16-6.15,2.77-1.95,14.31-.81,19.36l29.42-2.19ZM513.57,681.49h-27.26c4.72,12.74,6.49,28.21,11.19,40.61,2.02,5.34,1.67,7.87,7.83,8.52,8.43.88,13.64-2.19,21.33-4.45l-13.09-44.68ZM249.65,686.98l-30.48,1.05,14.21,35.97c7.74-2.5,15.79-3.76,23.95-3.26l-7.68-33.75ZM532.56,756.27c-12.13-14.61-14.24,1.72-14.67,12.94-.59,15.37,7.75,32.2,12.7,46.47l15.71-4.97c6.12-12.64-1.47-22.52-5.49-33.79-2.88-8.08-2.59-13.86-8.24-20.65ZM257.33,810.15c8.22-1.98,17.44-1.87,25.6-3.29,1.23-.21,2.15-.41,2.63-1.71-5.56-14.26-8.85-30.95-17.29-43.57-4.4-4.85-18.39-3.41-19.64,3.35-2.76,14.81,6.89,30.72,8.7,45.22ZM565.9,882.11c.79-8.41-2.67-17.4-5.99-25.07-2.11-4.88-8.71-22.14-14.47-12.29-3.74,6.39-3.53,29.6.72,35.63l19.74,1.73ZM211.52,918.11l-11.98-2.2-1.09,5.45c.4.31,8.62-1.05,10.05-1.4,1.09-.27,3.29-.31,3.02-1.85ZM245.33,924.65c-5.38-1.66-5.5,2.23-7.29,3.33-4.14,2.55-10.4.04-15.02-.11-1.22-.04-4.14-.69-3.85,1.13,7.35.71,23.07,4.1,26.16-4.34ZM274.77,936.62l-1.1-4.36c-3.18,1.21-8.41.83-8.7,5.46l9.81-1.1ZM306.39,932.28l-9.8.53c1.63,2.9,9.79,4,9.8-.53ZM249.69,935.56l-5.43-2.2-1.1,3.26,6.53-1.07ZM345.65,939.9l-3.16.12-1.21,3.15c3.5-.45,4.2,2.06,6,4.36,3.52-2.78-3.83-2.88-1.64-7.62ZM299.31,942.09c-4.82-.67-10.83.49-15.81,0,.11,2.05,2.86.75,4.47,2.65,1.81,2.14-.29,4.62,5.96,4.69,2.57-4.05,2.22-6.12,8.1-5.17.4-1.1-2.28-2.11-2.72-2.17Z"/>
  <path d="M0,745.82c6.39.12,9.81-4.62,16.92-4.46,4.47.1,5.77,3.11,6.5,3.13.34.01,2.61-1.86,4.06-2.27,5.37-1.55,20.43-6.26,21.17,3.06.46,5.69-6.46,2.16-8.4,2.18-5.73.04-14.07,5.67-16.79-.54-3.92,3.93-12.36,2.31-16.21,3.31-.85.22-2.66,5.22-7.25,3.23v-7.63Z"/>
  <path d="M23.99,722.92c.87,1.26,2.5,3.93,1.72,5.46-2.94,3.21-7.5,3.46-11.53,3.28,4.48,9.56-8.1,7.53-14.18,7.62v-7.63h7.63c-.39-2.02-2.69-.74-2.96-3.98-.58-7.15,7.87-3.42,11.14-3.55,2.19-.09,5.92-.74,8.18-1.19-.12-.17.28-1.13-.69-1.12l-13.34-1.21.33-5.38c1.34-1.97,21.14-2.87,20.07,4.83-1.33,3.43-3.97,2.39-6.38,2.88Z"/>
  <path d="M0,801.43v-7.63c5.47,2.21,20.11-8.15,22.97-6.08,8.82,6.41-18.25,15.56-22.97,13.71Z"/>
  <path d="M0,1020.59c5.74.14,20.43-2.21,14.54,7.68l-14.54-.05v-7.63Z"/>
  <path d="M0,764.35v-4.36c19.43-8.9,21.56,12.96,0,4.36Z"/>
  <path d="M0,1100.19v-7.63l6.88-.92,3.01,4.71c-.38,4.03-6.96,4.12-9.89,3.85Z"/>
  <path d="M0,719.65c5.7-1.05,5.77,7.27,0,7.63v-7.63Z"/>
  <path d="M367.57,967.05c.35.22,7.71-.62,8.16-.76,1.91-.59,1.54-3.89,6.29-2.25,3.01,1.04,1.1,5.28,1.9,6.28,3.37.21,7.05,2.28,10.29,2.34,2.84.05,12.42-3.51,10.91,3.33s-18.86,4.16-23.48,1.5c-1.75-1-1.88-3.67-2.93-3.87-1.87-.36-4.45,1.35-7.16.99-3.51-.46-5.7-4.51-9.38-1.8.8,10.38-8.01,9.99-16.03,9.66-3.48-.14-12.99-.29-12.53-4.9.87-8.65,17.54.8,21.83-4.42.51-2.67-2.12-1.52-3.81-1.61-4.17-.23-16.47-1.33-14.56-7.96,1.77-6.15,8.65-.39,12.38-.66,2.61-.19,4.29-2.58,6.48-2.37s2.84,2.38,3.82,2.75c1.41.53,3.4-1.11,5.51-.02,1.64.85,1.97,3.58,2.28,3.77Z"/>
  <path d="M148.44,950.68c-3.8-11.39,8.38-5.99,13.24-6.63,2.55-.34,8.95-3.68,11.34-3.9,1.65-.15,4.21,2.01,7.43,2.04,3.97.04,8.78-2.09,12.89-2.1,10.4,8.54-9.13,10.02-15.08,9.69-2.63-.14-6.69-1.97-7.62-1.87-1.09.12-2.54,2.55-4.07,3.18-5.78,2.37-12.01-1.02-18.12-.41Z"/>
  <path d="M248.33,991.98c-2.02,1.93-11.87,3.92-14.99,3.55l2.01,4.73c-1.11,5.69-19.96,11.42-23.71,4.35-.75-10.47,12.31-.52,17.31-8.55-.82-1.91-5.18-2.14-5.49-3.43-2.26-9.31,7.84-4.26,12.6-4.68,3.5-.31,5.71-2.93,9.75-2.25,3.32.56,4.99,3.92,2.51,6.29Z"/>
  <path d="M222.69,975.62c-1.51-1.99-.94-4.12.82-5.75,3.25,0,10.76-2.62,13.1-1.09,1.33.87.88,3.27,3.8,3.84,6.62,1.29,13.68-.66,19.62-3.36l1.73.55c5.82,11.38-16.68,11.5-23.46,10.38-2.8-.46-3.95-2.48-5.76-2.96-3.1-.83-6.91.52-9.85-1.61Z"/>
  <path d="M653.91,935.69c9.97-2.82,3.7,11.1-1.32,15.12-3.56,2.85-22.64,10.12-25.15,6.62-5.76-8.03,17.37-8.39,21.8-14.33,1.48-1.98,1.42-6.49,4.67-7.41Z"/>
  <path d="M540.56,1007.23c-3.98,3.89-14,2.41-19.95,8.95-2.29,2.52-3.19,8.27-7.05,7.26-9.72-2.53,3.71-16.14,7.98-18.33,1.97-1.01,14.83-4.46,16.54-4.2,2.95.45,4.55,4.3,2.49,6.31Z"/>
  <path d="M711.65,868.1c9.62-3.14,4.88,11.71,1.93,16.12s-20.52,16.75-22.11,8.1c-.98-5.31,14.33-7.09,16.78-14.52.9-2.72.03-8.61,3.4-9.7Z"/>
  <path d="M485.48,1054.12c-1.7-1.68-1.39-5.6,1.07-6.64,4.41-1.85,14.6-.56,19.71-2.03,2.6-.75,3.06-4.96,7.81-4.2,7.1,1.79-1.14,10.44-4.81,11.57-2.99.92-16.94,2.49-20.3,2.47-1.13,0-2.69-.39-3.49-1.18Z"/>
  <path d="M589.75,984.76c7.32,9.88-19.54,27.78-25.03,21.2l-.88-3.16c7.1-5.78,18.46-6.49,20.54-17.71l5.38-.33Z"/>
  <path d="M207.72,986.79c2.73-.6,4.61-5.73,8.17-3.87s1.91,6.08-.51,8.26c-4.15,3.75-22.77,5.55-26.77,1.64-1.93-1.89-.99-6.03.57-6.03,4.82,0,14.56.87,18.54,0Z"/>
  <path d="M62.43,1051.94c-.87-.84-1.51-2.85-.89-4.07,4.88-5.76,13.18-2.28,19.63-3.34,3.06-.5,5.02-3.53,7.66-3.29,7.9,3.9.2,9.75-5.68,10.72-3.47.57-13.64,1.35-17.13,1.27-1.1-.02-2.81-.53-3.59-1.29Z"/>
  <path d="M157.95,1026.19l.76,5.29c-3.36,6.57-21.54,4.58-27.32,2.19-4.07-1.68-3.34-4.43-.92-7.7,4.91.04,8.98,2.25,13.98,2.33,5.52.08,8.38-2.57,13.5-2.1Z"/>
  <path d="M201.58,1001.11c7.39,14.33-28.11,11.29-29.14,5.71,1.06-8.65,10.91-2.68,16.75-2.8,4.62-.09,7.86-4.05,12.39-2.91Z"/>
  <path d="M430.85,1081.83h4.59c4.64,3.2-.12,10.06-3.7,12.32-3.01,1.9-12.23,3.75-15.82,3.89-5.55.22-6.66-4.96-3.77-7.14,4.37-3.31,17.63,1.14,18.71-9.08Z"/>
  <path d="M1116.55,756.72v7.64s-8.28-.77-8.28-.77c-1.87,5.46-19.65,8.55-21.06,3.31l1.16-4.56c1.29-.81,13.54-1.31,16.44-2.37,1.42-.52.89-2.78,3.51-3.27,2.44-.46,5.64.32,8.23.02Z"/>
  <path d="M102.19,981.52l23.52,3.31c5.04,4.18-.09,7.47-5.22,7.51-4.37.03-26.43-1.87-20.28-9.46l1.98-1.36Z"/>
  <path d="M643.67,902.06c3.94-4.76,23.7-15.54,24.56-5.03.36,4.39-7.34,3.34-10.42,4.47-5.43,1.99-8.87,12.46-15.08,5.67-.88-1.77-.23-3.69.94-5.11Z"/>
  <path d="M694.74,855.77c-5.68-9.01,18.28-22.75,22.24-15.1,2.98,5.76-8.37,6.13-11.46,8.22s-3.01,5.29-5.49,7.67l-5.28-.79Z"/>
  <path d="M1088.2,746.91c.45,1.5,2.11,2.9,1.95,4.73-2.74,7.07-11.17,6.95-17.06,3.85-1.47-9.68,4.02-5.15,8.09-5.74,1.61-.24,2.02-3.22,7.03-2.84-.57-1.9-1.8-3.5-.97-5.83,1.58-4.84,10.95,2.13,14.72,2.5s8.24-2.18,10.32.51c4.08,5.26-3.68,8.03-8.1,7.9-5.17-.15-11.68-4.75-15.98-5.08Z"/>
  <path d="M747.86,808.93c-.24.39-5.93,2.06-8.09,4.43-3.25,3.57-1.98,10.62-8.42,9.68-11.38-1.66,5.82-21.49,12.76-20.56,2.83.38,5.17,4.19,3.75,6.45Z"/>
  <path d="M1025.12,786.32c1.75-1.12,11.17.39,14.17.31,3.53-.1,12.6-4.57,11.87,2.22-.74,6.89-18.55,5.82-23.46,4.92-4.17-.76-4.72-6.09-2.58-7.45Z"/>
  <path d="M1017.19,664.17c2.49,4.96-.72,7.68-5.52,8.93-2.87.75-13.78,2.02-16.7,1.94-5.47-.16-4.96-5.73-.8-7.44l23.02-3.43Z"/>
  <path d="M189.18,1045.67c-2.01-.62-2.45-5.86-.61-7.15,2-1.4,11.26,0,14.73-.53,2.51-.39,6.15-4.22,9.43-1.48l.27,5.61-1.12,1.46c-1.73.01-5.34,2.09-6.36,2.09-3.59,0-13.94.74-16.36,0Z"/>
  <path d="M599.25,944.9c4.19-3.58,9.43-7.71,15.26-5.1,5.21,7.83-3.02,6.48-7.1,8.36-4.34,1.99-8.88,11.99-13.25,6.56-3.58-4.45,2.27-7.41,5.09-9.82Z"/>
  <path d="M763.01,794.62c-1.89,1.89-7.72,1.85-9.62-.45-1.09-4.62,2.73-5.61,3.32-8.58.78-3.99-2.6-17.14,5.48-13.09,3.33,1.67,2.95,19.98.82,22.11Z"/>
  <path d="M98.68,1005.33c-4.36-.93-7.16-7.38-1.93-8.59,1.62-.38,2.63.96,3.02.96h18.54c3.17,0,3.17,7.63,0,7.63-5.12,0-15.37.91-19.63,0Z"/>
  <path d="M1099.92,687.76c-3.77,3.73-19.03-.58-23.74-2.44l-.95-3.1c3.6-6.38,10.92-1.02,15.84-.78,2.59.13,5.09-1.45,7.24-.89,3.12.81,3.74,5.11,1.61,7.22Z"/>
  <path d="M120.2,1045.42c-1.55-1.52-2.27-6.35.45-7.25,4.31-1.43,7.4,2.85,10.86,3.16,3.11.28,9.73-5.04,11.25-.43,3.08,9.36-17.25,9.72-22.56,4.52Z"/>
  <path d="M437.49,1060.66l-.92-2.44c1.86-3.96,17.24-18.79,20.86-11.46l.03,4.39c-8.9,1.48-10.59,14.65-19.97,9.51Z"/>
  <path d="M316.6,993.97c-.33-.19-.3-1.68-1.09-1.77-2.39-.26-16.28,5.48-13.35-3.6.79-2.46,15.45-5.52,17.64-4.93,5.52,1.49,6.18,15.76-3.19,10.3Z"/>
  <path d="M117.49,1079.66c4.2-1.1,7.4,2.51,4.16,6.43-5.77,6.95-28.63,5.52-22.52-1.81,2.47-2.96,9.56-.85,13.5-1.76,2.05-.48,3.35-2.46,4.86-2.86Z"/>
  <path d="M44.4,710.04c3.33-1,5.75.95,8.48.89,3.48-.08,6.6-2.1,10.68-.87,3.46,1.04,4.67,6.57.21,7.39-4.21.77-22.38,2.6-22.37-3.8,0-1.56,1.55-3.18,2.99-3.61Z"/>
  <path d="M382.47,994.73c4.67-.87,9.33-1.26,9.88,4.44-1.18,6.4-27.63,8.01-23.31-.39,1.79-3.47,6.81-1.62,9.82-2.22,1.5-.3,2.62-1.65,3.61-1.83Z"/>
  <path d="M134.66,974.8c-.84-.24-2.75-2.65-2.76-3.82-.04-5.47,10.18-3.5,13.6-3.87,4.68-.5,7.67-5.66,10.27,3.73-.21,1.05-4.11,3.96-4.76,3.96-3.78,0-13.64.77-16.36,0Z"/>
  <path d="M65.51,1012.87c-.55-.8-.07-3.27.45-4.28,2.24-4.3,8.18-.75,11.98-1.01,2.77-.19,10.23-5.11,11.29.62,1.6,8.6-21.53,7.84-23.73,4.67Z"/>
  <path d="M139.3,945.59v6.05c-4.85,4.57-32.07.45-18.75-7.39l18.75,1.34Z"/>
  <path d="M421.7,988.71c-2.12,2.1-22.65,3.6-22.65-2.46,0-6.51,15.81-2.39,20.18-4.91,3.75.35,4.92,4.95,2.48,7.37Z"/>
  <path d="M260.75,991.01c-.44-2.03-.7-5.48,1.64-6.25,6.44-.06,11.75.33,17.32-3.42,14.72,9.33-16.41,13.79-18.95,9.67Z"/>
  <path d="M161.22,1018.27c-5.17,2.35-9.73,2.76-15.38,2.04-4.62-.59-9.01-1.29-7.21-6.64,1.29-3.84,8.31-.63,11.3-.61,5.83.03,12.88-4.85,11.29,5.22Z"/>
  <path d="M1024.63,742.68c2.14-.53,4.61,1.98,7.42,2.12,3.6.18,6.16-2.15,9.58-2.1,12,10.15-17.63,12.23-19.87,5.7-.66-2.18.67-5.19,2.87-5.73Z"/>
  <path d="M123.76,695.66c2.36.65,6.14,7.33,2.46,9.06s-4.74-.93-7.11-1.15c-2.82-.27-10.59.42-12.32-.75-2.08-1.42-.98-7.16.61-7.16,3.83,0,13.56-.77,16.36,0Z"/>
  <path d="M359.5,984.73h1.74c4.13,6.25,10.21.87,14.22,2.18,6.27,2.04-1.86,11.5-11.84,8.67-6.48-1.83-12.04-6.06-4.12-10.85Z"/>
  <path d="M28.05,1013.12c3.49-.94,7.74,2.63,10.91,2.88,2.24.18,10.53-2.48,8.91,3.84-2.78,10.88-33.31-3.09-19.82-6.73Z"/>
  <path d="M337.75,1001.14c4.42-.8,7.6,2.78,4.12,6.41-4.66,4.85-16.78,4.3-21.17-.75-.48-1.92-.37-3.89,1.67-4.59,3.68-1.23,7.39,1.27,10.64.93,1.87-.2,3.28-1.74,4.73-2.01Z"/>
  <path d="M1044.32,711.09c3.54-.41,6.07,3.69,4.15,6.43-2.32,3.32-21.17,5.03-22.34,1.45-2.42-7.45,8.49-5.48,12.37-5.96,2.16-.26,4.11-1.73,5.82-1.93Z"/>
  <path d="M211.64,1020.49c-1.13-1.61.64-5.82,2.86-6.3,6.37,1.55,9.95.41,15.21-3.26,10.2,6.09-3.55,12.57-10.97,11.78-1-.11-6.88-1.91-7.1-2.22Z"/>
  <path d="M104.43,959.27c-2.58,2.38-14.9.77-18.62,0-4.87-1-5.26-6.35-.18-7.33,3.86-.75,23.84-.88,18.81,7.33Z"/>
  <path d="M1023.74,698.81c-7.02.17-14.93,2.34-21.53-.02v-4.62c1.18-3.39,26.05-6.69,21.53,4.63Z"/>
  <path d="M733,835.48c1.1-1.05,5.41-1.77,7.76-3.68,2.49-2.03,3.96-7.49,8.36-4.79,6.23,3.83-7.19,16.77-13.59,15.87-3.65-.51-5.13-4.91-2.53-7.4Z"/>
  <path d="M377.09,1101.12c-.23.36-6.21,2.69-7.78,3.65-4.35,2.67-8.74,8.82-12.59,2.35-.68-3.64,10.64-11.14,13.93-11.92,4.9-1.16,9.27,1.36,6.44,5.92Z"/>
  <path d="M1079.25,669.26c.46-.28,5.52-9.08,7.71-1.16,2.45,8.85-15.27,12.5-20.49,7.27-1.28-9.22,9.69-4.27,12.79-6.11Z"/>
  <path d="M210.17,1021.95c1.98,2.01,1.28,6.07-1.81,6.89s-14.74,1.95-17.29.75c-3.06-1.44-3.75-5.43-.58-6.6,2.79-1.03,18.07-2.68,19.68-1.05Z"/>
  <path d="M167.64,960.36c-1.43,1.43-20.66.23-21.43-.92-.82-1.22.15-4.44,1.43-5.46,1.8-1.43,17.3-1.59,19.19-.46s2.54,5.1.81,6.84Z"/>
  <path d="M1039.28,928.86l.39-5.32c3.06-3.65,6.35-.88,9.77-1.04,3.24-.15,15.24-3.94,10.98,4.33-1.85,3.58-17.22,4.25-21.14,2.02Z"/>
  <path d="M119.76,1021.52c-.25.4-7.74,3.81-8.51,4.01-3.38.89-13.15,1.81-13.15-3.3s7.37-3.31,10.15-4.05c2.63-.7,8.79-5.55,11.2-2.01.66.97.9,4.39.31,5.35Z"/>
  <path d="M271.32,1011.7c-5.2,1.96-14.01,6.59-19.44,3.97-2.94-1.42-2.83-4.97.01-6.52,6.93.73,21.55-10.24,19.43,2.55Z"/>
  <path d="M30.27,1000.06c1.6-.32,2.65.11,3.61,1.37,6.31,8.24-19.02,13.2-20.69,6.42-1.46-5.94,8.08-4.37,11.09-4.94,2.58-.49,4.53-2.55,5.99-2.84Z"/>
  <path d="M79.45,757.67c-3.88,1.69-19.1,2.48-21.14-.92l-.44-3.73c1.54-4.42,16.41-1,19.94-1.59,2.33.77,2.07,4.22,1.64,6.25Z"/>
  <path d="M83.66,961.87c4.31-1.12,6.26,5.84,1.32,9.05-4.11,2.67-17.46,2.57-17.48-3.21-.02-7.11,7.64-2.17,11.29-2.88,2-.39,3.39-2.57,4.86-2.95Z"/>
  <path d="M107.74,722.05c1.18-.04,2.06-.27,2.99.76,8.76,7.01-18.31,12.32-20.16,5.96-.52-2.71,1.48-3.95,3.67-4.84,2.5-1.01,10.53-1.78,13.5-1.88Z"/>
  <path d="M1070.95,716.61c4.11-2.54,10.1,4.35,2.39,9.43-4.96,3.27-19.57,2.19-16.26-4.22,2.03-3.95,8.66-1.2,11.92-2.33,1.47-.51,1.48-2.59,1.96-2.88Z"/>
  <path d="M1083.57,773.91c-5.13,5.12-20.26.13-19.19-5.59,1.23-6.59,9.7.07,11.47.2s3.62-3.1,7.29-1.86c2.72.91,2,5.69.44,7.25Z"/>
  <path d="M1082.64,811.34l.69,6.44c-5.65,6.26-13.03,4.56-19.01.42-.36-2.11-.67-4.79,1.68-5.75,3.37-1.12,6.39,1.75,8.58,1.66s4.85-4.26,8.06-2.76Z"/>
  <path d="M213.85,1064.07c-.48-.76-.31-3.63.02-4.61,1.29-3.85,7.75-.82,10.24-.88s5.07-2.41,7.38-1.85c12.02,10.18-15.21,11.15-17.63,7.34Z"/>
  <path d="M967.01,773.22l.76,5.29c-4.46,4.69-11.03,5.78-16.66,2.44-2.6-1.55-4.96-4.68-2.02-6.87,2.98-2.78,6.33.78,9,.91,2.32.12,5.8-3.32,8.93-1.78Z"/>
  <path d="M21.44,1068.85c1.59-.07,4.09,1.06,4.61,2.62l-.39,3.68c-4.21,4.06-23.99,5.78-19.67-3.3,1.64-3.46,5.55-.82,8.7-1.03,2.59-.17,4.95-1.89,6.76-1.97Z"/>
  <path d="M176.34,1071.56c-4.36,4.74-20.11,1.95-18.83-4.17,1.36-6.48,7.94-1.02,10.97-1.09,2.21-.05,3.91-2.55,6.29-1.95,3.2.8,3.6,4.99,1.56,7.21Z"/>
  <path d="M41.33,1040.12c-1.58,2.35-17.32,1.28-20.47-1.14-.51-2.76-.78-5.97,2.6-6.46.75-.11,14.29,1.15,15.02,1.37,2.26.66,4.01,4.5,2.84,6.23Z"/>
  <path d="M168.06,1043.36c-.41-2.03-.69-5.49,1.65-6.26,2.58-.75,6.03.45,8.36-.12,1.3-.32,1.29-5.24,6.21-2.77,4.52,2.27.64,8.57-3.02,10.08-4.32,1.79-9.04.63-13.2-.93Z"/>
  <path d="M1116.54,704.39l-.15,10.75c-3.89,3.57-20.31,2.55-16.8-4.21,2.33-4.48,7.47-.57,9.7-1.2,2.11-.59,2.94-6.8,7.25-5.34Z"/>
  <path d="M122.4,934.18c-6.15-5.89,5.59-5.86,7.69-6.29.99-.2,1.24-4.36,5.87-2.46,4.62,1.9,5.12,8.58.66,9.89-2.52.74-12.38.63-14.22-1.14Z"/>
  <path d="M1074.97,789.57l.75,5.3c-2.64,5.22-25.81,5.76-18.42-4.39l17.67-.9Z"/>
  <path d="M165.41,1102.06c-4.66,5.56-19.31,3.45-17.03-3.39,2.02-3.87,6.79-.52,9.05-.92,1.62-.29,3.9-4.43,6.52-3.94,3.44,1.51,3.7,5.59,1.46,8.25Z"/>
  <path d="M1082.61,711.89c-3.61,2.27-19.53,2.62-19.55-2.58,0-1.52,1.57-3.2,3-3.61.62-.18,12.19-1.37,12.84-1.31,3.6.31,4.5,4.47,3.71,7.51Z"/>
  <path d="M1081.51,730.7c.57.36,1.19,3.51,1.04,4.52-.88,5.92-13.22,7.88-17.88,5.23-2.15-7.75,4.13-5.68,8.31-7.11,2.15-.73,5.51-4.56,8.52-2.64Z"/>
  <path d="M1105.36,862.76c7.63,7.61-23.41,14.2-17.73,2.99,1.02-2.02,16.01-4.7,17.73-2.99Z"/>
  <path d="M120.73,1055.66c1.92-.55,16.03,1.05,16.57,2.67,2.79,8.35-18.06,7.24-19.43,1.87l.88-3.16c.55-.58,1.19-1.15,1.98-1.37Z"/>
  <path d="M1083.98,705.33l.87-5.93c4.36,1.64,15.72-7.2,17.43-1.98,2.15,6.56-13.44,11.72-18.3,7.91Z"/>
  <path d="M102.17,969.5c6.28,3.34,14.25-1.63,16.45,5.85-2.12,6-17.92,4.04-19.29-.19l.42-3.64,2.42-2.02Z"/>
  <path d="M1077.53,783.73c-1.74-1.56-.65-5.41,1.59-6.14,2.54-.83,5.18.82,7.04.39,1.68-.39,6.83-5.78,8.45-.92,2.75,8.29-11.99,11.23-17.08,6.67Z"/>
  <path d="M1095.69,719.79l.23,6.76c-5.15,3.6-13.58,4.53-17.39-1.12l1.67-4.75c6.33,1.83,9.75-.68,15.48-.89Z"/>
  <path d="M147.39,990.98l-.58-4.98c2.36-4.25,6.51-1.43,9.66-1.38,2.92.05,8.56-3.4,9.1,2.91s-14.47,4.58-18.17,3.44Z"/>
  <path d="M1071.51,687.11c1.21-.36,2.63-.46,3.67.3,6.35,10.02-15.67,14.69-16.47,6.57-.56-5.71,5.71-2.98,9.09-3.98,1.46-.43,2.31-2.47,3.7-2.89Z"/>
  <path d="M205.66,957.6c1.26-.22,4.23.97,6.41.95,3.33-.03,6.45-2.8,8.75.98,3.73,7.48-10.26,7.52-14.79,6.05-4.92-1.59-3.69-7.39-.37-7.98Z"/>
  <path d="M16.04,1105.87c2.77-.83,13.89-.81,15.68,1.32,5.6,6.67-11.79,7.03-15.68,5.87s-3.86-6.04,0-7.19Z"/>
  <path d="M80.38,994.14c-3.3,3.4-12.94,4.06-16.99,1.24-.44-1.94-.7-5.51,1.63-6.26.62-.2,12.23-1.35,12.87-1.26,3.41.45,4.86,3.83,2.49,6.28Z"/>
  <path d="M948.78,747.86c-.44-2-.69-5.51,1.63-6.25,1.97-.63,14.41-1.96,15.53.55,2.95,8.75-12.07,7.88-17.17,5.7Z"/>
  <path d="M1087.38,801.16c-.65-.62-1.34-2.51-1.16-3.39.65-3.25,17.13-6.48,17.09.1.43,7.63-12.52,6.57-15.93,3.29Z"/>
  <path d="M1064.02,756.55c-4.46,2.73-12.33,3.61-16.58.28-1.99-1.56-.11-5.9,2.29-6.51,6.31,2.36,16.42-4.47,14.3,6.23Z"/>
  <path d="M86.95,932.54l.89,4.09c-1.51,3-16.71,5.11-17.55.14-.79-6.37,12.62-6.85,16.66-4.22Z"/>
  <path d="M1116.54,722.93c-.35,2.45,1.05,7.69-1.06,9.28-2.29,1.73-13.07,2.94-14.8-.58-3.29-6.69,5.32-5.09,8.54-5.69,3.04-.57,4.53-2.67,7.33-3.01Z"/>
  <path d="M1057.4,673.59c-1.41,1.41-12.88,2.7-13.79,1.22-4.22-6.84,9.24-8.83,13.37-9.62,2.73.89,2.03,6.78.42,8.39Z"/>
  <path d="M748.94,764.5l1.8,13.08c-8.91,11.06-15.03-16.19-1.8-13.08Z"/>
  <path d="M213.45,940.17c2.29,2.18.94,6.83-2.67,7.13-4.08.34-16.79-1.95-11.26-7.95,2.03-2.21,12.2-.83,13.93.82Z"/>
  <path d="M41.59,733.68v-4.61c.82-2.38,14.81-5.1,16.09.06,1.4,5.64-12.44,6.88-16.09,4.55Z"/>
  <path d="M96.83,1057.98c2.11-.18,4.47-1.12,6.29.7l.34,3.74c-10.28,10.66-27-2.68-6.63-4.43Z"/>
  <path d="M82.53,705.6h10.49s2.44,4.33,2.44,4.33c-1.48,6.67-15,4.08-15.7.3l2.77-4.63Z"/>
  <path d="M302.99,971.39c-.46.72-12.15,3.96-14.04,1.81-6.24-7.1,12.51-10.93,14.02-6.43.33.99.5,3.86.02,4.62Z"/>
  <path d="M740.03,741.76c3.03,2.6.98,7.37-3.46,7.41-8.34.08-10.48-11.82-5.49-12.18s3.81,1.92,6.15,3.83c.72.58,2.22.45,2.79.94Z"/>
  <path d="M20.57,781.66c-3.02,1.4-13.93,2.64-14.99-.55-2.75-8.25,8.3-5.7,13.35-5.7,2.34.77,2.07,4.22,1.64,6.25Z"/>
  <path d="M1116.53,803.61l-1.01,10.42c-3.95,2.06-15.53-.51-12.66-6.06,2.3-4.45,9.99,1.78,13.67-4.37Z"/>
  <path d="M753.05,743.7c3.01-.9,10.24,6.81,8.93,11.15-2.95,9.82-16.82-8.79-8.93-11.15Z"/>
  <path d="M182.79,972.69l11.36.38.52,6.13c-5.69,4.34-18.66,1.6-11.89-6.51Z"/>
  <path d="M1116.54,680.4c-.32,3.24,1.32,7.48-1.75,9.74-3.69,2.72-16.8-2.56-9.14-8.15,2.27-1.45,4.8.89,6.84.41,1.44-.35,2.06-2.6,4.05-1.99Z"/>
  <path d="M1045.39,870.94c-3.84,2.58-16.12,2.57-13.82-4.51,1.09-3.34,19.67-3.32,13.82,4.51Z"/>
  <path d="M184.96,955.46c.41-.09,7.99-.31,8.39-.19,4.59,1.37,2.54,7.54-3.37,8.41-9.17,1.35-9.9-7.13-5.01-8.21Z"/>
  <path d="M688.28,707.89c17.73-6.54,10.05,12.52.85,7.96-3.04-1.91-2.51-5.24-.85-7.96Z"/>
  <path d="M1116.54,771.99v8.72c-5.65.32-14.95.57-10.73-7.48l10.73-1.24Z"/>
  <path d="M1116.55,786.16v7.64c-15.87,2.18-16.99-10.36,0-7.64Z"/>
  <path d="M743.49,732.59c-1.41,2.25-16.26.65-11.37-6.46,2.44-3.54,15.33.15,11.37,6.46Z"/>
  <path d="M619.52,694.4c-4.67-7.57,12.29-11.48,10.18-1.89-1.19,5.42-8.65,4.37-10.18,1.89Z"/>
  <path d="M1036.13,693.21c-5.34-5.29,6.3-11.6,9.04-6.25,1.79,5.16-4.94,10.3-9.04,6.25Z"/>
  <path d="M713.24,715.16c-3.87-6.3,9.08-10.88,10.66-4.57,1.28,5.13-9.49,6.47-10.66,4.57Z"/>
  <path d="M679.45,697.7c-3.28-9.33,11.76-9.72,10.27-3.03-1.59,4.06-6.62,4.97-10.27,3.03Z"/>
  <path d="M712.29,727.01c-7.61-7.55,12.53-10.59,8.46-.26-1.94,1.86-6.52,2.19-8.46.26Z"/>
  <path d="M661.99,704.25c-3.25-5.23,8.19-13.8,8.69-4.78.36,6.5-7.61,6.52-8.69,4.78Z"/>
  <path d="M1116.54,703.29l-7.73-2.62-.88-1.39c-1.53-6.19,12.25-7.72,8.61,4.01Z"/>
  <path d="M642.92,683.8c7.07-2.37,9.08,7.52,2.04,7.61-5.29.07-4.87-6.66-2.04-7.61Z"/>
</svg>