<?xml version="1.0" encoding="UTF-8"?>
<svg id="illustration" data-name="illustration" fill="currentColor" xmlns="http://www.w3.org/2000/svg" viewBox="0 0 1117.09 1117.65">
  <path d="M233.34.56c17.15,1.74,39.84,11.75,57.33,16.27,22.39,5.79,42.3,7.18,63.73,16.95,20.06,9.14,39.43,20.39,58.96,30.45,21.8,11.22,38,14.76,52.69,36.72,13.09,19.56,10.82,38.81-12.97,46.85-20.44,6.91-37.26-1.81-61.67,10.29-5.13,2.54-15.24,7.28-19.5,9.94-9.27,5.79-11.49,25.33-2.67,31.91,6.96,5.19,30.05,10.19,39.11,11.05,26.09,2.48,59.79,5.49,84.47,14.76,12.98,4.87,61.8,38.99,70.37,49.58,11.17,13.81,3.61,20.17-8.18,30.01-6.24,5.21-31.41,17.75-24.56,28.9,1.23,2,20.36,10.62,23.96,12.01,15.28,5.89,43.07,8.81,54.77,16.11,12.78,7.96,1.41,17.33-2.39,11.07-2.37-3.9,1.68-3.2-5.72-6.22-21.35-8.72-57.41-10.45-75.44-27.06-2.38-2.19-2.57-4.68-3.6-5.68s-3.33-.78-3.89-1.56-.22-3.32-1.05-4.92c-4.64-8.91-9.82-16.04-2.9-26.41,3.43-5.15,16.98-13.03,17.76-14.39,2.63-4.59-11.93-11.15-15.33-12.18-19.13-5.81-39.2-8.17-58.7-12.17-12.89-2.65-26.73-8.81-40.29-12.05-35.53-8.48-59.4-5.17-88.86-31.08-8.59-7.55-9.44-12.89-8.08-24.39,3.68-31.17,43.31-32.62,57.46-54.85,22.69-35.63-7.74-33.83-28.5-49.59-7.94-6.03-14.95-16.29-21.11-21.69-5.11-4.48-36.05-20.72-43.11-23.13-20.31-6.93-47.76-5.66-65.72-19.32-6.26-4.76-10.26-11.86-17.66-16.14-7.64-4.43-16.88-5.15-24.32-10.02,17.81,1.32,38.11-1.77,55.61,0Z"/>
  <path d="M664.04.56c7.23,3.73,15.67,4.1,23.2,6.79,10.97,3.92,22.7,11.18,33.52,15.55,16.12,6.5,32.98,10.4,49.01,17.5,13.61,6.02,25.61,13.86,39.8,19.08,52.22,19.24,114.16,45.44,155.43,83.36,5.09,4.68,29.44,28.08,11.37,31.03-33.4,5.43-69.75-16.23-102.73-21.44-11.33-1.79-18.68-1.32-28.04,6.25-10.41,8.42,5.67,21.33,13.25,25.98,14.34,8.8,26.54,8.11,42.03,11.4,28.51,6.07,76.62,25.25,99.54,43.3,2.99,2.36,17.5,15.15,8.5,17.31-6.44.39-6.41-4.12-9.03-6.95-13.6-14.74-64.23-36.39-84.23-42.26s-42.31-4.52-61.17-16.25c-5.05-3.14-9.67-9.27-13.2-11.87-1.97-1.45-5.89-1.19-6.9-2.38-.87-1.04-8.09-19.4-8.48-21.5-1.37-7.35-.94-13.41,3.39-19.61s20.5-19.7,28.28-19.7h21.26c-7.24-12.34-24.66-12.19-36.83-16.05-32.49-10.3-60.58-23.97-91.83-35.75-45.32-17.07-84.91-26.71-128.69-50.13-7.5-4.01-15-8.51-21.78-13.65h64.33Z"/>
  <path d="M376.18,1117.11h-206.08c-5.07-12.24-8.19-26.38-13.34-38.45-7.75-18.17-21.09-19.57-34.99-30.43-8.89-6.94-16.53-18.76-7.32-28.75,16.28-17.66,41.1-1.41,60.62-.47,14.72.71.98-8.65-3.99-12.46-26.41-20.23-60.19-27.9-87.48-46.64-7.91-5.43-17.44-11.6-14.39-22.75,2.63-9.6,12.81-11.8,20.45-15.52,10.9-5.3,18.96-10.06,31.94-10.61,21.3-.9,48.4-.06,69.45,4.66,8.46,1.9,16.52,5.9,25.51,7.2,5.85.85,14.72,1.76,20.04-.41-2.47-2.38-4.38-5.05-7.61-6.56-11.36-5.31-28.08-9.28-40.32-14.2-40.21-16.14-85.48-34.5-120.75-58.36-3.07-2.08-9.95-2.58-13.79-5.55-5.66-4.37-16.74-26.02-14.66-32.87,1.05-3.44,4.97-4.05,6.81-.71,2.61,4.73,3.9,13.31,7.11,19.05,1.46,2.61,5.42,8.04,7.98,9.47,7.47,4.18,23.24,9.72,31.83,12.87,23.39,8.58,47.83,14.42,71.42,22.35,14.56,4.9,28.83,11.63,43.38,16.59,7.61,2.59,16.5,3.51,24.22,6.31,18.76,6.82,50.25,25.15,54.05,46.26,4.11,22.85-5.63,22.24-25.12,20.76-17.69-1.35-34.9-14.69-50.65-3.73-1.13.78-11.11,9.63-11.51,10.29-1.06,1.75-.74,5.95-.45,8.08,2.56,19.22,45.8,39.59,60.39,51.91,12.95,10.93,21.87,25.39,37.41,33.46,18.5,9.6,30.66,15.64,47.61,28.71,11.71,9.03,23.3,18.59,32.21,30.49Z"/>
  <path d="M702.75,1117.11c-.6-.17-8.99-7.84-9.27-8.41-3.1-6.38-.35-21.21,2.48-27.82,1.57-3.67,6.45-7.71,4.62-11.72s-19.98-10.2-25.07-12.04c-6.56-2.37-21.16-7.84-27.37-8.61-7.13-.88-17.44,1.9-24.93,2.14-12.99.42-38.02,1.56-49.68-1.67-8.67-2.4-25.8-15.24-31.08-22.35-6.36-8.58-2.06-20.75,6.09-26.66,18.73-13.6,42.44-1.11,62.59.51,12.92,1.04,35.86-.04,49.09-1.15,3.21-.27,6.67-1.36,9.8-2.16l.06-2.22c-5.61-2.29-10.8-2.74-16.57-5.23-4.86-2.1-8.52-5.42-13.05-7.66-19.62-9.69-43.93-9.21-63.6-17.09-8.33-3.34-15.38-10.22-23.04-14.04-13.51-6.74-28.45-5.94-42.44-9.9-11.56-3.27-29.07-13.83-39.59-20.38-4.35-2.71-12.86-10.71-16.27-12.08s-8.31-.04-10.12-4.12c-2.63-5.96,7.36-6.47,11.44-4.83,3.21,1.29,14.57,11.42,19.33,14.47,9.16,5.86,26.38,16.34,36.33,19.28s21.48,3.11,31.39,5.68c14.2,3.68,29.01,13.43,43.61,17.45,38.41,10.58,119.24,8.25,145.22,41.24,10.88,13.81,7.64,25.2-9.75,29.45-16.55,4.04-30.75-3.88-46.56-4.53-2.71-.11-23.44,1.97-24.35,2.87,0,.98.98,1.7,1.87,1.94,7.85,2.1,19.29,1.04,27.99,2.54,19.56,3.38,31.8,3.84,51.37,5.33,18.49,1.41,39.2,5.64,57.04,10.57,10.47,2.89,36.24,11.47,23.7,25.47-1.85,2.06-8.76,4.92-4.44,7.21l33.87-5.07,34.84-2.26c21.93,2.53,46.86.95,68.41,5.84,26.86,6.1,53.99,26.45,80.17,35.41,4.73,1.62,10.17.11,12.3,4.61h-336.38Z"/>
  <path d="M343.85,536.32c-5.99,6.03-11.62,10.67-18.77,15.57-1.87,1.28-19.61,11.16-18.68,12.38,10.66,2.55,21.19,6.43,32.18,7.64,2.37.26,9.21,1.08,10.96.99,2.7-.13,7.53-6.15,12.01-2.15,1.36,1.85-1.41,7.94-2.75,9.4-2.23,2.43-5.61.75-7.77,3.13-1.41,1.55-2.04,6.12-3.39,8.6-4.63,8.54-11.02,15.91-16.14,24.11,15.21,10.48,34.34,12.17,51.2,18.64,1.86.71,10.4,4.18,11.28,4.8,2.95,2.1.61,8.45-.94,10.92-1.91,3.05-18.12,6-23.06,8.56-34.92,18.05-57.7,42.41-86.45,67.3-10.15,8.79-21.6,16.18-31.62,25.18-2.84,1.01-5.16-1.36-8.03-1.93-22.78-4.55-46.42-3.8-69.66-7.75-26.02-4.43-45.85-13.95-73.34-12.78-4.89.21-21.33,5.07-22.43-1.67-1.34-8.21,23.54-35.07,28.41-43.03l-63.78-4.38c-4.55-.85-2.85-5.47-.46-8.09,12.7-13.94,32.13-23.6,46.22-35.55,8.75-7.42,15.95-16.95,24.56-24.5-1-1.49-2.18-1.49-3.77-1.68-17.93-2.16-35.56-2.96-52.94-8.12-2.36-.7-15.76-4.82-16.37-5.43-7.32-7.26,15.66-17.11,19.56-19.76,8.7-5.91,17.03-13.69,25.24-19.46,10.03-7.05,21.61-11.63,31.89-18.27,11.22-7.25,23.73-19.57,35.31-24.63.61-.27,7.8-2.3,8.22-2.26,3.31.3,7.95,3.9,11.67,4.81,40.38,9.92,75.19,4.05,115.15,6.98,6.01.44,11.74,2.85,17.36,3.36,10.15.91,19.55-2.75,29.5-3.31,3.59-.2,13.64-1.1,15.26,2.16,2.88,5.77-2.81,7.37-5.63,10.2ZM336.92,531.58c-11.15.82-22.01,4.34-33.3,3.31-5.63-.52-11.34-2.92-17.36-3.36-40.29-2.95-75.45,2.93-116.24-6.98-3.18-.77-10.2-5.22-12.38-5.04-.7.06-1.36,2.78-2.81,3.87-2.36,1.77-7.57,3.17-11.05,5.32-8.58,5.32-16.78,13.48-25.7,19.01-6.81,4.22-14.8,7.24-21.41,11.31-11.1,6.83-21.86,17.2-33.1,24.69-4.02,2.68-8.44,4.43-12.32,7.29,21.12,10.25,45.31,8.35,68.07,12.56l2.3-1.06c9.65-10.63,20.86-19.94,30.48-30.57,6.6-7.29,12.31-15.31,18.76-22.71,1.51-.44,20.55,2.7,23.47,3.35,6.98,1.55,14.16,5.38,21.11,6.15,24.24,2.68,49.52,1.95,73.96,3.32,14.52-5.85,28.58-13.72,40.86-23.47,2.14-1.7,6.25-4.19,6.63-6.99ZM272.59,568.66c-8.86-.41-17.9.51-26.75.04-17.95-.96-31.17-3.28-48.25-7.36-7.67-1.83-15.76-1.54-23.44-3.45l-43.29,47.82c1.04,1.3,30.02,6.13,32.69,4.9,1.23-.57,16.91-18.42,17.93-20.24,2.51-4.49.86-8.71,2.54-12.73,2.77-6.59,13.25-4.57,19.1-4.38l39.52,16.06c2.1-.07,25.34-15.63,28.59-18.18.89-.69,2.01.03,1.37-2.49ZM343.46,579.56c-15.27,1.36-31.36-7.86-45.53-9.54-8.29-.99-14.23,5.74-22.43,7.54l-22.54,15.06,44.46,10.61c6.84,2.84,16.99,11.67,24.77,10.14,2.33-.46,12.21-14.48,14.1-17.56,3.07-5.02,6.34-10.38,7.17-16.26ZM234.43,593.75c-5.83-2.98-12.5-3.8-18.51-6.04-7.59-2.82-14.39-8.98-23.32-6.91-2.77.92-1.42,5.25-2.05,7.76-2.27,9.15-11.95,14.41-16.09,22.6l33.82,3.94c6.52-6.03,14.28-10.53,21.2-15.96.86-.68,6.18-4.13,4.94-5.4ZM122.12,677.68c11.44,1.02,22.92,2.23,34.36,3.27,16.66,1.52,35.03,4.51,51.25,5.45,14.39.84,31.34-3.28,44.75-2.22,4.63.37,6.45,2.71,10.64,3.2l53.07-65.85-20.69-10.9-50.93-12.27c-1.76,0-12.47,8.01-14.85,9.74-3.68,2.68-16.39,14.24-18.96,14.83-11.04,2.54-30.79-7.34-43.16-3.9l-45.48,58.64ZM157.01,618.82l-34.15-6.44c-9.36,9.54-18.96,21.3-29.07,29.88-12.22,10.38-28.12,17.82-39.27,29.96l58.89,3.84,43.61-57.24ZM385.99,646.06c-9.48-7.49-23.49-8.67-34.85-12.57-4.3-1.48-24.68-10.82-26.57-10.21-4.72,7.2-9.41,14.51-14.94,21.12-3.23,3.86-7.66,7.1-10.84,10.96-5.19,6.31-29.26,39.04-33.8,40.42-5.78,1.76-9.09-3.51-13.64-4-7.19-.78-21.42,2.16-29.42,2.31-20.13.37-39.12-3.67-58.93-5.49-15.2-1.4-30.57-1.57-45.76-3.27-.92.04-1.57.49-2.29,1-1.12.81-10.99,14.03-12.9,16.54-1.63,2.13-14.03,18.26-12.64,19.51,10.27-.58,20.72-1.92,31.05-1.07,16.79,1.38,37.45,9.83,54.83,12.77,18.4,3.12,36,3.18,54.21,4.68,6.48.53,13.75,3.18,20.33,3.8,9.27-7.37,19.25-14.06,28.23-21.79,29.8-25.64,53.32-51.24,89.75-69.45,5.37-2.68,12.18-4.79,18.18-5.27Z"/>
  <path d="M682.96,579.17c7.44,8.68,16.12,17.17,23.58,26.03,10.33,12.27,22.67,32.69,34.34,43.08,1.62,1.44,3.16,2.94,5.44,3.27l1.82-4.24,5.92.87c3.14,18.18-13.34,11.56-21.36,2.82-11.78-12.85-21.48-28.04-32.72-41.43s-26.07-27.41-37.05-41.46c-.99-1.27-8.76-14.34-9.79-13.63-2.21,5.6-5.62,11.81-11.93,13.18-1.42,1.92,16.15,38.9,18.62,43.91,9.84,20.02,22.13,39.17,30.57,59.93,1.67,4.1,9.3,21.08,1.44,21.06-4.33,0-7.21-14.58-9.08-18.88-15.24-34.94-35.96-67.33-50-102.89l-22.15-1.05c-1.59,1.39,12.8,35.08,14.19,39.78,2.16,7.29,2.9,14.86,5.13,22.13,2.62,8.55,12.38,25.75,9.65,34.1-2.44,7.46-15.4,3.79-14.84-1.64l1.61-2.9,6.06-.42c-2.61-10.91-8.13-20.61-11.18-31.35-1.64-5.77-1.96-11.61-3.56-17.16-4.07-14.13-12.48-28.11-15.83-42.77-30.93-21.85-58.64-42.36-47.01-85.54,3.17-11.76,24.25-23.1,35.6-24.37,7.36-.82,9.99.87,17.77-.87,6.28-1.4,24.39,12.74,28.55,17.8,8.65,10.53,19.03,29.01,20.63,42.62.94,8.08-1.36,19.08.74,26.51,2.6,9.21,18.18,25.74,24.83,33.5ZM642.88,557.33c12.16-14.74,7.4-43.8-1.18-59.58-4.13-7.59-16.29-24.3-24.55-26.7-1.62-.47-2.65,1.46-4.45,1.14s-4.76-2.83-7.32-3.56c-10.55-3.01-16.22-1.11-25.71,3.12-7.74,3.45-15.75,7.13-17.87,15.93-3.58,14.85-.28,37.62,10.74,48.68,2.48,2.49,23.48,20.15,25.64,21.25,1.09.56,10.86,3.99,12.11,4.25,2.35.49,21.29,1.58,23.65,1.29,3.32-.41,6.86-3.32,8.93-5.82Z"/>
  <path d="M805.34,622.53c-16.11-17.15-27.91-40.16-45.34-56.61-2.57-2.43-17.07-14.52-19.35-15.54-5.58-2.49-18.39,1.11-17.77-5.12.59-5.89,8.12-2.92,11.32-4.03.43-.15,6.19-4.21,7.14-4.87,37.09-25.96,13.15-111.15,72.06-127.47,7.84-2.17,28.24-2.71,36.29-1.36,9.19,1.54,30.03,19.61,36.15,27.09,21.97,26.82,36.2,52.68,71.45,63.76,3.22,1.01,8.28-.85,7.74,4.25-.68,6.38-13.08,1.87-17.7,12.91-5.82,13.91-4.06,33.53-5.25,48.18-2.1,25.74-18.43,76.32-44.39,86.46-9.56,3.73-35.49,7.12-45.3,5.43-16.1-2.77-36.11-21.44-47.05-33.09ZM867.56,427.28c-2.78-2.36-11.49-8.73-14.51-10.03-4.62-1.99-30.83-1.98-36.65-1-33.31,5.62-38.64,51.42-44.74,77.39-4.48,19.08-9.09,37.2-25.85,49.4l18.55,16.33c24.81,23.16,41.25,61.03,70.06,79.32,15.77,10.01,25.34,10.43,43.73,8.34,7.84-.89,19.35-4.42,25.67-9.23,9.78-7.45,25.63-44.38,28.18-56.87,4.24-20.78-.23-52.24,9.11-70.48,1.44-2.81,4.78-5.47,5.31-6.69.75-1.74-.61-1.47-1.37-1.85-8.76-4.4-15.31-6-23.19-12.82-19.64-17.03-35.31-45.66-54.33-61.8Z"/>
  <path d="M1049.65,428.38c3.18,3.18,3.61,13.18,2,17.04-2.38,5.71-24.7,12.86-30.92,15.97s-25.5,13.94-29.57,18.41c-1.67,1.84-3.62,5.06-4.29,7.51.79,3.47,10.85,3.05,13.6,2.87,16.67-1.09,53.09-14.42,63.38,6.33,10.45,21.07-25.96,31.68-39.22,39.64-12.32,7.4-26.7,18.07-32.38,31.4,12.35-5.41,24.32-8.14,37.31-11.2,3.36-.79,6.33-2.67,9.74-3.35,23.78-4.72,31.17,8.01,17.1,26.91-8,10.75-22.09,16.21-32.87,23.83-8.14,5.76-17.43,15.89-25.46,20.4-6.35,3.57-9.1-4.64-4.15-8.57,1.69-1.34,3.77-1.03,5.43-2.2,6.69-4.74,12.5-10.95,19.16-15.73,13.92-10,35.72-16.72,36.98-36.62-4.44-.06-7.62-1.36-12.25-.82-15.85,1.86-34.19,11.73-49.01,15.33-14.08,3.43-11.34-8.05-6.94-16.74,5.31-10.46,22.79-23.11,32.96-29.19,8.59-5.13,33.04-14.22,36.58-22.29,4.37-9.97-9.7-14.4-17.17-14.98-13.33-1.03-48.52,12.07-57.99,1.83-5.28-5.71-1.47-12.98,2.48-18.11,8.44-10.94,34.21-21.37,46.98-27.16,6.23-2.83,16.09-5.48,13.28-13.67l-.87-1.31c-7.84-1.03-15.42.77-23.56.67-3.11-.04-5.77-1.14-8.63-1.19-13.52-.23-35.75,3.13-45.86-7.56-4.78-5.06-1.18-9.75,2.74-13.67,10.63-10.65,30.27-26.15,43.73-32.6,5.1-2.45,14.37-3.71,18.77-6.31,2.64-1.56,2.77-5.8,6.73-5.31,4.41.43,4.49,7.75,1.65,10.43-2.14,2.01-18.17,5.96-22.55,7.97-17.54,8.08-30.53,21.23-45.02,33.46,1.16,1.51,2.66,2.41,4.29,3.33,11.71,6.59,52.21.67,68.25,2.63,2.06.25,4.12,1.16,5.57,2.61Z"/>
  <path d="M410.79,467.51c28.78-4.56,70.37,30.47,83.72,54.24,12.27,21.86,20.42,41.66,34.51,63.62,7.32,11.4,25.17,40.92,34.75,48.12,2.39,1.79,5.1,1,6.77,4.13,3.78,7.07,5.25,19.59,4.02,27.46-1.69,10.8-17.7,19.42-27.7,20.28-32.2,2.78-71.78-7.24-94.79-30.68-22.31-22.73-21.3-37.88-33.71-64.42-9.52-20.37-32.39-49.03-34.42-70.26-.89-9.32.57-30.52,4.73-38.62,4.21-8.21,13.15-12.45,22.11-13.87ZM409.72,476.25c-7.15,1.02-13,4.89-15.52,11.74-1.85,5.02-2.71,18.6-2.81,24.47-.39,23.2,23.47,52.01,33.55,73.4,5.88,12.47,8.23,22.88,12.87,35.11,6.98,18.42,30.8,40.58,49.03,48.02,13.64,5.56,46.72,10.8,61.02,8.63,14.41-2.18,23.26-14.86,18.3-29.06-2.24-6.4-7.92-5.65-9.47-7.98-15.01-22.54-32.13-45.92-46.17-69.41-19.8-33.11-21.24-55.42-55.29-79.91-14.76-10.61-26.46-17.73-45.49-15.01Z"/>
  <path d="M116.35,311.46c6.09,1.42,29.82,8.63,15.49,14.63-4.72-4.89-25.98-5.73-15.49-14.63Z"/>
  <path d="M548.11,60.65c2.65-.84,17.88,4.15,18.74,7.2.84,3.14-1.26,5.99-4.66,5.78-.76-.05-13.16-5.04-14.13-5.6-3.5-2.03-3.31-6.32.05-7.38Z"/>
  <path d="M155.78,240.3c-2.49,3.96-28.91-5.07-18.37-10.24,2.12-1.04,17.35,3.03,18.34,5.67.37.98.54,3.77.03,4.57Z"/>
  <path d="M969.08,50.46c-1.7,1.42-5.18,1.47-6.4-.49.71-5.4-6.5-8.58-.95-12.93,7.42-1.37,10.94,7.66,7.35,13.42Z"/>
  <path d="M941.79,65.05c5.82-1.59,15.92,7.21,10.19,11.37-2.55,1.86-13.99-4.82-13.05-8.59.54-1.18,1.6-2.44,2.86-2.79Z"/>
  <path d="M451.13,1079.22c2.82,2.38,1.04,7.63-3.43,7.37-7.03-.4-15.12-11.8-6.67-11.98.55-.01,9.67,4.25,10.09,4.61Z"/>
  <path d="M292.9,364.83c6.34-2.08,12.59,11.7,3.98,12.85-4.45.59-7.62-11.65-3.98-12.85Z"/>
  <path d="M1035.56,51.97c4.02-1.09,9.74,2.03,9.05,6.86-1.53,10.78-18.43-4.31-9.05-6.86Z"/>
  <path d="M1024.02,86.85c7.82-1.92,14.91,9.77,4.72,11.81-3.23-.06-7.47-8.8-4.72-11.81Z"/>
  <path d="M382.85,965.68c6.33-4.39,11.59,9.49,3.45,11.7s-4.97-10.64-3.45-11.7Z"/>
  <path d="M389.85,1083.8c-1.04-1.26-2.47-.71-1.69-4.26,1.82-8.26,19.1,4.97,8.16,8.15-3.29.22-4.64-1.68-6.47-3.89Z"/>
  <path d="M374.81,1052.49c-2.76,2.82-12.42,4.33-12.41-1.35,0-7.4,18.97-5.34,12.41,1.35Z"/>
  <path d="M567.77,127.19c2.98-.74,9.12,3.23,9.14,6.94.08,10.68-19.13-4.44-9.14-6.94Z"/>
  <path d="M443.64,981.77c-3.67,1.68-7.47,1.67-11.22.25-2.8-5.7,3.89-7.46,8.43-7.57,2.85.67,3.53,4.87,2.79,7.32Z"/>
  <path d="M530.74,94.07c-3.81,2.9-7.83-.73-8.43-4.73-1.45-9.64,14.49-3.6,8.43,4.73Z"/>
  <path d="M908.41,43.21c7.13-4.4,10.72,10.59,4.63,11.7-5.5,1.01-6.39-10.61-4.63-11.7Z"/>
  <path d="M1028.06,816.35c2.86,4.21,3.98,13.16-3.49,10.56-3.85-1.34-4.94-14.15,3.49-10.56Z"/>
  <path d="M597.63,126.06c4.17-2.85,11.52,7.17,5.36,10.27-6.84,3.44-7.5-8.81-5.36-10.27Z"/>
  <path d="M652.83,109.76c4.13-1.16,8.91,3.29,4.14,7.5-3.74,3.3-6.43,1.83-9.23-1.78-.23-1.35,3.86-5.37,5.09-5.72Z"/>
  <path d="M889.33,26.81c6.01-1.99,9.37,8.96,4.07,10.7-6.14,2.01-7.69-9.5-4.07-10.7Z"/>
  <path d="M236.26,408.48c1.52-.48,6.68.81,7.48,2.02,3.02,15.12-17.58,1.19-7.48-2.02Z"/>
  <path d="M1009.53,804l-4.52,1.1c-9.92-9.37,7.9-18.31,4.52-1.1Z"/>
  <path d="M1052.94,840.26c4.54-1.5,9.26,5.41,5.89,9.24-4.45,3.22-12.59-7.03-5.89-9.24Z"/>
  <path d="M635.52,131.24l-4.52,1.1c-9.8-9.6,7.13-17.52,4.52-1.1Z"/>
  <path d="M881.84,831.16c-3.27,3.27-9.11,1.14-7.13-5.5,2.25-7.52,12.29.34,7.13,5.5Z"/>
  <path d="M255.9,376.86c4.28-1.06,6.6,5.93,3.16,8.71-6.58,5.32-8.57-7.36-3.16-8.71Z"/>
  <path d="M267.92,363.85c10.04-2.98,8.61,14.29-2.47,5.29l-.37-2.57c.56-1.2,1.56-2.34,2.84-2.72Z"/>
  <path d="M167.75,343.87l-4.52,1.1c-9.46-8.46,6.74-15.76,4.52-1.1Z"/>
  <path d="M979.43,855.15c-4.15-4.01,3.36-11.63,6.81-4.07,2.59,5.67-3.75,7.02-6.81,4.07Z"/>
  <path d="M832.73,436.94c3.66-.83,12.91-.55,16.68.3,19.06,4.29,35.67,21.05,43.47,38.31,13.65,30.21,16.21,95.18,3.92,125.78-8.15,20.28-28.19,28.79-47.33,15.77-18.02-12.26-35.78-71.06-37.19-92.57-1.18-17.96-1.68-56.97,6-72.6,1.99-4.04,10.22-14.04,14.45-14.99ZM834.91,444.57c-7.28,2.16-12.42,17.84-13.55,24.61-6.49,38.72.83,83.27,16.94,118.76,7.37,16.24,23.64,38.15,42.64,22.59,18.14-14.85,16.8-66.28,15.4-88.27-1.38-21.69-8.35-46.74-23.99-62.15-8.27-8.15-25.43-19.1-37.44-15.54Z"/>
  <path d="M439.04,522.99c1.19-.39,2.78-.32,3.99.05,2.29.7,15.81,26.76,18.82,31.36,3.58,5.49,9.09,13.06,13.11,18.51,3.55,4.81,19.61,18.04,11.77,24.03-6.25,2.72-5.18-3.86-7.09-6.9-6.1-9.72-17.57-21.03-24.33-31.28-2.8-4.25-18.31-30.41-18.14-33.16.08-1.31.59-2.19,1.88-2.62Z"/>
  <path d="M846.91,480.56c13.6-3.13,21.83,7.56,24.87,19.37,2.5,9.69,4.96,44.82-7.88,47.77-23.68,5.42-29.35-33.14-27.46-49.26.63-5.39,4.75-16.56,10.47-17.87ZM850.18,488.18c-10.26,3.06-5.09,34.08-1.91,41.8,1.9,4.62,7.79,12.03,13.48,10.17,5.16-1.68,4.43-27.61,3.72-32.83-.92-6.77-6.85-21.66-15.29-19.14Z"/>
</svg>