<?xml version="1.0" encoding="UTF-8"?>
<svg id="illustration" data-name="illustration" fill="currentColor" xmlns="http://www.w3.org/2000/svg" viewBox="0 0 1117.09 1117.09">
  <path d="M0,11.99c2.19.13,4.79-.43,6.87.21,6.38,1.96,12.41,31.1,21.18,32.36,4.11.59,5.46-6.97,7.94-10.21,6.35-8.31,27.91-11.72,37.67-10.42,2.92.39,12.15,8.3,14.05,11.03,7.4,10.64,3.59,30.21-1.56,41.35,7.28-.93,18.38,7.14,22.87,12.58,1.05,1.28,5.48,8.99,5.48,9.79v18.54c0,.61-2.69,3.8-.01,3.81.06-1.23.79-2.41,1.6-3.3,4.93-5.39,20.6-21.83,26.72-23.44,5.34-1.4,27.09-1.14,33.34-.56,8.23.76,12.19,8.81,16.21,15.41,8.87,14.56,15.46,33.3,24.59,47.09,1,1.5,3.41,1.61,4.67,4.35,2.65,5.76,6.89,20.13,9.58,27.48,1.74,4.76,11.54,36.43,13.23,37.47,17.14,1.11,44.21-5.58,59.46,3.24,14.07,8.14,11.09,6,26.57,9.41,22.62,4.98,28.27,21.59,44.12,34.39,7.75,6.26,20.27,8.86,21.16,20.28,17.35,2.79,35.62,5.29,52.64,9.51,29.93,7.43,66.96,19.66,88.65,42.19,8.36,8.68,16,19.87,23.92,29.03,17.38-3.24,33.9,4.06,50.75,6.98.44-6.43,9.48-8.88,13.66-11.99s6.2-11.92,12.45-5.88c1.39,4.19-4.79,6.58-3.75,10.22,11.1-10.93,27.47-9.94,41.08-15.62,12.51-5.22,23.46-16.13,33.38-24.72,7.97-6.91,14.65-2.13,22.85-.26s9.67-.3,17.22,6.77c8.94,8.38,15.47,18.98,28.83,22.42,14.46,3.72,37.62-3,51.18-8.86,6.82-2.95,13.01-9.45,19.4-13.31,9.06-5.48,19.32-9.25,28.59-15.03,9.74-6.07,18.28-13.69,27.4-20.58,14.3-3.2,21.67.97,32.59,8.75,12.01,8.56,26.53,27.14,36.03,39.21,6.45,8.2,12.42,21.06,19.07,27.82,2.76,2.8,7.01,4.76,9.88,7.56,20.44,19.94,40.09,40.57,58.29,62.75,10.66,12.99,27.69,40.65,41.49,49.01,2.31,1.4,5.27,1.35,6.5,2.22,1.55,1.1,1.21,3.84,2.13,5.24.74,1.13,6.6,4.38,6.6,5.67v95.41c-18.64-3.68-37.56-12.56-56.27-15.15-3.49-.48-16.57-1.63-19.56-1.29-2.02.23-1.37,2.33-4.53,3.09-23.15,5.58-26.58-2.6-44.81-7.05-5.82-1.42-15.6-.67-19.37-3.57-.95-.73-1.17-2.54-1.86-3-1.81-1.19-7.17-.68-9.51-2.47.42,47.3,3.16,93.95-2.33,141.06-2.22,19.04-8.45,39.7-9.66,57.94-.99,14.93,1.61,30.56-1.11,45.23,7.18-1.17,7.43,7.99,9.97,13.48,8.81,19.03,15.73,32.51,29.32,48.1,14.8,16.98,20.15,30.84,19.64,53.5-.53,23.71-3.62,51.38-6.73,75.05-1.42,10.82-4.3,21.43-5.32,32.3,4.31.34,9.17-.6,13.38.25,5.06,1.03,8,6.58,11.74,7.89,5.62,1.97,7.01-2.16,7.64,6.54,1.37,19.02-1.71,38.33-2.22,57.3h-7.64s2.18-43.62,2.18-43.62c-9.46,4.13-17.85,8.16-28.2,9.96-1.69,2.59,3.44,16.68-6.79,10.31-1.91-1.38.4-6.95-2.59-6.07-3.94,1.17-8.5,4.21-13.09,5.46-11.56,3.14-48.07,6.5-60,5.41-5.16-.47-10.93-2.79-16.38-3.24-13.4-1.11-28.94.57-42.41-1.2-9.11-1.2-20.44-7.15-29.81-8.35-4.8-.61-9.64-.15-14.44-.27,1.42,6.03,2.06,13.66,4.03,19.41,1.54,4.52,4.95,7.57,5.78,12.2-10.47,1.93-11.14-3.67-13.64-11.97-1.67-5.56-2.41-16.16-4.55-20.45-.89-1.79-3.08-1.8-3.52-3.14-.9-2.73,2.19-4.69,2.04-8.42-.22-5.35-3.64-5.32-4.14-6.84-.64-1.94.18-4.37-.22-6.35s-2.15-4.05-2.12-5.53,6.46-11.72,9.81-9.25l-.13-1.49c-.77-1.79-1.28-3.71-2.23-5.42-2.58-4.59-14.57-22.68-17.79-25.82-2.52-2.46-9.5-3.98-7.72-9.78l3.39-2.24c2.71-.25,10.89,7.44,12.93,9.96,8.08,9.99,14.03,22.98,20.67,33.85,3.38,5.54,7.83,9.39,11.38,14.79s8.7,19.65,13.79,22.19c16.8,8.39,42.82,4.95,61.1,6.5,6.83.58,12.75,3.51,19.68,3.31,15.29-.43,47.26-2.16,60.46-8.25,1.65-.76,8.12-4.36,8.56-5.6,1.8-5.11-1.95-8.9-1.8-10.55.1-1.08,1.49-2.37,1.71-3.74,6.66-41.46,14.59-85.31,15.58-127.25.4-16.92-6.1-33.26-17.5-45.83-12.67-13.97-21.2-27.54-28.87-45.27-2.83-6.54-6.38-13.4-6.02-20.71h-3.26c-1.19,1.16,3.29,15.61,4.07,18.29,9.29,32.17,21.16,63.82,30.59,95.97,1.05,5.57-1.83,9.37-7.23,6.59-.27-3.57-.93-7.06-2.05-10.47-12.34-37.71-24.32-74.89-33.41-113.15-.29-1.22-2.25-1.06-2.85-2.42-1.15-2.6-3.31-14.13-3.88-17.65-2.98-18.36-1.52-37.15-.51-55.65-6.73,2.31-15.52,1.5-19.46-5.07-.54-.9-3.43-8.1-3.43-8.56v-29.99c-9.6,3.46-14.33,7.89-18.28,17.16-12.44,29.17-12.86,88.64-2.21,118.36,1,2.8,4.53,5.38,2.52,8.42-.68,1.03-3.08,1.17-3.67,2.89-.42,1.23-1.19,14.45-1.31,17.22-.64,14.93,1.03,29.44,5.45,43.71-2.94,7.41-7.34,2.62-9.21-2.78-6.06-17.48-3.05-36.14-2.68-53.93.07-3.24-1.62-6.3-1.24-9.87.25-2.28,2.05-3.8,2.04-5.23-.04-3.23-4.32-10.12-4.96-13.54-4.98-26.7-2.8-83.29,7.94-108.22,3.72-8.64,15.28-22.06,25.18-22.94,2.95-.26,4.23,1.63,5.33,1.66,7.26.22,12.31-4.21,17.13,4.14,15.53,26.96,4.9,61.35,7.44,90.7.68,7.9,4.52,16.82,5.4,24.13.23,1.91.23,3.75-1.04,5.35l2.16.52c.17-20.88-1.05-41.79,2.44-62.44,8.27-48.87,11.02-85.37,10.7-135.5-.37-57.53,2.27-119.23-6.45-175.64-.69-4.49.23-9.34-1.21-13.81-.52-1.23-4.64-1.71-6.02-1.85-11.72-1.17-27.51-.64-38.75-2.69-9.63-1.76-11.48-6.53-18.13-11.31-32.25-23.22-69.75-10.26-106.71-12.14-18.31-.93-35.87-7.43-54.49-8.75-10.44-.74-21.28,0-31.65-.13-26.1-.36-50.9-1.8-77.07-5.63-6.8-.99-44.91-11.31-47.74-8.42-1.14,3.89,3.12,7.33,3.29,10.46.19,3.38-3.06,3.92-3.31,6.45-.36,3.74,2.06,12.85,2.24,17.39.61,15.44-.9,31.54-.03,46.92,1.73,30.57,8.84,61.21,5.49,92.74l-2.29,35.81c11.37,2.64,1.11,13.78.12,19.81-1.32,8.03.91,18.76-.12,27.13,7.87.8,7.4,6.06,6.14,12.68l-6.07,1.02v18.54c4.15,1,.79-4.36,3.19-6.07,1.04-.74,3.61-.75,4.84-.34,4.01,1.34,3.09,24.25-8.02,12.96l1.09,16.35c10.8-4.78,9.76,8.75,1.24,9.95-2.55,9.62,7.28,3.37,7.57,10.22.34,8.01-6.47,7.99-6.71,8.85-.75,2.7-.16,20.15,2.18,21.76.81.56,5.34-2.29,7.2,1.57l-1.63,9.74c7.11-1.16,7.73,17.81,5.96,20.79l-4.62,1.4-3.56-4.68c-2.5,6.24,1.38,3.71,2.74,6.5,1,2.06.18,4.33.67,6.44,7.78.43,2.71,6.83,3.07,10.34.08.77,1.8.76,2.21,1.49,2.71,4.8,4.02,8.8,3.31,14.47,8.34-4.38,7.64,9.96,5.22,14.54-.19.35-4.32,5.95-4.6,6.23-2.04,2.06-9.5,6.07-12.43,7.75l-.18,4.18c2.55,2.73,15.24-16.05,24-5.71,1.42,1.68,4.25,8.58,4.23,10.64-.08,9.68-16.49,4.56-8.63-3.29-3.99-4.59-10.5,2.34-13.06,5.99l9.65.17c1.39,3.04,2.46,6.21-1.22,7.78-1.93.82-5.03-1.49-5.15.77,2.85.06,5.7,3.2,8.27,3.31,2.31.1,10.46-6.04,10.24,2.6-.09,3.52-2.04,2.88-3.25,5l4.84,1.03c3.41-.63-2.93-12,5.31-9.58,4.18,1.23,4.24,8.26,4.13,11.73,13.5,1.97,25.85,7.95,38.81,11.92,11.1-8.97,19.55-5.87,30.14,1.45,5.19,3.59,16.69,14.52,21.75,16.46,1.6.61,3.34-.42,5.1.21,9.1,3.23,21.51,11.99,30.2,12.49,6.43.37,15.63-.97,22.79-1.04,18.41-.17,39.35-5.1,56.66-3.23,5.41.59,10.46,3.96,16.38,3.36,4.79-.48,6.54-7.46,12.04-3.42l.47,5.52c1.37,1.47,31.05-2.82,36.6-2.25,2.24.23,4.09-.02,5.44,2.26,2.06,4.16-2.68,5.55-2.65,5.9.13,1.57,1.96,3.77.73,5.86-.26.44-6.11,3.91-7.43,5.4-24.31,27.51-17.14,91.51-12.16,125.17-.02,5.92-6.12,5.38-8.33.82l-4.58-49.4-15.83,19.59c-2.34,2.75-10,5.74-10.41.55-.14-4.46,4.81-5.44,7.21-8.11,5.5-6.13,11.49-14.67,14.92-22.15.94-2.04.44-4.52,1.45-6.23.46-.8,2.41-.75,2.69-1.87,2.26-9,2.12-21.25,4.46-31.28.94-4.02,2.97-8.64,4.25-12.64-5.86.66-4.85,9.13-6.49,13.68-3.54,9.85-7.46,10.96-12.53,18-2.87,4-4.12,8.73-7.69,13.03-2.83,3.41-13.15,13.32-17.54,9.89-6.12-4.79,6.55-8.92,7.78-11,.79-1.34-1.1-3.57.15-6.24s9.74-8.43,12.14-13.01c.83-1.58,5.05-12.95,4.53-13.44-2.58.73-6.79.54-9.02,1.33-2.66.95-8.59,14.53-11.23,18.21s-9.51,9.1-10.76,11.05-.25,5.27-3.55,6.26c-7.65,2.3-26.01-1.65-34.36-3.38-3.97-.82-10.03-3.76-13.53-4.01-4.47-.32-11.59,5.38-12.29-2.56.88-2.58,4.28-3.06,5.32-5.11-11.73-.83-17.36-8.31-27.94-12.95-4.57-2.01-14.14-3.64-17.06-6.63-3.19-3.27-3.15-11.52,2.82-9.71,4.01,6.19,10.19,5.83,16.42,8.7,8.03,3.71,13.62,8.13,20.6,12.11,3.59,2.05,9.37.19,5.16,8.47,3.33.24,7.06-.44,10.29.07s7.51,3.95,10.77,3.28c1.15-.24,1.43-3.22,2.91-3.97s3.67,1,5.76.47c.57-.14,9.24-6.42,9.51-6.94l-7.43-4.55c.06-3.78-2.01-7.06-2.38-10.7-.41-4.04,1.24-11.99.85-14.06-.19-1.01-11.13-16.23-12.02-16.75-1.07-.63-3.05-.03-4.11-.79-1.85-1.32,1.05-3.58-5.15-4.63-11.33-1.91-30.76,4.12-39.95-1.52-3.28-2.01-4.11-6.48-10.21-7.33-2.62-.37-4.02,1.89-5.81,1.52-4.6-.95-23.78-18.07-29.42-21.8-7.47-4.95-14.08-9.33-21.23-1.74s-6.25,19.89,1.09,27.33c2.97,3.01,11.19,8.59,15.05,11.12,3.14,2.06,12.94,8.78,15.78,9.34,8.07,1.58,20.46-9.19,24.6-6.4,9.77,6.56-14.56,11.69-16.91,13.21-2.13,1.37-1.66,4.75-5.53,4.18l-33.41-21.22c-3.82-3.24-9.22-5.74-9.92-11.35-8.16,7.26-9.47-.18-13.89-3.3-10.24-7.23-23.55-10.19-31.36-21.78-3.2,2.51.62,8.74-.69,10.76-.27.41-3.01.75-4.18,1.8-2.24,2-4.84,10.09-8.23,10.42-3.2.25-4.19-2.84-6.79-4.18-7.62-3.91-16.52-5.61-23.93-9.87-5.28-3.03-9.61-8.76-14.62-11.55-2.62-1.46-7.92-1.72-8.99-4.19-2.47-5.71,3.43-5.54,3.73-7.02.37-1.87-1.32-4.85-1.21-7.38.11-2.34,2.59-11.61,1.78-12.64-12.97-1.72-26.87-13.65-38.76-15.82-11.78-2.15-31.53-1.97-44.2-2.69-26.45-1.5-53.15-3.96-79.56-5.49-3.18-.18-16.46-.54-18.46.18-2.29.82-.57,5.37-5.43,5.01-3.83.02-4.11-6.19-6.87-7.14l-14.54-1.27v34.35c0,2-4.13,3.71-4.37,4.6-.77,2.86.48,8.14-.06,11.69-.77,5.15-4.57,11.17-5.3,17.69-.62,5.52-1.03,27.81-.06,32.32.16.75,5.52,4.04,2.16,9.48h5.45s-1.92-8.05-1.92-8.05c5.25-6.9,9.2-.72,8.97,5.95l4.91.41c4.68,4.38,2.13,8.59-3.3,10.01.95,10.84-1.03,23.09,0,33.73.25,2.61,2.24,3.76,2.08,6.24-.26,3.88-6.16,4.26-8.49,6.85-5.08,5.64-.18,25.38-3.32,33.19,4.5-3.12,11.42-1.14,15.59-2.4,2.19-.66,2.61-3.99,6.52-2.9.95.26,7.58,6.82,8.42,8.01,6.9,9.84,1.1,24.82,0,36-.62,6.32-.95,32.53-4.81,35.52-4.82,3.73-6.23-.69-6.18-5.02.19-17.77,5.82-38.55,6.57-56.61l-2.14-6.07c-5.92,5.11-5.85-1.48-12.52-1.14-27.95,1.44-59.42,10.44-87.37,15.17-23.48,3.98-39.31,7.87-61.12,18.48-12.95,6.3-18.98,13.66-23.75,27.5-2.05,5.95-2.8,12.45-5.08,18.36l-7.51.13,8.75-30.1-2.82-5.87c1.85-2.59,5.14-2.05,7.57-3.41,2.81-1.58,7.41-6.47,10.79-8.83s11.18-4.88,12.31-8.41l3.75-26.23c-3.53.24-6.81.24-7.6-3.85-1.25-6.46,2.02-20.92,2.22-28.31.11-4.11-2.35-9.1-.15-12.08.29-.39,7.06-5.58,7.71-5.92-1.87.94-5.69-.67-6.36-2.96-1.09-3.72,1.46-5.52,1.94-8.55,1.42-8.96-5.94-18.84-8.12-27.74-1.25-5.1-.95-9.96-1.88-14.47-1.46-7.06-13.77-28.33-19.44-32.9-1.91-1.54-10.75-6.08-11.41-7.14-1.99-3.16,2.36-5.84-1.61-11.47-4.81-6.82-15.33-10.16-21.61-18.72s-17.51-33.14-19.37-42.84c-.78-4.05-.2-6.19,4.34-6.57,1.76-.14,2.93,2.76,2.89-.59-.18-14.19-2.61-30.26-3.35-44.64-.5-9.62.76-19.92.03-29.47-.94-12.28-6.59-25.58-7.62-37.08-.58-6.49,1.98-13.44,7.41-6.31.94,13.98,6.78,27.29,7.85,41.22,1.65,21.58,1.17,45.71,2.15,67.63.34,7.61,2.61,19.01,2.35,26.17-.09,2.34-3.35.59-2.04,5.11,2.37,8.13,11.2,23.81,17.75,29.17,18.17,14.85,31.14,30.58,42.14,51.63,7.58,14.51,5.4,15.43,9.03,30.23,2.85,11.64,10.11,17.41,8.16,30.96-.16,1.09-2.76,9.11-3.21,9.33,11.94-6.37,29.46-9.22,42.18-15.06,13.8-6.34,42.51-25.28,57.59-25.28h16.9c.91-14.9-2.12-29.27.13-44.03.99-6.47,4.49-12.85,5.26-17.64.72-4.53-1.01-12.5.23-16.12.65-1.9,3.63-1.54,4.21-4.52,1.11-5.74.51-26.07.03-32.76-.19-2.68-.84-5.3-1.36-7.91-5.04-2.08-10.42-2.9-15.6-4.58-2.13-.69-6.23-3.38-7.55-3.37-.87,0-.67,2.56-2.39,3.17-4.77,1.69-11.66,2.04-15.05-2.07l-20.71,1.1c-1.7.29,1.92,6.64-6.38,5.27-5.02-.83-3.5-6.19-5.2-9.82-2.57-5.48-15.44-16.31-18.46-23.26-4.98,1.54-5.94-1.28-9.49-2.44-8.99-2.93-18.12-5.01-27.58-5.66,3.5,4.4-1.05,14.91-6.03,9.83-.5-.51-3.83-11.4-3.88-12.58-.13-3.02,1.67-4.7,1.76-6.48,1.4-27.29-13.48-65.05-20.67-90.08-.46-1.61-1.06-3.16-2.21-4.42-5.01-2.96-12.44,4.1-14.22,4.11-9.32.09.24-10.28,3.26-12.75,1.11-.91,3.32-.84,3.65-1.2,2.35-2.6-2.13-14.93-3.94-18.12-1.07-1.89-3.37-2.39-3.93-3.83-.78-2.02.49-3.96-.05-6.24-.98-4.05-12.79-23.89-15.99-26.63-6.87-5.9-24.46-9.88-30.93-2.76-7.16,7.88.2,11.89,3.63,19.16,3.07,6.51,6.7,15.78,7.8,22.83,1.34,8.51,1.67,8.94,4.34,17.36,4.02,12.68,8.33,26.24,7.47,39.67-2.06,1.16-5.64,1.56-6.77-1.18-1.12-7.71-2.15-15.56-4.07-23.11-1.04-4.08-6.55-21.47-8.56-23.88-1.67-2-12.7-2.82-14.9-10.52-1.15-4.02,2.87-4.48,2.86-4.95-.05-1.3-4.64-8.45-5.22-12.25-.31-2.02-1.08-13.38-.8-14.61.18-.77,7.22-12.41,8.17-13.47,10-11.12,34.61-6.76,44.53,3.43l11.06,17.82c-1.39-8.49-3.39-17.02-4.13-25.62-.66-7.59-.95-18-1.35-26.13-.73-14.65.17-29.54-1.05-44.2-5.2,1.31-7.98,2.47-13.61,2.16-24.8-1.39-72.04-18.34-92.95-5.13-.72.46-3.64,5.24-5.72,6.82-7.27,5.51-34.85,8.96-36.05-2.25-.91-8.51,8.79-.84,10.42-.52,4.43.87,12.7,0,17.11-1.41,1.15-.36,3.3-.27,3.04-1.84-4.39.63-11.67,2.47-15.6.05-.98-.6-1.08-2.67-2.54-3.17-2.71-.93-16.38,3.8-11.86-4.54,1.03-1.9,3.77-1.34,3.83-3.24l-6.54-1.1V11.99ZM269.17,276.79c-1.39.67-2.91,1.28-4.5,1.05-3.5-.52-19.23-6.76-23.02-8.65-10.4-5.18-18.56-14.71-28.29-19.69-6.46-3.3-14.33-5.29-21.1-8.34-1.49-.67-10.81-6.09-11.25-5.64,8,24.15,16.62,51.13,15.31,76.91-.19,3.74-3.58,23.04-2.22,24.48l7.99-1.16c5.04,5.63-2.52,9.41-8,8.8,2.67,23.04-11.39,43.56-13.13,65.93-.17,2.25-.43,9.01.03,10.71.28,1.06,3.97,1.84,4.22,4.79.46,2.61-3.89,3.01-4.23,4.39-.52,2.1.32,12.71,1.08,14.85.55,1.56,4.14.05,4.48,3.48.3,3.04-2.55,3.74-3.14,5.65-.75,2.42-.2,5.8-.06,8.36l.89,1.3c4.67-1.73,8.74,2.34,5.58,6.56-1.36,1.82-5.29,2.15-5.58,3.37-.54,2.22-.23,13.31.14,16.08,1.71,12.97,10.9,27.15,11.95,41.48.85,11.56,1.05,32.26-.06,43.65-.88,9.08-6.01,17.94-7.49,27.4-3.98,25.37-.98,53.91-7.58,79.5,10.97,26.9,16.28,55.54,18.34,84.47,7.32-.59,13.92,4.01,20.75,5.96,32.39,9.27,58.89,15.97,93.25,15.89,29.44-.07,58.85-.24,88.22-1.19,33-1.07,57.53-1.27,88.56,10.75,11.42,4.42,17.99,11.26,27.94,16.77,7.97,4.41,17.07,6.23,24.62,10.27,11.21,5.98,20.67,17.78,29.55,26.59,2.16-23.33-4.33-46.11-5.49-69.19-.65-13.03,1.61-29.1.07-41.51-1.21-9.77-6.15-14.46-4.3-27.14.56-3.81,3.05-5.8,3.28-9.87.41-7.04-2.11-17.59-2.34-25.07-.97-31.65-.52-65.4,0-97.14.41-24.88,3.76-49.94,2.27-75.24-.85-14.48-4.56-29.04-5.49-43.58-1.18-18.43-.2-38.21-1.06-56.73-.23-4.98-.65-17.24-1.76-21.14-2.25-7.93-23.19-32.33-29.89-38.8-24.46-23.6-93.37-42.12-127.18-45.1-9.53-.84-19.95.77-29.29-.15-6.33-.62-13.13-3.83-19.65-4.33-5.8-.45-10.37,1.15-15.24,1.16-7.92.01-23.6-2.8-30.33-6.84-10.65-6.39-13.83-8.62-25.83-13.42-3.73-1.49-12.44-9.19-11.06-.71ZM182.08,264.96c-7.11,2.19-14.64-1.13-21.79-2.17-2.01,2.67,14.54,52.54,15.24,61.62,1.45,18.81-.48,37.83-4.34,56.14l9.23-1.05c7.93-16.31,5.14-33.56,5.98-50.79.25-5.1,1.94-11.26,2.22-16.32.92-16.76-2.95-31.31-6.54-47.43ZM159.19,373.45c-1.05,8.19.77,18.29,0,26.71,1.7.02,1.54-3.83,1.82-5.27,1.01-5.19,3.68-17.03,3.58-21.55-.05-2.24-2.59-2.89-4.3-3.71.45,1.49-.99,2.95-1.1,3.82ZM172.26,383.83l-2.17.53-5.45,27.8c3.7-.46,5.94,1.3,8.72,3.28-.71-9.51,2.73-18.52,4.44-27.72-.2-1.33-6.29-.33-5.54-3.88ZM173.36,418.7c-4.34,3.96-6.43,1.71-10.89,0l-1.18,12.46c2.91,1.18,5.2,1.6,5.39,5.39-8.98,5.89-6.16,14.75-.22,21.94,0,3.36-4.84,4.62-5.1,5.67-.34,1.38-.29,9.15,0,10.7.77,4,8.77,3.01,8.77,7.62,0,5.2-8.79,3.27-8.77,4.38,3.36,6.56,3.37,15.02,5.76,21.5.17.45,3.05,5.74,3.3,5.98,1.56,1.51,6.87.91,4.93,6.67-9.54,3.06-2.22,14.46-1.01,21.58.68,4.01.53,19.31,1.26,20,.66.63,4.96-1.27,5.47,2.79.56,4.42-2.97,5.94-3.34,8.78-.3,2.32,1.13,4.93,1.15,7.51.25,25.56.31,51.08-3.31,76.39l.53,4.9c4.42-19.92,2.01-41.59,5.04-61.48,1.49-9.78,6.64-19.11,7.48-28.5,1.12-12.49,1.07-37.72-1.61-49.6-2.41-10.67-8.15-21.46-10.21-32.31s-.67-22.89-1.26-33.64c-.7-12.87-3.39-25.7-2.18-38.72ZM169,650.95c-.44-8.43,1.86-17.28,2.24-25.57,1.37-30.02-.84-61.79-7.38-90.84l-5.74-28.59,1.02,52.93c3.99,6.13-.92,9.21,1.23,15.69l4.09.22c2.75,5.14.44,6.48-4.26,8.13.58,3.5.69,7.25,1.26,10.71.28,1.76,2.01,3.03,2.07,4.44.07,1.78-2.14,3.72-2.18,6.5-.15,9.93,6.76,23.42,2.57,34.79l5.09,11.59ZM106.85,638.96c-.66-3.85-2.15-9.68-5.43-11.99-.02,2.18,1.19,4.19,1.99,6.17.63,1.56,1.85,5.27,3.44,5.82ZM920.16,701.24c-7.17-.97-7.87.23-7.57,6.99.36,8.42,1.24,16.99,1.87,25.42,1.13,4.57,8,6.92,10.3,1.91,5.35-11.65-.83-23.42-4.59-34.32ZM508.11,816.71c-7.13-3.9-13-8.41-20.73-11.44-28.57-11.22-51.8-11.76-82.35-10.42-5.03.22-10.38,2.04-15.76,1.15l9.27,2.16c22.96,2.36,47.98,2.99,70.73,6.68,13.29,2.16,22.19,10.39,35.53,12.46,1.15.18,3.56,1.47,3.3-.58ZM336.92,795.98h-3.26s0,4.36,0,4.36l3.25-2.74v-1.61ZM380.54,802.53l-19.62-3.27c-.27,1.67,2.04,1.29,3.28,1.6,3.68.94,9,2.24,12.67,2.62,1.2.13,3.93.98,3.67-.95ZM444.87,833.04c-.28-1.9-2.22-1.85-3.51-2.48-22.04-10.65-66.42-17.79-92.38-24.29-4.86-1.22-9.97.32-14.23-3.75-.17,2.57-.6,2.31,1.36,3.56,5.44,3.46,14.4,5.84,20.47,8.95,4.77,2.44,17.03,7.66,13.05,13.65l75.24,4.36ZM539.74,849.39c-8.53-6.2-17.88-16.84-27.22-21.29-6.74-3.22-14.07-3.64-21.04-6.22-15.83-5.85-14.86-6.99-32.96-9.57-10.71-1.53-21.35-3.54-32.18-4.34l18.48,8.22c21.77,1.14,42.12,11.4,62.12,16.39,3.1.77,13.09.19,14.11,3.34.66,2.04-.64,4.25,1.22,6.41,1.34,1.56,14.48,6.95,17.46,7.06ZM590.98,817.79c-2.79-.15-5.94,2.5-6.34,5.12-1.13,7.41,8.2.09,6.34-5.12ZM568.07,869.03c3.24-6.41-2.46-12.99-6.55-17.96-8.99-10.94-22.26-20.59-35.96-24.55,2.86,7.5,28.84,20.3,30.29,24.77.56,1.72-.03,3.77.81,5.73.33.76,10.75,12.51,11.42,12.01ZM609.42,880.03c-5.8-1.59-20.63-3.6-24.97-7.18-2.59-2.13-.05-5.07-.34-7.45-.15-1.19-2.6-5.83-3.48-7.27-2.33,5.59,3.24,16.13-5.29,17.26l-6.15-4.17c7.52,11.8,21.7,11.77,32.17,18.51.91-.05.65-4.68,6.37-3.26,1.11.28.09,3.3,2.89,2.18l-1.19-8.61ZM560.46,884.3c-.66,5.56,4.71,9.65,9.05,12.2,3.59,2.11,18.76,8.46,22.51,9.15,4.46.82,3.74-1.71.85-4.16-2.64-2.24-10.44-7.54-13.53-9.37-5.84-3.46-12.16-6.58-18.88-7.82ZM650.81,906.25l-23.84-8.87c-.4,1.96.94,2.72,2.23,3.75s19.02,11.16,20.13,11.5c2.85.88,1.48-4.85,1.47-6.38ZM814.51,920.29h-4.36s1.1,4.35,1.1,4.35l3.26-4.35ZM807.97,937.71l-4.35-4.35c-.28,2.17,2.01,4.58,4.35,4.35ZM828.68,945.36h-2.16s-1.1,4.35-1.1,4.35h2.16s1.1-4.35,1.1-4.35ZM336.93,950.81h-32.17c-1.68,0-29.18,9.42-31.86,10.67-7.74,3.6-16.13,10.81-24.65,14.6-13.11,5.83-28.33,8.66-41.41,15.01-4.08,3.26-3.95,23.84-4.02,29.51,4.11-3.13,5.35,2,7.95,1.98,12.59-4.79,26.01-6.64,38.94-10.14,7.31-1.98,16.66-6.95,23.71-7.91,5.58-.76,11.06.24,16.67-.77,8.25-1.48,18.08-7.44,24.96-8.84,3.49-.71,7.55.13,10.22-.68,1.69-.51,8.28-9.16,11.65-9.62v-33.8ZM802.51,967.16l-.53-4.36-1.64,2.7,2.16,1.65ZM813.42,964.99h-3.26s0,3.27,0,3.27l3.26-1.1v-2.16ZM815.6,990.06c-2.02-4.42-4.46-6.42-3.28-11.99-1.78.44-17.88,9.45-16.34,10.89,1.42-.5,3.21,1.1,3.82,1.1h15.81ZM328.21,1002.05c-13.52-1.34-24.73,7.76-37.91,9.54-5.26.71-10.59-.27-15.81.54-5.97.93-14.7,5.59-21.04,7.31s-42.69,8.9-43.94,12.76l-3.42,26.55c12.54-4.85,26.66-11.88,40.07-13.89,3.93-.59,7.93.22,11.58-.41,23.07-4,45.91-11.15,69.38-11.86l1.09-30.54ZM805.24,1077.29h15.81l-3.83-6.54c-1.16-.27-8.53,10.25-11.98,3.27-3.95-8.01,7.14-10.61,7.11-11.48l-10.92-13.6c-1.56,9.06,1.71,17.45,2.37,26.51l1.43,1.84ZM1012.11,1060.69c-.99-.99-1-4.05-2.38-5.8-3.51-4.43-12.41-2.17-17.48-2.68-.72,4.81,8.46.23,10.43,3.19,1.1,1.83-.16,4.88.69,6.41.78,1.39,6.93,1.88,3.05,7.83l10.9-5.45c.99-3.54-3.46-1.74-5.21-3.5Z"/>
  <path d="M0,573.54c10.76-6.48,25.3-4.55,37.5-7.75,4.33-1.13,12.38-7.08,16.02-2.7l.88,3.16-7.52,5.1c4.67.29,16.77-5.46,19.72-1.72,1.66,2.1,1.72,4.54-.87,5.87-6.73,3.46-21.65,2.9-29.2,3.5-4.1.33-22.56,2.92-24.57,1.6-.78-.51-.77-2.59-1.79-2.79-2.58-.51-6.31,2.43-10.17-1v-3.27Z"/>
  <path d="M64.33,555c11.67-1.62,26.73,1.33,38.71,0,4.05-.45,19.26-7.94,16.97,2.61-.28,1.28-13.6,4.78-15.9,5.01-8.7.87-27.34.92-35.99,0-1.64-.17-3.97-.32-4.99-1.85-1.45-2.34.42-3.81,1.19-5.79-3.53.49-7.76,3.07-11.96,3.85-17.06,3.19-35.19,3.67-52.38,1.6v-8.72c15.33,3.51,34.91,2.96,50.42-.28,3.8-.79,13.37-6.19,15.63-3.06,1.99,2.76-1,4.78-1.71,6.61Z"/>
  <path d="M856.54,583.83c10.09,10.93,17.03,21.44,26.09,32.26,2.98,3.56,16.54,13.28,17.48,15.22.86,1.78.62,3.92.59,5.83-4.66,4.54-10.59-4.29-14.21-7.47-10.06-8.83-9.85-10.68-17.51-20.4-33.27-42.24-67.16-67.64-122.82-44.66-27.89,11.52-47.4,36.66-73.04,50.17-5.31,2.8-10.7,4.19-16.71,4.55-2.01,1.9,11.54,8.3,13,9.34,27.95,19.74,39.38,53.62,78.04,57.16,8.48.78,24.42-.98,32.43-3.54,26.64-8.52,46.82-29.28,74.74-38.66,16.13-5.41,26.07-5.24,42.36-3.64,3.83.38,8.46-3.57,9.17,3.81-2.87,7.75-10.93,3.02-15.85,2.77-58.73-2.9-84.63,52.25-143.92,46.89-48.6-4.4-57.16-51.14-95.73-66.74-3.83-1.55-20.89-2.83-15.04-10.22,2.03-2.56,3.94-.6,5.9-.87,41.05-5.74,58.6-36.14,92.3-53.57,37.23-19.26,73.24-19.04,107.9,5.54,5.25,3.73,10.28,11.28,14.84,16.22Z"/>
  <path d="M803.21,579.38c11.98,11.67,8.41,45.46.42,59.06-3.71,6.33-19.17,23.29-25.47,26.87-17.85,10.13-53.61,6.88-57.36-17.15s8.26-50.8,27.49-65.06c17.26-12.81,29.93-13.84,50.14-7.11,1,.33,3.91,2.54,4.78,3.4ZM776.1,579.29c-16.67.31-38.28,21.78-43.9,36.78-4.01,10.72-7.04,30.14,1.19,39.13,11.22,12.27,34.96,9.8,46.81-.95,2.72-2.47,15.48-17.17,17.09-19.98,5.12-8.96,7.94-35.34,3.85-44.63-2.48-5.63-19.18-10.46-25.03-10.35Z"/>
  <path d="M1116.55,629.14v7.64c-24.74,2.1-49.99,1.5-74.55-2.33-5.5-.86-25.02-2.69-17.42-10.61,30.38,4.58,61.07,8.84,91.97,5.3Z"/>
  <path d="M82.72,587.87c1.56.98,1.27,5.16.22,6.99-5.48,9.55-27.67,6.89-36.53,8.19-4.12.6-9.48,3.63-14.36,4.18-8.67.97-21.49,1.26-27.53-6.03,2.01-9.35,7.57-2.33,12.44-1.56,4.52.72,10.39-.19,15.08-.1l2.82-5.87,8.05,1.52c3.98-5.93,12.71-10.85,10.52.15,1.48,1.17,18.73-1.67,21.13-3.39,1.95-1.39,3.94-6.73,8.15-4.08Z"/>
  <path d="M1116.55,725.1l-.57,8.74c-21.45-4.25-43.64-5.12-65.11-9.03-9.78-1.78-7.07-8.44-1.55-8.38l67.23,8.67Z"/>
  <path d="M1116.55,667.31l-1.02,7.16c-5.44.03-10.54,2.29-15.84,2.69-8.85.68-27.44.99-35.93-.13-3.06-.4-14.6-3.86-14.89-7.02-.77-8.52,13.57-.96,19.12-.48,8.31.72,22.2.59,30.61,0,5.98-.42,11.6-3.39,17.96-2.22Z"/>
  <path d="M1116.54,698.93v8.71c-16,1.23-34.19,2.62-49.98-.7-4.98-1.05-15.33-2.63-11.68-9.17,2.03-2.99,11.14,1.44,14.51,1.97,14.74,2.31,32.66,2.43,47.14-.81Z"/>
  <path d="M1049.09,658.45c-1.43-9.79,4.57-5.44,10.16-5.26,11.63.36,24.45.34,36.08,0,3.77-.11,14.29-3.62,14.74,1.6.42,4.86-7.93,5.64-11.54,5.96-10.49.93-31.04,1.07-41.42.03-2.83-.28-5.39-1.45-8.02-2.33Z"/>
  <path d="M76.09,782.04c5.07-1.28,7.01,4.08,2.99,7.43-7.08,5.89-43.19,5.88-50.68.46-3-2.17-1.82-6.76,1.59-7.08,2.36-.22,5.7,1.97,8.71,2.23,8.88.77,25.27.72,33.75-1.16,1.37-.3,2.53-1.6,3.64-1.88Z"/>
  <path d="M1042.54,610.47l.34-5.39c.96-1.39,3.91-1.14,5.53-1.09,11.75.37,27.21,3.92,39.26,5.51,3.75.49,12.14-2.06,11.49,3.82-.21,1.92-1.62,2.8-3.28,3.34-5.18,1.67-29.42-1.89-36.44-2.92-2.34-.34-16.44-2.54-16.9-3.27Z"/>
  <path d="M1098.96,691.16c-14.62,3.18-41.21,5.27-53.7-4.11-2.17-1.63.14-6.58,3.12-6.63,1.9-.03,5.23,2.6,7.62,3.29,9.68,2.8,19.44,2.5,29.53,2.18,5.89-.19,15.33-5.07,13.44,5.27Z"/>
  <path d="M33.01,701.92c-2.41-2.44-.88-5.81,2.5-6.29,3.88-.55,6.36,2.69,9.81,3.23,4.54.72,15.32.45,19.62-.97,4.88-1.62,10.82-10.01,13.62-1.63.39,4.34-10.9,9.66-14.87,10.2-7.25,1-25.37.83-30.68-4.55Z"/>
  <path d="M79.32,881.19c.57-.08,1.11-.24,1.68-.02,9.02,5.97-4.43,10.3-9.88,11.56-5.98,1.39-25.2,2.8-30.02.09-3.25-1.83-3.22-6.31-.02-7.32,1.1-.35,15.37,1.3,19.41.97,2.7-.22,6.63-.97,9.32-1.58,3.02-.69,7.36-3.38,9.5-3.69Z"/>
  <path d="M1116.44,768.82l.11,7.53c-6.44-.68-41.01-7.9-43.1-11.98-.61-1.19-.76-2.41-.43-3.71,1.51-4.59,12.87,1.26,16.26,2.06,9.02,2.15,18.19,3.79,27.17,6.09Z"/>
  <path d="M97.9,538.43c-3.23,5.57-34.38,7.44-40.93,4.31-5.45-11.53,19.05-6.62,26.43-7.38,3.81-.39,9.77-3.48,11.99-3.32,2.95.21,3.66,4.41,2.51,6.39Z"/>
  <path d="M1009.42,725.93c-.57.54-10.04,4.11-11.43,4.37-5.42,1.02-21.84,3.12-26.49,1.91-3.76-.98-7.46-3.85-4.42-7.75,2.49-3.2,6.92.82,11.48.66,3.31-.12,15.05-1.76,18.36-2.44,3.69-.77,5.71-4.38,10.9-2.83,2.73.82,3.73,4.06,1.6,6.07Z"/>
  <path d="M73.96,851.41c-1.16,1.9-20.88,5.6-24.31,5.68-4.1.1-19.44-1.09-13.75-8.33,2.31-2.94,8.92.89,13.67.65,4.48-.23,22.15-6.21,24.09-3.34.67.98.9,4.35.3,5.35Z"/>
  <path d="M1011.72,692.53c1.52.98,1.42,4.79-.34,6.46-5.46,5.19-39.21,8.45-32.78-4.42,2.26-4.52,6.99-.35,10.83.08,2.76.31,8.16.21,10.99-.07s9.2-3.4,11.29-2.05Z"/>
  <path d="M48.9,629.31c5.7,11.29-19.74,10.8-26.04,9.14-3.61-.95-14.96-9.03-7.98-11.36,4.09-1.37,7.96,3.65,12.9,4.26,8.09,1,13.65-1.94,21.12-2.04Z"/>
  <path d="M266.78,822.26c5.34-1.75,6.45,5.43,7.28,8.79,1.21,4.9,2.89,15.19,2.96,20.05.05,3.72-2.76,4.75-5.92,3.65-2.9-1.01-3.5-16.82-4.25-20.85-.81-4.39-5.34-8.1-.07-11.64Z"/>
  <path d="M1116.4,819.82c-1.03,1.65-40.55,5.02-30.75-7.57,8.69,2.79,19.99-.36,28.17,1.17,3.43.64,3.05,3.5,2.57,6.4Z"/>
  <path d="M179.05,754.79c2.26-3.34,7.72-.53,7.39,4.58-.36,5.63-22.39,24.51-26.19,13.16,0-3.03,14.33-7.92,17.98-13.71.72-1.15.26-3.2.82-4.03Z"/>
  <path d="M977.69,764.48c4.27-1.41,6.77,2.67,10.68,3.19,4.45.59,18.13-3.7,16.77,3.61-1.07,5.77-15.05,5.67-19.52,4.6-4-.96-14.67-9.18-7.93-11.4Z"/>
  <path d="M759.21,964.18c1.23-1.09,3.63-.51,5.65-3.6,2.56-3.92.14-8.76,5.49-8.78,5.52-.02,4.34,6.83,2.96,10.69s-11.68,13.83-15.03,9.1c-1.07-1.5-.43-6.21.93-7.41Z"/>
  <path d="M32.71,679.3l-.94-4.68c1.06-4.61,10.82-2.58,14.51-3.01,4.74-.55,11.52-6.77,10.24,4.26-1.96.27-6.79,3.44-8,3.44h-15.81Z"/>
  <path d="M75,760.83c-1.59,1.43-19.96,4.04-21.94,3.38l-1.88-2.6c-.14-2.85,1.43-4,3.82-4.96,2.94-1.19,17.52-2.91,19.75-1.02,1.21,1.34,1.66,3.96.26,5.2Z"/>
  <path d="M1080.71,850.64c3.74-1.25,6.68,1.79,10.2,2.1,4.01.35,9.03-2.66,11.55.4l.87,3.13c-1.68,6.53-19.63,5.16-23.38-.33l.76-5.29Z"/>
  <path d="M47.63,638.03c5.43-1.64,5.21,3.29,3.86,7.18-1.42,4.1-12.52,12.96-14.27,6.07-.3-.9.02-1.68.28-2.53s9.42-10.51,10.13-10.72Z"/>
  <path d="M1084.67,830c7.72-1.08,9.66,5.16,1.61,8.21-13.96,5.28-12.86-6.63-1.61-8.21Z"/>
  <path d="M489.36,571.56c1.28.91.73,4.95,1.55,6.09s10.93,4.07,7.26,9.92c-2.32,3.7-10.04-3.31-12.67-3.96-16.59-4.07-49.51,6.12-67.08,9.8-10.36,2.17-15.99,6.62-28.62,7.37-37.68,2.23-72.79-3.42-95.82-36.09-14.77-20.95-20.14-60.01-43.99-72.68-6.86-3.65-7.66-.29-10.47-.43-3-.15-3.87-3.86-4.15-4-.44-.23-8.17,2.48-5.97-4.57,2.03-6.51,11.35-3.05,15.27-3.35,36.86-2.78,72.34-15.45,108.07-17.33,43.65-2.31,78.84,30.06,102.37,63.35,6.15,8.7,22.69,41.93,30.1,45.18,1.2.53,3.36.14,4.15.7ZM418.33,494.32c-4.77-4.55-23.09-14.82-29.6-17.84-33.79-15.68-72.2,1.21-105.87,6.47-7.55,1.18-15.28,1.33-22.85,2.23-1.65.2-2.7.04-3.75,1.68,12.33,9.11,20.07,20.93,26.34,34.7,14.86,32.66,21.68,57.14,60.41,68.25,12.56,3.6,43.68,4.78,56.52,2.17,20.05-4.08,40.24-12.82,61.43-15.99,4.6-.69,11.33-1.72,15.53-.27,1.53-1.92-8.55-12.8-10.24-15.38-11.44-17.54-16.83-29.56-31.12-46.26-4.46-5.21-12.43-15.6-16.79-19.76Z"/>
  <path d="M746.12,644.11c-7.3-7.45-2.12-26.89,3.78-34.32,1.58-1.99,9.9-9.29,11.99-9.82,1.52-.39,13.38-1.3,14.42-.83,7.27,3.28,4.63,20.78,1.94,27-3.95,9.14-21.92,28.39-32.13,17.97ZM772.88,609.7c-8.82-6.56-17.32,3.54-20.28,11.51-2.07,5.59-3.91,11.95-.29,17.27,4.43,3.02,14.53-8.15,16.66-11.8,3.01-5.16,5.05-10.92,3.91-16.98Z"/>
  <path d="M331.03,568.53c-13.44-13.02-9.07-39.65-3.14-55.82,4.69-12.8,10.81-18.9,24.9-19.9,2.09-.15,11.92-.1,14,.11,10.22,1.01,26.01,18.55,28.71,28.05,2.26,7.93,4.24,28.83,2.17,36.45-8.62,31.79-46.03,31.1-66.64,11.12ZM335.12,562.26c1.99,2.21,17.36,11.46,20.09,12.08,12.96,2.94,26.58-1.41,32.77-13.53,4.98-9.77,2.52-36.07-3.69-44.99-.92-1.32-11.76-13.14-12.55-13.62-5.5-3.33-8.51-.64-13.55-.53-2.1.04-4.01-1.01-6.25-.9-12.88.61-16.38,11.6-19.05,22.39s-5.31,30.71,2.24,39.1Z"/>
  <path d="M349.35,525.97c.32-.45,1.48-.85,2.15-1.61.83-.94.82-3.09,1.74-3.75,6.39-4.58,20.81,12.16,21.75,18.68.55,3.78.52,11.59-1.22,14.93-4.49,8.6-25.69,7.84-27.86-4.38-1.67-9.43-2.23-15.95,3.45-23.87ZM367.31,550.49c1.02-5.18.2-15.35-5.31-17.82-11.93-5.35-9.61,10.18-7.71,17.25,1.75,2.77,10.25,2.14,13.02.57Z"/>
</svg>