<?xml version="1.0" encoding="UTF-8"?>
<svg id="illustration" data-name="illustration" fill="currentColor" xmlns="http://www.w3.org/2000/svg" viewBox="0 0 1117.09 1117.09">
  <path d="M0,841.77l15.83-16.34,23.91-29.51c1.28-1.07,4.74-1.67,5.93-.9s.23,6.44,2.84,5.31c3.56-4.4,7.8-5.29,12.97-6.66l43.68-40.27c1.51-1.39,5.44-1.74,6.68-.02l-.08,4.42c-15.89,15.37-33.04,29.47-49.09,44.68-19.25,18.25-37.69,32.5-46.32,58.36-.35,1.05-2.06,3.08-.54,3.82l59.42-62.7c4.77-3.8,6.7-5.26,13.06-4.3,13.97-11.83,25.91-26.23,39.88-37.71,4.41-.51,4.82,4.24,2.74,7.19l-33.32,32.09-.52,4.37c2.91-2.85,8.15-5.94,9.88-.52l-.63,2.69c-23.57,25.49-47.68,50.53-70.32,76.89,4.3,1,7.07-4.95,9.78-7.67,24.55-24.56,51.34-49.25,74.74-74.65,2.22-2.41,11.55-12.13,12.39-13.78,1.33-2.6.73-5.58,2.32-7.5,2.9-3.5,13.86-8.27,13.11-.08-.53,5.75-22.26,22.85-25.1,31.71l6.51,2.72,34.31-39.35c4.11-2.1,7.46-.12,5.81,4.76s-14.68,15.73-18.86,20.41c-3.32,3.72-17.27,18.85-18.58,21.84-.46,1.04,1.77,2.66,1.82,4.89.1,4.57-10.5,11.49-13.78,14.69-15.27,14.88-29.97,30.37-45.22,45.28,3.16.49,5.62-1.81,8.2,1.38,15.53-17.05,31.44-33.85,46.88-50.98,3.01-3.33,18.42-23.02,20.69-22.94l3.51,2.05,1.38-.31c4.58-4.36,8.28-10.27,12.55-14.82,2.48-2.64,10.78-11.79,13.04-13.12,1.73-1.03,3.09-1.71,5.04-.57,3.88,5.97-3.48,9.26-6.6,13.16,5.02,3.22,2.3,6.59-.21,10.71-8.68,14.27-26.77,33.61-38,47.05-8.85,10.6-28.01,28.59-34.28,38.78-1.8,2.93-1.16,5.27-2.26,7.55-.72,1.5-3.26,2.43-3.51,3.99-.22,1.32,1.2,2.71.33,4.74-.47,1.1-8.96,9.61-10.85,12.15-1.12,1.51-4.48,4.55-3.39,6.42,12.95-14.02,24.49-29.29,37.06-43.62,20.91-23.83,44.27-46.13,62.1-72.02,1.17-1.7,14.48-15.81,15.56-16.12,2.69-.77,5.36.83,5.36,3.65,0,2.64-12.26,17.55-14.89,20.68-2.33,2.78-7.97,6.25-7.06,9.29,3.85-3.36,15.53-17.82,20.74-13.09,6,5.43-11.17,19.28-11.15,22.37,0,1.34,3.52,2.84,2.43,5.94-2.52,7.14-19.89,24.19-25.62,31.16-2.21,2.69-5.5,6.03-6.56,9.24,6.2-5.53,12.29-11.38,18.03-17.4,1.52-1.59,1.91-4.09,3.7-6.12,4.57-5.17,13.13-10.23,17.54-16.29,3.55-1.82,7.53,1.09,6.09,4.94l-57.35,57.23c.69,5.05,6.82-4.62,8.73-5.45,2.16-.94,4.84-.09,6.55-1.09,1.36-.79,1.81-4.25,3.18-5.55,1.9-1.81,4.47-1.35,6.71-3.1,2.96-2.31,8.19-10.52,11.34-13.74,4.19-4.27,12.82-13.38,13.48-1.87l-56.55,68.93c.62,1.03,3.24-1.17,3.82-1.63,19.14-15.56,36.69-33.33,55.65-49.02,2.46-2.04,11.69-10.1,13.46-4.78,1.88,5.65-8.75,11.02-12.29,14.67-3.36,3.46-6.64,8.43-9.91,11.9l-36.53,38.71.02,1.57c2.59.35,3.31,1.21,3.33,3.83.03,4.32-4.27,6.57-3.92,10.38,6.43-5.05,38.05-39.5,42.78-40.2,2.64-.39,5.21,1.99,4.54,4.55l-7.51,8.39c2.87-.67,6.79,1.1,6.04,4.47-.98,4.44-34.48,36.97-40.4,43.5-5.31,5.85-10.69,11.98-15.8,18-1.04,1.22-2.64,1.78-2.17,3.82,8.3-8.16,17.02-15.56,27.3-21.21l58.23-55.17c3.35-2.79,8.47.39,6.64,4.4l-33.91,31.64c-1.39,2.19,2.76,4.15,1.2,7.6-2.18,4.83-20.1,17.43-21.88,21.87-.82,2.03,1.49,4.21.08,6.51s-16.51,10.61-19.25,14.69c-1.19,1.77-.19,3.63-.53,5.49l2.29,1.67,1.62-.58,27.77-26.82c2.77-1.76,4.12,1.01,9.2-2.74,5.98-4.4,26.61-25.9,31.25-26.6,4.19-.63,5.97,1.59,4.31,5.47l-43.7,39.17c-1.89,11.37-16.99,13.86-23.04,22.21-1.12,1.55-2.72,7.25-3.6,9.48,5.87-3.72,11.5-15.32,19.3-8.89l1.39-.29c5.82-5.69,36.23-41.57,40.95-42.11,4.41-.51,4.82,4.24,2.74,7.19l-25.13,26.11c1.09,1.77,2.41-.36,3.27-1.09,7.7-6.45,14.48-14.86,22.48-21.12,5.15-3.13,8.62-.34,6.4,5.31l-28.87,25.62c2.3,1.51,2.84,3.63,3.79,5.99l11.06-10.72c12.24,2.89-3.64,13.68-7.8,18.34-2.32,2.6-5.83,6.6-7.06,9.83l34.9-33.27c8.28-1.15,7.32,3.39,2.74,8.22-12.77,13.46-28.06,25.21-40.45,39.22,4.42,6.19-4.93,9.86-2.11,16.35,16.74-16.49,31.82-35.36,50.19-50.12,4.94-3.97,16.18-13.04,13.7-.51-6.31,4.83-12.83,9.8-18.65,15.19-3.91,3.62-17.55,16.14-19.65,19.61-1.91,3.17-2.32,8.49-4.12,12.24-3.38,7.05-8.33,13.51-10.69,21.12l-8.05-.08,1.63-7.64c-2.18,2.85-3.14,7.76-7.58,7.7l-206.68-.05v-165.74c2.32.16,4.05-3.27,5.41-4.95,3.68-4.56,10.92-11.56,10.41-16.85-5.55,4.75-8.95,13.57-15.82,16.35v-41.43c2.45.16,2.82-1.67,3.97-3.11,8.76-10.92,17.67-21.76,25.48-33.4l-13.12,11.95-16.33,18.02v-19.63c5.18-4.87,5.83-12.84,8.73-19.07l-8.73,7.08v-23.99ZM111.23,823.23c2.66-2.19,7.06-5.1,7.61-8.72-2.66,2.19-7.06,5.1-7.61,8.72ZM89.42,847.22l8.18-7.62,10.33-13.1-7.09,6.53-11.42,14.19ZM135.21,888.65c2.85.41,4.52-1.16,6.56-2.69,14.02-10.52,27.36-30.06,41.41-41.47l1.78-3.23-1.79-6.03-47.97,53.42ZM39.03,862.25l19.84-25.93-26.15,25.63c1.14.94,5.28.9,6.31.3ZM147.2,838.51c-2.14-.5-2.59,1.1-3.71,2.27-16.02,16.66-30.53,34.87-47,51.13l-3.8,6.55,4.42-1.57,50.1-58.38ZM65.43,874.48l4.91-4.35,15.78-19.64c-5.31,4.9-11.13,10.87-15.81,16.34-.92,1.08-5.65,6.79-4.88,7.65ZM142.85,901.74c7.4-7.99,14.85-16.15,21.77-24.56,2.21-2.68,5.5-6.04,6.56-9.24l-28.44,27.78.11,6.02ZM65.42,897.37c2.34.23,4.63-2.18,4.35-4.35l-4.35,4.35ZM116.67,909.36c1.94.41,2.67-1,3.83-2.15,1.86-1.86,5.16-6.13,5.97-8.74l-9.8,10.89ZM24,949.72l8.08-7.72,22.43-31.53-13.04,13.66-17.47,25.59ZM175.56,972.61c2.05.47,2.59-1.16,3.81-2.17,4.5-3.73,12.03-11.31,15.81-15.81,1.03-1.22,2.64-1.77,2.17-3.82-6.01,6.27-14.12,11.36-19.62,17.99-1.02,1.23-2.64,1.76-2.17,3.81ZM147.2,961.72c-2.05-.48-2.59,1.14-3.82,2.17-7.12,5.99-13.44,13.28-20.89,18.91l-8,12.71c11.76-10.4,22.42-21.96,32.7-33.79ZM79.61,1002.06c7.12-8.84,16.73-15.92,23.95-24.56,3.05-3.64,6.79-9.22,8.74-13.61-10.21,9.2-20.2,18.91-28.14,30.18-1.64,2.32-4.04,5.19-4.55,7.98ZM145.02,1005.32l4.39-1.6,9.78-12.56-14.16,14.16ZM22.71,1067.24c7.54-12.55,20.97-22.13,26.35-35.74-10.66,11.19-21.07,22.98-29.43,35.97l3.08-.23ZM104.69,1086.01c.31.35,6.66-5.15,5.43-6.54-1.37.52-6.57,5.25-5.43,6.54ZM138.48,1113.26c1.61,1.44,6.19-4.68,5.44-6.53l-5.44,6.53Z"/>
  <path d="M55.61,0l7.08,5.46-3.81-5.46h141.75c4.24,6.65,12.01,10.61,16.91,16.34,2.57,3.01,7.94,10.15,5,13.74-2.12,2.6-7.86.36-6.64,3.15,9.83,10.77,17.26,23.44,26.19,34.87,7.26,9.29,23.12,23.66,27.14,33.99,3.71,9.52-7.75,7.04-11.37,1.49-.81-.17-.73,1.12-.53,1.61,3.09,7.38,12.41,16.08,15.23,24.03-.05,2.21-2.46,4.15-4.65,3.62l-2.65-1.25-53.75-77.08c-2.34.87.22,3.97-3.98,4.06-6.41.13-23.74-16.98-29.28-21.5-3.31-.42-.26,2.59-.74,4.62-.25,1.08-2.06,2.11-1.88,3.4l33.16,34.49c1.77-1.09-.36-2.41-1.09-3.27-2.34-2.8-13.86-12.75-12.07-16.33,1.12-2.25,3.85-2.69,6.05-1.66.77.36,9.87,10.72,11.48,12.54,10.24,11.55,18.76,24.28,27.23,37.13,1.66,2.54-.3,6.41-3.23,6.47s-15.1-10.96-18.03-13.59c-10.99-9.89-23.74-26.79-34.95-34.84-4.2-3.02-10.87-5.55-15.53-8.46s-15.79-11.91-19.86-12.87c-.67-.16-.65,1.9-1.66,2.67-1.16.89-4.09-.12-3.21,2.21.8,2.12,8.38,5.52,9.86,7.59,1.09,1.52.86,3.7,1.69,4.86,11.08,15.54,27.24,29.68,40.19,43.79,3.03,3.04,5.03-2.44,8.23-.68,3.97,2.33,4.3,8.86,5.75,11.22.99,1.61,13.05,9.13,15.51,11.2,3.84,3.22,11.13,9.26,3.11,11.73l-2.21-.54c-22.02-14.59-42.32-28.47-62.5-45.54-.86-.73-2.2-2.85-3.28-1.08,8.66,9.12,18.11,17.54,26.72,26.7,7.71,8.2,19.72,24.94,27.69,31.19,2.17,1.7,4.55,1.38,6.73,3.08,2.43,1.9,7.3,10.04,9.75,13.15,3.27,4.15,10.66,7.63,7.46,13.53-6.4,4.02-21.28-18.31-26.58-21.67-1.33,2.56,2.18,5.05,1.48,7.96-2.37,9.78-24.1-8.29-27.65-11.23l.41,7.49c-6.65,3.62-11.44-4.69-15.11-9.15-11.53-14.04-25.08-30.99-38.7-43.08-2.21-1.97-4.76-3.63-7.11-5.42-.48,2.05,1.14,2.59,2.17,3.82,12.2,14.52,28.23,32.09,41.41,45.82,6.69,6.97,29.59,22.87,32.14,28.91,2.35,5.56-.76,7.17-5.99,6.08-9.11-1.89-27.98-25.48-35.92-32.85-11.02-10.23-25.63-21.85-37.68-31.02-1.14-.87-6.16-5.19-7.04-4.39l61.6,74.15c1.68,6.69-3.24,7.68-7.68,3.29-12.06-11.92-25.09-31.67-36.51-45.26-9.24-11-24.21-31.2-34.25-39.89-6.28-5.44-8.3-1.03-14.78-2.11-.42,1.82.58,2.21,1.65,3.25,8.06,7.83,16.71,15.37,25.02,22.94.9,1.23,2.03,3.18,1.58,4.7-1.07,3.6-6.68.77-5.35,3.43,10.94,13.62,25.13,24.53,36.53,37.62,3.39,3.89,14.78,18.1,14.79,22.39,0,3.44-1.61,4.29-4.91,3.79-5.36-.81-21.4-20.58-26.78-25.64-7.06-6.64-16.01-12.57-22.91-19.62l-3.27-1.09c13.14,15.5,27.44,30.1,40.31,45.83,3.7,4.52,27.28,34.29,27.05,36.89-.12,1.3-1.75,2.29-1.45,4.06.67,3.86,5.71,9.83,6.02,15.9.17,3.22-1.78,4.51-1.79,5.3-.03,1.42,20.17,23.66,7.86,22.38-3.79-.39-10.16-12.84-13.12-16.41-14.72-17.77-36.57-34.01-55.63-46.87-1.75,1.01.41,2.45.99,3.37,2.62,4.2,9.3,12.42,5.52,17.28-1.57,2.02-4.47,1.25-4.86,3.32,11.05,7.62,23.17,16.19,33.22,25.12,4.4,3.91,13.09,11.9,16.41,16.31,1.8,2.39,3.77,4.54,2.2,7.67-2.37,2.34-4.17,2.22-6.59,0-5.7-5.19-11.16-12.95-17.47-18.53-11.38-10.08-25.05-18.95-37.05-28.37-.34,4.49,5.98,9.92,1.16,14.23-4.47,4-9.68.72-14.35.05-2.77-.4-5.59.21-8.37-.36-10.24-2.08-23.49-22.8-32.96-28.1-.74-.23-.79,1.04-.53,1.61.66,1.45,10.94,15.3,12.49,16.96,10.11,10.87,36.58,23.67,50.23,32.64,4.29,2.82,14.91,12.37,18.01,13.61,2.61,1.05,5.05.33,8,1.82,1.99,1,12,10,8.33,12.42-1.16.74-2.52,1.54-3.92,1.61-7.3.38-44.9-33.44-48.44-30.5,4.89,3.49,5.75,11.65,8.25,15.18,2.19,3.09,24.41,21.72,29.39,26.22,2.94,2.65,15.69,9.37,12.41,14.09-1.49.5-3.12,1.29-4.73,1.17-3.94-.3-21.66-12.38-26.04-15.44-4.98-3.48-16.9-14.56-20.83-16.24-3.2-1.37-5.82-.77-9.06-1.84-6.68-2.21-14.24-8.73-20.47-12.24-.48,3.09,2.8,5.27,3.36,8.68.25,1.55.11,2.87-.89,4.13-7.16,3.66-14.14-.13-20.37-3.64-13.81-7.79-26.19-20.69-41.52-26.63v-8.72l52.34,31.61c1.58-1.45-18.83-23.15-21.26-25.07-5.58-4.4-23.25-11.44-25.72-14.68-1.64-2.15-.32-3.67,1.2-5.57l5.44.09-11.99-7.09v-50.16l10.91,5.99c-3.11-4.47-6.54-9.3-10.91-12.53V0h55.61ZM176.63,14.17c-.56-3.63-4.95-6.53-7.61-8.72.56,3.63,4.95,6.53,7.61,8.72ZM187.52,5.46l-2.15,1.61,4.34,3.83-2.19-5.44ZM147.19,25.08c.67-.71-6.26-9.14-7.06-9.83-2.21-1.93-5.67-2.78-8.19-4.34-.41,1.95,1,2.67,2.15,3.83,3.54,3.56,9.19,6.99,13.09,10.34ZM214.79,30.53c.84-8.29-7.35-13.11-13.06-17.45-.74.81,6.11,9.43,7.19,10.79,1.74,2.2,3.75,4.89,5.87,6.65ZM183.17,21.81c.36-1.97-1.47-3.58-3.25-4.36-.36,1.97,1.47,3.58,3.25,4.36ZM136.29,40.34c.36-1.97-1.47-3.58-3.25-4.36-.36,1.97,1.47,3.58,3.25,4.36ZM126.47,51.25c1.04-1.17-3.45-6.14-5.44-5.44-.44.38,5.05,5.88,5.44,5.44ZM67.6,56.69c.44-.38-5.05-5.88-5.44-5.44-.67,2.03,4.25,6.46,5.44,5.44ZM136.3,70.86c-5.41-6.08-12.04-11.37-18.53-16.34,3.33,9.91,7.6,15.32,18.53,16.34ZM159.18,79.6c.48-2.05-1.14-2.59-2.17-3.82-4.5-5.4-9.28-10.75-14.17-15.81,1.71,9.21,9.8,14.09,16.33,19.63ZM195.18,151.55c.58-.55-8.34-12.06-9.25-13.09-15.89-17.9-37.43-32.01-54.03-48.46-2.3-2.28-9.32-14.61-13.04-11.49l10.34,13.09c16.01,16.4,31.95,32.71,49.11,47.93l16.87,12.01ZM155.92,99.21c1.02-.95-18.6-17.57-20.71-18.53l2.15,3.83,18.55,14.69ZM79.59,101.4c-1.65-9.31-11.33-12.72-17.42-18.54l8.67,12.59,8.76,5.95ZM90.49,92.68c1.42-1.48-7.83-9.69-9.79-9.81-1.73,1.86,8.4,8.83,9.79,9.81ZM126.48,118.84c-6.8-8.04-13.6-16.19-21.8-22.89l3.71,9.91,18.09,12.98ZM61.06,152.64c.71-.63-5.14-5.43-6.53-5.44-1.51,1.54,5.86,6.03,6.53,5.44ZM11.98,167.92c-1.07-3.71-6-8.67-9.8-9.8l9.8,9.8ZM116.67,195.17c-7.37-8.93-14.77-18.47-22.87-26.73-3.9-3.98-7.61-8.75-13.1-10.33.7,5.45,2.17,10.12,5.95,14.22l30.03,22.84ZM76.33,191.9c-5.48-7.26-10.38-16.69-16.39-23.4-.89-.99-5.31-6.16-6.51-4.93,2.48,3.32,1.32,8.44,3.19,11.52.56.92,13.91,12.98,15.89,14.64,1.22,1.03,1.77,2.64,3.82,2.17ZM162.47,262.77c-10.14-21.7-28.68-39.72-45.28-56.66l-20.14-14.2c8.63,10.12,17.8,20.02,24.59,31.55,1.48,2.52,1.24,5.19,3.14,7.77,3.43,4.67,18.99,15.09,24.62,20.08,1.64,1.45,11.62,12.81,13.07,11.45ZM110.13,220.25c-6.22-8.47-12.56-17.27-20.71-23.98,2.94,9.73,9.47,15.54,16.89,21.81,1.22,1.03,1.78,2.64,3.82,2.17ZM70.87,215.88c-5.25-6.21-7.73-17.1-17.45-17.42,4.65,6.82,9.28,14.3,17.45,17.42ZM105.76,243.15c1-1.2-11.94-19.01-13.71-20.63-3.52-3.21-10.12-5.3-13.53-9.9l9.06,17.11,18.18,13.42ZM67.6,246.42l-14.16-23.45-16.36-9.25c.98,2.96.59,6.67,2.11,9.33,1.07,1.86,12.42,12.61,14.82,14.62,1.43,1.2,12.71,9.64,13.59,8.75ZM33.79,240.97c-4.13-10.84-15.35-15.11-25.07-19.62,7.55,7.41,16.41,13.55,25.07,19.62ZM28.35,247.5c-3.39-3.22-7.28-6.32-11.02-9.15-1.88-1.43-4.08-3.75-6.43-3.92,4.95,4.83,10.54,11.48,17.45,13.06ZM94.86,263.86c1.53-1.14-20.84-28.05-23.98-29.43-.38,1.84.95,2.87,1.73,4.25,2.19,3.84,14.61,23.28,17.07,24.37,1.68.74,3.36.99,5.18.81ZM37.07,268.22c-7.76-7.36-16.7-17.03-27.26-19.61l8.8,9.18,18.46,10.42ZM59.96,276.96c-1.69-5.93-7.29-9.65-13.07-10.89l13.07,10.89Z"/>
  <path d="M981.34,0l-.53,4.37,4.9-4.37h27.26l-7.62,15.26,11.98-15.26h14.17l-5.44,10.9,8.71-10.9h81.78l-.22,34.12c-1.57,5.3-15.2,9.64-13.41,16.03l13.64-11.99v20.17c0,1.69-21.29,19.98-21.81,25.61l14.89-10.18,6.92-10.53v88.32c-23.3,8.03-45.21,20.14-64.89,34.89-1.51,2.25,1.84.57,2.57.38,21.63-5.65,41.34-16.26,62.31-23.27l-.04,9.76c-16.81,3.61-32.31,12.22-46.75,21.39-4.12,2.61-16.69,13.47-20.11,12.36-6.19-2.01,2.2-10.38,4.76-11.89-11.73,2.58-23.56,10.74-35.83,6.39l.87-5.93c3.25-1.17,6.55.27,9.84-1.06,6.35-2.56,20.56-17.07,28.05-22.11,14.84-9.97,32.6-18.99,49.26-25.43-.4-3.5.97-6.85,1.25-10.21.2-2.28.3-1.56-1.12-1.12-10.65,3.34-33.37,17.56-43.52,24.1-12.46,8.03-23.84,17.72-35.78,26.48-5.02.75-6.38-6.58-2.54-9.19,20.31-13.78,39.81-28.5,61.75-39.73l1.54-15.27c-9.25,6.64-19.13,12.29-28.23,19.19-13.11,9.95-24.56,22.25-38.21,31.58-4.85,1.59-7.06-.13-7.71-4.98-3.57,2.69-6.18,2-8.55-1.84-.04-8.56,6.11-8.93,10.75-13.41-8.01.16-27.15,15.53-33.09,14.97-4.35-.41-5.69-5.68-1.74-7.84,1.44-.79,3.53-.66,5.07-1.47,20.61-10.88,49.34-19.65,64.04-37.36.58-.7,5.83-9.63,6.06-10.3,1.04-3.09-5.64,1.08-7.46-1.78l-.7-7.46c-9.64,5.55-34.62,35.97-43.8,36.81-6.31.58-5.08-7.91-3.64-11.74-13.17,2.1-3.99-25.57,1.64-26.24,8.55-1.02-.08,10.81,1.08,14.24,11.39-13.71,22.83-27.21,36.53-38.71-2.51-1.29-4.02,2.49-6.29,3.59-5.17,2.52-7.69-1.14-6.8-6.31-1.24-1.49-17.76,13.04-19.72,14.62-2.68,2.17-6.01,3.31-8.65,5.52-5.81,4.86-17.83,24.37-21.8,26.18-1.84.83-3.66.98-5.51.09l-1.55-6.06-19.7,13.01-2.57,7.24c-6.48,2.29-8.43-5-5.59-9.96,2.4-4.2,17.11-11.99,21.86-14.68.82-3.33-2.62-1.41-3.29-4.86-1.08-5.6,1.39-10.53,2.19-15.84l-8.3,11.86c-11.57,6.07-5.79-16.9-1.49-18.94,1.89-.9,4-.06,5.98-1.65,1.7-1.37,11.24-17.45,13.84-21.05,8.16-11.31,15.52-18.13,19.92-31.33,2.05-6.14,4.41-12.21,6.04-18.49-20.77,15.4-33.81,37.22-47.92,58.38-2.98,2.74-6.35,4.11-9.33.54-3.73,4.26-17.33,21.73-22.07,22.69-3.5.71-4.81-2.49-4.44-5.53.71-5.84,6.2-5.69,10.2-9.54,3.71-3.57,11.83-13.78,14.49-18.23,2.13-3.57,5.51-14.1,7.27-15.63,2.52-2.2,6.21,0,8.8-2.1l20.09-21.33c-7.28-3.25-4.26-11.94-2.16-17.99h7.63ZM972.63,86.14l28.92-38.19.5-10.88-6.55,3.79-28.31,39.29c-1.03,2.65,3.04,1.12,4.43,2.08.99.68.97,2.71,1.02,3.9ZM973.71,100.3c18.04-8.41,28.49-24.49,42.62-37.58,1.47-7.94-2.98-15.33-10.51-8.26l-32.11,45.84ZM1054.39,62.16h-3.27s0,3.26,0,3.26l3.26-3.26ZM1012.97,122.12c1.89.49,2.18-.78,3.27-1.62,8.42-6.47,17.14-17.62,25.65-24.57l-.59-9.79c-5.67,3.3-28.44,26.66-29.12,31.24-.21,1.42,1,3.17.79,4.74ZM1082.75,114.49c8.29-4.61,12.96-10.34,15.24-19.63-7.93,5.05-14.64,9.26-15.24,19.63ZM1113.27,110.13c-11.27.76-12.17,14.02-17.44,21.79.54.45,12.29-5.17,12.81-5.71,1.11-1.16,5.21-15.47,4.63-16.08ZM1071.58,119.69c.69-.67,2.15-4.4.81-5.19l-8.18,7.62c1.7-.25,6.39-1.47,7.38-2.42ZM1053.3,136.31c-12.56,3.61-22.33,11.26-30.53,21.25-1.01,1.23-2.65,1.76-2.17,3.81l4.95-1.04,27.76-24.02Z"/>
  <path d="M234.43,0c11.92,16.77,27.89,30.32,42.51,44.71l-24.51-31.64-13.65-13.07h31.62l25.07,15.26-10.89-15.26h30.53c2.8,1.59,12.46,6.15,14.93,6.37,2.21.2,3.34-4.28,7.28-2.99,7.78,6.83,15.68,15.8,23.57,22.25,4.98,4.07,18.54,9.17,2.98,12.37l-24.79-22.18c-8.89.29-15.4-5.21-23.98-6,7.23,9.88,16.31,18.31,23.96,27.82,3.69,4.59,14.07,17.09,15.06,22.03,2.92,14.55-16.42,5.73-16.15-1.41.12-3.2,4.9-1.27,2.73-5.91l-39.24-44.73c-1.83,1.14.48,2.38,1.1,3.27,2.5,3.57,15.78,17.97,5.39,19.63-8.24,1.32-24.63-15.82-33.18-18.54-.52.58,5.17,10.74,6.05,11.93,2.1,2.82,17.95,14.95,10.68,17.38-4,1.34-5.03-2.35-8.01-1.51,5.81,5.23,10.24,15.24,15.74,20.24,2.36,2.14,4.94,2.3,7.17,4.82,2.68,3.03,2.36,6.62,3.9,9.18.86,1.43,11.73,16.09,12.42,15.37-.73-3.9,4.35-7.7,7.11-4.37.57.69,5.97,15.98,6.04,16.91,1.09,15.25-13.01.69-16.97-3.81-10.77-12.22-17.78-24.84-33.26-33.25L220.26,0h14.17ZM264.96,8.71c.92-.85-6.14-8.37-8.72-7.61.78,1.48,7.37,8.86,8.72,7.61Z"/>
  <path d="M0,297.67c2.42-.54,2.31,1.34,3.25,2.69,1.34,1.94,7.7,12.16,8.39,12.65,3.78,2.69,22.83,7.64,29.43,10.63,11.8,5.36,28.87,15.21,39.51,22.64,4.34,3.03,17.74,12.96,20.85,16.22.92.96,2.21,1.79,2.2,3.33-2.79,6.94-9.05,1.57-13.04-1.2-5.35-3.72-10.11-8.84-15.66-12.69-16.5-11.46-36.31-21.62-55.31-28.1l21.04,33.46c8.72,4.33,45.12,23.53,47.47,31.63,1.22,4.19-1.92,5.59-5.59,4.49-.83-.25-10.54-9.15-13.07-10.94-2.06-1.46-19.59-12.59-20.41-11.75,1.61,7.48,5.82,17.44-2.51,22.02-7.18,3.95-11.76,2.82-18.95-.02s-23.96-12.48-20.05-21.54c4.42-3.2,9.02,5.87,11.69,8.09,5.36,4.47,16.87,9.79,23.73,6.83,3.78-2.69-4.05-18.56-6.99-21.39-6.33-6.11-27.38-7.44-35.99-10.35v-7.63l28.36,5.99-20.7-31.64-7.66-2.7v-20.72Z"/>
  <path d="M954.08,0c-4.75,8.75-13.5,16.03-15.25,26.17l17.44-26.17h13.08c-2.56,4.77-8.21,7.08-11.39,10.97-7.83,9.58-15.97,30.87-24.55,38.69-5.4,4.92-9.17,1.71-9.31-4.94-6.71,7.47-20.97,29.21-31.62,29.47-13.17.33-.67-26.4,6.53-12.04,10.4-10.11,18.89-22.14,26.73-34.33-2.09-.42-3.09,2.99-5.14,3.6-9.04,2.69-5.58-10.96-3.35-15.36,2.48-4.89,4.24-1.71,6.73-2.13,2.1-.36,8.57-11.55,10.48-13.93h19.63Z"/>
  <path d="M218.08,0l58.87,79.11c1.1.85,3.59-3.86,7.11-.61,1.39,1.28,8.6,17.28,8.71,19.51.28,5.36-4.71,5.28-8.59,3.25-5.7-2.98-18.78-26.05-23.78-32.91-16.87-23.13-35.51-45.03-52.14-68.35h9.81Z"/>
  <path d="M0,833.05v-11.99c4.35-.68,6.02-5.35,8.69-8.21,18.4-19.64,39.59-40.43,60.57-57.19,2.85-2.27,20.59-18.59,21.31-9.27l-1.64,3.88c-26.62,20.21-52.14,43.47-74.8,68.04-4.39,4.76-8.1,12.33-14.15,14.75Z"/>
  <path d="M0,793.79c2.15.02,3.02-1.48,4.38-2.71,16.41-14.9,32.63-30.1,50.87-42.91,4.05-2.84,21.15-16.79,20.1-5.08-.21,2.34-8.81,6.53-11.36,8.37-15.58,11.21-31.28,23.39-45.47,36.31-6.04,5.5-11.35,13.12-18.52,16.92v-10.9Z"/>
  <path d="M0,401.26c10.61-.59,63.71,20.51,67.06,27.25.95,1.91,1.5,4.73-.83,5.79-3.58,1.64-16.13-7.55-20.41-9.63-14.55-7.05-29.92-12.62-45.82-15.79v-7.63Z"/>
  <path d="M0,767.63c13.32-8.13,24.48-19.73,37.17-28.8,2.42-1.73,12.52-9.16,14.1-9.88,3.86-1.76,6.17-.92,6.46,3.28L0,778.53v-10.9Z"/>
  <path d="M912.65,0c-7.33,10.22-15.25,20.05-22.7,30.19-6.57,8.95-10.9,20.77-21.45,26.13-9.82-2.9,3.84-13.17,7.52-18.25,7.35-10.13,17.42-23.66,23.79-34.06.86-1.41,2.39-2.18.84-4h11.99Z"/>
  <path d="M0,752.36v-10.9l41.47-32.17c2.73-1.93,5.41,1.63,5.18,4.19-.41,4.58-21.73,17.66-26.45,21.46-6.95,5.6-12.79,12.88-20.2,17.42Z"/>
  <path d="M0,465.59v-8.72c14.98,5.61,32.16,11.85,45.81,20.15,2.88,1.75,6.45,3.17,7.45,6.75.21,2.43-3.34,4.4-5.55,3.43-15.25-8.36-30.94-16.95-47.71-21.61Z"/>
  <path d="M881.02,0l-26.77,40.29c-2.62,2.22-7.66,5.24-9.8,1.14-1.74-3.33,3.97-6.88,5.86-9.45,7.52-10.26,12.95-22.01,20.9-31.98h9.81Z"/>
  <path d="M0,726.19v-9.81c8.61-2.77,19.43-15.66,27.23-18.07,9.44-2.93,7.56,9.6.4,13.57-3.9,2.16-3.62-.41-5.29-.56-2.91-.26-17.63,13.97-22.34,14.87Z"/>
  <path d="M370.73,0c2.64,7.73,15.01,23.36,16.18,30.26.82,4.83-3.33,7.92-6.87,3.49-5.04-6.31-9.16-19.3-13.85-26.48-1.79-2.74-4.75-4.4-6.36-7.27h10.9Z"/>
  <path d="M847.22,0c-3.11,9.12-25.69,44.29-25.19,15.92,1.32-1.78,5.6.23,7.53-.88.76-.44,8.02-12.88,8.94-15.04h8.72Z"/>
  <path d="M402.35,0c1.06,3.61,5.27,3.76,7.14,5.4,3.08,2.7,4.41,11.7-1.15,11.66-2.13-.02-14.22-14.45-16.9-17.06h10.9Z"/>
  <path d="M0,485.22c5.27,2.92,19.14,5.58,18.64,12.54s-15.3-3.61-18.64-3.82v-8.72Z"/>
  <path d="M1037.78,638.69c-1.11,1.07-5.13,1.62-7.32,3.04-11.16,7.27-32.02,31.43-40.19,42.68-37.64,51.8-68.21,108.53-97.4,165.38-49.66,96.71-130.33,180.76-230.27,225.51-81.35,36.43-141.79,35.73-216.54-13.91-55.9-37.12-91.8-69.97-124.58-129.48-27.77-50.43-37.98-113.06-54.65-167.79-12.1-39.74-42.45-102.95-77.19-126.71-25.4-17.37-52.84-33.86-84.48-34.47-2.93-.06-5.6,1.58-8.58,1.13s-5.91-3.82-10.98-4.37c-15.04-1.62-30.98-1.52-46.9-3.25-11.27-1.23-22.22,3.35-10.75-12.96,14.12.93,27.95-3.77,40.73-9.43,60.36-26.73,100.64-65.38,135.07-121.16,10.66-17.27,17.46-42.53,25.8-61.43,17.76-40.25,40.45-83.47,62.88-121.39,8.45-14.29,19.2-25.88,27.51-39.01,11.24-17.76,15.44-32.27,31.26-48.33,19.92-20.23,38.34-42.22,60.44-60.59,18.26-15.17,35.9-26.7,58.04-35.73,37-15.08,87.43-26.34,127.34-24.31,43.22,2.2,92.5,14.67,133.51,27.87,22.33,7.19,27.58,13.16,46.18,23.6,4.67,2.63,10.32,3.55,14.36,6.35,4.57,3.17,9.1,11.01,13.06,15.29,23.55,25.37,40.13,48.76,57.45,78.85,23.65,41.09,48.79,87.42,62.27,132.91,6.44,21.72,10.47,44.56,19.46,65.59,3.24,7.58,8.68,14.75,11.55,22.25,5.26,13.75,5.6,29.83,10.19,43.24,3.06,8.94,10.86,15,16.08,23.18,10.38,16.27,19.58,33.63,29.46,50.14,2.55,4.27,6.63,15.19,9.43,17.83,11.31,10.6,28.4,22.6,42.87,29.1,10.68,4.8,10.5,3.12,20.38-1.94,2.86.24,4.37,4.57,3.7,6.93l-42.74,27.13c-3.68,1.1-4.95,6.82-6.45,8.27ZM1002.76,658.21c6.68-7.06,13.16-14.02,20.61-20.37,1.05-2.14-2.24-5.29-2.72-8.21-2.23-13.88,3.76-30.1,16.27-37.01-7.75-6.52-17.77-11.56-25.08-18.51-4.9-4.66-9.4-11.53-13.73-16.8-42.86-52.13-77.1-117.09-101.28-180.04-15.84-41.23-29.39-86.06-57.27-121.55-44.09-56.11-107.13-123.49-182.62-129.23-73.8-5.61-182.42,14.25-246.24,52.5-16.33,9.79-33.15,22.85-47.62,35.25-6.93,5.94-14.37,12.11-21.16,18.09-6.32,5.56-20.68,27.05-25.98,35.08-50.54,76.59-80.49,172.06-142.14,240.59-17.64,19.6-36.96,37.1-59.67,50.46-5.43,3.2-11.27,6.09-17.08,8.56-2,2.4,7.7,4.74,9.1,5.59,7.25,4.43,3.2,15.52,2.93,22.69.87,1.01,22.65,2.65,26.42,3.57,19.05,4.67,66.67,36,79.87,50.98,63,71.5,65.87,170.28,101.41,254.06,28.16,66.38,68.81,106.71,127.11,146.58,74.59,51.02,131.31,55.3,214.36,18.28,99.47-44.34,178.73-127.05,228.09-223.33,29.28-57.12,60.28-114.57,98.49-166.47,5.74-7.8,11.36-13.78,17.96-20.75ZM102.34,579.14c-5.17-.81-11.38-6.27-16.47-5.42-2.9.49-9.41,5.38-12.84,6.88-7.47,3.27-15.29,5.82-22.87,8.74,1.27,1.86,2.96,1.53,4.84,1.7,15.21,1.4,30.52.91,45.77,2.19l1.57-14.09ZM1064.2,607.36c-5.98-1.46-11.98-7.94-18.09-8.71-13.13-1.66-21.55,22.24-16.78,32.68l34.19-21.71.68-2.26Z"/>
  <path d="M959.53,1114.36l-44.68-82.35,2.15-3.26,4.39-.03c3.89,6.54,7.57,15.77,12.12,21.69,1.41,1.83,1.69,2.14,4.2,1.79,2.31-2.19-23.44-31.52-18.04-39.3,4.68-6.75,9.55,9.54,10.94,12.07.9,1.64,6.74,11.39,7.35,11.73,1.07.6,2.98.05,4.36.5,1.6.52,2.16,2.37,4.12,1.91l-24.62-37.02c-1.18-2.73-.24-5.26,2.5-6.43,8.48-.21,6.7,4.91,8.53,9.63,1.18,3.06,5.82,7.75,7.59,10.94l1.6-6.03c7.51-2.22,5.75,3.97,7.07,8.26,3.36,11.02,9.7,23.53,15.65,33.42s13.82,21.21,22.01,28.68c-4.46-10.1-11.32-19.05-16.53-28.71-7.61-14.1-12-25.03-17-39.66-1.46-4.27-10.69-14.93-13.8-20.04-1.97-3.23-10.86-15.34-4.28-17.25,4.9-1.42,6.62,6.5,8.63,9.62,3.08,4.79,6.32,10.18,10.26,14.26.33-2.95-2.95-4.53-3.29-7.18-.42-3.28,2.15-4.74,2.01-6.26-.05-.51-1.95-8.84-2.22-9.76-1.01-3.44-11.49-11.64-5.85-16.15,2.44-2.27,9.61.22,10.32,3.06.54,2.16-1.57,4.32,0,6.36l37.2,50.66c-2.18-6.67-7.15-12.35-10.37-18.51-3.26-6.24-10.03-19.04-11.99-25.18-.8-2.5.78-3.96-.23-7.22-2.86-9.22-17.35-22.58-17.8-33.63-.35-8.56,9.23-4.15,11.51-.5,1.74,2.8-1.25,5.71.26,9.46,4.72,11.78,22.59,37.43,30.35,49.32,1.68,2.58,3.39,5.95,5.9,7.72-4.69-15.13-20.2-30.98-22.8-46.43-.63-3.73.66-7.15-.92-11.08-1.75-4.36-9.77-12.61-12.72-17.81-1.47-2.59-3.12-5.2-3.87-8.12,4.71-9.26,13.09.12,12.97,7.75l23.54,33.16-3.03-13.33c-6.78-10.23-14.39-19.94-20.87-30.37-1.68-2.7-8.89-12.98-7.8-15.16,4.55-8.25,18.07,9.41,19.71,13.14,1.06,2.41-.55,3.9.65,6.8,3.52,8.49,14.9,19.03,19.53,27.54l4.16-.82,1.43-7.27c3.54-.82,6.71.17,9.65,2.03l-35.99-51.88,1.01-3.27,2.89-1.59c6.73.35,6.97,8.58,9.36,12.44,1.64,2.66,15.38,20.77,16.72,20.96.86.12,2.19-.73,3.26-.6,6.72.84,23.51,28.58,31.11,32.67-.92-4.26-3.61-8.38-6.08-11.9-15.24-21.67-39.55-42.53-52.15-65.61-.9-1.64-3.32-4.49-2.35-6.44,8.01-6.37,7.69.51,10.42,4.91,3.99,6.44,10.48,14.66,15.31,20.68,2.85,3.55,12.92,16.38,15.75,18.12,1.74,1.08,3.98-.72,7.53,1.13,2.73,1.42,12.63,11.02,16.51,14.02,1.76,1.36,4.16,1.47,5.94,2.79,3.94,2.9,6.69,7.7,10.94,10.32-2.48-5.28-6.26-11.2-9.82-15.79-12.14-15.63-27.74-30.38-40.29-45.85-2.92-3.6-14.88-18.34-14.89-21.77-.01-3.11,3.49-4.92,6.15-3.29,1.2.74,11.76,16.64,14.2,19.61,10.33,12.54,21.79,24.5,32.67,36.56-2.2-5.72-5.53-11.72-8.53-17.09-3.29-5.9-11.75-17.17-13.57-22.5-.76-2.24.08-4.14-.32-5.16-.72-1.83-24.99-24.25-7.81-21.53,6.75,1.07,4.82,4.63,6.92,8.39,4.18,7.49,13.96,14.63,20.05,20.82-.46-6.47-16.34-23.2-12.61-28.44,1.01-1.42,4.84-.09,3.88-2.62-2.7-4.05-20.41-16.33-14.75-21.28,6.15-5.38,13.25,11.9,17.98,13.58,1.64.59,3.64-1.49,6.16.48.79.62,7.34,14.16,9.81,17.47,5.69,7.65,14.08,14.89,20.63,21.89,1.83-1.14-.48-2.38-1.1-3.27-3.02-4.31-15.57-18.59-16.46-21.77-.43-1.55.22-2.89.78-4.26l5.94.88c11.08,12.73,19.5,28.05,32.07,39.33-.53-4.4-9.27-8.5-7.12-13.05.45-.96,2.46-1.8,2.67-2.91.31-1.66-12.93-17.8-15.19-20.54-10.34-12.57-23-24.22-33.24-36.54-2.62-3.15-15.03-17.17-7.43-19.53,6.08-1.89,5.24,3.34,6.42,5.24,6.38,10.28,17.24,19.09,25.02,28.45l2.27-4.29c1.63-.34,3.05-.29,4.3,1,1.58,1.64,7.06,16.07,9.43,20,5.94,9.86,14.42,19.51,22.71,27.45v46.34l-12-10.35c1.73,4.65,9.7,10.94,11.44,14.73.73,1.59,1.56,33.45.56,34.88l-2.18-.55,2.24,7.57-.05,156.52h-72.51l-21.25-20.72,15.25,20.72h-44.16c-.69,0-2.79-4.77-4.38-5.44-4.04-1.7,1.24,4.83.56,5.44l-11.52-1.01-31.55-49.14c-.04,3.74,2.96,8.34,4.72,11.63,6.96,13.02,15.32,25.44,23.08,37.98-5.59,1.08-10.43,1.41-15.26-1.64v2.17s-16.92-1.07-16.92-1.07c-8.77-17.8-16.89-36.48-27.73-52.96l-4.42-1.56,21.69,54.1c.48,2.08-.03,1.33-1.5,1.51-1.79.21-11.61.29-12.38-.19-3.07-7-5.7-14.24-8.71-21.27-2.2-5.14-7.44-7.68,2.01-10.73-.24-5.98-13.3-26.01-10.46-30.04,16.32-5.63,22.24,5.41,30.09,16.95,6.39,9.4,20.57,38.2,28.32,43.1ZM1076.19,887.57c.12-1.95-1.22-4.65-3.25-5.45-.12,1.95,1.22,4.65,3.25,5.45ZM1072.92,962.8c-1.85-4.23-5.69-9.07-8.74-12.51-1.22-1.37-2.62-3.11-4.32-3.85,2.66,6.28,8.49,11.41,13.06,16.35ZM1026.06,963.89l2.1-2.63-4.28-3.91,2.18,6.54ZM1068.56,1020.59l-3.88-10.83-23.36-25.15,13.71,21.72,13.53,14.27ZM996.6,1042.39l-17.43-26.16c2.69,6.45,6.93,13.34,10.87,19.1.74,1.09,4.97,8.67,6.56,7.06ZM1018.41,1043.48c.83-.97-3.81-7.26-5.44-7.63-.42,1.17,3.84,9.49,5.44,7.63ZM973.7,1086.01l-16.13-31.29-10.01-13.42c-1.06,7.09,5.33,11.7,8.51,17.11,5.49,9.34,9.5,20.51,17.64,27.6ZM1057.65,1093.65c-1.56-4.03-5.01-7.97-7.67-11.4-3.94-5.1-8.27-10.4-13.03-14.77-.12,2,1.66,3.82,2.82,5.35,5.47,7.24,10.95,14.98,17.88,20.82ZM1027.12,1083.83c.36-1.97-1.47-3.58-3.25-4.36-.36,1.97,1.47,3.58,3.25,4.36ZM1041.3,1100.19c-1.22-3.18-4.76-7.3-7.06-9.83-1.74-1.91-3.81-4.07-6-5.44.86,2.85,3.99,6.52,5.97,8.74,2.08,2.33,4.53,4.73,7.09,6.53Z"/>
  <path d="M411.44,70.16c-8.5,7.03-16.21,18.69-24.9,25.8-7.14,5.84-16.13,10.45-23.46,16.88-10.42,9.14-26.55,25.61-36,35.97-11.45,12.55-20.84,32.99-31.12,47.39-5.7,7.98-12.88,14.77-18.37,23.06-23.17,34.92-38.25,76.3-61.9,111.47-2.82,4.19-11.49,18.33-16.46,16.95-7.07-1.96.11-7.35,1.85-9.75,26.48-36.42,43.24-78.48,66.27-116.91,6.91-11.53,14.88-19.35,22.5-29.84,10.71-14.74,19.82-34.94,31.78-47.82,19.82-21.35,39.19-36.24,61.1-54.48,8.32-6.93,15.89-17.92,24.08-24.99,11.82-10.22,29.33-16.26,42.35-25.26,14.25-9.84,17.44-17.36,36.05-21.74,57.14-13.47,119.38-5.6,177.19.56,26.76,2.85,64.59,3.96,87.8,16.87,5.5,3.06,9.17,7.23,13.78,10.2,10.45,6.72,25.85,11.85,37.47,18.14,44.81,24.27,77.35,61.34,103.35,104.91,30.21,50.62,47.36,108.56,73.07,161.36,3.39,6.96,8.39,11.42,10.99,18.12-4.7,8.97-14.02-6.82-16.44-11.57-29.36-57.58-45.89-121.93-82.43-175.99-29.46-43.59-52.39-69.72-99.82-94.27-9.5-4.92-21.73-8.49-30.55-14.16-3.82-2.46-7.23-6.3-11.71-9.01-18.84-11.38-34.4-10.2-54.97-12.64-63.87-7.56-137.09-19.78-200.35-6.24-21.75,4.66-23.82,11.44-40.61,22.63-12.76,8.51-28.86,14.66-40.55,24.33Z"/>
  <path d="M607.34,1116.55l44.73-8.15c51.97-11.99,100.52-35.81,147.04-61.22,46.18-25.22,88.96-86.41,116.83-130.69,16.97-26.96,30.65-60.24,52.28-84.02,3.58-3.94,8.95-7.47,12.02-10.88,2.52-2.8,5.34-11.25,8.21-11.52,1.92-.18,4.27,1.17,4.72,3.02,1.87,7.76-15.22,20.01-20.02,25.39-19.89,22.27-33.45,54.27-49.15,79.52-26.59,42.79-67.43,101.53-109.59,129.21-10.94,7.18-25.74,13.96-37.64,20.15-35.77,18.62-67.74,33.93-107.25,44.31-2.66.7-16.05,4.87-16.94,4.87h-45.25Z"/>
  <path d="M457.41,1116.55c-7.13-1.04-19.95-8.82-27.52-11.73-15.02-5.77-26.39-8.44-40.54-17.25-42.05-26.17-61.77-61.01-86.43-102.2-15.16-25.33-25.83-41.34-36.05-69.71-1.52-4.21-7.28-14.09-6.14-17.55,1.16-2.59,3.91-2.3,5.95-.79,4.06,3,10.47,26.62,13.02,32.77,7.07,17.03,18.14,29.99,27.59,45.47,25.59,41.91,40.42,76.56,84.22,104.42,20.24,12.87,44.16,17.61,65.62,28.15l35.72,8.44c-10.96-1.14-24.87,1.54-35.44,0Z"/>
  <path d="M1116.55,836.32c-12.02-11.01-22.79-23.79-32.07-37.17-2.96-4.27-17.93-23.92-11.57-27.74s7.14,8.56,10.06,11.81l8.5,11.66c-.44-4.06.93-5.49,4.37-7.08-2.5-2.33-4.44-5.16-6.01-8.16-2.58-4.92-10.6-19.75-.16-18.45,1.83.59,5.72,12.34,7.48,15.49,2.81,5.05,7.08,8.81,9.61,13.84,2.17-.3.66-3.63,3.24-4.92,1.94-.97,4.46-.46,6.56-.53v27.26l-10.9-7.62c2.84,3.91,4.82,8.61,7.78,12.42,1.29,1.66,3.12,1.56,3.12,1.74v17.45Z"/>
  <path d="M223.53,1116.55c14.9-18.93,32.86-35.1,49.55-52.39,2.83-2.12,5.74-1.42,6.09,2.21h1.58c3.22-3.34,17.99-17.45,21.85-9.79l-.47,5.02c-10.08,3.72-19.47,12.21-27.38,19.5-12,11.06-20.72,23.02-31.06,35.45h-20.17Z"/>
  <path d="M915.92,1116.53c-10.13,2.15-11.3-4.07-14.19-11.98-3.77,3.28-10.53-.23-14.57-2.31-4.86-2.51-9.49-5.86-12.13-10.78-3.38,7.59,18.56,19.99,18.95,21.43,1.28,4.81-6.69,4.26-9.64,3.07-6.42-2.58-24.79-25.97-20.3-32.2,4.22-.06,8.36-4.8,11.23-3.56,1.8.77,6.86,8.89,9.59,11.26,3.62,3.12,8.11,4.91,12.5,6.57,1.68-2.17-12.12-24.39-12.89-29.18-.32-1.97-.28-3.32,1.37-4.72,1.34-1.12,2.31-1.34,3.9-.5,3.66,1.92,21.14,46.54,26.16,52.93Z"/>
  <path d="M1116.4,222.29c-19.18,7.79-38.22,15.61-59.24,16.56-4.19.19-9.33.01-6.59-5.52,1.73-3.51,20.38-6.82,25.38-8.42,13.72-4.41,27.54-9.46,40.06-16.64l.39,14.02Z"/>
  <path d="M252.97,1116.55l31.64-29.99c5.46-2.55,6.54,4.05,7.06,3.82,2.52-3.5,13.45-10.39,16.36-4.37,4.63,9.57-4.71,5.75-8.57,7.76-1.99,1.04-9.44,7.25-11.62,9.13s-12.65,13.64-13.62,13.64h-21.26Z"/>
  <path d="M835.24,1089.28l3.23-4.93h4.42c2.43,5.69,4,10.09,7.79,15.12,2.75,3.65,13.25,10.73,9.34,14.63-4.75,4.73-10.91-7.01-12.8-5.16l4.36,7.61-9.59-.22-16.39-28.9c.04-8.75,8.55-4.74,9.64,1.87Z"/>
  <path d="M1116.53,182.09c-.31,3.24,1.33,7.61-1.74,9.69-15.18,9.34-31.34,17.26-46.58,26.47-4.09,2.47-12.95,12.18-16.6,6.36-2.68-4.27,8.97-10.83,12.25-12.89,16.7-10.49,35.75-19.31,52.68-29.63Z"/>
  <path d="M1084.38,474.31c10.41-1.1,23.29-6.5,32.16-11.99l-.17,9.64c-7.67,3.46-15.44,6.8-23.77,8.39-5.24,1-30.07,4.19-31.55-1.31l.99-4.73c7.18-.55,15.31.75,22.35,0Z"/>
  <path d="M878.84,1116.54c-2.53-.18-5.53.5-7.95-.22-5.82-1.72-27.15-38.71-26.88-45.07.12-2.78,3.28-4.42,5.76-3.66,2.61.83,2.71,5.91,3.78,8.28,5.06,11.22,11.25,21.65,18.78,31.38,2.35,3.03,6.96,5.01,6.51,9.3Z"/>
  <path d="M1116.55,862.49c-5.9-8.42-12.34-16.49-17.9-25.17-2.33-3.64-11.62-18.21-11.62-21.19,0-3.45,2.47-5.14,5.54-3.26,3.25,1.98,12.73,22.46,17.44,27.27,1.57,1.6,6.55,3.97,6.55,4.36v17.99Z"/>
  <path d="M1116.32,290.91c-1.23,2.12-20.17,9.26-23.47,9.77-2.71.43-17.28,1.02-17.81-1.5-1.75-8.33,12.1-5.39,17.58-6.37,7.83-1.4,17-6.83,23.4-11.5.68,1.94,1.12,8.2.31,9.59Z"/>
  <path d="M1116.3,771.13c1.06,1.84-.22,7.12.23,9.58-7.96-4.99-17.68-11.47-21.5-20.45-2.34-5.5-1.65-10.1,5.24-8.53,1.39,3.82,2.81,7.76,5.37,10.99,2.23,2.81,10.32,7.82,10.66,8.41Z"/>
  <path d="M1116.53,722.92c-3.25-2.41-11.78-10.76-10.74-14.49.98-2.32,3.09-3.54,5.6-2.8,6.28,3.56,5.19,11.08,5.14,17.29Z"/>
  <path d="M1116.54,738.18c-.07,3.44.13,6.93,0,10.37-.05,1.31.82,4.06-1.08,3.8-2.33-5.26-9.43-14.74,1.07-14.17Z"/>
  <rect x="305.31" y="1115.47" width="7.62" height="1.07"/>
  <path d="M781.51,258.71c21.29,39.45,30.51,78.16,37.71,122.03,16.36,99.55,20.84,197.29,9.33,297.89-11.31,98.88-25.4,172.55-81.84,256.17-20.71,30.69-47.42,64.9-73.89,90.75-15.14,14.78-20.55,16.58-38.6,25.73-8.44,4.28-17.76,10.55-26.49,13.86-10.75,4.08-20.27,1.7-31.45,2.35-4.44.26-9.59,1.93-14.14,2.21-18.81,1.15-61.21-4.1-76.37-15.31-16.5-12.21-39.62-46.42-51.77-63.81-11.03-15.8-10.91-25.04-17.24-41.64-5.62-14.72-12.28-24.28-16.96-40.83-8.82-31.24-20.05-61.76-27.24-93.79-10.98-48.9,1.43-101.61,4.71-150.84,2.17-32.63-.19-65.34,3.42-97.98,4.77-43.07,15.41-92.21,24.15-135.05,11.44-56.11,33.78-119.55,73.29-162.24,16.02-17.31,63.41-47.92,85.84-54.82,14.37-4.42,26.28-3.94,40.17-6.72,8.08-1.62,16.36-6.31,24.49-7.13,10.61-1.07,35.92,1.21,46.58,3.56,40.71,8.98,68.96,39.26,106.32,55.61ZM767.35,259.78c-.8-.99-18.97-9.64-22.53-11.82-10.95-6.72-22.78-16.97-33.53-23.17-19.22-11.09-59.79-20-81.61-17.63-6.8.74-14.18,4.88-20.83,6.43-9.14,2.13-18.66,2.05-27.88,3.74-33.96,6.21-85.08,40.11-106.04,67.33-49.24,63.94-57.19,124.97-71.82,201.87-5.76,30.26-13.3,59.9-16.03,90.83-2.52,28.55-.27,57.6-2.14,86.18-3.11,47.32-15.63,101.25-5.18,147.93,3.56,15.91,8.6,36.66,13.31,52.11,3.07,10.07,8.82,19.6,11.78,29.65,2.56,8.7,3.11,18.58,6.46,27.34,3.04,7.95,9.26,16.73,12.28,24.79,3.87,10.33,5.24,21.7,10.68,31.84,3.15,5.87,7.79,9.24,11.06,14.02,10.82,15.8,35.59,54.98,53.18,61.31,17.82,6.41,43.63,10.74,62.52,9.53,4.3-.28,8.93-1.99,13.06-2.21,8.07-.43,18.58,1.09,26.08-.08,4.4-.69,49.06-23.68,53.46-27.22,33.23-26.76,73.03-80.07,96.34-116.28,54.22-84.23,63.63-171.66,73.25-269.12,6.25-63.3,4.98-117.83-1.11-181-5.43-56.39-11.36-120.34-33.26-172.82-3.99-9.55-9.66-18.39-12.58-28.34l-6.83.08c-1.79-1.1-1.12-4.05-2.11-5.28Z"/>
  <path d="M769.51,745.51c-1.55,1.24-4.4.98-4.97,1.6-.92,1.02-5.24,22.27-6.69,26.55-7.84,23.06-21.79,62.89-33.81,82.86-19.32,32.11-58.95,57.95-91.27,75.55-5.69,3.1-10.64,5.17-17.21,5.69-30.68,2.43-58.33-.65-87.03-11.19-9.29-3.41-36.13-14.74-43.68-19.56-5.94-3.8-24.89-23.79-29.07-29.81-2.36-3.4-3.93-8.89-6.53-12.01-6.03-7.25-9.91-7.35-14.4-18.31-14.06-34.3-18.19-56.61-17.28-94.02.77-31.96,1.84-69.58,8.18-100.85,2.31-11.37,6.88-22.81,9.45-34.17,8.87-39.21,11.42-76.63,32.76-112.26,29.49-49.24,74.24-90.43,118.72-125.52,25.11-8.72,39.71-28.28,68.14-26.82,39.63,2.04,73.04,13.85,100.28,43.65,36.99,40.46,46.98,134.04,44.19,187.06-1,18.98-6.5,37.25-9.52,55.91-4.74,29.33-7.3,61.14-13.78,89.81-.92,4.06-3.23,13.24-6.48,15.85ZM672.76,496.12h-16.9c-1.28,0-19.91,8.94-23.49,10.31-17.75,6.82-35.43,13.35-53.36,19.69-6.34,2.24-12.81,5.89-19.41,7.85l-48.05,12.46-.17,4.19c6.87-.75,12.45,7.47,18.17,10.74,9.48,5.41,17.27,2.34,27.12-.88,9.36-3.06,19.15-8.54,28.63-11.71l35.12-9.05c.21-3.86-3.72-6.04-.02-9.3,3.83-2.39,7.43,4.29,11.28,1.58l41.08-35.88ZM732.74,510.3l-41.43-12-2.19,27.24c14.13-3.96,27.96-8.78,42.01-13.06,1.55-.47,1.93.69,1.61-2.19ZM683.66,499.4c-.72-.83-6.04,3.59-7.05,4.38-9.94,7.7-19.04,16.65-28.41,25.02-1.69,1.51-11.67,7.03-9.24,9.83l12.34,4.07,29.68-13.83,2.68-29.48ZM689.12,534.28v27.26l9.82-1.1-.61-4.31,50.76-39.29c-20.81,2.88-40,11.54-59.97,17.44ZM755.62,523.38c-2.66-1.9-44.55,32.56-50.03,36.68,5.77,7.08.92,14.94.02,22.87l-4.34,46.61,44.16,15.9,6.97-1.77c.22-12.15,3.56-25.03,4.32-36.89,1.42-22.06,1.62-55.49.07-77.45-.15-2.11-.63-3.95-1.16-5.95ZM680.4,556.09v-18.54c-5.61,4.84-13.37,4.69-18.51,9.27l18.51,9.27ZM640.05,546.29c-3.92.01-7.02-3.25-10.77-.95l-.13,7.48c2.92-1.55,6.67-2.56,9.51-4.1,1.27-.69,1.83.05,1.39-2.42ZM621.51,547.37c-24.7,5.92-48.22,14.79-71.95,23.43l16.4,10.9,3.48.37c18.32-5.16,33.98-14.44,50.81-22.89l1.26-11.82ZM628.06,586.62l52.32-21.26-28.89-13.59c-7.91,3.65-15.74,6.58-23.43,10.86v23.99ZM503.75,570.81v-15.81l-30.53,22.89c4.16-.88,29.97-5.35,30.53-7.08ZM513.93,560.07c-.87-.74-1.01-2.82-2.54-2.89l-.02,12,14.18-.02c-2.27-4.87-7.93-5.98-11.63-9.1ZM620.42,568.09c-15.04,6.41-28.33,16.61-44.7,19.64,3.74,3.18,1.2,6.48,1.62,9.27.35,2.3,3.01,5.59,1.65,9.25l41.43-14.17v-23.99ZM700.02,569.18l-9.08,1.27-1.67,1.6.95,57.09,3.22-2.76,6.57-57.2ZM563.6,593.05l-.99-4.77c-6.55-2.67-17.81-12.98-23.95-14.27-2.24-.47-10.18,2.36-13.66,2.78-3.82.46-7.96-.46-11.82.17l-1.64,1.64.08,24.16c3.81,1.9,20.57,13.8,23.59,12.05,4.95-10.27,16.41-14.41,25.41-21,.75-.55,2.06-.52,2.99-.76ZM680.4,574.63c-6.77.58-12.69,5.87-18.56,8.16-11.14,4.35-24.48,5.46-33.78,14.2v31.08c17.26-2.96,34.78-3.41,52.34-3.27v-50.16ZM503.75,580.08c-3.43.15-30.56,5.32-30.54,7.09,9.56,6.34,19.87,6.78,30.54,10.36v-17.45ZM474.3,695.65c7.75-14.26,19.11-26.36,32.18-35.98l.53-9.26-3.78-43.09c-6.43-6.07-14.93-4.92-22.18-7.26-4.71-1.52-8.93-6.22-14.35-6.9.39,11.42-.54,22.98-.06,34.39.8,18.71,1.6,47.44,5.81,65.07.26,1.09.32,3.29,1.85,3.03ZM571.22,609.38c.18-3.73.34-7.59.14-11.32-.06-1.23.71-2.99-1.08-2.7l-1.6,3.31-22.39,13.6-1.11,3.79,26.02-6.68ZM620.42,631.33v-31.62c-12.64,7.48-27.19,9.99-40.79,15.14l.45,23.03,40.34-6.55ZM540.71,647.56l-1.51-21.7-27.8-14.16,3.27,44.7,26.04-8.84ZM571.36,618.24l-24.05,6.12,1.17,21.14c7.04-3.39,15.07-5.63,22.89-5.45v-21.81ZM672.76,632.43c-8.16.87-38.24-.31-43.63,3.78-2.47,1.88-.02,8.71.07,11.97.13,4.7.03,9.51-.06,14.21-.04,2.11-1.28,4.1-1.07,6.45.47,5.29,4.8,5.15,7.99,7.37,9.45,6.56,15.21,7.31,25.46,11.61,7.72,3.24,17.39,12.89,25.46,6.02l5.41-57.05c-3.35,1.7-10.98-.34-13.01.52-5.21,2.2-25.33,19.67-31.12,24.58-3.31,2.81-9.26,10.94-13,10.85-11.21-.28,4.18-12.9,6.95-15.8l30.54-24.51ZM742.54,652.05l-41.99-14.13-5.98,52.28c2.12,2.05,9.03-6.63,10.97-8.1,9.21-7.01,20.01-12.75,28.79-20.27,1.3-1.12,9.45-8.56,8.2-9.78ZM620.42,638.96l-40.27,6.61,1.5,26.18c2.68,3.84,31.6-4.46,37.53-2.4,4.15-9.52,2.16-20.36,1.24-30.38ZM548.46,653.14v21.81h17.99c1,0,4.33-1.72,6.04-1.59l.9-1.28-.95-24.4c-8.51-.44-16.09,3.28-23.99,5.46ZM540.83,656.41l-26.18,7.64c2.35,3.34-1.07,9.65-.99,10.21.27,1.8,5.86,6.14,8.02,6.21.88.03,16.24-2.98,17.23-3.34.79-.29,1.91-2.23,1.91-2.72v-17.99ZM483.04,695.65c.64.56,11.46-5.87,13.42-6.74,2.16-.95,14.92-4.72,14.9-5.79l-10.34-9.25c-6.91,6.43-12.71,13.97-17.99,21.78ZM625.66,677.36c-1.09-.65-12.12-.37-14.49-.22-10.03.65-19.81,4.46-30,3.25l2.19,63.25c1.51.2,2.73-.18,4.07-.83,15.51-7.53,30.06-17.59,45.7-25.18,12.12-5.88,24.83-10.75,37.45-15.44l-15.61-8.91c-10.7-2.91-18.58-6.39-27.52-12.87-.98-.71-1.26-2.74-1.79-3.06ZM573.54,681.48l-26.11,1.15-3.11,29.17c13.25,9.19,19.73,25.38,31.39,36.2l-2.17-66.52ZM538.64,684.76c-2.19.27-12.96,2.23-13.05,3.81l11.43,15.81,1.62-19.62ZM517.8,690.29c-.65-.46-13.12,4.03-15.11,4.84-5.09,2.09-23.09,9.86-26.47,12.49-.91.71-3.28,4.41-3.6,5.45-1.76,5.83,2.02,4.52,4.4,7.7s3.53,8.7,5.58,11.87c3.77,5.83,12.45,18.26,16.83,23.51,7.19,8.61,18.45,15.51,25.56,24.63l2.19.98,3.87-1.59,4.31-65.41-17.55-24.47ZM539.75,771.99l28.22-20.16-24.42-31.08c-3.72,16.68-2.86,34.21-3.8,51.24ZM538.65,787.25c5.47-2.69,43.93-16.24,44.61-19.19-1.1-4.7-6.01-11.3-11.06-8.9-7.08,3.37-27.55,17.65-31.97,23.68-1.09,1.49-2.05,2.2-1.58,4.41Z"/>
</svg>