<?xml version="1.0" encoding="UTF-8"?>
<svg id="illustration" data-name="illustration" fill="currentColor" xmlns="http://www.w3.org/2000/svg" viewBox="0 0 1117.09 1117.09">
  <path d="M0,788.34l88.93.06,3.64-1.81c9.28-23.34,23.36-47.4,28.16-72.15,5.72-29.5-2.49-62.08,2.97-91.89,5.87-32.1,26.9-78.46,44.01-106.46,8.44-13.82,21.37-26.98,30.53-40.35,6.72-9.81,11.73-21.18,17.64-31.43,2.3-3.99,12.28-17.31,12.91-19.9.83-3.36-2.11-5.25-3.29-8.23-3.72-9.37-2.17-42.69,1.22-52.62,6.71-19.62,7.93-37.03,11.24-57.46,2.99-18.47,20.29-50.16,32.47-64.57,9.82-11.61,37.88-35.82,52.83-37.67,7.87-.97,21.06,1.75,28.98,3.78,21.45,5.5,35.76,43.53,38.04,63.41.89,7.77-4.31,7.35-3.33,14.48l-5.53,2.71c-2.2,14.41-3.55,29.33-6.47,43.55-2.64,12.86-7.39,25.49-9.57,38.49-1.3,7.75,1,16.03-5.1,23.29-1.09,4.6,13.31.93,15.7.4,16.27-3.63,27.77-12.7,37.24-25.98-.17-3.64-16.79-.73-19.6,0-4.21,1.11-5.07,4.73-10.34.53l-3.84,6.08c-13,1.51.17-15.8,3.91-20.16,11.03-12.88,24.81-18.74,41.82-14.29,7.62-19.07,14.11-38.8,34.21-48.16,4.68-2.18,20.6-8.01,25.28-8.52,16.38-1.79,24.17,2.85,33.73,15.35,1.75,2.28,12.57,20.83,15.87,18.46,4.35-11.19,14.63-30.62,25.92-35.7,6.83-3.07,16.89-2.8,24.49-3.86,3.29-.46,10.46-3.51,12.37-1.98.97.78,1.22,3.24,2.3,3.45,1.67.33,5.01-1.16,7.39-1.22,5.82-.15,13.58-.51,19.17.54,10.8,2.03,16.69,14.72,23.9,21.9,3.35,3.33,10.58,6.01,11.03,10.89.79,8.62-12.16-1.54-14.76-3.88-6.34-5.69-13.06-18.33-20.69-20.74s-24.24-2.06-30.05,4.41c7.51-.8,15.55,5.34,21.27,9.82,12.25,9.6,17.74,22.77,29.45,32.7,5.34-15.47,20.95-21.21,32.7-30.55l2.82,1.59c.83.94,1.17,2.05,1.05,3.3-.42,4.46-19.37,14.21-23.52,19.11-3.73,4.41-5.73,10.83-9.43,15.65-5.02,6.55-25.81,22.71-33.31,25.57-14.71,5.59-39.82,7.25-47.83-9.47l-9.17-7.21-8.72,14.73c6.85-.86,9.13,8.82,13.06,13.36,13.86,16.01,40.53,17.66,59.5,10.69,8.76-3.21,35.58-21.94,39.94-29.85,15.04-27.29,17.83-72.71,56.24-77.87,18.49-2.48,29.57,20.52,40.05,32.43,8.26,9.39,22.59,23.73,32.92,30.32,3.06,1.95,16.14,5.37,9.52,9.9-5.64,3.87-16.92-4.98-21.68-8.65-8.55-6.6-23.39-22.03-30.57-30.49-5.76-6.78-16.91-26.68-27.09-26.13-2.34.13-13.78,3.75-15.89,4.93-9.02,5.03-15.64,18.91-19.9,28.07-6.56,14.08-11.31,29.18-17.1,43.59,19.3,19.37,54.04,27.58,79.44,16.03l-21.85-2.66c-12.45-8.59-34.15-16.61-44.16-27.8-2.69-3.01-4.81-7.05-2.52-10.81,6.73-1.94,5.78,3.01,8.55,5.87,5.35,5.53,34.06,22.7,41.47,25.05,5.12,1.62,29.97,3.41,35.46,2.76,4.64-.56,7.25-3.99,11.74-4.24,9.86,7.85-7.7,10.41-13.07,12.73-31.15,13.48-47.95,19.01-81.05,2.97-4.47-2.17-18.09-12.79-21.06-12.29-2.79.46-21.92,15.3-26.55,18.05-15.5,9.23-43.17,12.77-59.96,5.85-13.88-5.72-20.67-16.7-28.69-28.54-9.16,16.9-24.31,29.51-43.4,33.48-22.26,4.64-32.97-5.21-50.3-15.58-2.7-1.62-6.9-6.37-9.33-5.94-3.81,6.09-9.2,13.28-14.19,18.59-8.71,9.27-13.94,14.12-27.29,15.23-5.49.46-29.31,1.19-30.01-6.02s10.13-2.01,13.79-1.71c14.42,1.18,24.87.1,35.35-10.21,10.66-10.49,21.52-27.79,25.33-42.27,4.77-18.11,4.42-42.11,18.25-55.9-.68-1.4-3.01-.14-4.03.33-23.68,10.88-27.43,48.63-39.12,68.83-13.33,23.04-38.99,37.03-65.84,35.03.83,7.85-6.4,14.65-8.21,20.68-2.38,7.94,1.54,41.54,2.84,51.65,4.95,38.45,12.85,77.05,16.21,115.72,2.15,24.7-3.57,47.1-11.69,70.07-4.06,11.5-11.45,23.04-14.63,34.43-4.44,15.91-9.11,50.83-10.6,67.91-.17,1.96-.25,3.9-.13,5.86,8.72-2.3,18.74-3.9,27.75-4.41,37.24-2.07,72.45,1.09,109.09,4.39,99.7,8.99,202.96,12.21,302.03-4.34l51.84-1.61c1.22-.71-1-9.79-1.47-11.71-6.73-27.27-17.6-53.55-19.35-82.05-2.21-36.02,3.59-76.05,12.36-110.95,4.6-18.33,14.1-37.23,17.92-55.14,3.95-18.51,4.78-49.38,3.56-68.38-.38-5.86-2.46-29.17-3.74-33.33-.76-2.46-6.58-8.93-8.43-12.29-15.54-28.25-29.9-72.7-28.26-104.74.09-1.75-1.27-3.82-.97-6.56.64-6.01,8.49-16.46,10.92-22.98,9.81-26.3,8.74-49.2,33.87-67.54,6.58-4.8,11.9-4.67,19.96-3.8,38.7,4.19,60.39,26.44,77.57,59.82,5.78,11.22,15.61,44.03,16.76,56.32,1.31,14.07-.4,29.12,2.37,44.5,7.03,39.07,21.83,86.08,33.43,124.67,11.59,38.54,27.66,74.95,31.9,115.3,4.68,44.54,11.29,96.54,9.84,140.66-.38,11.46-.57,22.91-1.11,34.34l88.33,2.17v7.64s-89.42-2.19-89.42-2.19c1.17,32,6.94,63.67,10.9,95.42,2.13,17.13,2.28,33.79,5.78,50.92,9.76,47.76,23.96,111.12,39.52,156.74,3.78,11.09,14.61,29.68,16.43,39.27.51,2.7.09,4.08-.66,6.58h-263.87c-2.69-10.98-1.95-21.74-3.59-32.94-1.06-7.22-4.43-15.52-5.14-22.12-8.82-81.22,17.76-161.98,5.31-245.2-2.18-14.6-6.32-29.35-8.5-43.84-.78-.57-1.84-.41-2.75-.53-11.8-1.5-37.56.16-50.2,1.15-16.77,1.31-33.56,5.6-50.3,7.49-59.54,6.72-123.33,6.55-183.07,2.33-59.28-4.18-117.86-13.17-177.76-9.88-10.36.57-20.72,2.91-30.94,4.5-2.09,9.85-.63,19.92-1.19,29.88-1.08,18.9-2.99,36.34-2.16,55.61.8,18.48,5.09,37.94,7.63,56.71,3.31,24.46,7.78,50.66,8.76,75.2s-7.79,29.89-11.79,49.36c-1.96,9.57-1.91,20.84-4.03,30.86-2.99,14.13-9.96,26.87-11.49,41.4H69.78c1.79-16.5-.38-32.99,0-49.68.25-11.08,2.65-22.13,3.31-32.6,1-16-1.04-33.13-.08-49.15.97-16.21,5.57-34.05,6.63-50.07,2.18-33.08-3.2-67.48-.03-101.44,1.21-12.95,4.71-25.31,8.71-37.62H0v-7.64ZM337.07,393.77c3-1.9,9.6,4.53,14.08,1.53.51-.34,4.75-9.91,5.12-11.23,1.53-5.5.72-11.6,1.67-16.86,2.15-11.87,6.82-23.94,9.24-35.47,3.57-17.06,4.45-34.89,8.01-51.96.91-4.39,3.36-3.14.32-9.26-4.19-8.45-7.42-7.34-14.98-4.32-18.31,7.32-21.91,18.2-26.79,36.45-3.97,14.85-2.23,24.68-3.49,39.03-1.33,15.13-7.33,32.07-8.57,47.04-.98,11.86,1.39,24.16-.92,35.87,15.47,13.48,23.33-8.09,28.17-20.06-3.36.16-12.84-2.44-13.13-6.01-.07-.9.82-4.46,1.28-4.75ZM588.8,284.6c-12.52,2.89-23.37-.11-32.73,10.33-16.68,18.58-22.12,54.16-44.77,68.63-16.17,10.33-26.71,8.48-43.19.85-4.71-2.18-9.4-4.49-13.4-7.84-.94,11.76-11.15,14.6,1.15,23.37,5.65,4.03,23.96,14.76,30.2,15.6,37.47,5.05,60.49-31.97,74.25-61.48,3.91-8.39,6.28-17.91,10.87-26.2s11.62-15.7,17.63-23.25ZM529.84,323.95c-14.36-6.69-17.67-30.42-34.36-32.73-8.74-1.21-16.91,1.74-24.43,5.91,15.82-.85,22.38,14.86,30.56,25.04,5.8,7.22,11.81,14.36,17.97,21.29l10.28-19.51ZM833.44,393.23c5.59,5.12,7.85.14,8.34-5.62,1.15-13.44-20.91-73.23-29.45-85.04-.84-1.17-10.08-11.47-10.89-10.36.05,4.08-.28,8.18.27,12.26,1.69,12.67,7.36,34,11.41,46.38,2.69,8.24,14.78,37.29,20.32,42.37ZM641.14,339.13c-1.3-.09-2.41-.63-3.27-1.61-8.39-9.52-16.1-22.13-25.64-30.01-1.52-1.26-9.07-6.81-10.29-7.2-5.43-1.72-9.17,3.93-12.58-3.71-5.3,5.41-9.54,11.92-12.95,18.65-1.58,3.11-11.22,25.76-11.09,27.22.11,1.21.98,2.7,1.68,3.73,1.04,1.54,12.44,13.6,13.81,14.53,8.69,5.88,23.24,3.73,32.58.22,10.46-3.93,17.16-13.43,26.7-19.1l1.06-2.73ZM498.77,331.01c-4.74-6.5-15.16-22.91-22.21-25.22-4.06-1.33-6.94-.73-9.23,2.89-2.45,3.85-10.4,31.44-9.41,35.12.29,1.1,2.2,1.03,2.72,1.86,1.06,1.7.21,4.11,1.59,6.09,2.14,3.06,22.79,11.14,26.98,11.28,6.99.23,19.55-5.93,24.32-11.37-4.51-7.2-9.79-13.81-14.76-20.63ZM421.97,346.75c-6.33.23-12.58-1-18.54,1.62-1.79.79-17.36,11.56-15.24,13.64,9.27-5.11,20.38-3.33,30.42-2.27l3.37-12.99Z"/>
  <path d="M716.87,319c-1.65-1.69-4.93-4.99-7.01-5.64-3.57-1.11-9.2,3.62-9.64-2.33-.48-6.59,8.85-6.75,13.52-4.72,12.41,5.4,15.4,18.62,22.27,27.89,6.34,8.55,20.23,20.31,30.68,22.75,5.47,1.27,27.11.8,28.04,5.75-.17,2.02-1.31,4.61-3.65,4.8-13.12-2.16-26.33-.85-38.39-7.44-5.18-2.83-18.9-16.03-22.72-20.89-5.12-6.52-6.86-13.79-13.09-20.16Z"/>
  <path d="M697.58,789.65c4.41-.66,7.35.68,6.69,5.6-.83,2.62-8.69,3.71-11.35,3.98-20.6,2.04-41.53-.19-62.17,1.07-4.43.27-24.99,5.99-25.67-1.61s13.03-4.57,18.06-4.9c25.06-1.64,49.7-.43,74.44-4.14Z"/>
  <path d="M764.01,874.67c2.99-.28,4.3,4.19,3.47,6.72-.75,2.29-6.02,3.28-8.31,3.72-14.12,2.73-39.89,5.36-54.23,5.8-7.93.25-8.27-5.47-2.11-7.62,17.36-3.22,35.91-2.65,53.24-5.65,2.93-.51,6.34-2.82,7.95-2.98Z"/>
  <path d="M48.52,876.66c1.63-.43,9.31-8.15,11.78-3.01s-6.61,9.65-10.95,10.39c-7.26,1.23-26.97,1-34.68.31-9.52-.85-7.63-7.68-5.4-7.68h39.25Z"/>
  <path d="M769.26,815.6c-2.73-.83-2.14-6.39,1.31-7.41,6.31-1.86,22.34.44,30.29-.24,2.45-.21,6-.84,8.45-1.37,3.71-.79,8.11-5.44,11.21-.8l.05,4.42c-.91,1.31-14.49,5.39-16.42,5.39h-34.89Z"/>
  <path d="M696.47,812.06c-3.09,2.98-34.16,1.89-40.44,3.4l-1.88-2.6c-.08-3.6,1.91-4.17,4.8-5.07,4.38-1.37,18.59-1.84,24.13-2.04,3.28-.12,20.53-.55,13.4,6.32Z"/>
  <path d="M24.53,805.79h25.08c2.34,0,4.61,7.42-.21,8.55-6.74-1.19-13.72-1.17-20.55-.97-5.09.15-10.26,4.16-9.1-4.72l4.79-2.86Z"/>
  <path d="M1090.92,858.13c2.3.65,3.33,4.47,1.36,6.27-1.87,1.79-26.26,2.08-29.49,1.14-4.14-1.22-3.31-7.41-1.31-7.41,6.25,0,25.01-1.24,29.44,0Z"/>
  <path d="M40.12,946.19c1.27-.78,2.22-5.87,7.37-1.99,7.17,13.69-21.76,13.18-23.39,8.06-2.88-9.03,13.29-4.39,16.02-6.07Z"/>
  <path d="M1095.64,842.69c-.6.98-14.78,4.57-16.74,4.56-5.82-.03-8.38-6.11-4.14-7.47,1.91-.62,17.13-3.69,18.32-3.51,3.35.49,3.16,3.68,2.56,6.42Z"/>
  <path d="M343.74,792.42c-1.74-1.78-.72-5.37,1.56-6.13,2.88-.96,6.59,1.67,9.4,1.02,1.24-.29,1.3-3.55,3.68-4.27,5.11-1.54,5.66,4.04,4.5,7.82-1.6,5.23-15.66,5.11-19.14,1.56Z"/>
  <path d="M1116.55,789.43v7.63c-6.32-.79-22.93,6.9-20.24-4.41,1.29-1.9,19.41-4.05,20.24-3.22Z"/>
  <path d="M23.7,910.72c3.63-.65,16.99-1.81,15.43,4.44-1.09,4.37-9.77,2.71-13.46,2.99-2.29.17-5.49,3.59-7.72-.04-2.56-4.14,2.27-6.78,5.75-7.39Z"/>
  <path d="M47.89,831.87c-3.63.86-20.7,7.88-20.69.64,0-1.35,2.18-3.84,3.35-4.35.59-.25,10.77-2.81,11.44-2.85,1.8-.09,3.79.12,4.99,1.63l.9,4.93Z"/>
</svg>