<?xml version="1.0" encoding="UTF-8"?>
<svg id="illustration" data-name="illustration" fill="currentColor" xmlns="http://www.w3.org/2000/svg" viewBox="0 0 1117.09 1117.09">
  <path d="M1040.22,0c-4.69,5.26-9.81,10.17-14.73,15.25-1.79,1.85-2.75,4.92-4.14,6.22-2.43,2.29-10.9,5.09-14.84,7.51-12.42,7.63-25.66,16.97-34.95,28.29-3.65,4.44-6.07,10.2-9.8,14.19-5.76,6.16-14.54,12.04-20.2,18.77-23.9-19.98-55.46-14.47-83.73-21.79l-52.61-32.44c-3.03.4-4.95,3.81-3.27,6.52,2.58,4.16,22.9,12.84,26.73,18.52-7.44-1.64-14.74-7.53-22.42-8.65-12.19-1.78-25.38-.48-36.3,5-19.36,9.73-28.58,23.41-18.89,44.73,6.71,14.77,25.6,31.79,36.2,44.49,10.5,12.58,20.65,25.41,29.4,39.29-4.19,1.4-5.16,5.66-8.14,8.19-7.1,6-17.36,9.03-20.8,19.53-2.49,7.61.83,6.66,3.29,9.95.96,1.29,1.22,3.34,1.93,4.04,1,.99,3.49.82,3.95,1.53.55.85-.26,2.82.39,3.91.23.39,6.18,5.43,7.08,5.51,3.82.36,23.43-12.82,24.3-11.79-.09,1.87,0,3.68.5,5.5,4.24,15.27,24.31,40.39,38.38,47.76,9.48,4.96,17.89,4.3,26.01,13.24,25.93,28.55,7.59,68.97,43.64,98.11,21.58,17.45,48.91-2.77,56.97-24.75,6.13-16.73,9.58-40.92,7.87-58.62-1.89-19.53-25.02-47.62-32.56-66.66-9.4-23.74-4.78-34.67-1.35-57.77.77-5.15.55-30.53,1.39-31.88,13.43-5.02,24.04-14.83,36.16-22.17,23.44-14.2,48.63-26.54,72.38-39.93,6.92-3.9,16.31-8.61,22.49-12.4,5.69-3.48,8.59-12.23,15.99-14v746.91c-3.16-1.14-5.75-3.46-8.74-4.89-3.81-1.83-21.99-7.89-22.71-10-1.16-3.39.25-11.76-.19-16.16-2.46-24.53-13.9-46.36-15.29-70.85-2.34-41.04,15.26-75.65,10.83-117.69-1.4-13.27-14.1-48.05-23.86-56.83-11.27-10.13-24.1-18.77-39.83-16.91-7.57.89-17.59,16.12-23.45,21.37l-1.38.3c-2.41-1.77-4.06-3.22-6.75-.9-3.24,2.79-12.55,16.76-14.95,21.02-17.05,30.24-18.83,75.92-9.06,108.72,4.44,14.91,16.91,35.25,16.91,50.69v20.17l-82.33-54.47c.89-9.57.73-19.36,1.66-28.94,2.06-21.33,6.49-43.98,7.61-65.44.73-13.94-1.99-27.71-1.12-41.47,1.03-16.45,6.02-31.69,4.27-48.89-.56-5.58-3.1-11.37-3.93-16.78-2.82-18.39-4.7-36.73-6.78-55.16l-4.32-2.45,1.69-8.07c-6.76-15.71-11.17-32.3-17.32-48.23-12.09-31.32-24.19-59.65-43.98-86.87-10.15-13.96-22.06-26.11-30.97-41.05l-36.43,18.16c-2.72,1.56-1.81,3.76-.9,6.14s11.62,21.67,12.87,21.94c1.43.31,3.58-1.85,5.9-.42,5.67,3.49,14.9,33.23,18.02,40.91,3.87,9.53,10.5,15.22,8.75,26.25-.88,5.53-8.16,24.61-11.5,28.84-8.08,10.2-21.54,11.03-33.01,6.84-19.91-7.27-24.97-38.14-38.7-48.84-5.79-4.51-19.1-1.01-26.71-2.42-17.93-3.32-23.11-26.05-29.7-40.1l-1.18,3.42-35.34,10.79c-2.16,3,16.22,10.96,10.25,15.36-6.36,4.69-14.8-8.25-18.64-11.99l-17.78,4.25c-1.31,1.48,7.87,9.24,9.28,10.88,9.32,10.79,18.08,25.63,31.17,32.08,4.37,2.15,17.88,4.48,18.48,9.96.81,7.5-8.11,2.05-10.46,1.65-8.01-1.34-25.35-2.9-33.76-3.31-18.18-.89-31.1,9.61-47.18,14.94-42.97,14.25-85.84-15.67-118.78-39.81-8.28-3.97-27.18,1.91-33.63-3.49-.9-.76-1.18-2.55-1.88-2.99-1.46-.92-6.39-.17-6.07-3.91.5-5.85,13.07-4.43,17.68-5.24,16.68-2.9,14.05-3.87,26.47-11.69,4.58-2.88,11.65-5.56,16.73-7.82.41-.54-1.61-2.16-2.25-2.64-5.74-4.33-18.02-12.96-24.01-16.33-2.42-1.36-12.56-5.71-14.82-5.83-1.88-.09-13.82,7.76-17.51,9.29-11.79,4.88-29.47,6.11-39.49,12.85-9.68,6.51-14.25,27.44-21.49,37.27-9.65,13.11-43.85,18.21-54.28,4.6-8.57-11.19-5.66-40.19,1.77-51.54,10.48-16,43.68-40.7,60.29-52.03,1.17-.8,2.45-1.12,3.85-1.06l-48.54-30.21c-8.95,5.9-13.19,18.02-21.22,24.25-3.18,2.47-7.2,3.39-9.8,5.46-6.35,5.07-21.68,24.74-24.59,32.17-.58,1.47.7,4.89-.17,8.48-2.93,12.11-13.78,35.85-18.87,48.74-5.25,13.29-12.82,25.44-16.05,39.56-3.52,15.37-1.63,27.07-2.52,42.19-2.09,35.6-8.52,71.87-5.42,107.95,1.38,16.08,7.03,25.57,6.57,44.77-.87,36.19-2.83,73.18-6.61,109.07-.9,8.54-1.79,11.04-3.2,18.51-.85,4.49,1.22,16.09-.58,19.05l-31.08,15.25c.22-22.24.73-43.73-3.62-65.62-1.33-6.71-3.25-14.61-6.68-20.57-.83-1.45-5.63-6.77-6.81-7.32-1.42-.67-16.78-5.38-18.42-5.6-24.33-3.32-30.24,31.59-42.66,33.5-2.51.39-6.67-1.48-9.08-2.49-9-3.77-9.09-10.21-21.23-9.78-6.31.22-10.34,4.39-14.18,9.18-9.14,11.38-18.17,36.17-19.12,50.66-1.72,26.14,3.16,53.64.99,80.05L0,810.15V52.34c13.24,3.75,25.2,12.06,37.42,17.64,17.33,7.91,36.29,14.54,53.49,22.84,14.11,6.81,27.96,15.22,41.98,22.33-4.18,13.06-9.26,27.44-9.72,41.28-.4,11.88,2.3,21.84-1.57,34.41-5.12,16.61-26.45,27.28-36.52,39.81-17.5,21.76-30.62,68.69-35.74,96.2-4.53,24.33-5.59,41.42,0,65.97,2.13,9.34,4.99,20.62,14.25,25,4.75,2.25,12.62,2.33,15.99,4.73,6.96,4.96,7.16,36.15,6.6,44.73-1.06,16.47-8.92,39.7-8.55,54.49.06,2.58,1.52,6.66,2.83,8.94,1.85,3.24,18.53,17.38,22,18.35,6,1.67,10.15-1.86,15.32-4.38,21.84-10.62,33.14-16.82,45.58-38.38,17.68-30.6,16.36-77.68,18.74-112.11,1.24-17.94,6.02-27.6,10.91-43.61,2.73-8.95,4.25-18.61,7.59-27.3,7.84-20.45,27.57-38.55,40.17-55.78,6.58-9,10.92-19.45,17.2-28.59,9.05-13.18,21.42-25.47,30.07-39.2,1.05-.62,12.69,3.57,14.29,4.46,2.98,1.65,5.5,6.16,8.4,6.96.49.14,9.67.42,10.16.29,2.28-.58,9.29-13.28,10.96-15.86.81-1.25,3.07-.48,2.92-4.08-.33-7.62-24.3-17.52-30.64-20.95,4.05-13.84,5.36-24.72,1.95-38.81-2.63-10.84-12.43-27.56-11.71-37.37,1.19-16.25,23.32-39.72,14.05-55.47-.59-1-6.74-8.31-7.49-8.87-8.37-6.15-14.92,2.62-20.22,8.14-1.13,1.18-2.19,5.62-3.71,2.47-.24-.51.38-1.79-.68-2.56-5.48-3.97-15.48,2.64-20.94,4.16-11.75,3.27-20.76,4.78-32.4,5.98-15.47,1.6-29.1,6.17-43.48,11.91-6.31,2.51-9.96,7.2-15.37,10.79-13.83-9.2-28.46-17.01-41.91-26.81-13.66-9.96-26.86-21.31-39.92-32.05-5.1-4.19-11.24-7.15-15.78-12.03h973.71ZM562.64,153.75c.48,3.76.07,9.24-4.86,8.77-5.77-.55-2.42-7.59-3.27-12.09s-7.37-25.85-11.17-27c-20.02,1.65-39.1-5.42-58.68-6.74-18.26-1.23-64.56,6.33-80.29,15.64-4.85,2.87-6.19,6.85-9.72,9.91-5.91,5.12-17.38,9.99-22.47,15.15-1.93,1.96-2.85,5.71-4.73,7.81-9.06,10.12-20.21,18.56-28.34,29.45l43.59,28.88c3.93-24.23,14.45-47.63,39.23-56.19,2.14-.74,5.12-.03,6.36-.73.33-.18,2.52-4.83,4.05-6.31,1.32-1.27,14.14-9.21,15.52-9.56,17.56-4.43,26.31,9.23,24.17,25.26-1.46,10.94-7.35,13.92-12.37,21.43-5.94,8.88-1.43,36.12-2.89,48.36-.5,4.21-6.83,22.45-6.53,23.9l43.42,31.07c2.56.54,9.53-4.22,12.78-5.31,11.32-3.81,45.19-3.1,57.32-.54s25.9,8.73,35.85,16.46l19.73-7.16c.14-.14-1.05-2.44-1.46-2.9-22.43-25.07-44.85-33.85-79.69-29.71-4.51.54-24.83,7.49-26.5,6.76l-2.56-3.06c-.44-4.12,5.83-5.54,8.79-6.52,27.81-9.25,60.56-7.51,85.64,8.15,9.72,6.07,14.18,13.96,21.94,21.93,2.4.4,14.42-7.53,18.16-9.02,7.36-2.92,15.71-3.32,22.42-7.6-2.17-7.73-1.3-16.55-3.44-24.04-5.66-19.88-35.97-28.99-34.58-52.62.55-9.24,2.47-14.41,10.17-19.29,32.62-20.68,65.11-2.4,90.15,20.34,8.41,7.63,12.06,13.12,18.53,21.82,10.07,13.55,17.49.37,26.9-5.8,3.53-2.31,8.05-3.2,11.21-6.18.16-2.21-27.2-27.51-31.19-31.47-2.43-2.41-5.13-6.96-7.58-9.32-11.71-11.25-50.77-29.61-66.94-34.47-9.24-2.78-44.37-9.9-52.88-9.25s-30.01,11.88-35.91,10.87c-2.84-.48-4.1-3.39-8.6-1.97-4.06,1.28-10.99,18.15-19.28,12.89ZM381.63,254.04c-5.78-9.34-14.6,1.49-20.37,5.27-11.74,7.68-26.84,18.92-37.31,28.11-13.88,12.19-20.78,29.22-18.64,47.88s27.73,17.5,40.25,9.71c9.12-5.67,12.82-22.69,18.4-31.75,18.71-30.36,71.62-14.47,82.33-57.24,4.92-19.63-3.3-46.2,6.62-62.07,4.07-6.51,9.9-10.89,11.33-19.2.97-5.63.53-11.2-4.16-14.95-6.64-5.3-16.39,2.1-21.74,6.49,8.2-1.42,13.14,11.39,3.87,10.35-1.64-.19-2.82-1.92-4.47-2.13-12.08-1.53-25.58,4.24-33.02,13.77-9.81,12.59-11.87,26.15-15.5,41.25.17,1.7,10.52,10.37,12.03,9.27,5.8-9.4,4.03-45.26,16.05-48.83,18.19-5.4,18.35,23.22,17.76,34.11-.78,14.25-1.28,26.19-10.93,37.05-5.79,6.52-33.78,24.81-42.49,27.3-10.91,3.11-16.03,2.68-26.1,9.88-10.46,7.48-8.54,10.4-13.45,20.35-4.15,8.4-12.86,18.47-22.58,11.17-7.86-5.91-1.39-24.67,3.4-31.44,9.21-13.03,24.13-22.89,37.21-31.48,6.91-4.54,14.57-8.32,21.51-12.85ZM724.39,214.42c-7.19-6.74-22.35-20.36-31.22-23.84-3.27-1.28-22.55-6.42-25.35-6.34-2.24.06-14.36,3.63-17.16,4.64-9.56,3.45-15.05,7.79-14.97,18.85.11,15.55,29.39,29.49,34.37,48.48,1.32,5.04.94,9.96,1.91,14.45,2.95,13.7,12.49,47.94,23.76,55.84,12.41,8.69,27.12-1.29,37.55,8.25,16.05,14.68,22.73,57.14,52.91,47.44,2.01-.65,4.58-2.23,6.03-3.77,3.19-3.39,11.94-26.48,11.21-30.86-.58-3.43-6.27-11.88-7.98-16.1-5.74-14.17-6.71-25.07-20.67-33.85l-18.07-33.74c-2.47.66-12.09,4.33-11.85,6.89,4.6,6.7,7.66,16.51,12.04,22.92,2.2,3.22,5.77,5.39,7.91,8.45,9.16,13.1,16.79,23.41,18.02,39.86,1.63,21.94-16.24,14.53-25.47,3.57-6.94-8.24-12.52-28.17-22.15-30.19-10.63-2.23-20.19-.99-28.64-10.62-9.54-10.86,7.41-25.92,1.31-40.56-6.38-15.3-28.26-24.19-39.53-35.7-12.28-12.55-25.82-39.74,3.85-37.65,27.16,1.92,47.75,29.58,62.56,49.77.75,1.02,1.14,2.38,1.26,3.63l8.64-6.95c-4.07-3.56-5.8-8.64-9.19-12.69s-7.46-6.79-11.08-10.18ZM418.72,254.06c2.74-1.42,5.68-5.46,6.28-8.42,1.67-8.27,3.49-30.83,2.17-38.75-.69-4.15-4.34-13.73-8.7-7.04-5.31,8.15-3.89,19.45-5.47,28.33-.96,5.36-4.3,11.46-6.35,16.54,4.15,3.17,10.89,3,12.08,9.35ZM663.66,199.7c-4.71,1.54,1.83,12.89,3.65,15.65,8.37,12.67,23.03,18.47,33.81,28.34,4.04,3.7,7.38,7.93,10.91,12.09l16.96-7.12c.96-1.05.12-2-.37-3.02-1.06-2.2-6.68-9.82-8.51-12.23-9.32-12.23-27.94-31.79-43.63-33.78-2.51-.32-10.84-.58-12.83.07ZM410.96,257.48l-5.33-3.42,3.81,6.54,1.52-3.12ZM403.44,264.98c-10.51-3.89-9.62-9.44-20.87-2.9-9.07,5.26-17.13,12.25-25.64,17.97-11.44,7.68-20.85,11.61-28.74,24.64-3.5,5.78-5.26,12.26-4.23,19.04,10.42,1.96,12.05-14.21,16.22-21.18s18.23-16.27,25.9-18.8c4.6-1.52,9.22-1.43,13.63-2.73,9.06-2.66,14.49-9.19,22.61-13.37l1.13-2.66ZM718.55,268.23l-1.1-4.35h-1.07s0,4.35,0,4.35h2.17ZM738.17,272.59l-21.52,7.91c-4.38,11.31-10.69,18.73,4.1,24.24,5.86,2.18,11.52,1.51,17.4,3.32,13.85,4.26,13.67,14.95,20.36,25.44,3.76,5.9,8.68,12.14,15.65,14.32-.14-3.03.32-6.15-.08-9.18-1.61-12.19-4.61-13.94-10.64-23.16-8.6-13.14-16.72-23.64-24.05-38.11-.76-1.5-1.24-3.1-1.21-4.79ZM592.07,317.28c1.69-2.27-8.53-7.04-10.17-7.8-18.39-8.58-44.44-10.69-64.53-8.54-4.82.52-10.02,3.13-14.71,4.39-1.63,2.2,7.71,6.45,9.25,7.63,2.85,2.2,5.63,4.6,7.68,7.62,6.04-3.84,8.59-8.93,15.81-11.43,4.24-1.47,13.57-2.72,18.02-2.6,4.21.12,18.94,12.02,19.08,17.25l19.57-6.52ZM517.93,328.2l-5.55,2.79c-5.23-2.67-12.28-11.39-17.42-13.16-2.8-.96-3.99.44-5.79.25-2.11-.23-3.83-2.75-6.25-2.46-1.66.2-17.17,8.95-19.86,10.59-3.22,1.97-6.27,5.79-9.79,7.65l-10.57,3.04c4.05.29,8.45-.44,12.44.11,9.58,1.3,36.98,24.81,48.74,30.86,15.05,7.75,40.12,15.5,57.01,13.63,17.59-1.95,34.94-16.88,52.47-18.4,8.28-.71,16.41.9,24.52,2.15l-38.86-42.34-23.15,10.87c-1.1,26.25-16.76,44.1-44.34,34.79-3.82-1.29-13.59-7.4-13.59-11.49v-28.89ZM551.59,315.27c-8.72-1.94-22.25,3.15-25.19,12.13-1.57,4.79-1.73,25.08.84,29.1,3.65,5.7,19.5,7.99,25.64,6.1,6.87-2.12,16.57-18.04,14.65-25.7-3.12.86-9.48,1.56-11.88,3.39-4.21,3.21-4.8,16.56-17.06,12.51-7.97-2.63-3.03-11.38-1.53-15.84.71-2.11,0-6.12,1.52-7.2,7.75-3.48,13.41,4.21,19.95,1.41,2.41-1.03,3.77-3.95,7.39-2.98-.59-6.78-6.85-9.34-13.18-9.2l-1.14-3.73ZM546.27,339.11c-3.21-.75-2.79,3.71-4.36,5.44,2.96.17,4.8-2.7,4.36-5.44Z"/>
  <path d="M0,886.48c2.48.42,3.33-.82,4.95-2.14,8.58-6.97,16.6-15.95,25.07-22.91,5.53-4.54,26.11-21.16,31.07-23.45,1.12-.52,1.99-.8,3.23-.56.28,5.41,3.78,12.09,4.31,17.01,1.29,12.04-17.71,30.41-23.42,41.82-18.11,36.2-4.26,63.52,13.43,95.7,7.89,11,19.15,6.73,28.27,12.07,4.4,2.57,7.83,7.37,12.99,9.91,6.15,3.03,19.15,3.94,23,7,11.19,8.89,4.4,36.07,7.09,47.96,2.22,9.81,28.77,19.85,37.89,22.08,21.79,5.31,33.76,3.93,48.93-13.3,15.09-17.14,27.64-62.37,25.14-84.76-3.5-31.41-14.36-40.87-34.4-62.1-12.57-13.32-24-26.54-32.81-42.97-5.15-9.61-16.81-47.51-15.61-57.54.57-4.78,8.24-13.49,10.39-19.07,3.07-7.95,2.36-15.4,4.11-23.15s6.23-15.8,7.56-23.52c6.53.93,34.98-22.5,37.4-22,1.18.74,1.37,1.49,1.62,2.76,4.11,20.69,7.41,42.4,12.35,62.89,4.83,20.07,12.67,25.15,23.04,41.29,30.95,48.18,60.84,96.8,87.06,147.38,5.54,10.69,21.03,37.39,28.17,45.97,1.61,1.93,3.91,1.63,5.25,3.47,1.67,2.29,2.92,8.54,4.64,11.72,8.21,15.18,19.93,30.28,29.5,44.65,3,4.51,5.11,9.57,8.48,13.86H0s0-230.06,0-230.06Z"/>
  <path d="M661.86,1116.55c9.66-10.81,23.29-16.86,33.82-26.7,4.98-4.65,8.56-10.09,13.64-14.71,8.76-7.97,20.4-15.43,29.42-22.92,4.18-3.48,4.78-8.22,5.99-9.27,1-.86,3.95-1.16,6.02-2.71,4.93-3.68,21.36-21.12,26.32-26.56,25.42-27.88,41.29-58.43,60.54-90.47,4.68-7.79,15.04-20.75,17.75-29.14,1.53-4.74-1.16-13.23,7.13-9.75,1.37-9.21,1.21-18.35,2.37-27.63,2.76-22.05,8.89-43.68,11.67-65.74,3.25-25.74,5.84-50.8,12.11-76.21.35-1.44-.06-2.77,1.66-3.77,19.82,18.46,38.91,37.85,58.75,56.26,2.78,2.58,13.17,8.69,12.45,12.77-9.41,13.77-20.87,25.87-29.67,40.08-6.23,10.06-11.05,20.86-16.78,31.2-7.58,13.69-15.9,20.85-17.52,38.09-1.75,18.62,4.18,22.98,10.2,38.59,3.32,8.6,8.73,21.81,6.86,30.81s-18.8,20.41-25.95,27.48c-23.59,23.31-38.2,42.51-33.83,77.5,1.07,8.61,11.27,7.16,16.83,8.25,20.84,4.09,23.41,6.82,43.95-2.11,37.1-16.12,63.28-35.54,68.89-78.31,2.08-15.82-1.04-27.54,8.83-41.32,12.67-17.68,39.57-9.98,53.93-28.94,5.25-6.93,17.41-43.08,20.8-44.63l15.28,15.23c12.2,6.31,20.95,17.01,33.23,23.47v201.17h-454.69Z"/>
  <path d="M1049.63,537.97c8.18,6.96,14.49,23.51,17.88,33.9,8.85,27.09,5.91,52.87.75,80.43-4.12,22.02-7.64,33.18-6.29,57.04,1.18,20.81,9.29,36.19,12.81,55.88,1.62,9.08,2.98,18.24,2.49,27.48-5.36-2.48-11.84-4.71-16.92-7.6-3.39-1.93-16.4-10.69-18.53-13.08-3.79-4.24,2.67-16.74,3.92-22.31,4.69-21,7-47.27,5.36-68.75-1.09-14.21-7.54-28.98-8.69-42.56-2.32-27.36,13.54-45.55.19-74.34-3.78-8.15-7.06-3.37-13.82-4.71-2.91-.58-2.94-3.45-6.07-2.85-2.31.44-2.7,3.26-4.24,4.53-9.39,7.82-27.68,16.76-29.41,29.5-1.77,12.97.71,27.41,4.83,39.68,7.05,20.99,22.04,47.48,23.47,69.22,3.15,47.94-46.8,90.73-40.41,142.91,1.24,10.11,11.51,15.47,7.71,28.38-6.66,22.61-29.44,21.98-38.77,38.63-3.35,5.99-8.32,19.08-9.16,25.73-2.52,19.98,8.2,33.11-3.14,53.56-8.06,14.55-21.64,17.46-29.49,29.39-6.09,9.27-8.34,22.51,7.49,18.39,18.57-4.83,38.39-25.99,44.37-43.94,4.1-12.31,2.17-27.4,4.96-40.84,3.94-18.96,9.22-23.76,24.88-34,20.16-13.19,32-10.03,42.17-35.25,4.13-10.24,7.22-22.47,10.6-33.02,1.34-1.8,1.63-.51,2.73.58,2.87,2.87,5.4,6.68,8.73,9.81,2.69,2.53,12.35,8.56,11.88,11.74-8.05,11.53-11.02,26.46-17.14,38.58-11.93,23.64-35.64,14.53-52.52,29.26-19.27,16.81-11.84,42.66-18.01,64.86-2.6,9.37-12.77,26.9-19.61,33.82-6.39,6.47-43.1,26.96-51.71,28.98-12.22,2.87-27.33-3.2-39.79-3.77-1.18-.85-.81-22.29-.35-25.46,2.18-15.08,20.54-35.52,31.31-46.11,17.22-16.94,33.52-20.82,26.73-49.57-5.7-24.15-23.18-37.99-12.56-64.91,11.32-16.98,19.83-36.28,30.53-53.43,25.35-40.6,50.51-48.85,46.95-104.7-1.38-21.61-12.45-36.69-17.8-56.34-7.74-28.42-5.83-73.73,8.82-99.75,1.32-2.35,11.53-17.44,12.75-17.53.84-.06,2.03,1.76,3.9,1.44,5.65-.95,18.19-18.04,23.52-22.22,4-.24,8.53-.7,12.42.32,2.88.76,17.51,10.63,20.28,12.99Z"/>
  <path d="M89.41,860.85c-.73,6.14-5.06,18.04-7.11,24.51-4.58,14.47-17.66,38.79-15.72,52.83.3,2.17,1.91,4.59,2.45,6.83,5.91,3.38,10.19,8.17,16.14,11.66,9.11,5.35,17.86,8.49,27.23,14.21,7.24,4.42,14.35,8.27,22.55,10.71,1.12,5.12,4.92,8.69,6.5,13.67s4.9,17.72,5.66,22.69c1.21,7.9-.94,11.6,4.63,19.35,1.67,2.32,21.73,16.56,25.22,18.39,7.13,3.73,10.03,1.62,16.78-1.1,3.56-1.43,1.95-3.77,6.5.69.86.2,2.1-.37,2.86-.85,1.53-.98,10.38-19.62,11.45-22.64,3.56-10.04,6.06-24.99.06-34.47-2.34-3.69-5.73-4.59-8.04-7.23-7.52-8.59-11.97-19.32-21.21-26.77-6.3-5.09-13.61-6.68-20.02-11.6-15.06-11.55-42.23-50.26-48.41-68.26-4.96-14.44-2.53-32.35-.15-47.57,6.22-39.74,49.28-84.53,44.58-125.53-.75-6.55-10.37-23.43-16.97-24.47-11.06-1.75-13.32.73-20.14,8.09-3.29,3.55-15.2,20.19-18.2,21.08-11.94,3.57-23.95-24.14-30.54-5.48-8.25,23.37-9.09,45.14,7.3,65.13l-29.41,13.61c2.7-30.24-6.36-64.64,2.76-93.72,2.23-7.1,12.51-30.49,19.05-33.28,8.02-3.41,15.81,6.94,23.99,9.77,19.99,6.91,24.37-11.91,34.29-23.49,1.53-1.78,7.67-7.17,9.6-7.81,4.86-1.61,21.92,3.29,25.37,6.74,1.31,1.31,4.37,10.05,5.04,12.4,13.89,49.13.86,94.31-9.16,141.67-2.14,10.12-11.96,20.92-12.8,25.36-1.11,5.86.9,18.76,2.28,24.93,7.54,33.67,23.6,59.6,46.71,84.13,9.53,10.12,25.46,23.35,29,37.51,3.75,14.98,8.2,39.71.47,53.75-.78,1.42-3.15,1.17-3.36,3.57-.23,2.53,2.68,3.67,2.11,7.33-.69,4.42-8.94,21.03-11.64,25.56-4.65,7.82-15.05,20.41-24.14,22.74-9.89,2.54-35.49-4.83-44.62-9.96-1.09-.61-8.59-5.89-8.92-6.35-2.47-3.42-.36-23.32-1.07-29.46-.27-2.37-2.35-10.53-3.15-13.2-5.65-18.86-19.35-13.03-31.98-19.26-5.61-2.77-9.34-9.32-16.4-11.95-5.19-1.94-9.35-1.25-13.87-2.48-9.62-2.63-11.03-13.25-15.03-20.95-13.62-26.23-20.22-42.8-5.84-71.97,7.43-15.08,26.36-29.13,23.89-47.5-.85-6.34-4.22-14.14-5.75-20.47l18.59-14.14c3.46-.44.53,2.26.53,2.71,0,12.16,1.37,28.84,0,40.34Z"/>
  <path d="M835.23,64.34c.9-.82,10.56,6.87,12.33,7.83,26.53,14.39,63.41,2.46,86.82,23.38l-36.51,30.94-4.04-.26c-9-4.81-19.81-6.05-28.81-10.47-16.46-8.08-33.34-30.25-53.84-25.87-15.49,3.31-10.56,24.76-4.11,34.76,10.37,16.07,17.9,15.6,30.89,24.72,6.16,4.32,24.76,22.74,27.82,28.88,10.09,20.23,2.83,30.65,2.17,50.19-.27,8.14-.35,10.43,5.98,15.8,13.16,11.17,18.94,9.03,32.92,13.97,28.22,9.98,22.74,44.76,30.33,67.8,4.54,13.77,15.47,19.03,27.5,9.1,8.52-7.03,5.76-25.83,2.98-35.22-8.29-28.02-33.27-52.43-34.35-81.24-.4-10.69,8.24-21.63,10.65-31.95,1.75-7.5,2.68-17.17-.8-24.22,5.98-3.22,13.26-2.24,18.53-6.56-.56,8.04-.22,17.65-1.2,25.51-.87,7-3.69,14.29-4.23,21.93-2.97,41.62,19.76,59.62,34.72,93.92,7.59,17.4,2.08,52.24-5.26,69.66-6.39,15.14-27.54,30.85-43.07,19.03-30.55-23.27-18.69-59.81-36.74-88.65-11.89-19-16.69-15.21-33.88-23.91-9.03-4.58-25.53-22.58-30.74-31.41-7.19-12.19-5.12-23.64-7.64-35.97-3.45-16.89-22.26-42.55-33.34-56.07-11.7-14.28-37.8-38.46-43.84-54.3-4.65-12.21.86-20.81,10.6-28.04s25.6-9.3,37.9-7.37c3,.47,23.17,9.07,25.23,10.76,2.61,2.14,3.28,11.45,8.86,6.44,3.66-3.29-1.34-10.25-3.84-13.08Z"/>
  <path d="M123.21,795.99c-4.9,11.6-11.38,23.4-13.69,35.91-1.26,6.81-.83,13.7-1.59,20.22-1.91,16.41-4.8,16.15,1.38,33.54,8.31,23.37,38.36,65.04,59.62,77.77,2.07,1.24,4.66,1.17,6.51,2.21,10.85,6.12,16.52,18.9,24.13,28.21,2.92,3.57,7.21,5.29,9.11,9.42,3.6,7.82,1.09,18.56-1.76,26.35-.64,1.75-5.72,13.43-6.34,13.87-.56.4-3.01-1.32-4.64-.93-3.55.84-8.01,9.94-15.31,6.24-3.31-1.68-21.96-15.49-23.45-18-3.38-5.74-1.43-9.64-2.46-14.99-1.09-5.67-3.13-14.95-4.74-20.34-2.16-7.24-6.71-12.86-8.12-20.23-8.69-2.31-14.67-4.58-22.28-9.34-10.85-6.8-19.4-9.9-29.81-15.98-8.93-5.21-17.58-9.49-15.36-21.2,1.93-10.17,11.46-28.27,15.05-39.46,2.78-8.69,5.27-17.6,7.29-26.51l1.37-51.81,25.1-14.93Z"/>
  <path d="M1035.76,567.1c2.17,10.35,5.3,17.9,4.5,28.83-.58,7.98-4.49,15.05-5.4,21.86-3.74,28.17,10.4,60.22,8.67,92.63-.37,6.93-6.76,52.82-11.57,53.89-3.56-1.77-19.22-7.99-19.68-11.38-.61-4.43,11.28-27.57,12.38-35.21,5.17-35.83-16.24-63.84-25.35-96.2-2.42-8.6-5.42-29.57.53-36.57,1.34-1.58,17.12-13.66,19.11-14.69,2.32-1.2,15.26-4.46,16.8-3.16Z"/>
  <path d="M936.62,165.74c.27,2.78,1.22,5.32,1.2,8.18-.14,17.77-13.31,29.45-12.08,46.87,1.73,24.41,12.56,34.94,22.73,54.69,6,11.65,22.28,44,9.92,54.32-15.07,12.58-16.16-23.39-17.91-31.06-5.63-24.59-9.13-42.46-36.5-49.64-2.74-.72-5.45-.17-7.98-.74-3.15-.71-16.1-8.77-18.29-11.15-4.8-5.22.48-20.47,1.13-27.32.53-5.51-.54-11.21.19-16.72l57.6-27.43Z"/>
  <path d="M934.08,1013.68c-6.85,6.59-17.2,10.78-25.26,15.63-1.47-4.19,5.45-11.4,8.68-14.22,9.84-8.59,15.08-9.16,22.62-22.09,14.72-25.25-2.77-50.99,12.29-79.31,5.33-10.02,11.79-9.76,20.09-14.8,6.78-4.13,18.37-18.96,20.33-26.56,3.96-15.35-6.9-21.25-8.24-32.17-1.42-11.61,1.89-24.73,4.37-36.05.33-1.5-.95-3.16,1.64-2.68,3.69,1.94,5.07,6.91,7.18,9.18,1.75,1.89,5.5,3.51,7.57,5.51,8.48,8.23,16.25,17.24,25.62,24.54,1.37,2.76-.27,8.89-1.08,12.03-2.25,8.68-11.67,35.72-17.43,41.45-4.69,4.67-11.65,5.4-16.84,8.24-7.37,4.04-19.37,11.53-25.73,16.79-30.52,25.29-6.85,66.63-35.81,94.49Z"/>
  <path d="M670.04,545.19c3.63.54,23.02,11.18,27.69,13.75,30.33,16.72,36.94,30.38,75.89,27.67,27.97-1.95,43.82-16.03,68.16-21.26,8.19-1.76,16.52-1.39,24.25-3.01,4.15-.87,16.98-8.25,16.14-.3-.95,8.94-27.8,8.06-33.68,10.02-3.56,1.18-3.41,3.71-5.89,5.01-2.35,1.23-16.59,4.39-17.17,5.19-.65,2.77,2.44,4.4,2.24,7.01-.59,7.54-11.81,2.47-10.98-3.76l-7.61,2.19c2.03,4.4,3.84,8.52,7.22,11.91,2.7,5.98-10.24,7.62-12.67,4.99s-1.58-8.39-2.73-11.45l-6.03,7.14c-.74,5.57,5.4,14.8,3.87,17.92l-2.43,2.08c-8.19-.61-6.86-8.48-8.27-14.31-.27-1.1-.32-3.28-1.87-3.03v19.63l-4.68.94c-5.01-1.15-2.29-13.21-2.96-17.3l-7.5,1.21,2.14,13.36c-4.8,4.9-7.78-1.56-8.28-1.52-2.01.13-4.23,3.87-7.15,1.75l-.97-12.97c-7.46-5.86-4.68,6.28-7.69,9.64-11.25,5.28-3.6-11.88-5.44-13.65h-3.26s-2.17,11.48-2.17,11.48c-2.05,1.68-4.15,1.59-6.41.36l.93-14.01-5.98,6.57c-1.5,0-3.27-1.61-3.66-3-1.07-3.84,3.53-5.65.37-7.93-4.7-1.47-7.44,8.61-12.58,4.97-3.92-2.77,3.57-9.06,2.23-10.42l-4.95,2.21-3.28-1.07c-1.64-2.39.61-5.93-.01-7.73-.88-2.55-13.85-19.8-16.46-21.58-2.09-1.43-19.37-11.08-20.54-11.08h-16.36c-.35,0-2.88-2.48-2.56-3.62l2.56-4.01c5.78.6,12.98-.83,18.54,0Z"/>
  <path d="M432.73,541.77c-2.44,3.85-19.92-5.23-23.3-4.88-1.29.14-2.62,2.32-4.48,2.55-4.18.51-10.83-2.35-15.95-1.66-2.22.3-16.75,6.11-18.59,7.35-1.28.85-2.52,3.88-4.59,5.51s-7.46,3.64-8.66,5.51c-1.86,2.91-.87,9.27-5.28,11.16l-4.9-.59-.78-6.27c-1.77,2.22-6.54,2.47-8.15,3.84-2.81,2.38-2.06,11.53-9.27,10.38s.93-7.66-.03-10.95c-3.53,4.23-6.52,11.12-12.99,7.74l-1.18-3.38c-3.09,2.87-8.53,10.51-13.12,6.54-4.89-4.22,5.99-8.46,7.12-11.99-6.08-1.49-8.12,7.38-13.45,7.32-.78,0-2.75-.61-2.98-1.5-.78-3.12,3.55-7.44.59-8.02-2.57-.5-6.73,4.76-9.82,1.11l-1.56-5.03c-8.08,1.52-5.97.24-9.16-4.43-2.32-3.38-7.44-11.55-6.96-16.07.15-1.38,1.83-2.9,1.8-3.41-.06-1.17-18.32-8.99-17.18-15.09,4.98-7.24,7.91.39,11.9,3.05,3.14,2.09,6.81,2.95,9.78,5.49,3.19,2.73,4.9,7.9,7.61,9.83,6.6,4.7,29.21,4.44,37.59,3.82,32.12-2.38,57.77-18.63,91.33-11.7,3.63.75,19.19,5.13,21.85,6.5,3.14,1.62,3.5,3.92,2.82,7.25Z"/>
  <path d="M144.72,694.89c.5.41,6.59,9.85,7.05,10.93,5.01,11.58-.4,32.51-6.22,43.34l-13.12-.21c-8.9,8.55-24.1,16.47-35.74,21.04-1.92.75-4.06,2.21-6.18,1.52-3.28-1.71-12.4-20.05-13.02-24.13-1.74-11.42,2.85-24.38,5.4-35.37,25.39,27.28,34.62.14,51.69-17.52,2.52-1.71,7.86-1.49,10.14.39Z"/>
  <path d="M815.37,97.32c14.36-1.65,36.15,21.34,51.53,27.48,3.91,1.56,24.61,5.9,21.29,12.56-.62,1.24-9.3,8.26-11.16,9.66-3.07,2.3-12.98,9.22-15.97,10.28-5.15,1.82-15.05-12.01-19.35-14.93s-10.05-3.8-14.65-7.16c-5.13-3.75-16.51-17.64-17.75-23.69-1.5-7.31-1.98-13.28,6.07-14.2Z"/>
  <path d="M516.9,940.94c5.65,2.16,11.18,1.52,16.83,2.25,10.08,1.29,19.24,3.77,29.43-.03,4.33-1.62,5.59-5.94,12.03-5.52,4.3.28,18.2,10.2,20.87,14.35,4.77-2.23,10.56-.32,15.09-1.19,2.63-.51,3.09-3.17,6.54-3.36,1.11-.06,10.76,1.12,11.79,1.42,4.25,1.23,3.98,6.91-1.31,8-8.97,1.85-29.76,4.22-38.34,2.21-4.53-1.07-11.68-5.83-15.96-5.8-1.92.01-11.78,5.94-16.26,6.24-11.95.81-30.32-2.65-42.1-5.71-8-2.08-17.98-2.49-26.53-2.93-5.28-.27-29.51,2.77-26.56-5.92,1.48-4.35,24.93-2.31,29.64-3.11,7.1-1.2,26.61-14.75,24.85-.89Z"/>
  <path d="M486.98,485.3c4.26-1.39,8.94,6.31,11.12,9.39,10.22,14.48,22.79,37.89,24.17,55.42,2.13,26.94,1,59.84-1.63,86.67s-9.92,52.74-12.78,78.79c-.65,2.85-5.29,4.29-6.88,1.95-.72-1.58-.61-3.29-.56-4.97.74-25.14,10.76-57.29,13.15-83.96,2.12-23.68,2.88-53.81,1.12-77.36-1.22-16.34-13.27-37.08-22.02-51.1-1.6-2.56-12.17-12.7-5.68-14.83Z"/>
  <path d="M612.55,1002.93c-1.39,2.4-12.94,4.98-15.5,6.85-1.73,1.27-1.29,3.19-2.5,4.32-12.41,11.63-25.09,19.76-42.86,15.8-5.78-1.29-24.07-6.79-29.11-9.05-6.09-2.74-1.93-7.28-2.47-7.88-1.24-1.39-18.08-.72-12.61-8.79,1.91-2.81,19.79,2.94,24.06,3.33,18.6,1.68,55.85.69,72.2-8.38,2.23-1.23,2.42-4.73,5.2-4.74,3.53-.02,4.97,6.14,3.58,8.54Z"/>
  <path d="M766.54,456.86c6.38,1.05,23.97-15.34,27.81-7.63s-3.76,5.79-7.15,7.04c-5.59,2.07-10.95,7.06-18.03,8.14-2.71.41-13.9,1.25-15.24-.99-3.4-5.66,6.82-7.7,10.42-6.56l-2.19-5.44c-4.53,1.93-9.7,2.9-14.17,4.9-5.56,2.47-11.26,11.15-12.54-1.64-1.98.05-18.93,5.39-20.52,6.47-1.12.77-3.32,9.02-8.09,4.18-9.58-9.71,27.01-19.25,33.04-19.18,3.97.05,3.31,3.35,5.29,3.13,5.41-.62,24.73-13.35,26.63-2.49.85,4.89-3.04,6.6-5.27,10.08Z"/>
  <path d="M612.46,637.54c-.7.99-4.29,2.69-5.63,2.59-6.65-2.7-1.66-5.45-.9-8.59,2.95-12.04,1.16-27.84,2.64-40.97,2.74-24.45,8.77-40.95,15.98-63.62,1.24-3.88-.4-13.21,7.71-7.22,2.25,6.88-8.39,29.4-10.43,38.3-3.11,13.54-5.93,32.69-6.89,46.54-.52,7.56,1.52,27.31-2.47,32.97Z"/>
  <path d="M572.06,893.18c7.16-2.35,12.06,2.6,17.53,3.96,3.81.95,7.99.05,12.3,1.88,5.28,2.24,10.28,9.66,15.35,11.91,10.02,4.46,25.82,9.61,36.51,12.56,5.85,1.61,12.24,2.74,18.28,3.52l1.75,1.56c3.44,10.28-18.02,3.63-22.21,2.54-10.7-2.78-28.85-8.9-38.67-13.67-4.85-2.35-9.55-9.09-14.02-11.06-3.83-1.69-7.92-.76-11.45-1.63-4.93-1.21-10.62-3.91-16.07-4.64-1.86-1.59-1.76-6.13.71-6.94Z"/>
  <path d="M467.77,917.01c2.08-6.31,15.26-7.81,21.79-10.38,9.18-3.61,27.63-13.85,35.94-15.3,12.89-2.26,15.56,6.19,21.34,6.01,4.43-.14,16.51-13.62,18.82-3.6.46,5.21-14.59,9.03-18.2,12.93l-17.93-8.18c-14.82,4.64-29.47,13.37-44.07,18.2-3.25,1.07-10.72,3.43-13.76,3.25-2.69-.16-2.51-2.28-3.92-2.93-.55,1.66,1,3.47-1.72,5.37-5.44,3.81-12-.51-16.34-.95-8.5-.88-19.73-1.68-28.31-2.22-5.31-.33-23.39,1.13-26.24-1.02-2.07-1.57-2.07-4.07,0-5.63s21.99-1.28,26.29-1.04c8.47.49,40.52,2.83,46.3,5.49Z"/>
  <path d="M602.8,397.82c-6.37,1.47-11.25,5.12-16.88,7.64-29.31,13.15-51.13,14.62-79.85-1.61-2.33-1.32-7.45-4.76-3.46-7.56,4.56-3.2,25.6,9.78,31.61,11.03,9.39,1.95,20.07-.61,29.54-1.12l35.6-15.66c3.1-.3,4.45,4.8,3.43,7.28Z"/>
  <path d="M591.81,805.54c-1,.97-3.48.82-3.94,1.53-.54.84.24,2.8-.39,3.91-.42.74-5.89,3.01-7.33,4.15-12.9,10.27-22.56,18.66-40.68,11.09-8.04-3.36-10.9-11.82-16.77-14.85-4.16-2.14-16.8-.92-16.8-6.13,0-5.81,14.94-3.38,18.63-2.25,4.34,1.33,11.21,11.68,15.92,14.61,10.04,6.23,21.02,2.96,29.74-3.71,5.84-4.47,4.74-6.88,7.64-10.9,1.2-1.66,10.52-5.14,12.38-4.68,3.09.77,3.7,5.16,1.59,7.22Z"/>
  <path d="M303.96,426.08c-10.14,4.63-21.96,2.28-32.44.25-.6,6.36-4.16,13.52-9.46,17.27-4.64,3.28-27.36,13.17-29.65,4.86s7.42-4.2,11.03-4.89c1.67-.32,13.61-5.82,14.9-6.95,7.04-6.14,2.76-16.72,12.94-18.78,4.17-.85,16.38,5.75,24.62,2.91l2.77-7.04c8.61-6.07,7.67,7.32,5.3,12.38Z"/>
  <path d="M480.45,779.75c10.83-3.69,2.89,11.87,2.63,15.85-.33,5.16,5.76,8.36,9.92,10.59,5.59,2.99,18.02,4.22,10.75,11.07-5.71,2.82-25.42-9.54-27.78-14.76-1.76-3.88,1.35-21.68,4.49-22.75Z"/>
  <path d="M664.3,461.48l37.54-12.18c4.11-1.5,8.13,4.72,4.75,7.05-1.46,1.01-7.52,1.07-10.06,1.93-4.67,1.57-21.01,6.8-24.1,8.61-2.67,1.57-3.76,7.77-7.94,4.25-2.56-2.16-1.81-6.97-.2-9.66Z"/>
  <path d="M842.48,461.36c6.63-2.2,6.69,6.14,10.69,6.36,4.17-1.28,25.78-11.75,25.74-2.66-.02,4.14-9.73,4.87-12.66,5.92-12.82,4.59-19.25,9.76-25.64-7,.05-1.29.63-2.2,1.88-2.62Z"/>
  <path d="M608.09,785.19c6.43-1.61,9.53,20.49.26,25.43-3.25,1.73-14.71,5.84-16.11.94-1.89-6.58,9.92-6.16,13.51-9,2.76-4.15-3.83-15.83,2.35-17.37Z"/>
  <path d="M333.51,420.73c4.43-15.02,15.94,6.11,4.99,7.68-10.04,1.44-18.68-2.69-27.57-6.6-.46-.75-.4-2.7-.19-3.61,1.88-8.06,16.94,5.11,22.76,2.53Z"/>
  <path d="M792.88,465.43c-.88-1.41-.44-5.54,1.61-6.24,4.52-1.54,6.79,2.29,9.57,2.07s15.92-9.99,18-3.73c.54,1.64.16,2.97-1,4.26-.52.57-12.9,6.62-13.86,6.85-3.08.71-12.93-.98-14.32-3.2Z"/>
  <path d="M364.55,418.35c.72.62,2.39.47,3.4,1.45,2.13,2.07,3.75,7.35.62,9.3-4.78,2.97-8.35-5.18-10.99-7.6-3.66-3.35-16.46-8.6-2.88-11.37,1.99,2.69,5.49,3.45,7.92,5.29.92.7,1.08,2.18,1.94,2.93Z"/>
  <path d="M418.33,424.28c4.93-1.64,7.61,7.38,9.71,10.72,2.71,4.31,10.63,8.5-.9,10.78-1.36-.35-2.58-.92-3.46-2.06-.59-.76-7.86-14.01-8.01-14.84-.25-1.41,1.28-4.14,2.66-4.6Z"/>
  <path d="M376.51,429.27c-1.44-1.31-2.98-4.54-2.37-6.51l4.55-2.85c3.51,5.04,13.2,6.84,12.67,13.38-1.66,5.05-12.55-1.94-14.85-4.03Z"/>
  <path d="M410.93,431.65c-3.59,3.4-13.09-2.1-14.6-5.32-1.31-2.79.29-6.66,3.27-6.54,1.36.06,2.4,1.69,3.47,1.86,1.45.23,2.97-1.15,4.71-.29,2.15,1.05,4.28,8.52,3.14,10.3Z"/>
  <path d="M222.05,260.21c14.07-15.86,20.48-47.21,22.22-67.83.58-6.86-1.85-14.94,1.17-22.17l6.49-.6c2.57-1.68-.62-5.53.4-7.16,1.22-1.96,14.34-8.27,16.95-10.39,11.47-9.3,10.96-35.52,2.19-46.82-5.01-6.46-10.33-6.57-14.15-9.84-1.69-1.45-.71-5.32-3.27-6.61-1.4-.69-4.69.88-7.03.66-15.75-1.51-28.88-8.51-43.49,1.22-2.12,1.41-5.75,6.38-7.62,6.21l-24.64-20.96c5.91-8.9,14.54-8.65,23.12-11.84,4.12-1.53,8.56-4.98,12.5-6.04,8.55-2.3,18.75-.71,27.97-2.56,6.65-1.33,17.08-3.92,23.56-5.88,3.34-1.01,8.07-4.43,11.45-4.92,2.85-.41,1.09,3.13,2.18,5.46,2.08,4.44,9.57-1.11,11.99-3.27,1.94-1.73,8.11-11.28,10.76-10.82,2.6,2.55,8.03,6.4,8.18,10.22.5,13.37-12.96,29.54-15.72,43.07-3.31,16.17,8.96,31.4,12.11,46.9,8.05,39.68-28.12,69.25-47.93,98.28-11.85,17.37-17.89,27.86-31.63,44.7-22.26,27.27-25.23,41.25-35.48,73.55-4.74,14.95-8.52,23.53-9.85,40.31-2.25,28.29-1.77,52.89-7.93,81.48-3.05,14.15-12.9,38.31-24.22,47.74-3.55,2.95-28.17,16.28-33.04,18.23-1.61.64-2.78,1.44-4.63.92-.97-.27-14.79-11.42-15.82-12.58-3.65-4.13-2.87-8.4-2.53-13.54.97-14.71,6.45-31.49,7.53-46.98.78-11.14.38-38.89-5.67-47.85-6.91-10.24-20.11-5.6-25.43-12.73-4.36-5.84-8.42-29.64-9.27-37.62-3.09-28.97,11.91-83.03,23.78-110.3s23-28.42,40-48.32c22.23-26.01,10.13-43.37,16.07-72.25.66-3.22,5.24-18.75,6.81-20.49l1.96-.87c14.14,3.66,26.42,9.64,37.65,19.01-1.75,8.96-1.52,18.27,1.52,26.92,3.56,10.11,12.74,24.63,10.41,35.99-.63,3.06-7.51,17.27-9.57,19.87-10.59,13.35-26.97,10.23-38.51,18.19-9.75,6.72-27.87,20.79-33.66,30.67-10,17.06-17.03,66.55-.81,80.83,7.52,6.62,13.13,2.26,17.9,14.81,8.52,22.41,11.15,35.13,6.94,59.23-2.13,12.2-11.06,33.25-10.58,43.84.42,9.32,11.84,10.3,17.85,4.86,10.64-9.63,20.23-51.44,21.24-65.99,1.57-22.79-3.14-42.44-5.4-64.35-1.34-13.02,4.74-25.35,11.74-36.16,12.77-19.72,37.73-27.93,53.25-45.43Z"/>
  <path d="M237.56,165.87c1.13,1.74-1.66,12.73-1.85,15.83-1.13,18.34-.71,34.27-7.79,52.21-16.84,42.69-63.8,43.85-77.99,92.11-3.69,12.56,1.33,21.25,2.7,33.27,3.55,31.03,3.31,58.67-7.59,88.32-.61,1.66-9.13,24.51-13.1,20.15-.82-10.5,4.76-20.63,7.09-30.51,2.83-11.97,5.73-28.73,4.88-40.89-.59-8.5-7.56-32.11-11.56-39.68-5.94-11.23-16.45-8.4-20.84-17.33-8.37-17.02-3.73-55.29,7.52-70.39,3.84-5.15,28.27-25.38,33.68-27.38,11.96-4.41,19.73-3.05,30.98-12.63,7.39-6.29,16.34-24.77,15.87-34.36-.96-19.9-16.02-33.83-13.12-53.93l51.1,25.21Z"/>
  <path d="M244.45,101.15c2.14,2.04,9.48.74,14.03,2.92,13.12,6.29,14.77,27.47,7.98,38.71l-62.56-40.85c-.59-2.71,11.74-9.04,14.7-9.08,2.38-.03,5.2,1.67,7.76,1.9,5.36.47,10.79-.16,16.06,1.44,2.47.45.66,3.67,2.02,4.96Z"/>
</svg>