<?xml version="1.0" encoding="UTF-8"?>
<svg id="illustration" data-name="illustration" fill="currentColor" xmlns="http://www.w3.org/2000/svg" viewBox="0 0 1117.09 1117.09">
  <path d="M0,1028.23c2.43.54,2.31-1.34,3.25-2.69,18.24-26.24,34.88-53.78,52.98-80.1,63.2-91.94,127.96-182.79,187.13-277.37,36.38-58.14,73.52-114.94,111.9-171.6,5.67-8.37,38.19-62.5,41.67-64.1,1.54-.71,3.35-.31,4.63-.82,2.68-1.05,22.81-38.4,26.5-44.37,20.85-33.74,48.1-65.84,67.84-98.99,6.44-10.81,9.91-23.18,15.98-34.18,10.19-18.47,26.27-32.33,36.78-50.45,11.92-20.56,22.48-39.99,36.49-59.46,3.06-4.25,4.02-4.06,5.6-5.85,1-1.13-.39-6.95,4.88-6.15,1.35.2,8.44,3.9,10.49,4.88,82.03,39.05,149.93,113.43,228.77,159.41,9.98,5.82,24.24,10.47,33.42,16.74,6.72,4.59,13.47,12.63,20.45,17.72,6.17,4.5,13.38,9.49,21.1,10.26,15.64-18.05,28.31-38.28,43.17-57.02,41.81-52.69,86.7-103.38,132.46-153.22,10.51-11.44,20.13-23.85,31.06-34.91v181.55c-25.73,36.31-50.52,73.55-73.93,111.43-19.14,30.95-38.13,56.91-60.21,85.9-31.61,41.5-64.06,82.69-97.05,123.21-4.31,5.3-10.32,10.53-14.6,15.93-2.72,3.44-6.42,14.05-11.82,12.79-2.71-1.86-24.96-11.75-25.88-10.7.39,5.55-3.29,26.8-.04,30.01,1.98,1.95,7.25,1.99,9.77,3.32,2.22,1.17,3.6,4.2,6.33,5.67,2.92,1.57,19.59,7.11,22.91,7.62s14.14.88,16.96.04c3.83-1.14,28.81-34.48,32.87-40.19,63.75-89.75,112.45-189.08,173.74-280.95,4.47-6.7,13.28-16.23,16.43-22.82,1.58-3.3.59-7.58,4.52-9.11v16.9c0,.74-7.95,9.69-9.2,11.52-50.68,74.38-90.2,151.81-138.2,227.08-17.9,28.07-48.4,79.19-71.35,100.93-1.42,1.35-4.65,4.11-6.45,4.46-14.94,2.85-37-3.72-50-11.06-1.05-.59-1.43-2.38-2.08-2.77-1.44-.85-6.34-1.5-8.41-2.51v35.98c11.43,4.93,22.77,11.42,31.58,20.16,1.02,1.01,10.48,13.71,12.02,12.55,3.1-8.19,8.52-15.79,13.71-22.83,15.5-21.03,32.58-41.17,47.18-62.95,5.95-8.88,10.25-19.49,16.09-28.62,39.02-60.94,80.88-119.48,118.4-181.45l46.68-65.06c-.27,3.34.43,7.12.04,10.38-.55,4.61-20.37,32.42-24.63,38.61-25.57,37.1-50.97,75.03-76.19,112.45-35.57,52.78-66.37,108.66-103.75,160.12-7.2,9.91-16.3,18.92-23.34,28.99-4.35,6.22-9.72,24.57-20.07,17.88-9.97-13.27-21.66-25.75-37.72-31.51-.47,14.88.42,29.65,1.31,44.48,4.29,2.38,9.36,6.11,12.87,9.47,7.49,7.16,12.38,20.25,24.56,18.12,10.29-14.98,22.03-29.06,32.57-43.83,28.62-40.11,54.61-82.12,85.08-121,37.57-61.9,80.52-120.19,117.47-182.38l11.8-17.09v276.96l-3.97-3c-1.6-.05-4.56,1.48-5.76,2.54-.9.8-10.88,15.53-11.47,16.86-1.32,2.92-1.46,6.04,2.4,6.3,5.58.38,10.9-13.07,13.95-17.24l4.86-3.28v430.7h-113.4c8.98-14.73,11.78-33.46,17.14-49.92,12.9-39.65,27.31-78.78,39.62-118.58-16.38-46.56-25.77-96.84-43.63-142.84-3.19-8.23-6.8-17.82-14-6.28-21.94,35.19-31.2,85.6-46.28,124.91-1.73,4.51-10.94,27.93-12.92,29.61-2.45,2.08-9.14,2.68-8.71,7.71.33,3.87,4.61,2.1,5.4,2.88.26.26.55,4.26,2.48,6.79,5.55,7.27,13.18,13.41,18.93,20.32,18.83,22.65,43.27,66.23,40.86,96.5-.76,9.56-7.39,20.76-2.16,28.91h-257.33l120.96-160.84c0-1.4-4.44-8.78-5.57-10.7-15.2-25.96-20.75-64.91-26.25-94.78-1.21-6.59-4.38-13.02-5.16-19.92-3.75-33.06-2.92-70.36-3.31-103.51-.11-9.11.06-18.24.11-27.35l-4.49-5.42c0-2.34,3.11-3.32,3.85-4.92,1.9-4.13.28-29.56.51-36.56,1.76-52.91,6.1-104.99,5.54-158.1-.52-49.85-2.21-101.14-5.54-151.47-.34-5.12,1.7-14.49,1.15-18.39-.11-.8-1.87-.8-2.12-1.56-2.89-8.73-3.55-19.46-4.99-28.61l-10.34-7.64c-.37,21.65-1.49,43.2-2.15,64.92-2.56,84.78-.9,170.18-1.08,255.16-.2,94.98,0,189.55.99,284.58.14,13.81,3.41,29.12-.58,42.95-33.81,55.22-68,110.15-104.67,163.56-1.8,2.62-11.53,17.49-12.47,18.06-2.35,1.42-7.02.18-9.81.54,27.36-42.94,58.07-83.91,84.84-127.23,12.26-19.84,23.26-40.75,35.08-60.87.6-105.29-2.75-210.09-2.21-315.15.45-85.87-1.61-172.54,1.1-258.44.74-23.54,3.86-47.16,3.39-70.84l-.31-1.38-20.48-14.39,2.21,158.69c-5.77,117.05-15.95,233.53-29.5,349.96-3.51,30.2-12.5,62.72-15.12,91.73-2.43,26.82-1.15,43.1-10.14,69.46-6.83,20.02-7.54,46.04-14.11,66.57-30.96,34.68-60.87,70.29-88.67,107.61-.95,1.27-1.26,2.71-1.86,4.11l-9.64-.37,26.2-37.05c23.54-24.92,43.12-53.39,66.95-78.07,5.72-23.88,9.6-48.22,15.08-72.15,2.43-10.58,6.29-19.77,7.33-31.92,5.33-62.3,19.41-123.55,21.84-186.43,19.41-131.95,24.32-265.68,21.75-399.04-.27-14.13,1.86-33.82.1-46.99-.64-4.79-6.11-7.78-9.86-10.3.51,16.9.62,33.83,1.03,50.75,2.36,96.57-6.8,188.58-16.31,284.55-8.74,88.23-34.25,174.46-40.34,262.79-2.04,29.61,1.22,58.41-8.23,86.64-3.13,9.36-6.73,44.74-9.56,48.79-2.18,3.12-12.7,10.45-16.59,14.48-17.18,17.8-29.48,35.38-48.49,52.91-15.29,14.1-25.46,24.21-39.65,39.4-6.74,7.22-14.51,13.49-20.82,21.16-3.32,2.05-7.71.7-11.51,1.02,10.81-12.58,22.93-23.96,34.36-35.96,11.56-12.13,19.86-19.79,32.17-31.07,23.24-21.31,40.2-45.42,63.26-66.5,2.24-13.91,6.13-27.77,8.57-41.59.48-2.72-.4-5.84.34-8.38.63-2.15,4.23-3.55,5-6.99,3.37-14.98.11-36.47,3.55-52.06,1.83-92.96,29.41-182.78,39.22-274.81,7.34-68.85,13.01-138.39,18.51-207.2,3.35-41.91-1.64-89.48-2.17-131.9-.04-3.44-3-6.8,1.04-9.84l-9.75-7.08-1.09,40.81c-12.84,159.36-58.08,316.06-66.53,475.47-1.61,30.32-4.15,60.27-6.52,90.52s.47,67.14,3.28,97.02c.94,9.99,6.82,22.88,1.09,31.65-6.4,9.79-46.29,38.88-57.87,46.8-48.33,33.06-102.85,61.11-153.13,91.12h-231.71l31.82-50.5c13.37-19.51,31.11-37.81,44.98-56.43,7.73-10.37,11.9-23.67,19.79-33.64,6.04-7.63,15.1-14.5,21.73-21.88,15.26-16.99,24.14-36.26,37.15-54.44,5.27-7.37,13.26-14.79,18.38-21.97,7.35-10.3,13.18-23.25,20.44-34.08,10.72-15.99,24.02-29.8,35.14-45.55,26.33-37.31,47.85-77.34,73.88-114.75,5.21-7.49,32.08-46.97,38.55-47.63,35.35,9.84,68.7,25.18,104.1,34.91-.26-5.49,5.49-23.02,2.2-26.74-1.56-1.76-16.55-8.53-19.99-10.54-7.11-4.15-19.84-10.9-25.75-15.69-5.59-4.53-10.4-12.3-16.98-16.82-14.24-9.81-19.41-5.85-30.56,4.33-19.25,17.58-32.43,42.68-47.6,63.61-62.88,86.76-127.15,171.94-184.53,262.52-29.07,45.9-64.29,87.09-92.04,133.67-7.98,13.4-21.67,35.52-31.36,47.15-5.23,6.27-7.94,4.39-15.71,4.45l9.17-8.8c31.08-51.52,66.93-99.08,101.59-148.11,13.54-19.14,26.08-38.38,38.62-58.42,10.71-17.11,20.2-29.75,31.43-45.99,44.54-64.43,90.32-127.34,136.28-190.83,16.2-22.38,34.54-55.43,56.34-72.28,17.73-13.7,38.73,5.13,49.67,19.01l43.57,24.57,5.36-36.97c-8.25-1.68-13.97-8.76-21.73-11.52-6.59-2.35-13.82-2.03-20.35-4.73-6.1-2.52-13.04-8.13-19.66-10.87-8.5-3.51-16.92-5.14-26-6.41-6.18,9.48-14.28,17.53-21.16,26.38-5.42,6.97-9.78,14.85-15.32,21.75-15.05,18.73-35.32,36.19-49.49,55.18-13.16,17.63-23.59,37.74-35.7,55.89-28.6,42.87-59.9,81.85-91.39,122.32-7.26,9.33-15.42,18.29-22.3,27.86-11.61,16.16-19.54,34.58-30.69,51.08-30.93,45.77-63.33,90.8-94.7,136.46-9.63,14.01-19.52,27.37-27.71,42.08-2.16,3.88-4.66,7.69-7.2,11.34l-204.52,1.01v-88.32ZM1097.86,258.57c-7.7-2.06-7.3,7.57-13.24,11.07,1.53,13.56,18.05-3.64,13.24-11.07ZM660.01,303.9c-1.3-1.39-.74-3.44-3.26-4.93-2.21-1.31-6.46-2.02-8.62-.29-3.07,2.36.03,5.63-.54,6.48-.49.73-7.61,4.33-9.18,5.6-24.9,20.29-67.59,56.2-85.77,81.11-.99,1.36-2.9,1.73-3.49,3.16-.7,1.72.63,11.9.38,15.49-1.25,17.71-6.43,39.48-8.57,57.94-1.7,14.58-3.27,29.34-4.35,43.88,7.61,1.1.5,5.85,9.11,6.69,17.78,1.73,32.49-2.07,52.05,1.39,4.23.75,7.21,3.66,11.84,2.54,2.22-.54,12.26-11.8,15.27-14.2,19.2-15.32,44.96-24.39,67.16-34.25,3.06-1.36,5.93-3.13,8.78-4.85l12.09-87.26c-16.75-26.17-31.76-55.87-52.9-78.5ZM1057.82,309.52c3.17,5.02,16.56-5.67,10.29-10.85-3.82-3.26-12.38,7.54-10.29,10.85ZM986.44,321.76c-3.58,3.51-9.79,9.21-3.31,12.81,7.64-.65,12.6-10.92,3.31-12.81ZM1027.91,325.14c-1.82.56-8.82,5.17-8.24,7.82,7.91,11.12,21.41-11.84,8.24-7.82ZM965.92,342.53c-3.51-3.14-13.87,9.65-14.07,11.34-1.21,10.59,20.75-4.63,14.07-11.34ZM985.32,364.9c4.06-3.97,6.11-12.59-2.13-10.56-.42.1-5.12,6.23-5.4,6.88-2.52,5.67,2.98,8.13,7.54,3.68ZM940.61,373.04c-3.65,1.17-3.51,14.04-3.83,17.69l2.6,1.88c7.45.61,9.19-22.13,1.23-19.57ZM962.64,395.97c-6.63-1.87-6.22,2.9-8.12,7.36-.54,1.27-4.85,5.38-1.38,7.59,6.09,3.88,12.96-10.12,9.5-14.95ZM928.17,408.07c-1.02,1.08-1.35,4.25-2.21,5.96-1.36,2.7-5.12,4.24-2.99,7.97,3.8,6.14,11.71-5.51,12.06-9.72.3-3.57-3.95-7.26-6.86-4.2ZM898.62,437.09c5.84,4.79,22.04-8.9,12.17-11.68-4.41-1.24-3.77,2.06-5.49,3.14-3.84,2.41-8.41,1.66-6.69,8.54ZM941.15,444.73c8.02,1.64,12.01-5.58,8.64-12.46l-5.39-.34c-.42,5.38-6.6,7.55-3.25,12.8ZM858.28,456.72c2.02,3.18,14.13-1.68,11.35-7.45l-3.29-2.21c-3.69,1.08-11,5.03-8.05,9.66ZM934.32,454.82c-3.57-2.2-13.88,6.67-11.35,10.79,4.07,6.63,16.53-7.59,11.35-10.79ZM890.55,475.56c-2.88.57-9.88,7.27-9.61,10.17.35,2.4,2.91,4.04,5.2,3.06,1.71-.73,13.01-9.3,9.15-11.84-1.35-1.56-2.79-1.78-4.74-1.39ZM865.37,504.46c9.35-9.25-5.68-11.05-10.41-2.14.14,6.21,6.76,5.76,10.41,2.14ZM674.52,523.47l-5.04,10.29c6.09,12.28,17.23-10.81,5.04-10.29ZM643.16,540.68c1.18-1.85.64-6.92-2.59-7.51-7.64-1.4-12.88,9.14-5.4,9.86,1.13.11,7.72-1.93,7.99-2.34ZM585.63,548.35c2.66,3.84,17.69-2.18,12-9.26-5.67-4.39-4.98.13-7.13,1.8-1.17.91-3.22.71-3.97,1.73-.66.91-1.48,4.89-.9,5.73ZM550.49,543.15c-2.43-1.56-20.57,5.62-21.44,8.26-4.04,12.25,22.04-1.61,22.54-3.71l-1.09-4.55ZM547.1,569.35c-3.97.68-14.92,5.96-9.05,10.86,2.23,1.86,14.62-3.65,14.86-6.14.33-3.5-2.58-5.27-5.81-4.72ZM496.84,578.01c-1.96.65-2.32,4.23-4.03,5.84-2.12,1.99-7.05,2.03-6.57,6.56.89,8.91,19.26-3.24,15.93-10.32-1.2-1.79-3.23-2.78-5.33-2.09ZM436.44,595.62c-2.15,2.17-1.5,6.44,1.57,7.21,1.97.49,9.55-3.76,10.61-5.38,1.63-2.51,2.73-8.68-.47-10.3-5.91-3-4.71,3.13-6.47,5.54-1.3,1.79-4.16,1.84-5.24,2.93ZM532.89,601.58c-1.7,1.42-11.03,3.11-7.94,7.97,4.3,6.76,22.22-6.93,15.42-12.11-5.51-4.2-5.35,2.36-7.48,4.14ZM506.78,609.29c.67-1.17.52-6.37-.23-7.47-6.83-3.83-5.96,1.28-8.2,3.92-1.96,2.32-5.8,2-4.46,7.42,1.14,4.61,12.04-2.39,12.9-3.88ZM470.65,604.2c-1.01.33-9.52,12.3-3.2,13.9,8.3,2.1,11.9-16.7,3.2-13.9ZM392.21,610.78c-1.53.44-3.35,3.31-5.44,4.42-3.37,1.79-19.09,5.46-14.48,11.84,2.44,3.37,19.97-5.45,22.48-8.2,3.52-3.86,3.03-9.67-2.56-8.05ZM452.19,622.8c-1.85.56-3.29,3.39-5.26,4.58-4.77,2.88-21.43,6.23-10.17,12.72,5.3-2.39,23.65-7.83,21.11-15.71-.97-2.25-3.72-2.18-5.68-1.59ZM491.37,638.57c3.49-3.77,3.95-9-2.12-9.3-3.37,2.87-6.38,6.06-10.05,8.58-4.05,2.78-9.79,2.12-8.03,9.69,2.54,4.03,17.76-6.34,20.19-8.97ZM1109.69,657.17c1.87-1.59,6.2-10.74,5.82-13.27-1.62-10.72-16.75,10.11-11.29,13.69,1.85,1,3.83.97,5.47-.42ZM383.01,664.85c3.46,3.45,18.87-4.97,20.24-10.37.73-2.9-1.32-6.4-4.49-5.59-2.38.61-3.21,4.16-4.84,5.36-2.44,1.8-16.7,4.81-10.91,10.59ZM1079.61,666.09c7.24,5.39,22.39-15.35,12.35-16.27-4.41-.4-4.87,4.58-7,7.16-2.63,3.17-7.15,3.13-5.34,9.11ZM351.89,654.37c-2.74,2.75-21.37,9.29-13.94,14.66,3.72,2.69,28.83-11.38,13.94-14.66ZM421.14,674.67c3.33,3.21,16.13-4.21,13.43-9.52-3.34-6.55-17.41,5.68-13.43,9.52ZM298.6,671.83c-.96-.61-4.3-.25-5.59.08-4.5,1.16-17.31,16.81-7.9,17.17,4.37.17,6.3-6.19,8.83-8.62,2.88-2.76,8.35-1.7,4.67-8.64ZM375.38,692.11c4.58,4.55,22.75-10.66,15.01-15.59-3.77-2.4-5.74,3.8-7.74,5.44-2.49,2.05-11.9,5.56-7.27,10.16ZM1038.84,692.1c-1.28.8-3.7-.01-5.27,1.81-4.23,4.91,3.32,9.93,9.84,4.39.96-.82,9.51-12.45,9.73-13.24.8-2.85-.86-5.29-3.66-5.78-4.9.44-8.48,11.46-10.65,12.83ZM1072.19,695.99c-.92,1.06-1.67,2.62-.96,4.02,4.78,9.41,20.96-10.57,12.03-12.03-4.57-.75-4.91,2.9-7.56,5.58-1.05,1.06-2.81,1.61-3.52,2.43ZM341.12,701.28c-4.38-.83-17.25.03-15.01,6.79,1.26,3.81,21.47,1.1,15.01-6.79ZM297.41,712.85c1.01-1,1.69-4.23,1.26-5.58-1.43-4.54-7.2-.02-9.23.34-5.39.95-12.39-2.47-14.7,4.96l1.6,2.83c4.05.68,18.27.24,21.06-2.55ZM1061.72,722.67c.86-2.33-.11-5.53-2.64-6.15-1.08-.26-11.45,4.71-11.82,5.26-.77,1.14-.8,3.52-.36,4.81,1.65,4.92,14.05-1.82,14.82-3.92ZM1085.69,716.5c-2.31.59-6.38,7.96-8.35,10.29-2.73,3.22-8.35,3.74-4.48,9.84,4.72,3.42,15.53-9.87,16.95-13.76,1.2-3.28-.5-7.29-4.13-6.37ZM252.82,720.89c-6.5-4.09-6.78,6.5-8.53,9.16-2.58,3.92-9.85,3-7.53,10.16,8.86,6.22,22.31-15.39,16.05-19.32ZM1027.95,727.44c-2.25.31-17.42,8.79-12.9,12.46,1.41,4.71,16.48-5.18,17.04-6.05,1.55-2.45,0-5.46-2.44-6.42-.57-.21-1.12-.07-1.69.01ZM1059.54,738.36c-1.2.25-12.48,7.45-12.67,8.2-2.66,10.41,22.23.45,16.86-7.35-.95-1.38-2.74-1.15-4.18-.85ZM1011.07,761.36c-2.47,2.49-1.48,6.04,1.87,6.91,4.3,1.11,8.58-4.81,11.46-7.2,2.24-1.85,6.16-.82,4.74-5.77-2.38-8.28-11.3,1.72-14.07,4.11-1.12.97-3.18,1.12-4.01,1.95ZM196.91,771.54c-1.74,1.73-4.3,1.8-3.96,5.3,2.3,7.11,7.43,2.42,10.99-1,1.43-1.37,9.2-9.81,9.83-10.88,2.37-4.01.79-6.82-3.82-6.08-4.09.66-9.66,9.3-13.04,12.66ZM994.27,760.14c-3.7-5.8-18.82,10.7-8.05,10.81,5.04.05,9.22-6.03,8.05-10.81ZM970.59,792.88c-.77,6.38-12.1,7.93-3.75,13.86,5.04,1.25,13.41-10.6,9.11-13.55l-5.36-.31ZM623.4,940.74c1.7-3.96-1.84-6.65-3.18-9.89-7.3-17.74-12.08-30.46-21.43-47.27-8.33-14.97-17.66-29.45-25.89-43.89-3.81-6.68-11.61-1.79-17.36-1.19-16.74,1.75-36.26,4.37-52.29,4.32-6.5-.02-37.16-1.19-39.93,2.97-1.88,2.82.5,6.01-.1,9.34-.42,2.35-3.24,6.02-4.2,8.98-7.26,22.42-8.4,36.94-4.04,59.7,1.27,6.63,5.41,29.36,7.58,33.85,2.01,4.15,7.52,6.05,10.55,9.08,2.56,2.56,4.85,6.38,7.31,9.04,2.06,2.22,6.51,4.54,8.18,7.18s-1.69,5.85,2.07,7.68c3.53,1.72,4.62-1.19,6.01-1.28,1.68-.1,5.51.05,8.46-.07,11.75-.48,34.55,8.91,48.31,10.5,6.46.74,19.05-6.16,25.17-9.54,7.84-4.33,14.64-10.68,23.25-13.82,6.05-11.4,12.54-23.79,19.68-34.61.41-.63,1.71-.8,1.83-1.08ZM949.39,852.34c3.93-3.31,4.25-12.48-3.32-10.63-5.54,4.19-3.58,16.44,3.32,10.63ZM240.7,869.3c-4.39-4.47-13.4,6.11-17.5,8.67-14.4,8.97-35.87,15.74-52.03,24.29-13.89,7.35-27.34,13.88-41.3,20.85-11.92,5.95-23.85,19.53-36.14,26.01-2.23,1.64-2.63,4.39-1.99,7.01,11.75,7.02,26.31,11.29,38.37,18.86,17.51,10.99,34.97,27.44,52.09,39.5,4.25,2.99,22.13,15.12,25.8,15.74,7.59,1.27,4.37-3.85,4.14-6.24-.25-2.64-1.46-7.48-1.47-8.11,0-2.98,6.65-20.8,7.96-25.81,8.49-32.63,17.51-72.11,22.21-105.36.47-3.33,1.92-13.31-.14-15.41ZM937.85,876.8c-.25,4.76-5.88,7.68-4.36,12.24l2.62,1.87c6.45.5,13.67-17.29,1.74-14.12ZM927.76,904.07c-5.09-3.39-14.52,12.07-10.82,14.63,6.64,4.59,14.7-12.18,10.82-14.63ZM902.46,942.82c-.85,1.29-4.11,1.03-2.77,5.11,2.62,8.02,14.77-2.66,10.29-9.17-3.45-5.01-6.4,2.38-7.51,4.06ZM897,981.45c-1.51.5-10.39,12.3-2.29,13.03,7.27.26,11.52-16.05,2.29-13.03ZM882.87,1020.73c-1.75.52-6.44,7.21-6.29,9.11,6.67,11.03,18.23-12.64,6.29-9.11ZM914.67,1021.83c-5.22-3.31-12.32,8.81-8.64,11.36,5.41,3.75,12.11-6.54,8.64-11.36ZM862.14,1058.41c9.4-8.56-5.53-11.56-10.46-2.18-.15,6.24,6.98,5.35,10.46,2.18ZM875.3,1063.28c-4.58.63-14.9,10.27-8.45,13.49,4.8,2.39,4.83-1.9,7.09-3.83s7.51-3.78,5.5-7.63c-.84-1.6-2.42-2.26-4.14-2.03ZM833.99,1064.36c-3.07-1.95-8.51,3.21-11.84,3.66l-.57,4.93c4.79,6.92,17.95-5.09,12.41-8.6ZM838.21,1087.38c-2.3-2.29-4.7-.67-6.8.82-2.99,2.12-16.41,14.47-6.48,15.31,2.25.19,13.34-10.22,14.16-12.08.58-1.32.07-3.11-.87-4.05ZM802.21,1104.23c3.03-2.49,7.72-14.68,1.91-16.04-6.16-1.44-3.66,4.75-6.04,8.11-1.8,2.55-8.17,1.86-4.74,8.37,2.77,1.1,6.34,1.64,8.87-.44Z"/>
  <path d="M426.34,0c-5.43,9.66-10.8,19.75-15.45,29.8-6.71,14.5-11.91,30.38-18.51,44.74-8.48,18.45-20.57,36.38-29.48,55.57-24.69,53.16-43.63,109.85-71.96,161.38-29.09,52.92-61.23,104.2-90.5,157.02-32.04,57.81-61.88,120.45-98.13,175.55-28.9,43.93-69.45,83.55-94.2,131.5l-8.11,8.79V0h426.34ZM196.12,3.42c-6.67-1.87-6.43,3.77-9.39,8.33-1.21,1.86-6.99,5.37-4.54,8.85,4.61,6.55,18.98-11.24,13.93-17.18ZM228.04,27.11c3,1.91,8.71-2.5,10.75-4.76,2.3-2.54,8.42-11.07,5-13.71-5.66-4.37-8.24,5.21-11.09,8.7-1.3,1.59-4.59,2.68-5.4,4.5-.61,1.37-.07,4.75.74,5.27ZM202.95,57.64c.2.3,3.08,1.22,3.72,1.18,2.7-.19,11.65-13.42,8.2-15.81-6.11-4.23-14.26,10.99-11.91,14.63ZM158.26,60.91c9.35,5.38,15.87-8.33,12.99-15.73l-5.38-.33c-.86.55-1.63,7.12-2.88,8.56-1.85,2.14-6.81.83-4.74,7.5ZM132.53,72.59c3.46-4.15,6.88-8.73-.05-11.57-3.41,1.13-12.1,12.13-6.8,14.55,3.07,1.4,5.05-.82,6.85-2.98ZM191.58,92.35c.86-.72,7.64-9.53,7.79-10.3-1.38-11.53-13.09,1.73-14.39,6.48s3.54,6.37,6.6,3.81ZM144.7,94.52c1.33-1.09,6.12-8.73,6.46-10.53.7-3.78-3.56-5.75-6.76-3.37-.53.39-7.76,9.95-7.9,10.59-.86,4,4.99,5.93,8.2,3.31ZM113.08,86.3c-.9.26-10.52,7.98-10.64,9.15-.97,10,15.56.36,16.03-5.49l-1.22-2.74c-1.12-1.35-2.6-1.37-4.17-.92ZM126.14,116.35c2.76-3.33.83-7.75-3.22-7.17-2.84,3.01-15.87,8.16-14.85,12.19,1.81,7.17,15.45-1.85,18.08-5.02ZM156.64,116.29c-2.49,1.89-7.72,1.79-4,7.49,3.98,4.42,15.62-5.08,14.1-9.71-4.74-5.04-7.31.1-10.11,2.21ZM72.73,114.61c-1.33.34-13.07,13.83-12.65,15.47,2.42,9.49,19.78-7.47,16.81-13.4-.72-1.45-2.47-2.5-4.17-2.07ZM126.2,139.78c-.59.16-10.34,5.2-10.72,5.68-1.12,1.43-1.59,3.5-.52,5.07,3.54,4.31,14.72-2.01,15.7-5.17,1.14-3.69-.25-6.7-4.46-5.57ZM75.93,146.79c-2.2,1.51-11.94,6.72-6.22,10.85,4.08,2.94,24.01-13.34,13.66-14.86-4.48-.66-5.3,2.54-7.44,4.02ZM46.52,170.26c-2.23.75-3.54,6.08-5.57,7.53-2.55,1.82-8.73.99-6.66,6.5,1.47,1.77,3.82,2.91,6.2,2.7,8.6-.78,17.7-20.68,6.04-16.73ZM82.58,171.35c-3.34.67-14.91,9.72-9.6,13.55,2.6,1.87,13.85-6.41,14.85-8.24,1.81-3.31-1.81-6-5.25-5.31ZM159.87,196.72c-6.1-3.41-17.11,6.11-23.17,9.23-19.84,10.21-33.98,17.97-51.55,32.41-1.26,1.03-1.78,3.09-2.75,3.79-2.82,2.05-7.21-.32-8.23,4.86l1.2,94.14c7.26.05,5.76,3.66,8.25,5.67,2.65,2.14,8.81,2.58,11.99,4.08,10.3,4.83,20.65,9.86,31.15,14.65,6.92,3.15,5.45,8,14.3,1.73,14.68-10.4,22.74-8.4,39.32-10.78,3.91-.56,10.42-3.55,14.98-4.65,4.15-1.01,15.86-2.29,18.35-3.45,3.35-1.56,4.8-12.78,5.31-16.5,2.08-15.14,3.04-34.61,3.45-49.98.14-5.3.82-25.24-.84-28.69-1.39-2.89-5.23-2.58-7.94-5.15-3.14-2.99-7.51-12.09-10.92-16.34-7.23-8.99-22.98-26.28-32.78-31.55-3.81-2.05-6.12-1.21-10.14-3.46ZM43.9,211.26c3.72,3.08,14.31-.09,11.25-6.35-4.9-4.35-17.04,1.56-11.25,6.35ZM3.42,236.46c4.82,3.03,10.44-7.49,12.04-11.1.98-2.23,5.4-16.17,5.09-17.42-7.67-9.92-9.64,7.78-12.13,13.66-2.09,4.94-8.25,9.3-5.01,14.86ZM21.5,253.77c-.95.83-7.6,2.23-4.18,6.34,8.87,10.65,17.1-13.75,13.28-16.49-6.3-4.52-7.44,8.72-9.1,10.15ZM13.91,317.04c1.53-1.58,2.06-9.04.88-10.71l-5.92-.87-1.09,11.69c1.76.97,4.64,1.43,6.14-.11Z"/>
  <path d="M0,934.45v-10.9c4.2-.16,4.43-4.69,6.52-7.11,13.91-16.08,24.11-34.16,37.08-51.24,15.3-20.15,32.09-38.96,46.88-59.97,4.74-6.74,8.84-15.69,13.72-22.27,11.37-15.35,26.46-27.28,36.25-44.44,4.79-8.39,7.96-18.48,12.33-26.92,16.96-32.73,40.84-61.44,59.63-93.03,9.86-16.58,17.77-34.45,27.29-51.22,41.41-73,88.92-142.95,134.48-213.35,50.36-77.81,85.33-164.51,131.57-244.61,7.51-13.01,16.16-25.3,24.15-38l4.69-.32c37.88,21.7,76.74,41.62,113.45,65.4,26.01,16.85,47.16,34.69,71.35,53.21,19.03,14.56,39.85,26.86,59.47,40.59,23.56,16.48,46.05,34.03,70.39,49.55,12.19,7.77,25.65,15.98,39.88,18.97,2.3-.32,8.4-7.16,10.39-9.33,17.08-18.6,31.21-40.41,46.47-60.39,13.51-17.68,29.6-33.14,44.08-50.78,43.39-52.84,84.18-107.92,125.36-162.5,1.69-1.5,1.06,1.1,1.09,2.18.12,3.57.63,7.81-1,11.01-39.74,51.85-78.47,104.43-120.03,154.75-13.17,15.94-28.94,30.86-40.79,46.44-18.73,24.61-35.91,52.21-58.43,73.5-3.02,2.85-2.19,6.48-9,4.65-17.98-7.49-33.83-16.85-50.24-27.19-28.94-18.24-57.06-39.01-85.05-58.87-36.62-25.98-70.62-54.87-108.31-79.24-16.27-10.52-33.38-20.87-50.2-30.49-19.47-11.14-40.45-19.91-58.67-32.91-2.41-.04-23.36,35.39-26.19,40.3-32.63,56.55-59.81,118.47-90.81,176.33-35.85,66.91-82.28,127.44-122.15,191.88-27.2,43.97-50.23,90.52-76.7,134.83-14.6,24.44-32.96,46.86-47.57,71.28-12.55,20.98-20.21,44.77-35.13,64.1-7.67,9.94-18.09,18.95-25.53,28.99-9.59,12.94-17.37,28.01-27.44,41.25-9.85,12.96-21.48,24.41-31.44,37.26-16.12,20.78-28.31,48.37-47.48,65.92-1.35,1.23-2.24,2.73-4.38,2.7Z"/>
  <path d="M1042.4,0c-9.24,13.31-19.89,25.68-29.25,38.89-13.97,19.71-26.14,42.88-41.06,61.43-36.03,44.82-67.34,93.15-101.34,139.63-4.46,6.1-11.53,23.92-19.69,23.96-15.77.06-25.1-20-36-28.39-6.37-4.91-14.92-6.7-20.71-10.91-18.49-13.44-31.49-36.58-51.87-50.63-12.43-8.57-28.25-13.13-40.61-21.54-22.53-15.33-44.67-41.37-69.8-52.33-4.94-2.15-10.64-3.15-15.5-5.22-22.94-9.78-45.43-31.03-66.01-45.21-8.19-5.64-17.68-10.25-25.81-15.62s-15.65-12.22-23.7-17.76c-1.14-.78-1.18-1.43-2.78-.57-3.03,1.64-13.49,31.17-15.8,36.58-57.33,134.46-128.68,252.1-200.94,378.05-62.61,109.13-123.72,219.08-184.3,329.26-20.93,38.06-47.33,75.64-69.07,114.12-8.92,15.79-15.35,34.37-28.16,47.62v-14.17c2.71.6,2.22-1.42,3.06-2.88,20.71-36.07,39.97-73.03,61.47-108.69,22.71-37.67,44.66-75.31,66.13-113.78,60.52-108.42,121.94-216.51,184.05-324.07,43.58-75.48,91.13-153.91,128.18-232.73,15.44-32.84,27.39-67.6,42.13-100.71,4.45-9.99,6.99-22.07,19.76-15,8.6,4.76,21.95,15.32,30.96,21.38,24.23,16.31,49.73,37.98,74.3,52.18,8.5,4.91,17.76,6.91,26.4,10.67,23.35,10.17,44.87,34.1,65.25,49.24,13.8,10.25,31.05,14.84,45.16,24.63,23.46,16.28,35.2,40.02,60.29,54.2,3.47,1.96,8.66,4.59,11.67,6.87,9,6.82,20.78,27.52,32.25,26.76L1032.59,0h9.81Z"/>
  <path d="M756.72,0c.41,13.3,2.44,20.3,14.16,27.26l-1.08-27.26h7.63l2.4,36.3,13.94,14.94-2.17-51.25h7.63l2.21,57.22,8.14,8.21-1.62-65.43h7.63c2.43,16.75.26,33.87,1.05,50.75.24,5.16.68,13.34,1.42,18.21,1.3,8.6,7.11,11.88,13.88,16.09V0h69.79l-18.57,37.59-26.9,71.15-6.28,3.63c-4.98-4.4-12.21-8.31-16.84-12.71-2.87-2.73-5.53-7.58-8.29-10.24-10-9.63-23.2-18.02-32.13-27.79-2.4-2.62-11.33-13.09-13.04-14.27-2.79-1.94-6.3-1.23-7.85-3.1s.02-3.73-.48-5.04c-.25-.65-7.92-8.19-9.18-9.23-12.95-10.71-30.53-14.37-39.27-29.97h33.8Z"/>
  <path d="M468.86,0c-7.19,14.54-16.32,28.09-23.09,42.88-8.78,19.19-14.05,40.16-22.52,59.26-13.85,31.22-28.46,62.52-42.52,93.78-25.15,55.89-58.07,113.34-88.32,166.82-42.58,75.27-87.87,149.09-129.28,225.09-14.61,26.81-27.43,54.57-43.4,80.9-15.52,25.6-36.38,47.37-53.69,71.7-19.88,27.93-37.17,62.79-57.95,89.25-1.93,2.45-4.85,5.98-8.08,6.64v-10.9c2.33.51,2.37-1.26,3.27-2.67,18.42-28.77,36.51-58.91,56.23-86.67,9.45-13.3,20.59-25.35,30.37-38.32,46.09-61.16,75.03-134.99,114.67-200.45,54.71-90.38,108.74-182.09,156.25-276.63,14.74-29.34,25.55-60.7,39.2-90.56,5.04-11.02,11.88-21.21,16.73-32.33,8.37-19.15,13.65-40.01,22.52-59.26,6.12-13.29,14.1-25.61,20.91-38.52h8.72Z"/>
  <path d="M594.26,0c6.43,4.59,10.7,12.1,16.34,16.91,4.42,3.77,10.02,6.31,14.76,10.32,8.53,7.21,18.93,23.32,26.13,28.39,5.36,3.77,14.03,7.05,19.6,10.93,18.94,13.21,36.79,30.68,56.49,43.82,30.59,20.4,60.15,36.38,88.54,60.84,12.67,10.92,24.18,24.27,35.02,37,2.36.51,8.09-10.09,9.35-12.31,12.11-21.37,21.39-45.51,33.19-67.12,14.62-26.79,29.96-53.83,44.95-80.45,9.33-16.56,20.81-32.13,30.72-48.34h9.81c-3.71,6.73-8.86,12.67-13.11,19.05-16.09,24.13-27.26,48.28-41.22,73.27-7.71,13.81-17.05,26.93-24.59,40.84-14,25.83-26.11,59.95-42.52,83.43-.84,1.21-3.99,3.99-5.59,4.39-3.51.02-10.04-12.24-12.53-15.15-43.01-50.24-107.42-81.02-159.75-120.78-3.25-2.47-5.97-6.53-9.36-9.17-6.73-5.23-16.18-8.64-22.76-13.22-8.83-6.16-17.85-21.53-27.29-29.41-5.1-4.25-12.1-7.24-16.61-11.43-2.83-2.62-5.03-7.07-7.88-9.87-4.4-4.32-10.86-7.14-14.77-11.94h13.08Z"/>
  <path d="M654.23,0l196.81,148.4c4.2-.23,8.15-8.16,10.08-11.85,6.39-12.2,10.19-25.98,16.09-38.43,6.95-14.66,16.15-29.53,23.32-44.28,8.65-17.79,15.43-36.57,25.21-53.84h8.72c-4.99,10.33-10.59,20.49-15.46,30.88-11.09,23.7-23.07,46.73-34.41,70.27-6.32,13.13-10.63,27.49-17.33,40.46-1.31,2.54-6.25,11.38-7.96,12.76-11.94,9.68-25.12-9.12-33.37-15.87-31.39-25.65-64.65-47.85-97.22-71.79-19.81-14.57-38.45-29.94-58.2-44.3-9.55-6.94-20.34-12.26-27.19-22.42h10.9Z"/>
  <path d="M1011.88,822.14c1.89.3,1.89,2.17,2.47,3.52,2.62,6.13,5.7,15.14,7.83,21.61,10.26,31.11,16.48,63.56,27.82,94.29l-17.96,3.81c-3.65-2.71-13.27,2.19-14.57-1.8l-5.6-121.42Z"/>
  <path d="M989.91,945.2c-8.9,3.37-18.51,1.48-27.66,2.33-3.07.29-5.53,2.39-8.19,1.62,10.49-26.07,19.77-52.62,28.67-79.28,4.86-14.55,7.85-30.15,14.65-44.23.63-1.29.57-3.23,2.47-3.51-4.32,40.97-10.52,81.8-9.95,123.06Z"/>
  <path d="M1005.32,1055.48l-12.12-30.94c-10.95-18.34-22.69-35.88-38.03-50.82,10.06-2.9,15.72,4.56,23.94,6.04,11.13,2.01,15.39-4.35,18.29,8.97,3,13.78,6.62,34.98,7.79,48.91.5,5.92-.06,11.93.13,17.85Z"/>
  <path d="M1016.22,1056.57l-2.16-10.36c-.09-19.19.6-38.29,3.27-57.25l6.61-1.55,24.99-28.96-32.71,98.13Z"/>
  <path d="M1009.68,945.35l-10.95-2.67-1.05-2.22c-.79-29.42,3.74-58.59,6.56-87.78l5.43,92.67Z"/>
  <path d="M991.14,952.98l3.06,17.18-1.58,2.29c-3.44.16-7.24.54-10.64.07-5.62-.78-9.21-4.94-13.65-5.98s-9.79.41-13.48-.69c-2.33-.69-7-5.06-3.28-7.2,10.98-6.32,27.53-1.44,39.58-5.67Z"/>
  <path d="M1043.49,951.91c-6,6.8-11.89,15.26-17.98,21.81-1.31,1.41-2.73,3.52-4.92,3.25l-2.19-23.99,25.08-1.08Z"/>
  <path d="M1014.05,979.15l-11.47-4.33c.19-3.73-4.46-20.17-2.05-21.95,3.16-1.4,6.84-.48,9.77,1.15l3.76,25.13Z"/>
  <path d="M1006.43,1000.97l-2.19-16.35,6.3,2.66c-2.61,4.03-.25,10.94-4.11,13.68Z"/>
  <path d="M514.68,902.83c12.51,1.67,24.33,5.71,36.07,10.25,2,2.5.8,19.44.93,24.14.1,3.59,3.03,15.38.09,17.45l-35.63,8.1c-3.7.15-5.87-7.04-8.01-10.35-4.46-6.9-10.31-12.93-13.08-20.73.06-2.73,20.21-22.64,19.63-28.87Z"/>
  <path d="M515.75,851.58v19.08c0,1-11.8,12.53-13.64,14.71-6.84,8.07-13.25,16.6-20.2,24.59l-22.92-3.4c-1.1-3.58,4.48-31.38,6.1-36.4,2.17-6.67,6.43-11.98,6.96-19.17l43.7.59Z"/>
  <path d="M590.91,887.48l-12.24,4.29c-2.32-1.31-3.58-3.7-5.85-5.11-13.45-8.34-31.7-16.64-47.13-19.93,2.28-7.85-3.85-10.82-1.15-18.35l41.44-3.96c1.82,5.52,7.11,9.11,10.2,13.8,3.41,5.17,11.92,19.9,13.98,25.28.49,1.29,1.21,2.53.76,3.98Z"/>
  <path d="M597.43,894.21l17.35,43.15c-4.99,6.16-9.08,19.57-14.11,24.76-.74.76-1.04,1.89-2.51,1.74-8.46-1.26-10.57-10.66-17.7-14.62,3.29-14.99,1.08-30.43,2.02-45.66,2.51-2.09,12.28-11.23,14.96-9.37Z"/>
  <path d="M594.25,970.45c-11.36,9.21-24.4,15.75-37.65,21.78-17.2-2.72-33.61-7.8-50.66-10.9l4.94-7.63,15.22,10.53c5.86-1.32,11.9-3.45,17.71-4.81,4.43-1.04,7.95.26,12.66-2.61,6.13-3.73,3.56-8.93,3.98-15.1l18.06-3.19c4.06.22,8.89,13.4,15.74,11.93Z"/>
  <path d="M573.54,899.54l-15.81,7.6-29.69-10.59-6.84-.25c-.92-.89,1.41-18.78,2.74-20.75.95-1.41,1.53-.78,2.73-.64,7.54.89,14.17,4.4,20.94,7.52,2.9,1.34,28.44,13.64,25.94,17.11Z"/>
  <path d="M462.31,915.91c13.95-1.61,17.94,2.5,23.49,14.25v2.04c-1.98,3.68-8.76,13.37-8.27,16.9.31,2.21,9.84,10.61,12.08,12.02,9.8,6.16,21.2,3.67,6.93,17.99-2.46.52-14.93-14.94-17.34-17.39-2.12-2.16-7.62-4.89-9.14-7.21-1.24-1.9-6.93-28.82-7.45-32.9-.24-1.91-.49-3.78-.31-5.7Z"/>
  <polygon points="573.54 951.89 560.45 954.08 559.28 916.42 560.04 914.71 573.53 908.28 573.54 951.89"/>
  <path d="M513.34,893.89c-.33.55-2.35.76-3.11,1.75-1.14,1.5-.93,3.77-2.11,5.56-4.65,7.09-10.31,13.82-15.25,20.73l-3.23.47c-.18-2.24-2.69-4.56-2.11-6.81.18-.68,7.33-9.48,8.62-11.09,5.14-6.43,11.52-12.78,16.87-19.11.76,1.67,1.05,7.29.31,8.5Z"/>
  <path d="M552.82,962.8l-.12,7.52c-11.11.33-23.74,9.87-32.59-.44l32.71-7.09Z"/>
  <path d="M501.57,957.34c-6.99-1.55-20.37-8.73-11.45-16.32l11.45,16.32Z"/>
  <path d="M602.98,399.07c-.12,18.2,1.41,36.52-1.64,54.53-8.59,8.28-19.26,14.27-28.33,21.83-8.32,6.94-16.6,17.33-24.55,23.43-1.09.84-1.38,2.12-3.27,1.62l11.99-101.4h45.8Z"/>
  <path d="M704.38,386l-9.82,74.14c-3.08-3.18-7.94-4.85-11.15-7.61s-5.26-7.3-9.87-10.06c-9.2-5.52-25.1-10.87-35.61-12.91l3.21-35.94,63.24-7.62Z"/>
  <path d="M689.12,467.76c-9.73,1.16-16.9,7.18-25.42,11.11-5.07,2.34-10.27,3.49-15.65,6.16-12.66,6.28-25.82,15.9-36.33,25.26l-3.11-51.54c.39-1.37,1.63-2.05,2.56-2.96,2.17-2.11,22.46-16.73,24.82-17.74,3.47-1.49,7.68.15,11.19,1.33,15.66,5.27,26.48,13.2,38.59,23.56.62.53,3.53,4.58,3.35,4.81Z"/>
  <path d="M562.64,391.43c7.6-8.17,15.98-15.65,24.01-23.4,17.77-17.15,36.46-35.59,56.14-50.72.61-.47,3.6-2.45,3.79-2.19l-11.9,71.5c-3.82,2.51-20.58.58-25.69,1.57-2.61.51-3.06,3.08-6.54,3.37-2.22.18-4.36-.9-6.38-.79-11.07.59-22.44,3.68-33.44.67Z"/>
  <path d="M657.48,310.77l43.63,68.68-57.78,6.54c3.86-24.24,6.59-49.71,12-73.6.38-1.68-.73-1.91,2.14-1.62Z"/>
  <path d="M601.88,464.51l2.18,49.06c-18.99-4.15-37.46-3.03-56.69-2.19l29.42-28.9,25.09-17.97Z"/>
  <path d="M633.5,394.72l-3.91,37.11-18.98,14.13.15-48.37,1.44-1.45c7.25,1.16,14.16-.24,21.29-1.42Z"/>
  <path d="M233.34,883.22c-9.13,37.65-13.07,77.18-24.79,114.23-.4,1.28-3.13,11.07-4.64,10.06l-41.18-57.23c.38-1.56,1.51-2.64,2.44-3.86,10.14-13.17,25.61-26.17,37.65-37.58,7.61-7.21,16.08-17.68,24.52-23.46,1.89-1.29,3.52-2.54,6-2.17Z"/>
  <path d="M200.63,1016.22c-1.03.97-14.8-8.62-16.7-10-15.23-11.1-29.76-23.49-45.09-34.51l-25.43-14.35c11.76-1.59,22.4-3.43,34.28-2.14,1.78.19,3.08,1.58,4.56,1.82,1.68.27,3.27-1.41,5.83-.27,1.87.83,8.94,12.46,10.96,15.27,5.32,7.39,8.11,13.06,12.78,19.93,5.45,8.01,15.58,13.95,18.8,24.25Z"/>
  <path d="M204.99,895.21c-4.79,7.25-13.18,11.56-19.13,17.39s-11.67,13.82-17.39,19.69c-2.38,2.44-13.03,13.9-14.76,14.69-4.94,2.24-12.75-.63-17.91-.57-8.42.1-18.97,3.61-27.86,3.3,7.27-5.73,16.75-15.23,24.73-19.42,5.37-2.82,12.47-4.12,18.21-6.87,17.61-8.42,34.68-22.84,54.11-28.21Z"/>
  <path d="M134.34,267.37l26.48-1.36c4.44.85,4.38,12.05,5.93,15.99l-19.18,34.03-11.34.75-12.49-26.67,10.59-22.74Z"/>
  <path d="M210.43,336.92l-5.94-7.68c-5.72-4.02-11.11-8.5-14.75-14.64,6.22-13.9,11.99-28.01,17.95-42.03,2.08-4.89,2.82-12.24,7.09-15.25l-4.36,79.59Z"/>
  <path d="M150.47,230.07c-8.58,4.12-17.52,3.32-26.22,4.85-10.7,1.88-23.04,7.7-33.75,10.4,11.93-11.67,27-21.88,41.78-29.63,2.63-1.38,15.79-7.93,17.67-8.51,3.15-.96.52,1.53.52,1.62v21.26Z"/>
  <path d="M203.89,248.6c-3.9-1.51-8.76-2.65-12.4-4.49-8.28-4.19-17.29-11.17-26.78-13.56-2.21-.55-4.37-.58-6.62-.48l1.11-26.17c.78-1.16,21.23,14.02,22.93,15.77,2.26,2.32,3.4,5.43,5.43,7.65,5.9,6.48,13.66,12.53,16.33,21.28Z"/>
  <path d="M82.87,332.56l.55-80.7,5.99,4.92,2.19,42.52c.65,5.55,6.16,22.75,3.24,26.18-.61.71-11.52,7.62-11.98,7.09Z"/>
  <path d="M202.8,261.7l-18.27,45.48-2.43,1.41c.06-7.11-8.03-18.66-6.1-25.1.56-1.86,11.81-18.77,13.1-19.68,1.46-1.02,13.01-2.74,13.71-2.09Z"/>
  <path d="M202.81,342.37c-7.76.32-16.56,5.18-23.71,6.29-7.87,1.23-16.29,0-24.26,3.53-1.08-.92,2.8-4.14,3.4-4.72,8.59-8.34,19.04-15.31,27.82-23.54l14.09,11.84,2.66,6.6Z"/>
  <path d="M102.51,314.03c-4.42-17.43-3.83-35.59-5.45-53.43,2.44,1.64,6.98,2.54,8.6,5.02,3.18,4.84,4.34,18.12,8.72,23.85-3.19,8.1-6.35,17.85-11.87,24.56Z"/>
  <path d="M140.65,240.98l-10.55,17.33c-11.19-2.74-23.3,1.95-31.97-6.98,13.61-5.58,27.8-9.42,42.51-10.35Z"/>
  <path d="M128.66,357.63c-.9.74-18.85-7.29-21.46-8.52s-4.7-3.54-7.24-4.76c-3.92-1.87-8.58-1.56-11.62-4.71-.01-1.07,10.52-8.22,12.06-8.72,6.39-2.09,12.52,10.24,16.22,14.23s10.11,6.57,12.04,12.48Z"/>
  <path d="M137.37,354.37c-7.45-8.71-16.88-15.14-22.88-25.07l16.42-2.77c2.89,3.44,3.84,8.03,5.64,11.77.86,1.79,3.2,3.34,3.6,5.04.51,2.23-2.83,8.18-2.77,11.02Z"/>
  <path d="M195.18,255.14c-9.18-1.68-17.41,3.13-26.17,2.79l-9.81-20.22c6.55.12,11.23,5.77,18.23,6.3l17.76,11.13Z"/>
  <path d="M175.55,321.67l-27.25,23.98c1.24-4.91.88-5.68-2.23-9.17l5.7-12.43,23.78-2.38Z"/>
  <path d="M127.58,319.48l-20.72,3.26c5.71-6.96,8.51-15.78,12.01-23.97l8.21,17.4.51,3.31Z"/>
  <path d="M152.64,240.98l6.56,17.44c-6.55.39-11.97,1.74-18.54,0-.93-.9,8.22-15.16,9.72-16.74.86-.91.73-1.01,2.25-.7Z"/>
  <polygon points="175.52 312.88 158.11 315.11 169.56 294.41 175.52 312.88"/>
  <path d="M125.39,264.97c.66.63-4.3,12.48-5.17,13.87-.7,1.11.07,1.91-2.44,1.39-.33-5.31-3.96-9.83-3.29-15.27h10.9Z"/>
  <polygon points="178.82 264.97 172.29 272.59 171.18 266.06 178.82 264.97"/>
  <polygon points="142.84 323.85 141.74 327.11 139.57 327.11 139.57 323.85 142.84 323.85"/>
</svg>