<?xml version="1.0" encoding="UTF-8"?>
<svg id="illustration" data-name="illustration" fill="currentColor" xmlns="http://www.w3.org/2000/svg" viewBox="0 0 1117.09 1117.09">
  <path d="M450.33,0c3,9.42,6.72,18.75,9.3,28.32,5.52,20.46,7.56,41.99,14.16,62.17,14.84,45.37,33.33,86.72,35.01,135.95.67,19.65-4.95,33.94-2.84,54.32,1.87,18.09,8.49,36.68,9.78,54.55.98,13.53-2.05,27.17-1.06,40.31,3.42,45.3,18.7,90.61,32.36,133.38,7.98,24.99,18.2,49.61,22.62,75.51l15.86.5-10.07-55.36c-15.83-48.02-26.39-103.52-31.34-154.03-2.3-23.49-1.97-47.36-3.94-71.06-1.48-17.8.56-22.65,5.56-38.52,5.16-16.37,2.54-59.32-1.71-76.78-4.49-18.44-13.14-36.35-17.04-54.92-.84-4-3.58-15.22,3.47-14.47,4.93.52,2.63,5.88,3.04,7.96,5.82,29.01,22.86,61.21,23.61,90.97.12,4.79-1.92,10.9-2.1,16.1-.43,12.2,1.45,22.87-2.4,34.75-5.4,16.67-5.23,20.76-4.13,38.38,4.63,74.09,9.92,149.92,34.61,220.54l10.09,55.88c.85.91,23.19-5.08,24.32-5.66,2.81-1.45,2.2-10.28,1.78-13.36-3.65-27.31-13.74-52.42-15.25-80.7-2.35-43.95-4.84-92.47-2.18-136.39,2.03-33.48,12.74-56.58,3.57-91.8-5.18-19.88-10.33-40.03-16.32-60.01-5.38-17.95-14.41-37.67-15.55-56.44-.38-6.27,1.37-10.16,7.02-4.82,3.46,10.99,5.4,22.36,9.3,33.23,2.9,8.1,7.23,18.41,10.72,26.35,5.75,13.05,28.42,62.89,36.15,70.71,2.99,3.03,7.95,4.89,10.97,7.56,25.47,22.55,45.9,44.05,52.01,78.83,2.82,16.04.15,31.83,1.4,47.66.98,12.37,6.26,25.84,8.57,38.31,2.9,15.66,3.4,31.94,5.88,47.54,1.88,11.84,7.26,23.08,9.24,34.38,4.23,24.15,7.28,48.44,12.57,72.48,2.88,13.1,7.31,26.03,9.5,39.33,8.33,2.71,4.02,5.03,4.59,9.8.7,5.91,11.28,29.5,9.08,34.55-.39.89-2.09,1.48-2.3,2.71-.5,2.93,2.9,11.7,3.59,15.65,5.32,30.08,4.23,56.25,7.01,85.67,3.6,38.22,23.85,73.2,21.51,112.29-.67,2.11-3.84,2.31-5.7,1.67-4-1.4-1.47-11.03-1.8-14.58-3.23-34.68-18.5-64.72-21.78-99.25-1.69-17.75-.41-36.63-2.21-54.49-1.48-14.73-5.34-29.94-7.79-44.54l-1.61-1.66c-10.3.49-20.26-2.22-30.39-3.41-9.74-1.14-26.06-1.07-34.56-3.6-48.58-14.47-97.46-6.09-146.73.03-48.41,6.01-90.62,7.99-139.29,5.75-18.67-.86-34.74,4.71-50.16,4.43-46.56-.84-100.18-22.1-145.84-31.96l-21.52-10.63c.65,8.79,4.33,15.25,7.06,22.91,12.97,36.33,36.79,64.48,39.8,105.22.76,10.26-2.37,24.3,1.41,33.49,1.61,3.92,7.36,10.65,9.71,15.37,15.93,31.96,32.76,64.1,42.03,98.63,1.38,5.16,1.96,11.26,2.49,16.6,2.88-2.19,3.72-6.77,8.19-3.29l1.37,2.99c.3,25.71,1.34,51.47-2.17,76.94-9.35,15.84-22.98-8.23-27.6-16.65s-7.17-18.38-13.61-25.1v91.05c0,1.15,3.39,1.37,4.05,1.92,2.62,2.21-.39,10.99-.76,14.45-.73,6.81,2.9,12.86-5.55,15.37,1.91,5.84,3.24,17.2-2.13,21.65-2.96,2.45-7.63.84-9.44,4.92l-235.86.02V0h450.33ZM311.58,335.55c.83-.95,3.07-8.82,4.43-11.37,7.03-13.11,17.61-26.2,24.78-39.55,1.5-14.13-4.12-28.02-6.04-41.93l14.23-20.82c.5-4.99-13.68-22.29-14.24-28.46s10.05-10,7.12-21.18c-8.43-17.19-15.46-36.15-24.38-53.03-2.22-4.2-10.18-17.91-14.9-17.92-6.74,0-3.64,5.16-4.28,7.78-.57,2.36-6.39,11.03-8,14.93-7.03,17.04-10.74,37.42-17.74,53.95-.68,1.61-3.62,1.6-4.2,3.79-1.47,5.52,12.5,12.68,14.89,17.23.15,2.05-11.15,16.59-11.72,20.82-.95,7.05,10.65,18.58,10.43,24.99-.16,4.64-7,13.3-8.8,18-4.35,11.4.98,11.03,5.76,19.28,5.3,9.17,12.08,18.16,16.26,27.35,2.3,5.07,7.51,24.13,8.95,25.93,1.67,2.08,5.88,1.98,7.45.18ZM198.13,102.73c-8.86,2-17.19,20.46-18.11,28.78-3.92,35.38,3,77.67,1.02,114.42-.79,14.71-5.89,33.85-5.55,47.89.22,8.82,4.73,6.56,8.86,9.76,2.4,1.86,4.44,7.09,7.52,9.93,13.81,12.72,22.32,2.2,31-9.39,22.7-30.26,16.47-46.24,18.04-81.18,1.69-37.61,13.95-90.51-22.31-117.16-5.14-3.78-14.36-4.43-20.48-3.05ZM155.17,269.65c1.07-1.51,4.29-.95,4.04-5.14-1.65-8.64-11.18-25.87-10.86-33.8.08-1.93,6.87-18.1,8.21-20.18s5.13-4.34,5.72-6.33c1.56-5.26-5.6-10.23-7.08-15.02-.01-3.07,8.33-8.32,9.25-12.29.51-2.18-.96-6.46.03-9.25-9.6-14.94-20.47-29.01-30.84-43.4-2.47-3.44-6.55-14.73-11.81-13.97-1.81.37-2.74,1.49-3.91,2.75-7.5,8.07-16.94,28.64-24.33,38.9-2.69,3.74-14.51,15.26-14.86,18.89l11.65,20.39c-2.87,5.42-15.94,17.27-15.17,22.96.6,4.42,15.97,21.13,15.96,25.17-3.62,10.7-12.04,19.63-13.31,31.15,5.15,5.68,11.38,10.5,16.47,16.26,5.77,6.53,16.4,20.15,20.63,27.35,2.42,4.13,1.77,11.02,8.63,11.69,1.79-.28,2.7-1.43,3.83-2.66,3.42-3.74,15.01-23.69,17.79-29.09,3.55-6.92,6.35-19.31,9.97-24.39ZM271.36,635.6c1.18-5.15,4.9-4.23,9.26-4.42l1.51-1.43c-.46-4.4-1.7-9.99-1.9-14.23-1.21-25.57-4.83-49.36-5.87-75.04-.69-17.08-6.89-30.52-10.22-46.26-3.35-15.86.44-36.67-2.71-53.99-.36-1.99-2.83-7.22-4.1-8.99-1.62-2.26-11.84-9.89-14.22-10.86-2.59-1.06-15.84-1.03-18.81-.35-6.56,1.48-11.36,12.27-12.77,18.3,3.21-1.02,7.63-.04,9.68,2.86,3.91,5.53,9.22,29.65-.68,31.86-2.54.56-6.57-1.97-5.72.71,2.57,8.06,6.12,13.96,4.36,23.46,9.67-9.14,14.46,18.8,10.2,21.9-3.22,2.34-8.8-.44-9.11-.09.89,8.25,2.74,16.47,4.22,24.67,2.44,13.54,6.29,26.75,8.72,40.34,2.97,16.61,1.97,34.05,10.99,48.99,9.3-.19,18.54-1.18,27.16,2.57ZM220.27,514.66c4.3-1.48,2.43-6.09,1.39-9.59-.38-1.27-.89-4.6-2.48-4.58l1.09,14.17ZM695.65,582.27l-10.24-.99-14.83,4.23,25.07-3.25ZM653.68,600.8c-4.52.89-14.34,0-19.63,0-.2,0-2.6-1.12-2.81-1.8-2.24-10.48,19.75-3.07,23.79-7.21,1.55-1.58.53-6.49,6.81-5.18-.5-1.63-5.63-2.04-7.1-2.16-5.3-.41-19.31-.88-24.01-.03-2.78.5-2.53,4.08-5.58,4.12-2.05.03-3.69-1.91-6.35-1.96-7.62-.14-20.68,5.61-29.62,6.44-5.91.55-11.94-.11-17.86.14v3.26c3.93,1.51,14.49-4.77,16.97-1.15,2.92,6.06-3.24,7.11-8.21,8.28-4.48,1.06-25.63,4.12-28.44,2.2-5.86-4.02,5.52-9.66,10.22-7.1l1.82-3.31c-10.13,2.1-20.71,3.4-30.78,5.74-17.09,3.96-26.14,10.82-41.69,16.1-33.65,11.42-69.12,16.86-103.62,25.11-23.64-3.05-46.57-8.91-69.52-14.52-3.76-.92-28.11-8.43-29.16-7.36l1.2,10.79c6.81.64,31.72,1.79,35.91,6.07,1.91,1.95.22,5.01,1.7,6.16,2.87,2.23,11.55-3.67,11.45,3.7-.05,3.87-4.56,7.03-8.25,7.11-18.74-3.42-37.71-5.67-56.46-9.02-7.19-1.28-14.45-4.71-22.08-4.95-3.48-.11-7.55,1.93-11.78.65-5.27-1.6-11.49-27.71-13.46-28.19-10.32,1.43-39.73-3.09-46.87,3.71-2.87,2.73-2.21,10.92-.12,13.51.49.6,11.52,7.26,13.15,8.12,27.91,14.65,73.39,20.69,104.82,28.21,4.82,1.15,9.73,3.81,14.74,4.88,31.02,6.66,56.29-1.86,86.77-.63,35.47,1.43,65.84,1.17,101.35-1.06,14.71-.92,29.59-4.53,44.16-6.54l-4.22-2.85.02-4.63c1.27-2.06,16.61-1.02,20.01-1.24,4.33-.29,17.62-4.16,19.71.03l-.62,4.33c6.74.77,13.6-1.94,20.12-2.21,29.43-1.23,63.64,1.63,91.76,9.73l56.03,5.57c-.76-5.24-7.4-7.9-3.33-13.69l4.4-1.01-5.59-15.68c-8.5-1.12-19.28,2.43-25.89-4.13-2.92-9.02,16.96-1.71,21.68-3.67-1.35-3.43-8.27-14.96-7.5-17.76.42-1.54,2.51-1.77,2.63-4.08.39-7.03-7.06-22.18-7.27-30.35l-6.4-.13c2.72,5.45-1.06,5.97-5.41,7.12-13.53,3.58-34.41,3.66-48.6,4.82-9.81.8-6.78,6.44-13.05,7.67ZM242.06,1072.93v-112.85c0-.4,1.63-3.07,1.94-4.6.68-3.34-1.07-9.72,4.11-10.17,6.36-.55,4.35,8.24,5.88,12.64,1.26,3.63,5.29,7.65,7.19,11.35,6.43,12.5,10.52,27.41,22.29,36.03.47-15.28,2.65-33.44,1.17-48.59-.95-9.72-5.45-8.45-11.73-12.26-8.6-5.22-18.31-13.99-26.44-18.26-1.89-.99-17.13-7.91-18.11-8.06-1.85-.29-18.31.4-18.97,1.08-.17,7.29,2.25,14.34,2.9,21.52,1.27,13.92,1.12,30.55,3.69,44.26,2.37,12.62,8.49,24.1,9.43,38.66.69,10.65-4.17,27.86,6.82,34.84l9.8,14.42Z"/>
  <path d="M1116.55,0v588.8s-29.97-69.8-29.97-69.8c-41.08-118.85-56.14-244.48-112.67-358.37l-23.08-41.78c.58,11.82,2.34,23.65,3.25,35.44,1.92,25.09,1.98,50.08,3.29,75.21.87,16.76,5.11,33.18,6.3,49.88l-3.03,5.77-7.4-.83-15.72-29.52-11.8-13.28c.54,3.94,1.81,8.07,2.19,11.99,5.38,56.21,4.49,112.77,9.97,168.85,5.63,57.68,30.71,116.53,34.74,175.71.24,3.55-.12,7.15.06,10.7-5.94,4.65-8.68-1.01-7.69-6.9-15.21,4.47-2.31-17.68-5.7-25.37-8.16-28.45-21.53-58.35-28.9-86.68-3.23-12.44-4.47-26.81-7.34-39.55-13.05-58.01-26.52-115.63-40.42-173.29-6.72-27.89-10.4-56.13-14.94-84.29-1.57-9.71-9.61-36.09-5.72-44.4.24-.52,1.98-2.2,2.16-2.2h16.36c1.24,0,14.57,16.04,16.47,18.42l23.32,23-11.85-65.01c-1.1-28.11-6.74-56.15-9.87-83.9-1.46-12.99.33-26.5-3.35-38.63h221.35Z"/>
  <path d="M803.61,0c6.71,19.66,3.41,40.27,4.32,60.56,1.19,26.75,4.24,53.86,7.97,80.35,2.27,16.12,7.09,30.42,6.31,47.24-.1,2.14-1.96,3.6-1.76,4.9.75,4.81,12.15,26.55,14.99,32.99,15.09,34.17,28.03,63.56,35.42,100.87,10.6,53.46,20.69,106.96,30.08,160.73,1.44,8.27,9.16,38.81,7.17,44.84-.85,2.58-4.19,2.24-5.94.82l-1.44-2.92c-4.76-35.29-12.76-70.01-19.41-104.9-7.97-41.81-14.13-88.26-25.93-128.9-11.21-38.64-31.96-73.32-46.36-110.66-13.35-34.63-20.99-72.62-34.32-107.43l-1.64-1.08c-2.2,18.28,1.25,36.83,5.99,54.52,8.91,33.24,19.83,64.67,22.33,99.79.76,10.61.43,35.92-16.05,27.49l-24.8-52.06-18-28.32,20.21,104.68c-1.72,1.83-4.16,2.48-6.01.53-3.73-3.92-6.15-27.1-7.83-33.63-.82-2.29-4.39-1.38-5.15-3.57s.09-6.42-.41-9.4c-2.52-14.92-9.51-31.47-12.53-47.44-4.49-23.73-12.57-57.49-14.43-80.43-.2-2.41-.62-10.91,1-12.04,6.14-4.27,17.35,10.02,20.61,14.43,6.2,8.39,10.07,18.35,16.53,26.53-.57-19.77-7.82-38.81-12.34-57.98-2.19-9.3-3.33-18.86-5.63-28.17-4.34-17.53-11.19-34.38-13.64-52.33h80.69Z"/>
  <path d="M543.84,697.02l37.35,101.13c1.63-.22,1.79-4.7,2.02-6.14,1.89-12.14,4.01-26.11,5.51-38.1.6-4.76-2.18-25.24,8.18-15.62,8.02,7.45,13.72,26.39,23.52,34.26,17.6-.78,31.97,11.38,47.94,15.3,5.73,1.41,12.51-.56,16.98,2.66,2.84,2.04,6.08,8.7,7.59,12.04,15.28,33.76,24.81,78.64,31.87,115.33,1.45,7.54,7.68,40.71.33,44.4-4.3,2.16-10.99-1.33-14.18-4.39-8.24-7.92-17.25-34.29-22.11-45.5-3.43-7.9-11.73-16.38-15.94-24.4-6.47-12.32-11.47-25.68-14.96-38.62-.64-2.37-22.77-36.97-25.92-41.53s-7.81-8.1-10.31-12.6c-1.94-3.49-3.98-13.36-7.54-14.37-2.07-.58-5.67,1.67-7.41-1.22-2.92-4.84,4.03-6.69,3.85-7.11l-14.16-20.17c-.54,7.32-3.29,14.1-4.23,21.4-4.62,35.7-12.43,76.25-8.85,112.16.81,8.09,4.97,18.31,6.38,27.43,2.11,13.68,4.65,32.03,5.59,45.65.88,12.71-.65,26.25.06,39.05-5.62,5.77-14.43-9.05-17.74-13.74-15.92-22.55-18.78-41.38-27.57-66.2-5.3-14.96-12.33-30.06-17.2-44.96-3.3-10.09-10.36-32.16-11.59-41.83-.71-5.63-.33-14.4,7.52-10.8,5.64,2.59,17.54,26.4,24,31.06-.23-7.07.33-14.23.06-21.31-.5-12.9-1.62-29.65-3.45-42.35-3-20.88-11.59-40.96-12.94-62.29-.32-4.99-.89-23.32.21-27.02,1-3.37,4.62-3.51,7.15-1.59Z"/>
  <path d="M1067.48,1116.55h-134.12c3.07-5.42,7.74-7.76,7.72-14.72-.09-35.08-17.6-77.3-9.42-111.83,3.06-12.92,10.66-6.93,15.21,1.28,11.48,20.76,17.01,49.81,27.74,71.48l7.81,13.44c-.21-4.5.35-9.11,0-13.61-1.74-22.2-8.41-46.94-10.88-69.81-1.3-12.01-1-25.64-2.32-38.02-3.58-33.43-11.68-66.94-14.03-100.46-.33-4.77-.66-30.61.98-32.78.68-.89,1.68-1.5,2.82-1.58,2.96,0,4.61,5.26,5.4,7.72,2.43,7.58,3.31,17.06,5.49,25.04,7.82,28.57,22.21,55.02,31.4,83.09,6.26,19.13,7.96,43.41,17.32,61.18,3.55,6.74,9.98,13.27,13.48,20.32,11.31,22.75,12.96,42.33,19.34,65.71,3.3,12.09,9.67,22.91,16.06,33.55Z"/>
  <path d="M283.5,1116.55c-.5-2-.98-3.85-1.14-5.95-.81-10.33-2.09-35.16-1.05-44.77s6.56-21.57,8.43-31.91c1.96-10.84,1.91-20.84,5.21-31.86,2.74-9.13,5-18.53,16.79-16.47.88-.78.26-20.45.1-23.33-1.59-27.8-6.06-49,1.36-77.17.5-1.89,1.31-3.93,3.59-4.15,7-.64,10.95,15.35,11.43,20.79,2.53-1.22,3.01-6.72,3.24-9.29,1.37-15.48-1.49-37.34.03-51.19.2-1.82,2.23-2.69,2.01-5.2-.27-3.15-6-14.49-7.49-18.81-4.66-13.48-9.85-28.17-13.83-41.78-1.47-5.04-3.7-21.84-5.99-25.09-1.01-1.44-7.94-.71-3.52-8.84,7.11-13.07,13.95,17.34,15.21,21.68,8.46,28.91,19.78,56.35,28.06,84.25,8.33,28.07,13.01,53.63,23.96,81.81,3.57,9.18,10.59,20.38,13.37,29.16,4.4,13.89-1.05,16.86,11.44,28.9,2.61,2.51,15.2,13.06,17.8,13.91,5.53,1.81,10.52-5.42,16.4-3.43,2.03.45,2.45,5.01,1.64,6.27-.58.9-15.1,5.67-17.56,5.39-8.4-.98-28.15-20.57-33.34-27.81-2.84-3.96-5.32-10.22-8.33-13.48-4.1-4.46-11.53-5.85-16.13-9.74-8.15-6.89-18.26-27.11-24.56-36.8-6.78-10.42-6.85-6.74-10.08-20.47-.39-1.68.74-1.9-2.16-1.64-.5,6.66-2.3,13.51-2.25,20.22.15,20.58,3.81,41.48,4.47,62.06.14,4.54-1.53,11.87-.94,15.04,1.96,10.42,14.7,22.74,19.62,31.71,4.75,8.64,5.73,19.65,9.57,27.5,2.91,5.96,10.52,17.28,14.42,23.75,7.41,12.32,16.46,23.72,22.71,36.71h-102.5Z"/>
  <path d="M446.21,920.03c1.22,1.26,9.51,3.54,10.77,1.78,4.25-7.69,2.72-37.91,7-42.93,3.27-3.84,8.57-1.94,11.25,1.77,1.8,2.49,6.76,11.59,8.24,14.66,9.29,19.27,16.39,43.45,21.75,64.39,2.47,9.67,2.5,17.24,6.44,27.36,10.66,27.4,27.21,58.79,34.32,86.72,1.96,7.71,2.77,20.12,4.89,26.73.57,1.77,2.95,2.54,3.1,4.63.58,4.78-7.76,6.33-9.63,1.9-1.69-3.98-1.62-13.02-2.72-17.99-3.78-17.15-9.06-32.37-15.86-48.48s-14.74-33.56-21.68-50.28c-6.86-16.52-9.06-41.17-15.3-59.94-4.8-14.45-11.73-27.76-17.75-41.68-1.44-.29-1.71,1.98-1.89,2.98-2.32,12.61,1.6,39.35-16.11,38.51s-15.67-16.34-19.56-29.55c-9.88-33.52-22.4-69.21-37.68-100.59-.34-.7-1.97-.63-2.16-1.51-1.29-5.86,3.48-7.88,7.67-4.2,2.11,1.86,10.63,22.4,12.49,26.76,10.1,23.71,19.81,51.75,27.06,76.53,1.09,3.71,3.87,20.88,5.38,22.43Z"/>
  <path d="M753.29,391.28l-4.52,1.1c-4.78-1.1-2.52-12.58-2.96-16.73-2.23-21.08-11.77-46.23-20.51-65.63-10.52-23.37-31.59-46.88-44-71.58-7.46-14.84-12.36-32.83-17.27-48.72l-6.37.93c-1.02-3.23-2.97-6.48-3.98-9.64-11.54-36.15-22.54-74.65-29.68-112.07-.92-4.82-3.55-14.89,4.46-12.09l32.63,96.04c10.21,39.7,22.59,76.09,43.51,111.33,9.01,15.17,20.13,25.5,27.58,42.2,4.73,10.59,10.91,25.83,14.48,36.77,5.05,15.48,7.96,31.72,6.64,48.09Z"/>
  <path d="M549.29,471.87c-2.17,2.18-7.55,1.72-8.36-1.59-.53-2.19,2.49-3.81,2.1-7.3-1.45-12.73-6.39-34.24-9.27-47.56-1.74-8.02-6.08-18.17-6.98-25.73-6.55-55.08,2.74-116.02-2.32-171.05-1.5-16.35-10.5-32.25-16.08-47.16-1.4-3.74-7.37-17.1-.78-17.8,4.98-.53,6.11,10.56,7.63,14.23,6.52,15.78,16.12,35.9,17.84,53.04,4.71,47.05-2.31,102.06.14,150.33,1,19.62,7.44,42.98,11.17,62.98,1.25,6.74,9.06,33.48,4.92,37.63Z"/>
  <path d="M737.77,774.25c7.3-2.37,6.4,11.74,7.28,16.5,3.87,20.94,7.49,42.29,12.19,63.05,10.28,45.4,27.53,84.16,32.25,131.3.22,2.15,3.85,6.58-.78,8.12-7.93,2.63-6.53-9.61-7.04-13.38-8.78-64.83-40.11-129.13-45.51-195.45-.19-2.39-1.16-9.24,1.62-10.14Z"/>
  <path d="M790.14,725.23c4.3-1.43,8.35,3.16,9.06,7.01,1.61,8.74-.57,22.94.06,32.65,1.64,25.33,10.44,53.11,14.02,78.66,1.63,11.62,5.41,37.36,3.41,47.84-.42,2.17-1.73,3.02-3.82,3.42-7.22-.02-3.58-16.86-3.83-21.95-1.71-35.71-15.45-72.97-17.48-107.91-.52-8.99,1.36-21.08,0-29.43-.46-2.83-6.24-8.68-1.42-10.28Z"/>
  <path d="M807.54,937.81c1.19-.39,2.65-.22,3.73.43,1.82,1.1,4.92,18.58,5.29,21.97,2.87,26.44,4.71,51.79,10.25,78.08,1.2,5.72,8.38,27.1,7.18,30.64-.46,1.36-1.8,1.95-3.02,2.41l-2.69-.64c-.84-.38-1.2-1-1.53-1.82-2.84-7.11-5.82-21.53-7.56-29.5-5.83-26.64-7.58-51.29-10.24-78.08-.42-4.2-6.18-21.92-1.39-23.49Z"/>
  <path d="M347.02,763.55c2.78-2.79,6.35.38,7.82,3.07,5.82,10.67,10.14,29.2,15.37,41.33,6.22,14.45,21.33,38.93,24.27,53.15.99,4.78,1.51,16.1-5.83,11.27-6.17-4.06-3.24-9.65-4.21-14.23-3.08-14.43-17.01-37.25-23.24-52.08-5.32-12.67-8.81-26.13-15.06-38.43-.44-1.32-.06-3.13.89-4.09Z"/>
  <path d="M268.39,871.04c-.6-.99.12-3.83-.4-5.56-9.97-33.12-26.89-64.66-34.45-98.59-1-4.48-5.92-9.63,4.19-8.57,4.29,4.13,3.23,10.68,4.61,15.03,9.63,30.44,23.2,59.62,33.28,89.93,3.28,5.49-4.47,12.25-7.22,7.76Z"/>
  <path d="M442.43,845.87c-1.47,1.51-5.19,1.43-6.31-.58-1.04-1.88,1.38-11.88,1.15-16.1-.54-9.97-10.86-35.09-16.99-42.97-1.9-2.44-4.22-3.1-6.41-6.67-6.96-11.33-5.95-22.12-8.35-34.17-.47-2.39-4.61-6.54.87-8.12,8.28-2.39,7.34,16.31,8.23,20.82,3.87,19.77,22.11,35.99,28.11,58.03,1.73,6.37,4.39,24.94-.3,29.76Z"/>
  <path d="M778.13,778.59c4.67-1.39,7.84,9.48,8.82,12.78,8.86,29.76,10.07,63.68,18.67,93.75-3.38,9.4-7.36,4.28-9.14-2.97-7.08-28.79-9.46-59.93-16.92-88.84-.88-3.42-7.11-13.03-1.43-14.72Z"/>
  <path d="M797.06,1116.54l-6.94-.13-1.57-1.7c-8.47-33-19.08-65.32-24.16-99.16-.63-4.89,6.69-5.22,7.69-1.04,5.11,34.9,16.42,68,24.98,102.04Z"/>
  <path d="M242.93,712.26c2.46,1.4,4.92,19.66,6.23,23.73,6.09,18.86,18.88,37.55,22.96,57.73.58,2.85,1.7,13.12-1.3,14.11-9.09,3.03-6.43-10.42-7.14-14.3-3.53-19.14-15.74-36.8-21.67-54.75-1.93-5.83-2.32-13.97-4.39-19.38-.6-1.56-6.02-3.34-1-6.84,1.52-.71,4.9-1.11,6.31-.31Z"/>
  <path d="M504.57,121.84c-3.18,3.73-9.11-1.59-11.75-3.74-1.34-5.41,3.14-5.48,3.38-6.53.52-2.34-5.71-17.36-6.91-21.32-4.7-15.57-9.48-30.91-14.9-46.16-.73-2.04-6.91-8.36-1.56-10.16,8.89-2.98,9.71,13.56,11.59,18.66,6.59,17.79,13.91,35.79,18.78,54.27.97,3.68,3.95,11.95,1.36,14.98Z"/>
  <path d="M277.71,792.92c6.97-2.15,10.15,2.61,11.83,8.46,3.59,12.47,6.09,33.11,7.99,46.53,1.11,7.89,3.16,19.65,3.46,27.17.17,4.42-2.33,6.81-6.13,3.85-3.26-2.53-4.13-23.38-4.96-28.83-2.39-15.62-5.52-31.19-7.65-46.87l-.86-1.32c-7.67,1.17-10.02-7.03-3.67-8.99Z"/>
  <path d="M418.55,958.28c-2.46,1.34-6.33,1.86-7.81-1.22l-19.3-70.58c-10.08,9.89-11.96-5.99-3.58-8.5,6.14-1.83,8.72,1.08,10.65,6.34,6.86,18.63,12.42,44.4,17.67,64.11.81,3.05,4.05,5.72,2.37,9.85Z"/>
  <path d="M487.06,11.02c2.66-.67,3.82,1.63,4.91,3.49,4.98,8.47,22.88,48.82,23.61,57.05.23,2.58.21,8.2-2.79,8.97l-3.61-.35c-3.46-3.46-1.16-7.57-2.19-11.91-3.74-15.79-16.69-35.02-22.62-50.58-.99-2.32.16-6.03,2.68-6.67Z"/>
  <path d="M705.48,602.99c0,1.89,4.77,1.2,6.04,1.13,4.74-.26,14.95-2.87,18.57-.14,2.73,2.06,1.6,5.25-1.4,6.41-5.87-.43-28.54,4.1-31.47-.88-.86-1.46.47-3.16,0-4.39-.62-1.61-5.1-3.7-1.59-7.08,1.99-1.91,22.47-6.56,25.63-5.99,4.2.76,3.41,4.83.54,7.09-4.5,3.55-11.17,2.04-16.32,3.85Z"/>
  <path d="M547.91,628.06h33.8c3.17,0,3.17,7.63,0,7.63h-32.71c-.59,0-1.59,1.74-3.79.62-4.41-3.92-2.24-6.85,2.7-8.25Z"/>
  <path d="M663.49,620.42c-3.06-.31-15.85-3.32-17.96-4.94-3.58-2.75-2.28-6.68,1.64-7.07,2.6-.26,15.36,3.7,19.73,4.24s15.34-1.88,15.29,3.96c0,1.01-1.81,3.81-2.33,3.81-5.16,0-11.39.5-16.36,0Z"/>
  <path d="M487.11,659.4c-3.69,3.87-28.4,6.88-29.23,2.88-1.78-8.52,13.87-5.12,19.96-7.26,2.9-1.02,4.92-3.89,6.87-4.12,4.93-.58,4.65,6.14,2.4,8.49Z"/>
  <path d="M515.6,635.55c-3.46,1.95-7.54.69-11.04,1.49s-10.6,4.86-13.2,2.96l-1.85-2.69c-.2-1.89.34-2.64,1.81-3.69,3.68-2.62,19.9-6.49,23.41-3.99l.87,5.93Z"/>
  <path d="M684.93,638.03c3.32-.64,6.8.29,10.12-.23,3.61-.57,7.57-5.43,10.51-1.66,7.47,9.57-27.41,14.94-20.64,1.89Z"/>
  <path d="M246.28,482.1c2.6,5.75.1,12.24,1.95,18.21,1.1,3.54,4.17,5.05,6.03,8.14,6.72,11.16,5.45,21.78,7.68,33.76,1.06,5.66,10.04,22.39-2.18,19.09-7.48-14.9-4.24-36.2-12.87-49.84-1.18-1.87-3.47-3.08-4.68-5.14-3.82-6.48-2.07-15.33-2.19-22.59.77-2.34,4.22-2.07,6.25-1.64Z"/>
  <path d="M237.84,531.16c2.03-.44,5.47-.7,6.25,1.64-1.53,8.74,1.83,14.04,3.73,21.35,1.58,6.07,9.36,31.12,8.21,34.96s-5.45,3.37-7.2.01l-11.52-40.82c-1.01-2.81-1.3-16,.53-17.14Z"/>
  <path d="M123.23,314.03c-.21-1.72-1.33-3.38-2.37-4.72-7.01-8.98-12.94-18.67-20.56-27.41-2.3-2.64-14.16-13.12-13.98-15.09l10.19-18.17c3.51,5.56,4.87,12.19,8.36,17.79,1.47,2.36,8.5,12.18,10.13,13.86,3.19,3.27,5.05,1.94,7.39-1.43l20.45-38.95,7.38,23.25c-5.85,8.68-7.42,18.63-12.25,28.01-4.11,8-9.92,15.3-14.73,22.87Z"/>
  <path d="M125.84,152.19c-2.2-1.66-3.68-4.73-7.62-1.81-1.44,1.07-4.76,9.31-6.56,11.98-3.05,4.53-11.54,16.59-15.13,19.76-.95.84-1.22,1.4-2.74,1.06-.13-4.35-6.36-9.63-5.32-13.39.51-1.85,11.1-12.93,13.39-16.15,7.23-10.17,13.36-22.4,20.82-32.59l34.08,48.83c2.99,5.15-3.5,8.19-6.28,11.7-1.43.64-2.93-1.93-3.72-2.86-7.66-8.93-10.76-18.86-20.91-26.53Z"/>
  <path d="M135.2,218.08l4.14,12.35-22.13,38.88c-8.54-8.6-10.85-20.14-16.45-30.5l7.72-18.52c1.95.01,4.94,20.44,17.43,8.69,1.52-1.43,7.41-12.62,9.27-10.89Z"/>
  <path d="M124.21,160.37l20.31,27.21c1.89,2.8-5.84,14.87-8.2,13.04-.1-1.29-.55-2.55-1.28-3.61-3.01-4.37-8.32-14.2-13.28-13.72l-11.54,19.92-2.25.68c-.39-4.35-8.25-10.6-7.22-14.2,1.73-6.03,17.68-20.11,20.3-27.76l3.16-1.57Z"/>
  <path d="M95.94,230.07c-1.43,1.11-10.85-15.12-11.97-16.9l9.82-14.71c2.8-1.97,8.43,10.88,9.53,12.68l-7.38,18.93Z"/>
  <path d="M121.01,223.52l-2.23-.66-5.15-11.68,10.13-15.98c13.16,12.52,3.52,16.46-2.75,28.32Z"/>
  <path d="M151.54,197.37c.18.15,1.82,3.95,1.68,4.34-.47,1.36-3.1,3.82-4.03,5.82-1.43,3.08-2.41,7.52-3.92,10.24-.69,1.23.08,1.85-2.42,1.4l-3.11-9.11c2.06-2.98,5.11-5.09,7.47-7.78,1.07-1.23,2.37-6.6,4.33-4.91Z"/>
  <path d="M304.23,113.41l8.55,13.78c3.45,9.87,8.96,18.67,13.24,28.19,1.39,3.1,8.82,19.85,8.56,21.56-.23,1.52-3.96,6.74-5.3,5.73-1.23-2.63-3.75-4.4-5.26-6.75-3.34-5.2-8.4-19.24-12.12-22.77-7.33-6.97-9.48,10.88-11.52,15.84-1.45,3.52-10.98,22.29-14.01,21.75l-6.97-7.13c.54-2.9.99-5.91,1.76-8.76,3.59-13.36,10.53-33.55,15.71-46.44,2.11-5.26,4.97-9.91,7.37-14.99Z"/>
  <path d="M307.49,320.57c-.34-3.16-1.76-6.59-3.09-9.46-5.53-11.92-12.49-22.21-18.94-33.39-1.65-2.85-6.51-7.25-6.17-9.76l8.56-14.98,13.04,28.66,3.01,1.66c.88.21,1.69.04,2.53-.22,4.82-1.49,16.1-27.5,22.86-31.19l4.21,29.72c-8.47,11.3-14.31,26.1-22.92,37.15-.94,1.21-1.09,2.26-3.08,1.82Z"/>
  <path d="M318.38,220.26l6.37,22.07-18.9,28.06-15.28-28.44,9.83-23.86c1.78,0,9.35,16.66,13.71,10.43,1.75-2.5.21-7.08,4.27-8.26Z"/>
  <path d="M319.47,201.71l-7.13-15.2c-.81-2.18-5.39-3.07-6.89-2.1-1.05.68-5.36,17.54-8.32,19.48-.32.15-3.53-5.58-3.59-6.15-.26-2.48,8.34-14.42,10.16-17.81,2.49-4.67,3.9-9.64,6.53-14.19l14.58,24.78-5.33,11.19Z"/>
  <path d="M328.75,200.65c1.32-.02,10.28,17.06,10.28,19.06,0,1.78-5.83,12.24-7.02,12.54-1.87.46-2.19-1.51-2.7-2.74-.92-2.26-6.28-15.72-6.37-16.61-.2-2.11,4.77-12.23,5.8-12.25Z"/>
  <path d="M284.6,232.25l-5.29-11.25,9.09-16,5.68,7.07c-1.07,1.5-8.07,21.25-9.48,20.18Z"/>
  <path d="M310.74,216.98c-9.02-4.94-6.53-11.26-1.61-18.53,1.88,7.78,7.29,11.02,1.61,18.53Z"/>
  <path d="M200.31,110.35c11.28-3.29,19.09,5.7,24.79,14.01,19.09,27.83,9.86,65.1,8.25,96.45-.98,19.23,2.65,41.3-4.92,59.41-2.4,5.75-18.45,30.86-24.15,31.39-5.77-.79-12.43-9.37-14.77-14.27-1.51-3.16-1.31-5.84-2.24-8.66-.59-1.79-2.8-2.54-3.02-4.65-.81-7.98,3.9-26.47,4.42-35.93,2.05-37-4.7-78.77-1.13-114.52.6-6,6.55-21.42,12.75-23.23ZM212.48,257.18c2.23-1.39,1-31.1,1.24-36.37.9-19.76,4.84-45.99,2.22-65.49-.92-6.82-6.89-6.17-7.68,1.12-1.28,11.7.5,26.07.04,38.23-.32,8.63-2,18.52-2.28,27.16-.36,11.2.24,22.5.2,33.7.77,2.34,4.22,2.07,6.25,1.64Z"/>
</svg>