<?xml version="1.0" encoding="UTF-8"?>
<svg id="illustration" data-name="illustration" fill="currentColor" xmlns="http://www.w3.org/2000/svg" viewBox="0 0 1117.09 1117.09">
  <path d="M0,200.63c3.5-.54,2.63-4.76,5.94-7.69,5.59-4.96,15.99-3.71,17.01,3.82.7,5.21-.45,11.75.08,17.37.45,4.8,1.7,17.98,8.27,12.33,3.26-6.36,9.48-11,13.21-16.76,3.5-5.42,13.4-32.61,15.46-33.6,4.6-2.21,13.7,1.41,17.41,4.4,11.14,8.97,8.68,37.26.03,46.84-19.94,22.08-32.75,22.94-37.06,57.8-3.11,25.13.7,35.44,4.23,59,3.72,24.89,1.13,54.01,4.48,79.48.67,5.08,7.75,19.86,12.48,12.46,1.79-2.79,3.59-15.21,3.87-19.03,3.3-44.87-9.84-91.27-3.14-137.26,1.63-11.21,6.65-30.47,21.64-21.87,12.69,7.28,19.68,25.09,19.68,39.2v38.71l12.54-14.18c16.74-9.21,21.04,10.49,19.01,23.37-.43,2.75-2.73,6.18-4.34,8.49-6.44,9.26-26.83,26.26-28.21,36.38-2.9,21.36,2.85,51.08,4.31,72.91.91,13.72-1.93,27.55,3.24,40.93,3.06.41,3.07-2.45,3.65-4.51,3.6-12.85.38-45.47,13.8-51.62,4.63-2.12,11.1.66,14.17,4.32,12.01,14.32,1.47,50.1,10.63,66.77.69,1.26-.05,1.83,2.43,1.39,17.21-43.39,7.21-91.58,17.78-136.52,2.03-8.64,8.88-27.84,21.01-20.57,6.49,3.88,14.77,35.19,16.48,43.49,3.04,14.8,4.17,29.91,5.81,44.91,3.06-.68,4.83-4.12,7.36-5.17,4.46-1.85,7.83.14,11.61-.29,8.64-.99,13.42-25.54,23.23-27.06,12.94-2.01,16.57,23.28,15.58,31.98-2.28,20.02-27.27,25.84-35.77,41.64-3.13,5.82-10.29,29.36-9.8,35.46.31,3.87,3.02,8.66,3.81,12.63,10.15,50.56,20.11,103.54,35.98,152.66.5,1.54,4.31,13.12,6.86,11.12,5.89-27.52,32.16-12.18,38.11,6.06,9.61,29.43,9.98,67.26,13.16,98.06,2.24,21.71,3.95,43.79,6.54,65.43,2.54,21.26,8.69,42.27,11.86,63.38,1.38,9.2.59,19.82,2.59,29.04,6.63,30.62,20.45,62.36,27.54,93.49,4.3,18.91,5.78,38.36,12.52,56.71H0S0,200.63,0,200.63Z"/>
  <path d="M475.4,0c-13.71,12.25-25.95,28.37-22.37,48l14.25,5.11c7.77-13.47,23.36-22.96,36.82-30.39,16.32-9.01,36.07-14.44,53.07-22.71h16.36c-3.99,3.67-8.45,6.72-13.44,8.92-26,11.47-50.32,17.68-73.72,35.31-1.43,1.08-10.9,8.45-8.79,10.28,37.47,5.53,74.26-7.39,108.8-20.4,7.62-2.87,14.95-7.25,21.15-9.38,11.39-3.91,38.52-7.67,50.2-5.9,8.54,1.29,19.09,3.99,26.28,8.61,18.84,12.11,26.38,26.18,26.9,48.35.91,38.73-22.69,73-49.04,99.21l49.78,17.8,36.89,25.27,1.62-2.17c13.34,32.93,16.29,64.74,5.78,98.99-12.42,40.48-50.06,62.84-88.07,75.49-6.79,2.26-17.41,3.6-23.19,6.28-.82.38-2.08.17-1.36,1.86,2.83,6.56,21.93,16.69,27.83,22.34,3.49,3.34,15.18,17.18,12.35,21.69-5.7,2.83-11.45.43-16.19-3.12-1.06,4.99,5.03,10.92-1.69,13.15-4.22.67-5.12-2.72-8.13-4.42-.52,5.44,2.99,8.75-2.03,12.75,1.78,16.39,12.04,29.94,21.25,42.71,2.09.4,10.05-7.09,12.7-8.81,16.04-10.43,41.42-22.28,50.08,2.74,4.3,12.4.83,27.86-7.3,37.86-6.33,7.78-15.93,13.01-21.29,21.23,0,2.08,13.52,21.32,17.42,21.86,2.92,2.62,7.55,11.27,6.65,15.05l-5.51,1.33c-3.87-3.81-3.83-9.88-9.82-11.51l5.3,18.85c-1,3.61-5.37,2.37-6.24,3.19-.58.55.63,2.4-1.52,3.42-4.79,2.25-11.56-3.77-13.37-8-2.67-6.24-2.52-15.13-4.4-20.68-1.03-3.04-7.04-8.53-8.68-12.02-14.64,11.49-33.18,15.82-47.25,27.97-.2,3.03-.86,22.92,1.48,23.26,26-10.2,53.91-2.65,65.83,23.56,21.36,46.98-7.03,89.53-43.57,117.58-3.14,2.41-12.49,6.37-13.04,9.94-.46,3.03,1.89,16.34,2.71,20.15,1.95,9.07,6.31,20.26,12.94,26.86,3.78,3.77,12.95,6.51,10.01,14.55-5.7,4.48-10.99,4.17-17.07.68-11.59-6.64-11.79-15.73-17.96-25.66-.77-1.24-5.42-7.64-6.18-8.53-1.01-1.18-6.63-2.77-8.67-4.66-5.16-4.8-2.82-13.43-1.94-19.64l-27.13,4.48c-.39,10.94-.95,20.64,3.12,30.99.99,2.51,3.62,4.87,4.13,6.78,2.77,10.45-5.52,19.94-8.99,29.75-3.17,8.96-3.99,18.43-9.07,26.91-2.22,3.7-14.47,19.86-16.56,8.46-1.13-6.12,6.35-19.67,8.4-26.43,4.58-15.14,3.89-56.23.29-71.65-.3-1.27.8-2.05-1.48-1.52-4.75,1.09-16,5.62-19.59,8.78-5.55,4.89-5.01,12.46-11.07,17.28-10.48,8.33-24.5,8.38-33.73,20.79-8.26,11.1-16.06,22.94-25.66,33.22-16.5,17.66-46.74,33.65-57.29,53.92-5.56,10.68-7.78,19.76-2.96,31.34,3.14,7.55,22.33,15.99,30.01,14.23,4.73-1.08,12.74-14.99,16.57-19.4,7.72-8.88,31.36-31.62,42.53-32.7,16.08-1.56,17.13,10.5,15.8,23.43-.59,5.81-3.47,11.33-7.14,15.78-10.77,13.06-32.05,28.09-49.01,29.58-3.35.29-7.52-2.66-9.6,1.28-3.61,6.84-6.18,24.96,1.04,30.08,1.93,1.37,13.56,6.72,15.13,5.71,5.93-3.83,13.31-14.81,19.63-19.7s22.71-10.7,26.33-.24c4.96,14.35-5.58,24.03-17.45,29.83-9.38,4.59-14.63,2.98-24.7,2.51-6.85,9.68-24.69,38.73-20.65,49.89.13.37,3.79,4.15,4.78,4.1,10-8.65,25.15-29.26,40.18-24.84,3.49,1.03,3.04,5.12,3.01,7.98-.22,18.24-27.74,34.2-44.54,32.38l-14.92,19.47-9.3-.09,16.24-22.56c.86-3.32-6.37-8.6-7.25-12.04-4.59-17.87,14.96-41.39,21.54-56.97-10.06-1.61-21.41-4.5-27.73-13.16-8.93-12.22-3.97-23.47,1.57-35.9-35.96-2.72-45.91-34-32.21-64.39,6.56-14.54,16.13-21.51,25.65-33.23,12.15-14.96,25.51-34.21,33.96-51.09,11.62-23.23,39.71-21.27,52.01-39.58,7.07-10.52,10.87-23.17,24.4-27.94,3.29-1.16,18.48-3.61,19.22-6.85l-9.64-47.34c-11.22,4.1-20.56,10.99-32.47,13.86-18.58,4.48-36.26,5.06-44.37-14.97-4.01-9.91-4.94-17.29-1.42-27.54,11.29-32.86,35-58.64,63.52-77.14,8.29-5.38,16.14-4.31,13.66-17.42-22.17,3.4-43.71-2.24-64.33-9.8-1.07,5.16,4.61,20.83,2.73,24l-4.7,1.47-4.57-3.66c-1,4.74-4.71,14.79-10.36,15.18-4.04.28-2.79-3.68-6-3.2l-1.36,5.21-5.2-.26c-3.07-3.6,1.5-19.21,3.43-23.88,1.74-4.22,11.36-19.3,10.83-21.83-35.67-13.23-54.07-38.51-42.3-77.24,2.8-9.21,6.94-12.42,10.62-19.11,7.11-12.95,10.7-24.41,23.42-34.08,17.05-12.95,39.6-28.04,60.27-34.59,6.64-2.1,14.1-2,20.84-3.68-1.78-17.89-4.3-39.03,2.08-56.27,2.72-7.36,6.02-10.69,14.1-12.06,6.23-1.06,23.8.95,29.41,3.88,1.44.75,17.41,16.32,18.86,18.22,3.74,4.91,6.28,12.22,8.86,17.85,1.58,1.01,21.64-8.12,23.28-9.71,5.51-5.33,11.38-23.26,11.54-31.01.82-38.19-43.4-35.48-69.89-41.43-29.77-6.7-49.35-17.59-82.33-15.89-10.46.54-21.18,3.65-32.08,2.27.98,7.09-5.12,5.28-9.52,7.38-5.09,2.44-8.9,6.71-13.51,9.39-19.28,11.2-48.02,23.45-70.31,15.97-7.46-2.51-4.56-4.47-6.76-9.6-1.73-4.03-7.44-6.8-9.55-13.35-11.21-34.78,1.31-72.19,32.92-90.33,16.08-9.22,61.27-24.86,79.37-26.4,13.04-1.11,36.68,2.57,47.75-.23,4.92-1.25,20.48-12.84,26.25-16.28,15.11-8.99,31.16-17.27,42.2-32.23,2.91-3.95,4.52-13.42,7.12-17.66,4.08-6.68,9.59-12.66,13.76-21.14,2.77-5.64,16.4-30.58,3.65-31.18-3.39-.16-26.35,11.34-30.77,13.87-38.19,21.87-96.2,64.53-142.67,46.05-27.14-10.79-19.45-39.87-11.13-61.37,3.3-8.54,2.52-11.58,4.6-19.39,2.07-7.81,11.97-19.56,16.94-26.13h13.08ZM550.64,165.73c6.31.31,12.76-.39,19.07.02,24.17,1.57,51.63,8.77,75.25,8.81,4.62,0,8.09-3.31,11.46-6.08,40.71-33.47,78.45-129.17.45-141.13-14.13-2.17-26.82,3.17-40.8,4.29l19.06,10.91c10.9,10.75.89,25.86-4.48,36.92-12.42,25.57-25.2,49.9-48.48,67.1-9.93,7.34-22.92,9.95-31.53,19.16ZM613.88,42.51c-1.48-3.17-8.48-2.51-11.5-2.22-16.58,1.59-36.91,11.44-53.69,16.09-28.59,7.93-52.63,10.85-82.28,5.49-7.21-1.3-14.9-3.47-20.43-8.45-1.87,11.3-8.61,32.88,1.61,41.45,3.64,3.05,16.98,7.12,21.83,7.61,28.88,2.92,73.22-19.41,97.93-33.98,15.23-8.98,29.04-21.16,46.53-25.99ZM644.33,182.24c-25.43.35-50.38-6.55-75.65-7.83-15.39-.78-31.25.79-45.81,0-37.56-2.02-78.62,6.39-111.81,24.55-28.44,15.56-41.93,50.12-29.99,81.27,1,2.61,3.49,4.74,5.63,6.44,12.59-10.22,27.12-13.67,42.65-17.09,27.36-6.03,55.67-6.45,83.64-7.96,33.62-1.82,54.12,8.69,84.75,15.66,14.14,3.22,51.07,6.68,60.88,15.44,15.4,13.75,18.99,35.41,11.69,54.26-6.73,17.37-13.69,19.85-29.51,27.19-28.98,13.44-60.49,23.28-91.18,32.03-28.37,8.09-45.05,17.77-68.2,35.38-14.14,10.75-24.8,34.66-23.43,52.33l7.81-14.53c13.12-18.53,27.07-34.51,47.45-45.24,15.74-8.29,31.49-9.54,47.52-15.73,4.65-1.8,13.12-7.6,16.9-8.3,3.48-.65,4.35,2.14,7.06,1.86,24.13-2.48,43.25-16.1,64.1-24.35,16.48-6.52,38.03-10.17,53.31-19.75,39-24.45,56.98-61.36,52.3-107.72-.32-3.13-5.67-26.64-6.69-27.67-.66-.67-3.02-.45-4.22-1.81-1.75-1.99,1.38-4.24-4.8-9.34-5.21-4.3-26.96-18.88-32.84-21.67s-48.88-17.22-53.08-16.55c-.8.13-1.05,4.2-6.23,2.85-2.39-.62-2.15-1.49-2.22-3.76ZM466.68,272.61c-2.65-.1-5.26-.12-7.9.27-14.15,2.05-43.07,7.43-55.38,13.31-2.78,1.33-14.32,7.74-9.51,11.26,14.97,3.99,33.51-2.1,47.37-8.3,8.86-3.97,17.92-10.42,25.43-16.54ZM544.1,431.8c-20.58,3.78-41.45,15.73-55.64,31.04-6.41,6.92-20.64,25.28-22.77,33.93-3.37,13.74-2.09,25.54,11.64,31.77,3.21,1.46,6.88,1.78,9.94,3.14,1.88.84,9.12,6.48,9.92,5.87,4.01-13.06,7.38-26.59,12.25-39.55,6.31-16.8,13.82-34.59,21.02-50.95,2.96-6.72,8.91-10.12,13.63-15.25ZM562.63,551.72l-16.34-78.49c-4.03,10.21-7.86,23.48-13.74,32.61-3.5,5.44-8.76,9.47-12.13,15.13-1.61,2.69-11.13,24.38-10.13,25.31l52.33,5.45ZM630.25,532.1c4.19-.78,24.28-9.24,24.93-12.69-4.99-12.03-12.59-22.53-20.04-33.1l-4.89,45.79ZM699.07,536.63c-1.48,2.53,6.58,12.11,7.96,11.8,12.1-11.55,28.07-21.45,26.72-40.69-.41-5.8-4.42-17.84-11.92-17.05,5.41,17.47-8.47,37.38-22.76,45.95ZM683.69,516.83l18.12-10.74c7.35-4.21,18.18-1.41,11.83-13.3-1.59-1.8-11.13,3.08-13.26,4.24-2.96,1.61-18.98,12.44-18.92,14.88.04,1.65,2.29,3.07,2.22,4.92ZM492.7,544.28c-8.12-6.85-20.41-7.35-28.18-14.92-5.21-5.07-7.57-13.2-11.15-19.38l-4.12-13.85c-4.34,16.6-2.17,30.71,9.24,43.62,8.18,9.26,18.47,13.56,29.46,18.5l4.74-13.97ZM710.92,511.39c-1.48-1.35-22.76,8.92-21.64,14.44.52,2.57,3.43,5.95,6.35,4.64,6-2.69,12.59-13.08,15.29-19.08ZM662.94,533.17l-3.79-6.46c-8.95,6-18.47,10.78-28.95,13.55l.09,5.98c11.52-2.65,22.45-7.36,32.66-13.07ZM669.49,545.17l-3.81-5.42c-10.07,8.12-23.5,10.85-35.44,15.26l2.19,7.62c1.54,1.34,17.96-9.58,21.05-11.1,2.28-1.12,15.38-5.54,16.01-6.36ZM681.95,558.91c-2-2.59-4.06-5.03-6.45-7.28l-1.69-.54c-6.18,3.66-13,5.82-19.42,8.98-50.73,24.97-112.98,39.98-144.99,90.53-3.47,5.48-13.42,24.18-14.95,29.76-2.18,7.94-.61,16.07,2.89,23.35,6.43,13.4,20.18,10.55,32.58,8.29-13.65-12.87-10.83-28.21-4.2-43.99,2.87-6.84,10.04-17.83,15.05-23.11,12.5-13.19,46.58-21.64,63.64-31.23,17.35-9.76,36.6-23,51.7-35.81l28.56-14.27c.7-2.68-1.81-3.51-2.72-4.68ZM563.47,573.28c1.63-1.84,2.22-11.07-.18-12.93-3.27-2.54-17.26-1.55-21.91-2.08-11.6-1.33-22.99-4.11-34.73-4.4l-4.01,10.39c9.2,6.04,54.24,16.45,60.83,9.03ZM485.67,853.13c11.62-10.48,15.28-16.9,24.14-28.74,11.38-15.19,26.51-14.03,35.94-22.94,6-5.67,3.57-14.54,16.3-20.77,6-2.94,29.59-7.12,37.42-8.38,27.81-4.45,38.89-.53,63.37-18.4,33.51-24.46,59.49-64.39,41.27-106.51-11.43-26.41-40.13-30.54-63.54-17.17l-.53,21.82c33.69-11.19,45.01,20.7,32.57,47.3-19.74,42.19-58.01,50.3-97.76,62.52-12.95,3.98-20.84,5.34-29.03,16.76-4.81,6.71-7.45,15.51-13.68,21.21-12.75,11.66-35.99,12.74-44.94,30.29-5.85,11.48-8.43,15.48-15.34,26.1-2.18,3.34-5.82,9.45-5.73,12.8,6.49-5.33,13.32-10.28,19.54-15.89ZM596.44,630.78c-.61,5.29.45,11.49,0,16.9l8.77-7.09-4.48-14.67-3.2-.05c.66,1.85-.96,3.73-1.1,4.91ZM565.9,638.97c-16.95,7.14-31.32,22.77-36.14,40.72-1.48,5.49-3.03,11.54-.89,17.03,13.61-4.03,24.31-14.23,33.16-25.11l3.87-32.64ZM608.42,649.87l-13.6,7.65-3.82,23.97c7.11-4.83,14.21-10.29,21.67-14.3l-4.24-17.31ZM654.82,712.64c4.32-5.42,12.77-19.19,14.14-25.69,4.41-20.83-8.58-38.25-28.73-24.46l10.73,52.79c1.82.53,2.88-1.42,3.86-2.65ZM600.8,745.82c1.65,1.67,25.35-9.09,28.23-11.62,1.75-6.27-10.47-28.38-11.59-36.1-.58-3.98,1.43-24-1.91-24.22-4.12,4.87-23.82,13.58-24.57,19.11-.66,4.88,7.33,23.02,8.45,30.78.98,6.83.63,15.04,1.4,22.05ZM562.34,697.56c2.41-2.91-.03-10.36-.25-13.89-6.56,9.57-18.17,12.87-26.44,19.31-.9.7-1.99-.02-1.37,2.48,3.44.86,5.15,2.74,8.99,2,1.05-.2,18.38-9.07,19.06-9.89ZM478.68,959.52c2.58,1.93,25.56-7.45,28.91-9.79,6.04-4.22,20.82-21.84,16.38-29.52-7.87-1.94-14.73,5.53-20.22,10.41-2.42,2.15-27.65,26.96-25.06,28.9ZM518.64,1007.13c.75-.7,3.71-4.72,3.59-5.48-1.05-1.67-2.42-3.24-4.58-2.71-2.43.61-20.5,14.09-18.25,16.19,5.91-.96,14.8-3.9,19.24-8.01ZM508.11,1065.3c-1.61-1.61-8.81,4.28-10.32,5.48-3.83,3.04-11.77,10.01-14.75,13.6-1.02,1.23-2.65,1.77-2.17,3.82,11.23-3.88,24.73-9.92,27.24-22.89Z"/>
  <path d="M1116.55,354.37v762.17h-515.75l27.99-18.35c39.83-20.53,66.11-53.89,90.84-90.16,25.96-38.09,49.43-78.86,68.91-120.82,5.36-11.55,13.41-39.72,27.83-43.03,16.33-3.75,11.49,18.74,8.48,28.09-4.55,14.13-21.83,38.1-23.3,49.76-.97,7.68-1.66,16.72,8.9,14.39,9.6-2.12,22.98-33.62,25.92-42.8,8.18-25.5,17.26-50.45,25.57-75.84,5-15.27,7.86-32.11,12.85-47.12,2.2-6.61,9.34-23.59,16.65-24.77,6.57-1.06,10.78-.02,11.46,6.95,2.45,25.22-13.84,45.81-15.3,70.36,6.18,2.04,8.83-.66,12.44-5.49,9.96-13.33,12.29-43.5,15.49-60.84,4.7-25.46,6.39-51.2,10.35-76.88,3.1-20.05,9.82-43.27,10.8-63.35.43-8.78.27-20.08-5.51-27.29-4.66-5.82-6.5-2.86-12.28-4.08-8.93-1.89-17.65-5.32-19.27-15.63-3.46-22.1,4.91-58.89,10.45-81.01,4.28-17.08,14.4-10.57,17.77,2.64,3.76,14.78-.4,33.68.14,48.93,1.08,6.78,6.73,10.05,13.35,8.03,8.16-2.49,5.56-29.47,6.29-36.22.18-1.64,2.93-12.68,3.51-13.41,3.68-4.65,21.6-2.79,25.2,1.97,3.87,5.11,3.45,25.11,2.74,31.98-1.62,15.67-8.95,32.38-11.66,48.31-3,17.65-5.12,43.13-3.52,60.82.85,9.43,7.65,4.43,11.12-.89,17.31-26.51,19.34-91.95,23.86-124.43,3.85-27.7,13.35-54.92,16.26-81.88.52-4.87-.44-10.25.07-15.19.21-2.02,1.91-3.61,2.12-5.61.66-6.17-10.36-18.06-13.1-23.87,5.92-8.61,9.3-20.42,18.01-26.73,9.15-6.62,21.02-7,25.85,4.67,3.94,9.53,4.1,39.3,3.05,50.4-6.07,64.03-26.6,125.68-33.8,189.72-1.24,11.02-1.14,22.18-1.09,33.25,13.18-13.58,17.56-33.27,18.57-51.75,1.47-26.75-.66-43.02,9.27-69.24,2.5-6.61,7.17-21.18,16.6-16.69,1.41.67,4.62,5.4,4.62,6.29v55.61l2.22,1.16c9.18-4.94,12.39-17.58,13.09-27.29,1.56-21.5-1.23-44.89-.09-66.6,1.34-25.44,14.06-52.03,10.67-77.09-1.12-8.3-6.72-15.13-8.98-22.64-3.6-12-6.22-41.9,6.04-49.55,20.08-12.53,14.18,27.44,19.02,33.2,2.72,3.24,6.55-1.05,9.27-2.18Z"/>
</svg>