<?xml version="1.0" encoding="UTF-8"?>
<svg id="curved-arrow" data-name="curved-arrow" fill="currentColor" xmlns="http://www.w3.org/2000/svg" viewBox="0 0 14.39 15.2">
  <g id="Default">
    <path d="M14.24,6.84L7.55.15s-.1-.08-.16-.11c-.12-.05-.26-.05-.38,0-.06.03-.12.06-.16.11L.15,6.84c-.2.2-.2.51,0,.71.1.1.23.15.35.15s.26-.05.35-.15L6.69,1.71v8.26c0,1.13-.44,2.19-1.24,2.99s-1.86,1.24-2.99,1.24c-.28,0-.5.22-.5.5s.22.5.5.5c1.4,0,2.71-.54,3.7-1.53s1.53-2.3,1.53-3.7V1.71l5.84,5.84c.1.1.23.15.35.15s.26-.05.35-.15c.2-.2.2-.51,0-.71Z"/>
  </g>
</svg>